G04 #@! TF.GenerationSoftware,KiCad,Pcbnew,7.0.8*
G04 #@! TF.CreationDate,2023-12-30T22:15:46-05:00*
G04 #@! TF.ProjectId,Pump_Control_Board,50756d70-5f43-46f6-9e74-726f6c5f426f,rev?*
G04 #@! TF.SameCoordinates,Original*
G04 #@! TF.FileFunction,Copper,L2,Bot*
G04 #@! TF.FilePolarity,Positive*
%FSLAX46Y46*%
G04 Gerber Fmt 4.6, Leading zero omitted, Abs format (unit mm)*
G04 Created by KiCad (PCBNEW 7.0.8) date 2023-12-30 22:15:46*
%MOMM*%
%LPD*%
G01*
G04 APERTURE LIST*
G04 Aperture macros list*
%AMRoundRect*
0 Rectangle with rounded corners*
0 $1 Rounding radius*
0 $2 $3 $4 $5 $6 $7 $8 $9 X,Y pos of 4 corners*
0 Add a 4 corners polygon primitive as box body*
4,1,4,$2,$3,$4,$5,$6,$7,$8,$9,$2,$3,0*
0 Add four circle primitives for the rounded corners*
1,1,$1+$1,$2,$3*
1,1,$1+$1,$4,$5*
1,1,$1+$1,$6,$7*
1,1,$1+$1,$8,$9*
0 Add four rect primitives between the rounded corners*
20,1,$1+$1,$2,$3,$4,$5,0*
20,1,$1+$1,$4,$5,$6,$7,0*
20,1,$1+$1,$6,$7,$8,$9,0*
20,1,$1+$1,$8,$9,$2,$3,0*%
G04 Aperture macros list end*
G04 #@! TA.AperFunction,ComponentPad*
%ADD10R,1.200000X1.200000*%
G04 #@! TD*
G04 #@! TA.AperFunction,ComponentPad*
%ADD11C,1.200000*%
G04 #@! TD*
G04 #@! TA.AperFunction,ComponentPad*
%ADD12C,2.000000*%
G04 #@! TD*
G04 #@! TA.AperFunction,ComponentPad*
%ADD13O,3.048000X1.850000*%
G04 #@! TD*
G04 #@! TA.AperFunction,ComponentPad*
%ADD14R,2.000000X4.600000*%
G04 #@! TD*
G04 #@! TA.AperFunction,ComponentPad*
%ADD15O,2.000000X4.200000*%
G04 #@! TD*
G04 #@! TA.AperFunction,ComponentPad*
%ADD16O,4.200000X2.000000*%
G04 #@! TD*
G04 #@! TA.AperFunction,ComponentPad*
%ADD17RoundRect,0.250000X0.725000X-0.600000X0.725000X0.600000X-0.725000X0.600000X-0.725000X-0.600000X0*%
G04 #@! TD*
G04 #@! TA.AperFunction,ComponentPad*
%ADD18O,1.950000X1.700000*%
G04 #@! TD*
G04 #@! TA.AperFunction,ComponentPad*
%ADD19R,1.700000X1.700000*%
G04 #@! TD*
G04 #@! TA.AperFunction,ComponentPad*
%ADD20O,1.700000X1.700000*%
G04 #@! TD*
G04 #@! TA.AperFunction,ComponentPad*
%ADD21C,3.600000*%
G04 #@! TD*
G04 #@! TA.AperFunction,ConnectorPad*
%ADD22C,5.700000*%
G04 #@! TD*
G04 #@! TA.AperFunction,ComponentPad*
%ADD23C,0.700000*%
G04 #@! TD*
G04 #@! TA.AperFunction,ComponentPad*
%ADD24O,2.400000X0.900000*%
G04 #@! TD*
G04 #@! TA.AperFunction,ComponentPad*
%ADD25O,1.700000X0.900000*%
G04 #@! TD*
G04 #@! TA.AperFunction,WasherPad*
%ADD26C,4.000000*%
G04 #@! TD*
G04 #@! TA.AperFunction,ComponentPad*
%ADD27C,1.800000*%
G04 #@! TD*
G04 #@! TA.AperFunction,ViaPad*
%ADD28C,0.500000*%
G04 #@! TD*
G04 #@! TA.AperFunction,ViaPad*
%ADD29C,0.800000*%
G04 #@! TD*
G04 #@! TA.AperFunction,ViaPad*
%ADD30C,0.600000*%
G04 #@! TD*
G04 #@! TA.AperFunction,Conductor*
%ADD31C,0.300000*%
G04 #@! TD*
G04 #@! TA.AperFunction,Conductor*
%ADD32C,0.600000*%
G04 #@! TD*
G04 #@! TA.AperFunction,Conductor*
%ADD33C,0.200000*%
G04 #@! TD*
G04 #@! TA.AperFunction,Conductor*
%ADD34C,0.250000*%
G04 #@! TD*
G04 APERTURE END LIST*
D10*
X110400000Y-80700000D03*
D11*
X110400000Y-78700000D03*
D12*
X115520000Y-83947000D03*
X122020000Y-83947000D03*
X115520000Y-88447000D03*
X122020000Y-88447000D03*
D13*
X112378000Y-58968000D03*
X124878000Y-58968000D03*
X112378000Y-63968000D03*
X124878000Y-63968000D03*
D14*
X82042000Y-78600000D03*
D15*
X75742000Y-78600000D03*
D16*
X79142000Y-83400000D03*
D17*
X127925000Y-80350000D03*
D18*
X127925000Y-77850000D03*
X127925000Y-75350000D03*
X127925000Y-72850000D03*
D19*
X70600000Y-47060000D03*
D20*
X70600000Y-49600000D03*
X70600000Y-52140000D03*
X70600000Y-54680000D03*
D19*
X129300000Y-47000000D03*
D20*
X129300000Y-49540000D03*
X129300000Y-52080000D03*
X129300000Y-54620000D03*
X129300000Y-57160000D03*
X129300000Y-59700000D03*
D10*
X97400000Y-88772600D03*
D11*
X97400000Y-86772600D03*
D21*
X128000000Y-40000000D03*
D22*
X128000000Y-40000000D03*
D21*
X72000000Y-40000000D03*
D22*
X72000000Y-40000000D03*
D21*
X71882000Y-88000000D03*
D22*
X71882000Y-88000000D03*
D23*
X76349000Y-64026200D03*
X76349000Y-64876200D03*
X76349000Y-65726200D03*
X76349000Y-66576200D03*
X76349000Y-67426200D03*
X76349000Y-68276200D03*
X76349000Y-69126200D03*
X76349000Y-69976200D03*
X74999000Y-69976200D03*
X74999000Y-69126200D03*
X74999000Y-68276200D03*
X74999000Y-67426200D03*
X74999000Y-66576200D03*
X74999000Y-65726200D03*
X74999000Y-64876200D03*
X74999000Y-64026200D03*
D24*
X75369000Y-62676200D03*
D25*
X71989000Y-62676200D03*
D24*
X75369000Y-71326200D03*
D25*
X71989000Y-71326200D03*
D21*
X128000000Y-88000000D03*
D22*
X128000000Y-88000000D03*
D26*
X116700000Y-41350000D03*
X116700000Y-50150000D03*
D27*
X109700000Y-48250000D03*
X109700000Y-45750000D03*
X109700000Y-43250000D03*
D28*
X104500000Y-63400000D03*
X104200000Y-59300000D03*
D29*
X102200000Y-58100000D03*
D30*
X120150000Y-77250000D03*
X94200000Y-86750000D03*
D28*
X109900000Y-75400000D03*
D30*
X100700000Y-87550000D03*
D28*
X101700000Y-73725000D03*
D29*
X117500000Y-72650000D03*
D30*
X85800000Y-85050000D03*
D29*
X117500000Y-73500000D03*
D28*
X93025000Y-64200000D03*
X102200000Y-62850000D03*
D30*
X85270000Y-67090000D03*
D28*
X98600000Y-65050000D03*
X88325000Y-77125000D03*
D30*
X94050000Y-82300000D03*
D28*
X106000000Y-68250000D03*
X120200000Y-68775000D03*
D30*
X90300000Y-70850000D03*
D28*
X105300000Y-72550000D03*
X104250000Y-66500000D03*
X81575000Y-61475000D03*
X92700000Y-75175000D03*
X81525000Y-64275000D03*
D30*
X96774000Y-61595000D03*
D29*
X116650000Y-73500000D03*
D28*
X114525000Y-77275000D03*
X112350000Y-68800000D03*
D30*
X103350000Y-84000000D03*
D29*
X116650000Y-72650000D03*
D28*
X106400000Y-63600000D03*
X106400000Y-59200000D03*
X95350000Y-65075000D03*
X91425000Y-68975000D03*
X93800000Y-71875000D03*
X84800000Y-63400000D03*
X103200000Y-70725000D03*
X95825000Y-70225000D03*
X100850000Y-66950000D03*
X119400000Y-80700000D03*
X99600000Y-67400000D03*
X92400000Y-69900000D03*
D29*
X114900000Y-63000000D03*
X109900000Y-60100000D03*
D28*
X103400000Y-63650000D03*
X96200000Y-67475000D03*
X87300000Y-78300000D03*
D30*
X119950000Y-73700000D03*
X121650000Y-71650000D03*
D28*
X100200000Y-69075000D03*
X101450000Y-67750000D03*
X96275000Y-63925000D03*
X94175000Y-64225000D03*
D31*
X104200000Y-63100000D02*
X104200000Y-59300000D01*
X104500000Y-63400000D02*
X104200000Y-63100000D01*
D32*
X74999000Y-69976200D02*
X74999000Y-70956200D01*
X74999000Y-70956200D02*
X75369000Y-71326200D01*
X74999000Y-63046200D02*
X75369000Y-62676200D01*
X74999000Y-64026200D02*
X74999000Y-63046200D01*
X76349000Y-69976200D02*
X74999000Y-69976200D01*
X74999000Y-64026200D02*
X76349000Y-64026200D01*
D33*
X106400000Y-63600000D02*
X106400000Y-59200000D01*
D31*
X91425000Y-68975000D02*
X91436400Y-68986400D01*
X95350000Y-65075000D02*
X95351600Y-65074800D01*
X95351600Y-65379600D02*
X95350000Y-65075000D01*
X91744800Y-68986400D02*
X91846400Y-68884800D01*
X91413600Y-68986400D02*
X91425000Y-68975000D01*
X91389200Y-68986400D02*
X91413600Y-68986400D01*
X91436400Y-68986400D02*
X91744800Y-68986400D01*
X91846400Y-68884800D02*
X95351600Y-65379600D01*
X95351600Y-65074800D02*
X95351600Y-65024000D01*
D32*
X73900000Y-65350000D02*
X73900000Y-68566000D01*
X74999000Y-64876200D02*
X74373800Y-64876200D01*
X74460200Y-69126200D02*
X74999000Y-69126200D01*
X73900000Y-68566000D02*
X74460200Y-69126200D01*
X74373800Y-64876200D02*
X73900000Y-65350000D01*
D33*
X89700000Y-70200000D02*
X90650000Y-69250000D01*
X93800000Y-71875000D02*
X93825000Y-71875000D01*
X93825000Y-71875000D02*
X93800000Y-71900000D01*
X93800000Y-71900000D02*
X93800000Y-71875000D01*
X88900000Y-64200000D02*
X85600000Y-64200000D01*
X90801471Y-72200000D02*
X93500000Y-72200000D01*
X93500000Y-72200000D02*
X93800000Y-71900000D01*
X90650000Y-65950000D02*
X88900000Y-64200000D01*
X85600000Y-64200000D02*
X84800000Y-63400000D01*
X90801471Y-72200000D02*
X89700000Y-71098529D01*
X89700000Y-71098529D02*
X89700000Y-70200000D01*
X90650000Y-69250000D02*
X90650000Y-65950000D01*
X102700000Y-69900000D02*
X108632000Y-63968000D01*
X103200000Y-70700000D02*
X103200000Y-70725000D01*
X102900000Y-70700000D02*
X102700000Y-70500000D01*
X103200000Y-70725000D02*
X102900000Y-70700000D01*
X112378000Y-63968000D02*
X124878000Y-63968000D01*
X102700000Y-70500000D02*
X102700000Y-69900000D01*
X108632000Y-63968000D02*
X112378000Y-63968000D01*
D31*
X115520000Y-88447000D02*
X122020000Y-88447000D01*
D33*
X95800000Y-70200000D02*
X95750000Y-70200000D01*
X102650000Y-65150000D02*
X103700000Y-65150000D01*
X116000000Y-80700000D02*
X119400000Y-80700000D01*
X92650000Y-70150000D02*
X92700000Y-70200000D01*
X105050000Y-59000000D02*
X109430000Y-54620000D01*
X102400000Y-75200000D02*
X103600000Y-76400000D01*
X111700000Y-76400000D02*
X116000000Y-80700000D01*
X103700000Y-65150000D02*
X105050000Y-63800000D01*
X103600000Y-76400000D02*
X111700000Y-76400000D01*
X92400000Y-69900000D02*
X92650000Y-70150000D01*
X109430000Y-54620000D02*
X129300000Y-54620000D01*
X102400000Y-73450000D02*
X102400000Y-75200000D01*
X105050000Y-63800000D02*
X105050000Y-59000000D01*
X100800000Y-67000000D02*
X100400000Y-67400000D01*
X99400000Y-67600000D02*
X99400000Y-70450000D01*
X100850000Y-66950000D02*
X102650000Y-65150000D01*
X92700000Y-70200000D02*
X95800000Y-70200000D01*
X99600000Y-67400000D02*
X99400000Y-67600000D01*
X100400000Y-67400000D02*
X99600000Y-67400000D01*
X99400000Y-70450000D02*
X102400000Y-73450000D01*
D34*
X111500000Y-62000000D02*
X109900000Y-60400000D01*
X109900000Y-60400000D02*
X109900000Y-60100000D01*
X113900000Y-62000000D02*
X114900000Y-63000000D01*
X111500000Y-62000000D02*
X113900000Y-62000000D01*
D31*
X103400000Y-63650000D02*
X103400000Y-52050000D01*
X103400000Y-52050000D02*
X109700000Y-45750000D01*
D33*
X76123800Y-66576200D02*
X76349000Y-66576200D01*
X75273800Y-67426200D02*
X76123800Y-66576200D01*
X74999000Y-67426200D02*
X75273800Y-67426200D01*
X96500000Y-73250000D02*
X95450000Y-74300000D01*
X96200000Y-67475000D02*
X96275000Y-67475000D01*
X96500000Y-73250000D02*
X96500000Y-67775000D01*
X96200000Y-67400000D02*
X96200000Y-67475000D01*
X88050000Y-78300000D02*
X87300000Y-78300000D01*
X96500000Y-67775000D02*
X96200000Y-67475000D01*
X95450000Y-74300000D02*
X92050000Y-74300000D01*
X96200000Y-67400000D02*
X96200000Y-67400000D01*
X92050000Y-74300000D02*
X88050000Y-78300000D01*
D32*
X126600000Y-80350000D02*
X119950000Y-73700000D01*
X127925000Y-80350000D02*
X126600000Y-80350000D01*
X127925000Y-75350000D02*
X126650000Y-75350000D01*
X123000000Y-71700000D02*
X122950000Y-71650000D01*
X126650000Y-75350000D02*
X123000000Y-71700000D01*
X122500000Y-71650000D02*
X121650000Y-71650000D01*
X122950000Y-71650000D02*
X122500000Y-71650000D01*
D33*
X100200000Y-69075000D02*
X100200000Y-69100000D01*
X100975000Y-67750000D02*
X100200000Y-68525000D01*
X101450000Y-67750000D02*
X100975000Y-67750000D01*
X100200000Y-68525000D02*
X100200000Y-69075000D01*
X101600000Y-67750000D02*
X101450000Y-67750000D01*
X96275000Y-63925000D02*
X94450000Y-63925000D01*
X94450000Y-63925000D02*
X94175000Y-64200000D01*
G04 #@! TA.AperFunction,Conductor*
G36*
X128001423Y-36000566D02*
G01*
X128040986Y-36002394D01*
X128172950Y-36008495D01*
X128372549Y-36018302D01*
X128378048Y-36018819D01*
X128563357Y-36044668D01*
X128749828Y-36072329D01*
X128754871Y-36073294D01*
X128939341Y-36116681D01*
X129120221Y-36161989D01*
X129124797Y-36163327D01*
X129305568Y-36223916D01*
X129480339Y-36286450D01*
X129484471Y-36288100D01*
X129542986Y-36313936D01*
X129659474Y-36365370D01*
X129826973Y-36444592D01*
X129830601Y-36446457D01*
X129998128Y-36539770D01*
X129998142Y-36539778D01*
X130156964Y-36634972D01*
X130160119Y-36636996D01*
X130318603Y-36745559D01*
X130467377Y-36855897D01*
X130470001Y-36857957D01*
X130618027Y-36980876D01*
X130755321Y-37105314D01*
X130757514Y-37107402D01*
X130892596Y-37242484D01*
X130894695Y-37244688D01*
X131019129Y-37381980D01*
X131142034Y-37529989D01*
X131144109Y-37532632D01*
X131254443Y-37681400D01*
X131363002Y-37839879D01*
X131365032Y-37843044D01*
X131460221Y-38001857D01*
X131553527Y-38169371D01*
X131555410Y-38173034D01*
X131634638Y-38340547D01*
X131711899Y-38515527D01*
X131713558Y-38519685D01*
X131776093Y-38694459D01*
X131836662Y-38875173D01*
X131838018Y-38879812D01*
X131883317Y-39060654D01*
X131926696Y-39245090D01*
X131927672Y-39250189D01*
X131955337Y-39436689D01*
X131981177Y-39621933D01*
X131981697Y-39627459D01*
X131991512Y-39827238D01*
X131999434Y-39998575D01*
X131999500Y-40001439D01*
X131999500Y-87998560D01*
X131999434Y-88001424D01*
X131991512Y-88172761D01*
X131981697Y-88372539D01*
X131981177Y-88378065D01*
X131955337Y-88563310D01*
X131927672Y-88749809D01*
X131926696Y-88754908D01*
X131883317Y-88939345D01*
X131838018Y-89120186D01*
X131836662Y-89124825D01*
X131776093Y-89305540D01*
X131713557Y-89480314D01*
X131711899Y-89484470D01*
X131634638Y-89659452D01*
X131555410Y-89826964D01*
X131553527Y-89830627D01*
X131460221Y-89998142D01*
X131365032Y-90156954D01*
X131363002Y-90160118D01*
X131254437Y-90318608D01*
X131144121Y-90467350D01*
X131142021Y-90470025D01*
X131019132Y-90618016D01*
X130894695Y-90755310D01*
X130892596Y-90757514D01*
X130757514Y-90892596D01*
X130755310Y-90894695D01*
X130618016Y-91019132D01*
X130470025Y-91142021D01*
X130467350Y-91144121D01*
X130318608Y-91254437D01*
X130160118Y-91363002D01*
X130156954Y-91365032D01*
X129998142Y-91460221D01*
X129830627Y-91553527D01*
X129826964Y-91555410D01*
X129659452Y-91634638D01*
X129484470Y-91711899D01*
X129480314Y-91713557D01*
X129305540Y-91776093D01*
X129124825Y-91836662D01*
X129120186Y-91838018D01*
X128939345Y-91883317D01*
X128754908Y-91926696D01*
X128749809Y-91927672D01*
X128563310Y-91955337D01*
X128378065Y-91981177D01*
X128372539Y-91981697D01*
X128172761Y-91991512D01*
X128001424Y-91999434D01*
X127998560Y-91999500D01*
X72001440Y-91999500D01*
X71998576Y-91999434D01*
X71827238Y-91991512D01*
X71627459Y-91981697D01*
X71621933Y-91981177D01*
X71436689Y-91955337D01*
X71250189Y-91927672D01*
X71245090Y-91926696D01*
X71060654Y-91883317D01*
X70879812Y-91838018D01*
X70875173Y-91836662D01*
X70694459Y-91776093D01*
X70519685Y-91713558D01*
X70515527Y-91711899D01*
X70340547Y-91634638D01*
X70173034Y-91555410D01*
X70169371Y-91553527D01*
X70001857Y-91460221D01*
X69843044Y-91365032D01*
X69839879Y-91363002D01*
X69730371Y-91287989D01*
X69681392Y-91254437D01*
X69532632Y-91144109D01*
X69529989Y-91142034D01*
X69381980Y-91019129D01*
X69244680Y-90894687D01*
X69242484Y-90892596D01*
X69107402Y-90757514D01*
X69105314Y-90755321D01*
X68980867Y-90618016D01*
X68857957Y-90470001D01*
X68855897Y-90467377D01*
X68745559Y-90318603D01*
X68636995Y-90160118D01*
X68634966Y-90156954D01*
X68539778Y-89998142D01*
X68511570Y-89947500D01*
X68446457Y-89830601D01*
X68444588Y-89826964D01*
X68444050Y-89825827D01*
X68365370Y-89659474D01*
X68288100Y-89484471D01*
X68286450Y-89480339D01*
X68223906Y-89305540D01*
X68163327Y-89124797D01*
X68161989Y-89120221D01*
X68116675Y-88939315D01*
X68073294Y-88754871D01*
X68072329Y-88749828D01*
X68044662Y-88563310D01*
X68018819Y-88378048D01*
X68018302Y-88372549D01*
X68008487Y-88172761D01*
X68000566Y-88001423D01*
X68000533Y-88000002D01*
X68527080Y-88000002D01*
X68546746Y-88362728D01*
X68605517Y-88721214D01*
X68605519Y-88721222D01*
X68702695Y-89071220D01*
X68702697Y-89071227D01*
X68837152Y-89408684D01*
X68837161Y-89408702D01*
X69007316Y-89729647D01*
X69007318Y-89729651D01*
X69211170Y-90030309D01*
X69211177Y-90030319D01*
X69342968Y-90185475D01*
X69342969Y-90185476D01*
X70584265Y-88944179D01*
X70747130Y-89134870D01*
X70937819Y-89297733D01*
X69693889Y-90541663D01*
X69693889Y-90541664D01*
X69710070Y-90556992D01*
X69999266Y-90776832D01*
X69999282Y-90776843D01*
X70310522Y-90964109D01*
X70310535Y-90964116D01*
X70640205Y-91116639D01*
X70640210Y-91116640D01*
X70984461Y-91232632D01*
X71339235Y-91310724D01*
X71700366Y-91349999D01*
X71700374Y-91350000D01*
X72063626Y-91350000D01*
X72063633Y-91349999D01*
X72424764Y-91310724D01*
X72779538Y-91232632D01*
X73123789Y-91116640D01*
X73123794Y-91116639D01*
X73453464Y-90964116D01*
X73453477Y-90964109D01*
X73764717Y-90776843D01*
X73764733Y-90776832D01*
X74053924Y-90556996D01*
X74070109Y-90541663D01*
X72826180Y-89297733D01*
X73016870Y-89134870D01*
X73179733Y-88944180D01*
X74421029Y-90185475D01*
X74421030Y-90185475D01*
X74552822Y-90030319D01*
X74552829Y-90030309D01*
X74756681Y-89729651D01*
X74756683Y-89729647D01*
X74920599Y-89420470D01*
X96299500Y-89420470D01*
X96299501Y-89420476D01*
X96305908Y-89480083D01*
X96356202Y-89614928D01*
X96356206Y-89614935D01*
X96442452Y-89730144D01*
X96442455Y-89730147D01*
X96557664Y-89816393D01*
X96557671Y-89816397D01*
X96692517Y-89866691D01*
X96692516Y-89866691D01*
X96699444Y-89867435D01*
X96752127Y-89873100D01*
X98047872Y-89873099D01*
X98107483Y-89866691D01*
X98242331Y-89816396D01*
X98357546Y-89730146D01*
X98443796Y-89614931D01*
X98494091Y-89480083D01*
X98500500Y-89420473D01*
X98500499Y-88447005D01*
X114014357Y-88447005D01*
X114034890Y-88694812D01*
X114034892Y-88694824D01*
X114095936Y-88935881D01*
X114195826Y-89163606D01*
X114331833Y-89371782D01*
X114331836Y-89371785D01*
X114500256Y-89554738D01*
X114696491Y-89707474D01*
X114915190Y-89825828D01*
X115150386Y-89906571D01*
X115395665Y-89947500D01*
X115644335Y-89947500D01*
X115889614Y-89906571D01*
X116124810Y-89825828D01*
X116343509Y-89707474D01*
X116539744Y-89554738D01*
X116708164Y-89371785D01*
X116844173Y-89163607D01*
X116844175Y-89163601D01*
X116844786Y-89162475D01*
X116845157Y-89162101D01*
X116846978Y-89159314D01*
X116847551Y-89159688D01*
X116894009Y-89112888D01*
X116953837Y-89097500D01*
X120586163Y-89097500D01*
X120653202Y-89117185D01*
X120692561Y-89159615D01*
X120693022Y-89159314D01*
X120694785Y-89162012D01*
X120695214Y-89162475D01*
X120695826Y-89163606D01*
X120831833Y-89371782D01*
X120831836Y-89371785D01*
X121000256Y-89554738D01*
X121196491Y-89707474D01*
X121415190Y-89825828D01*
X121650386Y-89906571D01*
X121895665Y-89947500D01*
X122144335Y-89947500D01*
X122389614Y-89906571D01*
X122624810Y-89825828D01*
X122843509Y-89707474D01*
X123039744Y-89554738D01*
X123208164Y-89371785D01*
X123344173Y-89163607D01*
X123444063Y-88935881D01*
X123505108Y-88694821D01*
X123505109Y-88694812D01*
X123525643Y-88447005D01*
X123525643Y-88446994D01*
X123505109Y-88199187D01*
X123505107Y-88199175D01*
X123454669Y-88000002D01*
X124645080Y-88000002D01*
X124664746Y-88362728D01*
X124723517Y-88721214D01*
X124723519Y-88721222D01*
X124820695Y-89071220D01*
X124820697Y-89071227D01*
X124955152Y-89408684D01*
X124955161Y-89408702D01*
X125125316Y-89729647D01*
X125125318Y-89729651D01*
X125329170Y-90030309D01*
X125329177Y-90030319D01*
X125460968Y-90185475D01*
X125460969Y-90185476D01*
X126702265Y-88944179D01*
X126865130Y-89134870D01*
X127055819Y-89297733D01*
X125811889Y-90541663D01*
X125811889Y-90541664D01*
X125828070Y-90556992D01*
X126117266Y-90776832D01*
X126117282Y-90776843D01*
X126428522Y-90964109D01*
X126428535Y-90964116D01*
X126758205Y-91116639D01*
X126758210Y-91116640D01*
X127102461Y-91232632D01*
X127457235Y-91310724D01*
X127818366Y-91349999D01*
X127818374Y-91350000D01*
X128181626Y-91350000D01*
X128181633Y-91349999D01*
X128542764Y-91310724D01*
X128897538Y-91232632D01*
X129241789Y-91116640D01*
X129241794Y-91116639D01*
X129571464Y-90964116D01*
X129571477Y-90964109D01*
X129882717Y-90776843D01*
X129882733Y-90776832D01*
X130171924Y-90556996D01*
X130188109Y-90541663D01*
X128944180Y-89297733D01*
X129134870Y-89134870D01*
X129297733Y-88944180D01*
X130539029Y-90185475D01*
X130539030Y-90185475D01*
X130670822Y-90030319D01*
X130670829Y-90030309D01*
X130874681Y-89729651D01*
X130874683Y-89729647D01*
X131044838Y-89408702D01*
X131044847Y-89408684D01*
X131179302Y-89071227D01*
X131179304Y-89071220D01*
X131276480Y-88721222D01*
X131276482Y-88721214D01*
X131335253Y-88362728D01*
X131354920Y-88000002D01*
X131354920Y-87999997D01*
X131335253Y-87637271D01*
X131276482Y-87278785D01*
X131276480Y-87278777D01*
X131179304Y-86928779D01*
X131179302Y-86928772D01*
X131044847Y-86591315D01*
X131044838Y-86591297D01*
X130874683Y-86270352D01*
X130874681Y-86270348D01*
X130670829Y-85969690D01*
X130670822Y-85969680D01*
X130539030Y-85814523D01*
X130539029Y-85814522D01*
X129297732Y-87055818D01*
X129134870Y-86865130D01*
X128944179Y-86702265D01*
X130188109Y-85458335D01*
X130188109Y-85458334D01*
X130171929Y-85443007D01*
X129882733Y-85223167D01*
X129882717Y-85223156D01*
X129571477Y-85035890D01*
X129571464Y-85035883D01*
X129241794Y-84883360D01*
X129241789Y-84883359D01*
X128897538Y-84767367D01*
X128542764Y-84689275D01*
X128181633Y-84650000D01*
X127818366Y-84650000D01*
X127457235Y-84689275D01*
X127102461Y-84767367D01*
X126758210Y-84883359D01*
X126758205Y-84883360D01*
X126428535Y-85035883D01*
X126428522Y-85035890D01*
X126117282Y-85223156D01*
X126117266Y-85223167D01*
X125828071Y-85443006D01*
X125828070Y-85443007D01*
X125811889Y-85458334D01*
X125811889Y-85458336D01*
X127055819Y-86702266D01*
X126865130Y-86865130D01*
X126702266Y-87055819D01*
X125460969Y-85814522D01*
X125329170Y-85969690D01*
X125329169Y-85969691D01*
X125125313Y-86270357D01*
X124955161Y-86591297D01*
X124955152Y-86591315D01*
X124820697Y-86928772D01*
X124820695Y-86928779D01*
X124723519Y-87278777D01*
X124723517Y-87278785D01*
X124664746Y-87637271D01*
X124645080Y-87999997D01*
X124645080Y-88000002D01*
X123454669Y-88000002D01*
X123444063Y-87958118D01*
X123344173Y-87730393D01*
X123208166Y-87522217D01*
X123186557Y-87498744D01*
X123039744Y-87339262D01*
X122843509Y-87186526D01*
X122843507Y-87186525D01*
X122843506Y-87186524D01*
X122624811Y-87068172D01*
X122624802Y-87068169D01*
X122389616Y-86987429D01*
X122144335Y-86946500D01*
X121895665Y-86946500D01*
X121650383Y-86987429D01*
X121415197Y-87068169D01*
X121415188Y-87068172D01*
X121196493Y-87186524D01*
X121000257Y-87339261D01*
X120831833Y-87522217D01*
X120695826Y-87730393D01*
X120695214Y-87731525D01*
X120694842Y-87731898D01*
X120693022Y-87734686D01*
X120692448Y-87734311D01*
X120645991Y-87781112D01*
X120586163Y-87796500D01*
X116953837Y-87796500D01*
X116886798Y-87776815D01*
X116847438Y-87734384D01*
X116846978Y-87734686D01*
X116845214Y-87731987D01*
X116844786Y-87731525D01*
X116844173Y-87730393D01*
X116708166Y-87522217D01*
X116686557Y-87498744D01*
X116539744Y-87339262D01*
X116343509Y-87186526D01*
X116343507Y-87186525D01*
X116343506Y-87186524D01*
X116124811Y-87068172D01*
X116124802Y-87068169D01*
X115889616Y-86987429D01*
X115644335Y-86946500D01*
X115395665Y-86946500D01*
X115150383Y-86987429D01*
X114915197Y-87068169D01*
X114915188Y-87068172D01*
X114696493Y-87186524D01*
X114500257Y-87339261D01*
X114331833Y-87522217D01*
X114195826Y-87730393D01*
X114095936Y-87958118D01*
X114034892Y-88199175D01*
X114034890Y-88199187D01*
X114014357Y-88446994D01*
X114014357Y-88447005D01*
X98500499Y-88447005D01*
X98500499Y-88124728D01*
X98494091Y-88065117D01*
X98469617Y-87999500D01*
X98443797Y-87930271D01*
X98443793Y-87930264D01*
X98357547Y-87815055D01*
X98357544Y-87815052D01*
X98242335Y-87728806D01*
X98242328Y-87728802D01*
X98107482Y-87678508D01*
X98107483Y-87678508D01*
X98047883Y-87672101D01*
X98047881Y-87672100D01*
X98047873Y-87672100D01*
X98047865Y-87672100D01*
X97997309Y-87672100D01*
X97930270Y-87652415D01*
X97909628Y-87635781D01*
X97400001Y-87126153D01*
X97400000Y-87126153D01*
X96890370Y-87635781D01*
X96829047Y-87669266D01*
X96802691Y-87672100D01*
X96752130Y-87672100D01*
X96752123Y-87672101D01*
X96692516Y-87678508D01*
X96557671Y-87728802D01*
X96557664Y-87728806D01*
X96442455Y-87815052D01*
X96442452Y-87815055D01*
X96356206Y-87930264D01*
X96356202Y-87930271D01*
X96305908Y-88065117D01*
X96299501Y-88124716D01*
X96299501Y-88124723D01*
X96299500Y-88124735D01*
X96299500Y-89420470D01*
X74920599Y-89420470D01*
X74926838Y-89408702D01*
X74926847Y-89408684D01*
X75061302Y-89071227D01*
X75061304Y-89071220D01*
X75158480Y-88721222D01*
X75158482Y-88721214D01*
X75217253Y-88362728D01*
X75236920Y-88000002D01*
X75236920Y-87999997D01*
X75217253Y-87637271D01*
X75158482Y-87278785D01*
X75158480Y-87278777D01*
X75061304Y-86928779D01*
X75061302Y-86928772D01*
X74999077Y-86772600D01*
X96295287Y-86772600D01*
X96314096Y-86975589D01*
X96314097Y-86975592D01*
X96369883Y-87171663D01*
X96369886Y-87171669D01*
X96460754Y-87354156D01*
X96460755Y-87354157D01*
X96462533Y-87356512D01*
X97046447Y-86772600D01*
X97046447Y-86772599D01*
X97018288Y-86744440D01*
X97096105Y-86744440D01*
X97106454Y-86856121D01*
X97156448Y-86956522D01*
X97239334Y-87032084D01*
X97343920Y-87072600D01*
X97427802Y-87072600D01*
X97510250Y-87057188D01*
X97605610Y-86998143D01*
X97673201Y-86908638D01*
X97703895Y-86800760D01*
X97701286Y-86772600D01*
X97753553Y-86772600D01*
X98337465Y-87356512D01*
X98339247Y-87354152D01*
X98339249Y-87354150D01*
X98430113Y-87171669D01*
X98430116Y-87171663D01*
X98485902Y-86975592D01*
X98485903Y-86975589D01*
X98504713Y-86772600D01*
X98504713Y-86772599D01*
X98485903Y-86569610D01*
X98485902Y-86569607D01*
X98430116Y-86373536D01*
X98430113Y-86373530D01*
X98339244Y-86191041D01*
X98337466Y-86188686D01*
X98337465Y-86188685D01*
X97753553Y-86772599D01*
X97753553Y-86772600D01*
X97701286Y-86772600D01*
X97693546Y-86689079D01*
X97643552Y-86588678D01*
X97560666Y-86513116D01*
X97456080Y-86472600D01*
X97372198Y-86472600D01*
X97289750Y-86488012D01*
X97194390Y-86547057D01*
X97126799Y-86636562D01*
X97096105Y-86744440D01*
X97018288Y-86744440D01*
X96462533Y-86188685D01*
X96460754Y-86191043D01*
X96369886Y-86373530D01*
X96369883Y-86373536D01*
X96314097Y-86569607D01*
X96314096Y-86569610D01*
X96295287Y-86772599D01*
X96295287Y-86772600D01*
X74999077Y-86772600D01*
X74926847Y-86591315D01*
X74926838Y-86591297D01*
X74756683Y-86270352D01*
X74756681Y-86270348D01*
X74552829Y-85969690D01*
X74552822Y-85969680D01*
X74441276Y-85838358D01*
X96819310Y-85838358D01*
X97400000Y-86419047D01*
X97400001Y-86419047D01*
X97980688Y-85838358D01*
X97980687Y-85838357D01*
X97892418Y-85783704D01*
X97892411Y-85783700D01*
X97702321Y-85710060D01*
X97501928Y-85672600D01*
X97298072Y-85672600D01*
X97097678Y-85710060D01*
X96907588Y-85783700D01*
X96907584Y-85783702D01*
X96819310Y-85838358D01*
X74441276Y-85838358D01*
X74421030Y-85814523D01*
X74421029Y-85814522D01*
X73179732Y-87055818D01*
X73016870Y-86865130D01*
X72826179Y-86702265D01*
X74070109Y-85458335D01*
X74070109Y-85458334D01*
X74053929Y-85443007D01*
X73764733Y-85223167D01*
X73764717Y-85223156D01*
X73453477Y-85035890D01*
X73453464Y-85035883D01*
X73123794Y-84883360D01*
X73123789Y-84883359D01*
X72779538Y-84767367D01*
X72424764Y-84689275D01*
X72063633Y-84650000D01*
X71700366Y-84650000D01*
X71339235Y-84689275D01*
X70984461Y-84767367D01*
X70640210Y-84883359D01*
X70640205Y-84883360D01*
X70310535Y-85035883D01*
X70310522Y-85035890D01*
X69999282Y-85223156D01*
X69999266Y-85223167D01*
X69710071Y-85443006D01*
X69710070Y-85443007D01*
X69693889Y-85458334D01*
X69693889Y-85458336D01*
X70937819Y-86702266D01*
X70747130Y-86865130D01*
X70584266Y-87055819D01*
X69342969Y-85814522D01*
X69211170Y-85969690D01*
X69211169Y-85969691D01*
X69007313Y-86270357D01*
X68837161Y-86591297D01*
X68837152Y-86591315D01*
X68702697Y-86928772D01*
X68702695Y-86928779D01*
X68605519Y-87278777D01*
X68605517Y-87278785D01*
X68546746Y-87637271D01*
X68527080Y-87999997D01*
X68527080Y-88000002D01*
X68000533Y-88000002D01*
X68000500Y-87998560D01*
X68000500Y-83149999D01*
X76562976Y-83149999D01*
X76562978Y-83150000D01*
X77608314Y-83150000D01*
X77582507Y-83190156D01*
X77542000Y-83328111D01*
X77542000Y-83471889D01*
X77582507Y-83609844D01*
X77608314Y-83650000D01*
X76562977Y-83650000D01*
X76582916Y-83769492D01*
X76663630Y-84004603D01*
X76663635Y-84004614D01*
X76781942Y-84223228D01*
X76781948Y-84223237D01*
X76934626Y-84419397D01*
X76934635Y-84419407D01*
X77117522Y-84587767D01*
X77117521Y-84587767D01*
X77325632Y-84723732D01*
X77553282Y-84823587D01*
X77794261Y-84884612D01*
X77794269Y-84884614D01*
X77979959Y-84900000D01*
X78892000Y-84900000D01*
X78892000Y-83900000D01*
X79392000Y-83900000D01*
X79392000Y-84900000D01*
X80304041Y-84900000D01*
X80489730Y-84884614D01*
X80489738Y-84884612D01*
X80730717Y-84823587D01*
X80958367Y-84723732D01*
X81166478Y-84587767D01*
X81349364Y-84419407D01*
X81349373Y-84419397D01*
X81502051Y-84223237D01*
X81502057Y-84223228D01*
X81620364Y-84004614D01*
X81620369Y-84004603D01*
X81640142Y-83947005D01*
X114014859Y-83947005D01*
X114035385Y-84194729D01*
X114035387Y-84194738D01*
X114096412Y-84435717D01*
X114196266Y-84663364D01*
X114296564Y-84816882D01*
X114994070Y-84119376D01*
X114996884Y-84132915D01*
X115066442Y-84267156D01*
X115169638Y-84377652D01*
X115298819Y-84456209D01*
X115350002Y-84470549D01*
X114649942Y-85170609D01*
X114696768Y-85207055D01*
X114696770Y-85207056D01*
X114915385Y-85325364D01*
X114915396Y-85325369D01*
X115150506Y-85406083D01*
X115395707Y-85447000D01*
X115644293Y-85447000D01*
X115889493Y-85406083D01*
X116124603Y-85325369D01*
X116124614Y-85325364D01*
X116343228Y-85207057D01*
X116343231Y-85207055D01*
X116390056Y-85170609D01*
X115691568Y-84472121D01*
X115808458Y-84421349D01*
X115925739Y-84325934D01*
X116012928Y-84202415D01*
X116043354Y-84116802D01*
X116743434Y-84816882D01*
X116843731Y-84663369D01*
X116943587Y-84435717D01*
X117004612Y-84194738D01*
X117004614Y-84194729D01*
X117025141Y-83947005D01*
X120514859Y-83947005D01*
X120535385Y-84194729D01*
X120535387Y-84194738D01*
X120596412Y-84435717D01*
X120696266Y-84663364D01*
X120796564Y-84816882D01*
X121494070Y-84119376D01*
X121496884Y-84132915D01*
X121566442Y-84267156D01*
X121669638Y-84377652D01*
X121798819Y-84456209D01*
X121850002Y-84470549D01*
X121149942Y-85170609D01*
X121196768Y-85207055D01*
X121196770Y-85207056D01*
X121415385Y-85325364D01*
X121415396Y-85325369D01*
X121650506Y-85406083D01*
X121895707Y-85447000D01*
X122144293Y-85447000D01*
X122389493Y-85406083D01*
X122624603Y-85325369D01*
X122624614Y-85325364D01*
X122843228Y-85207057D01*
X122843231Y-85207055D01*
X122890056Y-85170609D01*
X122191568Y-84472121D01*
X122308458Y-84421349D01*
X122425739Y-84325934D01*
X122512928Y-84202415D01*
X122543354Y-84116802D01*
X123243434Y-84816882D01*
X123343731Y-84663369D01*
X123443587Y-84435717D01*
X123504612Y-84194738D01*
X123504614Y-84194729D01*
X123525141Y-83947005D01*
X123525141Y-83946994D01*
X123504614Y-83699270D01*
X123504612Y-83699261D01*
X123443587Y-83458282D01*
X123343731Y-83230630D01*
X123243434Y-83077116D01*
X122545929Y-83774622D01*
X122543116Y-83761085D01*
X122473558Y-83626844D01*
X122370362Y-83516348D01*
X122241181Y-83437791D01*
X122189997Y-83423450D01*
X122890057Y-82723390D01*
X122890056Y-82723389D01*
X122843229Y-82686943D01*
X122624614Y-82568635D01*
X122624603Y-82568630D01*
X122389493Y-82487916D01*
X122144293Y-82447000D01*
X121895707Y-82447000D01*
X121650506Y-82487916D01*
X121415396Y-82568630D01*
X121415390Y-82568632D01*
X121196761Y-82686949D01*
X121149942Y-82723388D01*
X121149942Y-82723390D01*
X121848431Y-83421878D01*
X121731542Y-83472651D01*
X121614261Y-83568066D01*
X121527072Y-83691585D01*
X121496645Y-83777197D01*
X120796564Y-83077116D01*
X120696267Y-83230632D01*
X120596412Y-83458282D01*
X120535387Y-83699261D01*
X120535385Y-83699270D01*
X120514859Y-83946994D01*
X120514859Y-83947005D01*
X117025141Y-83947005D01*
X117025141Y-83946994D01*
X117004614Y-83699270D01*
X117004612Y-83699261D01*
X116943587Y-83458282D01*
X116843731Y-83230630D01*
X116743434Y-83077116D01*
X116045929Y-83774622D01*
X116043116Y-83761085D01*
X115973558Y-83626844D01*
X115870362Y-83516348D01*
X115741181Y-83437791D01*
X115689997Y-83423450D01*
X116390057Y-82723390D01*
X116390056Y-82723389D01*
X116343229Y-82686943D01*
X116124614Y-82568635D01*
X116124603Y-82568630D01*
X115889493Y-82487916D01*
X115644293Y-82447000D01*
X115395707Y-82447000D01*
X115150506Y-82487916D01*
X114915396Y-82568630D01*
X114915390Y-82568632D01*
X114696761Y-82686949D01*
X114649942Y-82723388D01*
X114649942Y-82723390D01*
X115348431Y-83421878D01*
X115231542Y-83472651D01*
X115114261Y-83568066D01*
X115027072Y-83691585D01*
X114996645Y-83777197D01*
X114296564Y-83077116D01*
X114196267Y-83230632D01*
X114096412Y-83458282D01*
X114035387Y-83699261D01*
X114035385Y-83699270D01*
X114014859Y-83946994D01*
X114014859Y-83947005D01*
X81640142Y-83947005D01*
X81701083Y-83769492D01*
X81721023Y-83650000D01*
X80675686Y-83650000D01*
X80701493Y-83609844D01*
X80742000Y-83471889D01*
X80742000Y-83328111D01*
X80701493Y-83190156D01*
X80675686Y-83150000D01*
X81721022Y-83150000D01*
X81721023Y-83149999D01*
X81701083Y-83030507D01*
X81620369Y-82795396D01*
X81620364Y-82795385D01*
X81502057Y-82576771D01*
X81502051Y-82576762D01*
X81349373Y-82380602D01*
X81349364Y-82380592D01*
X81166477Y-82212232D01*
X81166478Y-82212232D01*
X80958367Y-82076267D01*
X80730717Y-81976412D01*
X80489738Y-81915387D01*
X80489730Y-81915385D01*
X80304041Y-81900000D01*
X79392000Y-81900000D01*
X79392000Y-82900000D01*
X78892000Y-82900000D01*
X78892000Y-81900000D01*
X77979959Y-81900000D01*
X77794269Y-81915385D01*
X77794261Y-81915387D01*
X77553282Y-81976412D01*
X77325632Y-82076267D01*
X77117521Y-82212232D01*
X76934635Y-82380592D01*
X76934626Y-82380602D01*
X76781948Y-82576762D01*
X76781942Y-82576771D01*
X76663635Y-82795385D01*
X76663630Y-82795396D01*
X76582916Y-83030507D01*
X76562976Y-83149999D01*
X68000500Y-83149999D01*
X68000500Y-79762041D01*
X74242000Y-79762041D01*
X74257385Y-79947730D01*
X74257387Y-79947738D01*
X74318412Y-80188717D01*
X74418267Y-80416367D01*
X74554232Y-80624478D01*
X74722592Y-80807364D01*
X74722602Y-80807373D01*
X74918762Y-80960051D01*
X74918771Y-80960057D01*
X75137385Y-81078364D01*
X75137396Y-81078369D01*
X75372507Y-81159083D01*
X75491999Y-81179023D01*
X75492000Y-81179022D01*
X75492000Y-80133686D01*
X75532156Y-80159493D01*
X75670111Y-80200000D01*
X75813889Y-80200000D01*
X75951844Y-80159493D01*
X75992000Y-80133686D01*
X75992000Y-81179023D01*
X76111492Y-81159083D01*
X76346603Y-81078369D01*
X76346614Y-81078364D01*
X76565228Y-80960057D01*
X76565237Y-80960051D01*
X76580887Y-80947870D01*
X80541500Y-80947870D01*
X80541501Y-80947876D01*
X80547908Y-81007483D01*
X80598202Y-81142328D01*
X80598206Y-81142335D01*
X80684452Y-81257544D01*
X80684455Y-81257547D01*
X80799664Y-81343793D01*
X80799671Y-81343797D01*
X80934517Y-81394091D01*
X80934516Y-81394091D01*
X80941444Y-81394835D01*
X80994127Y-81400500D01*
X83089872Y-81400499D01*
X83149483Y-81394091D01*
X83273408Y-81347870D01*
X109299500Y-81347870D01*
X109299501Y-81347876D01*
X109305908Y-81407483D01*
X109356202Y-81542328D01*
X109356206Y-81542335D01*
X109442452Y-81657544D01*
X109442455Y-81657547D01*
X109557664Y-81743793D01*
X109557671Y-81743797D01*
X109692517Y-81794091D01*
X109692516Y-81794091D01*
X109699444Y-81794835D01*
X109752127Y-81800500D01*
X111047872Y-81800499D01*
X111107483Y-81794091D01*
X111242331Y-81743796D01*
X111357546Y-81657546D01*
X111443796Y-81542331D01*
X111494091Y-81407483D01*
X111500500Y-81347873D01*
X111500499Y-80052128D01*
X111494091Y-79992517D01*
X111483337Y-79963685D01*
X111443797Y-79857671D01*
X111443793Y-79857664D01*
X111357547Y-79742455D01*
X111357544Y-79742452D01*
X111242335Y-79656206D01*
X111242328Y-79656202D01*
X111107482Y-79605908D01*
X111107483Y-79605908D01*
X111047883Y-79599501D01*
X111047881Y-79599500D01*
X111047873Y-79599500D01*
X111047865Y-79599500D01*
X110997309Y-79599500D01*
X110930270Y-79579815D01*
X110909628Y-79563181D01*
X110400001Y-79053553D01*
X110400000Y-79053553D01*
X109890370Y-79563181D01*
X109829047Y-79596666D01*
X109802691Y-79599500D01*
X109752130Y-79599500D01*
X109752123Y-79599501D01*
X109692516Y-79605908D01*
X109557671Y-79656202D01*
X109557664Y-79656206D01*
X109442455Y-79742452D01*
X109442452Y-79742455D01*
X109356206Y-79857664D01*
X109356202Y-79857671D01*
X109305908Y-79992517D01*
X109299501Y-80052116D01*
X109299501Y-80052123D01*
X109299500Y-80052135D01*
X109299500Y-81347870D01*
X83273408Y-81347870D01*
X83284331Y-81343796D01*
X83399546Y-81257546D01*
X83485796Y-81142331D01*
X83536091Y-81007483D01*
X83542500Y-80947873D01*
X83542499Y-76252128D01*
X83536091Y-76192517D01*
X83520419Y-76150499D01*
X83485797Y-76057671D01*
X83485793Y-76057664D01*
X83399547Y-75942455D01*
X83399544Y-75942452D01*
X83284335Y-75856206D01*
X83284328Y-75856202D01*
X83149482Y-75805908D01*
X83149483Y-75805908D01*
X83089883Y-75799501D01*
X83089881Y-75799500D01*
X83089873Y-75799500D01*
X83089864Y-75799500D01*
X80994129Y-75799500D01*
X80994123Y-75799501D01*
X80934516Y-75805908D01*
X80799671Y-75856202D01*
X80799664Y-75856206D01*
X80684455Y-75942452D01*
X80684452Y-75942455D01*
X80598206Y-76057664D01*
X80598202Y-76057671D01*
X80547908Y-76192517D01*
X80542810Y-76239942D01*
X80541501Y-76252123D01*
X80541500Y-76252135D01*
X80541500Y-80947870D01*
X76580887Y-80947870D01*
X76761397Y-80807373D01*
X76761407Y-80807364D01*
X76929767Y-80624478D01*
X77065732Y-80416367D01*
X77165587Y-80188717D01*
X77226612Y-79947738D01*
X77226614Y-79947730D01*
X77242000Y-79762041D01*
X77242000Y-78850000D01*
X76242000Y-78850000D01*
X76242000Y-78350000D01*
X77242000Y-78350000D01*
X77242000Y-77437959D01*
X77226614Y-77252269D01*
X77226612Y-77252261D01*
X77165587Y-77011282D01*
X77065732Y-76783632D01*
X76929767Y-76575521D01*
X76761407Y-76392635D01*
X76761397Y-76392626D01*
X76565237Y-76239948D01*
X76565228Y-76239942D01*
X76346614Y-76121635D01*
X76346603Y-76121630D01*
X76111492Y-76040916D01*
X75992000Y-76020976D01*
X75992000Y-77066313D01*
X75951844Y-77040507D01*
X75813889Y-77000000D01*
X75670111Y-77000000D01*
X75532156Y-77040507D01*
X75492000Y-77066313D01*
X75492000Y-76020976D01*
X75491999Y-76020976D01*
X75372507Y-76040916D01*
X75137396Y-76121630D01*
X75137385Y-76121635D01*
X74918771Y-76239942D01*
X74918762Y-76239948D01*
X74722602Y-76392626D01*
X74722592Y-76392635D01*
X74554232Y-76575521D01*
X74418267Y-76783632D01*
X74318412Y-77011282D01*
X74257387Y-77252261D01*
X74257385Y-77252269D01*
X74242000Y-77437959D01*
X74242000Y-78350000D01*
X75242000Y-78350000D01*
X75242000Y-78850000D01*
X74242000Y-78850000D01*
X74242000Y-79762041D01*
X68000500Y-79762041D01*
X68000500Y-71576200D01*
X70668529Y-71576200D01*
X70731685Y-71746727D01*
X70731687Y-71746731D01*
X70833892Y-71910703D01*
X70967002Y-72050734D01*
X70967003Y-72050735D01*
X71125586Y-72161113D01*
X71303137Y-72237306D01*
X71492394Y-72276200D01*
X71739000Y-72276200D01*
X71739000Y-71626200D01*
X72239000Y-71626200D01*
X72239000Y-72276200D01*
X72437176Y-72276200D01*
X72581221Y-72261552D01*
X72765561Y-72203715D01*
X72765571Y-72203710D01*
X72934498Y-72109948D01*
X72934505Y-72109943D01*
X73081105Y-71984092D01*
X73199368Y-71831309D01*
X73199370Y-71831305D01*
X73284457Y-71657843D01*
X73305596Y-71576200D01*
X72555111Y-71576200D01*
X72594610Y-71551743D01*
X72662201Y-71462238D01*
X72692895Y-71354360D01*
X72682546Y-71242679D01*
X72632552Y-71142278D01*
X72560069Y-71076200D01*
X73309471Y-71076200D01*
X73246314Y-70905672D01*
X73246312Y-70905668D01*
X73144107Y-70741696D01*
X73010997Y-70601665D01*
X73010996Y-70601664D01*
X72852413Y-70491286D01*
X72674862Y-70415093D01*
X72485606Y-70376200D01*
X72239000Y-70376200D01*
X72239000Y-71026200D01*
X71739000Y-71026200D01*
X71739000Y-70376200D01*
X71540824Y-70376200D01*
X71396778Y-70390847D01*
X71212438Y-70448684D01*
X71212428Y-70448689D01*
X71043501Y-70542451D01*
X71043494Y-70542456D01*
X70896894Y-70668307D01*
X70778631Y-70821090D01*
X70778629Y-70821094D01*
X70693542Y-70994556D01*
X70672404Y-71076200D01*
X71422889Y-71076200D01*
X71383390Y-71100657D01*
X71315799Y-71190162D01*
X71285105Y-71298040D01*
X71295454Y-71409721D01*
X71345448Y-71510122D01*
X71417931Y-71576200D01*
X70668529Y-71576200D01*
X68000500Y-71576200D01*
X68000500Y-68656191D01*
X73099500Y-68656191D01*
X73099501Y-68656200D01*
X73108791Y-68696908D01*
X73109955Y-68703763D01*
X73114632Y-68745259D01*
X73128420Y-68784662D01*
X73130345Y-68791345D01*
X73139639Y-68832061D01*
X73157759Y-68869688D01*
X73160421Y-68876114D01*
X73174212Y-68915525D01*
X73196422Y-68950872D01*
X73199787Y-68956959D01*
X73217910Y-68994589D01*
X73243940Y-69027229D01*
X73247966Y-69032904D01*
X73270182Y-69068259D01*
X73270184Y-69068262D01*
X73957940Y-69756018D01*
X73970990Y-69764217D01*
X73993304Y-69778238D01*
X73998957Y-69782249D01*
X74031613Y-69808291D01*
X74069238Y-69826410D01*
X74075320Y-69829772D01*
X74089061Y-69838406D01*
X74135348Y-69890744D01*
X74146403Y-69956354D01*
X74144318Y-69976196D01*
X74144318Y-69976197D01*
X74162995Y-70153900D01*
X74162996Y-70153902D01*
X74218206Y-70323824D01*
X74220850Y-70329760D01*
X74218416Y-70330843D01*
X74232094Y-70387282D01*
X74209226Y-70453303D01*
X74168414Y-70489769D01*
X74073508Y-70542446D01*
X74073494Y-70542456D01*
X73926894Y-70668307D01*
X73808631Y-70821090D01*
X73808629Y-70821094D01*
X73723542Y-70994556D01*
X73702404Y-71076200D01*
X74452889Y-71076200D01*
X74413390Y-71100657D01*
X74345799Y-71190162D01*
X74315105Y-71298040D01*
X74325454Y-71409721D01*
X74375448Y-71510122D01*
X74447931Y-71576200D01*
X73698529Y-71576200D01*
X73761685Y-71746727D01*
X73761687Y-71746731D01*
X73863892Y-71910703D01*
X73997002Y-72050734D01*
X73997003Y-72050735D01*
X74155586Y-72161113D01*
X74333137Y-72237306D01*
X74522394Y-72276200D01*
X75119000Y-72276200D01*
X75119000Y-71626200D01*
X75619000Y-71626200D01*
X75619000Y-72276200D01*
X76167176Y-72276200D01*
X76311221Y-72261552D01*
X76495561Y-72203715D01*
X76495571Y-72203710D01*
X76664498Y-72109948D01*
X76664505Y-72109943D01*
X76811105Y-71984092D01*
X76929368Y-71831309D01*
X76929370Y-71831305D01*
X77014457Y-71657843D01*
X77035596Y-71576200D01*
X76285111Y-71576200D01*
X76324610Y-71551743D01*
X76392201Y-71462238D01*
X76422895Y-71354360D01*
X76412546Y-71242679D01*
X76362552Y-71142278D01*
X76290069Y-71076200D01*
X77039471Y-71076200D01*
X76976314Y-70905672D01*
X76976312Y-70905668D01*
X76874111Y-70741702D01*
X76858533Y-70725314D01*
X76833592Y-70724999D01*
X76827905Y-70728105D01*
X76758213Y-70723121D01*
X76713866Y-70694620D01*
X76207628Y-70188381D01*
X76174143Y-70127058D01*
X76177443Y-70080910D01*
X76188613Y-70104105D01*
X76259992Y-70161027D01*
X76326468Y-70176200D01*
X76371532Y-70176200D01*
X76438008Y-70161027D01*
X76509387Y-70104105D01*
X76549000Y-70021849D01*
X76549000Y-69953189D01*
X76590806Y-69944303D01*
X76660471Y-69949619D01*
X76704266Y-69977912D01*
X77100651Y-70374297D01*
X77129791Y-70323828D01*
X77185003Y-70153902D01*
X77185004Y-70153900D01*
X77203681Y-69976200D01*
X77185004Y-69798499D01*
X77185003Y-69798497D01*
X77129793Y-69628575D01*
X77129791Y-69628571D01*
X77121206Y-69613702D01*
X77104732Y-69545802D01*
X77121204Y-69489701D01*
X77130250Y-69474035D01*
X77185497Y-69304003D01*
X77204185Y-69126200D01*
X77185497Y-68948397D01*
X77130250Y-68778365D01*
X77121494Y-68763199D01*
X77105021Y-68695303D01*
X77121493Y-68639200D01*
X77130250Y-68624035D01*
X77185497Y-68454003D01*
X77204185Y-68276200D01*
X77185497Y-68098397D01*
X77130250Y-67928365D01*
X77121494Y-67913199D01*
X77105021Y-67845303D01*
X77121493Y-67789200D01*
X77130250Y-67774035D01*
X77185497Y-67604003D01*
X77204185Y-67426200D01*
X77185497Y-67248397D01*
X77130250Y-67078365D01*
X77121494Y-67063199D01*
X77105021Y-66995303D01*
X77121493Y-66939200D01*
X77130250Y-66924035D01*
X77185497Y-66754003D01*
X77204185Y-66576200D01*
X77185497Y-66398397D01*
X77130250Y-66228365D01*
X77121494Y-66213199D01*
X77105021Y-66145303D01*
X77121493Y-66089200D01*
X77130250Y-66074035D01*
X77185497Y-65904003D01*
X77204185Y-65726200D01*
X77185497Y-65548397D01*
X77130250Y-65378365D01*
X77121494Y-65363199D01*
X77105021Y-65295303D01*
X77121493Y-65239200D01*
X77130250Y-65224035D01*
X77185497Y-65054003D01*
X77204185Y-64876200D01*
X77185497Y-64698397D01*
X77130250Y-64528365D01*
X77130249Y-64528363D01*
X77121206Y-64512699D01*
X77104733Y-64444798D01*
X77121207Y-64388697D01*
X77129791Y-64373828D01*
X77185003Y-64203902D01*
X77185004Y-64203900D01*
X77203681Y-64026200D01*
X77185004Y-63848499D01*
X77185003Y-63848497D01*
X77129790Y-63678568D01*
X77100651Y-63628100D01*
X76704265Y-64024487D01*
X76642942Y-64057972D01*
X76590803Y-64058096D01*
X76549000Y-64049210D01*
X76549000Y-63980551D01*
X76509387Y-63898295D01*
X76438008Y-63841373D01*
X76371532Y-63826200D01*
X76326468Y-63826200D01*
X76259992Y-63841373D01*
X76188613Y-63898295D01*
X76177836Y-63920672D01*
X76172571Y-63884053D01*
X76201596Y-63820497D01*
X76207628Y-63814019D01*
X76621644Y-63400002D01*
X84044751Y-63400002D01*
X84063685Y-63568056D01*
X84119545Y-63727694D01*
X84119547Y-63727697D01*
X84209518Y-63870884D01*
X84209523Y-63870890D01*
X84329109Y-63990476D01*
X84329115Y-63990481D01*
X84472302Y-64080452D01*
X84472308Y-64080455D01*
X84472310Y-64080456D01*
X84631941Y-64136313D01*
X84650961Y-64138455D01*
X84715373Y-64165520D01*
X84724760Y-64173995D01*
X85144669Y-64593904D01*
X85150020Y-64600005D01*
X85154203Y-64605456D01*
X85169555Y-64625464D01*
X85171718Y-64628282D01*
X85239443Y-64680249D01*
X85297159Y-64724536D01*
X85297161Y-64724536D01*
X85297163Y-64724538D01*
X85352140Y-64747310D01*
X85443238Y-64785044D01*
X85521619Y-64795363D01*
X85599999Y-64805682D01*
X85600000Y-64805682D01*
X85635329Y-64801030D01*
X85643428Y-64800500D01*
X88599903Y-64800500D01*
X88666942Y-64820185D01*
X88687584Y-64836819D01*
X90013181Y-66162416D01*
X90046666Y-66223739D01*
X90049500Y-66250097D01*
X90049500Y-68949902D01*
X90029815Y-69016941D01*
X90013181Y-69037583D01*
X89306096Y-69744668D01*
X89299994Y-69750019D01*
X89271716Y-69771718D01*
X89213638Y-69847410D01*
X89203487Y-69860639D01*
X89180387Y-69890744D01*
X89175462Y-69897162D01*
X89175461Y-69897163D01*
X89114957Y-70043234D01*
X89114955Y-70043239D01*
X89094318Y-70199998D01*
X89094318Y-70200000D01*
X89097964Y-70227697D01*
X89098969Y-70235326D01*
X89099500Y-70243428D01*
X89099500Y-71055100D01*
X89098969Y-71063202D01*
X89094318Y-71098528D01*
X89094318Y-71098529D01*
X89101417Y-71152449D01*
X89114955Y-71255289D01*
X89114956Y-71255291D01*
X89139887Y-71315481D01*
X89175464Y-71401370D01*
X89271718Y-71526811D01*
X89299995Y-71548509D01*
X89306085Y-71553849D01*
X89862179Y-72109943D01*
X90346140Y-72593904D01*
X90351491Y-72600005D01*
X90373189Y-72628282D01*
X90420984Y-72664956D01*
X90498630Y-72724536D01*
X90498633Y-72724537D01*
X90498634Y-72724538D01*
X90571669Y-72754790D01*
X90644709Y-72785044D01*
X90723090Y-72795363D01*
X90801470Y-72805682D01*
X90801471Y-72805682D01*
X90836800Y-72801030D01*
X90844899Y-72800500D01*
X93456572Y-72800500D01*
X93464670Y-72801030D01*
X93500000Y-72805682D01*
X93500001Y-72805682D01*
X93552254Y-72798802D01*
X93656762Y-72785044D01*
X93802836Y-72724538D01*
X93802837Y-72724538D01*
X93802837Y-72724537D01*
X93802841Y-72724536D01*
X93880487Y-72664956D01*
X93921430Y-72633539D01*
X93961816Y-72614556D01*
X93961486Y-72613613D01*
X93968059Y-72611313D01*
X94127690Y-72555456D01*
X94127693Y-72555453D01*
X94127697Y-72555452D01*
X94270884Y-72465481D01*
X94270885Y-72465480D01*
X94270890Y-72465477D01*
X94390477Y-72345890D01*
X94390481Y-72345884D01*
X94480452Y-72202697D01*
X94480454Y-72202694D01*
X94480454Y-72202692D01*
X94480456Y-72202690D01*
X94536313Y-72043059D01*
X94536313Y-72043058D01*
X94536314Y-72043056D01*
X94555249Y-71875002D01*
X94555249Y-71874997D01*
X94536314Y-71706943D01*
X94494611Y-71587763D01*
X94480456Y-71547310D01*
X94480455Y-71547309D01*
X94480454Y-71547305D01*
X94480452Y-71547302D01*
X94390481Y-71404115D01*
X94390476Y-71404109D01*
X94270890Y-71284523D01*
X94270884Y-71284518D01*
X94127697Y-71194547D01*
X94127694Y-71194545D01*
X93968056Y-71138685D01*
X93800003Y-71119751D01*
X93799997Y-71119751D01*
X93631943Y-71138685D01*
X93472305Y-71194545D01*
X93472302Y-71194547D01*
X93329115Y-71284518D01*
X93329109Y-71284523D01*
X93209521Y-71404111D01*
X93123211Y-71541473D01*
X93070877Y-71587763D01*
X93018218Y-71599500D01*
X91101568Y-71599500D01*
X91034529Y-71579815D01*
X91013887Y-71563181D01*
X90336819Y-70886113D01*
X90303334Y-70824790D01*
X90300500Y-70798432D01*
X90300500Y-70500096D01*
X90320185Y-70433057D01*
X90336815Y-70412419D01*
X91039601Y-69709632D01*
X91100922Y-69676149D01*
X91168235Y-69680274D01*
X91256939Y-69711313D01*
X91424997Y-69730249D01*
X91425000Y-69730249D01*
X91425001Y-69730249D01*
X91444257Y-69728079D01*
X91512435Y-69720397D01*
X91581256Y-69732451D01*
X91632636Y-69779800D01*
X91650261Y-69847410D01*
X91649539Y-69857500D01*
X91644751Y-69899996D01*
X91644751Y-69900002D01*
X91663685Y-70068056D01*
X91719545Y-70227694D01*
X91719547Y-70227697D01*
X91809518Y-70370884D01*
X91809523Y-70370890D01*
X91929109Y-70490476D01*
X91929115Y-70490481D01*
X92072302Y-70580452D01*
X92072308Y-70580455D01*
X92072310Y-70580456D01*
X92132922Y-70601665D01*
X92231943Y-70636314D01*
X92256575Y-70639089D01*
X92318179Y-70663933D01*
X92358172Y-70694620D01*
X92397159Y-70724536D01*
X92397161Y-70724536D01*
X92397163Y-70724538D01*
X92438601Y-70741702D01*
X92543238Y-70785044D01*
X92621619Y-70795363D01*
X92699999Y-70805682D01*
X92700000Y-70805682D01*
X92735329Y-70801030D01*
X92743428Y-70800500D01*
X95294550Y-70800500D01*
X95360522Y-70819506D01*
X95497310Y-70905456D01*
X95624539Y-70949975D01*
X95656944Y-70961314D01*
X95789383Y-70976236D01*
X95853797Y-71003302D01*
X95893352Y-71060897D01*
X95899500Y-71099456D01*
X95899500Y-72949903D01*
X95879815Y-73016942D01*
X95863181Y-73037584D01*
X95237584Y-73663181D01*
X95176261Y-73696666D01*
X95149903Y-73699500D01*
X92093428Y-73699500D01*
X92085329Y-73698969D01*
X92050000Y-73694318D01*
X92010639Y-73699500D01*
X91893239Y-73714955D01*
X91893237Y-73714956D01*
X91747160Y-73775463D01*
X91621714Y-73871721D01*
X91600024Y-73899990D01*
X91594671Y-73906094D01*
X87853312Y-77647452D01*
X87791989Y-77680937D01*
X87722297Y-77675953D01*
X87699659Y-77664765D01*
X87627692Y-77619545D01*
X87627691Y-77619544D01*
X87627690Y-77619544D01*
X87589370Y-77606135D01*
X87468056Y-77563685D01*
X87300003Y-77544751D01*
X87299997Y-77544751D01*
X87131943Y-77563685D01*
X86972305Y-77619545D01*
X86972302Y-77619547D01*
X86829115Y-77709518D01*
X86829109Y-77709523D01*
X86709523Y-77829109D01*
X86709518Y-77829115D01*
X86619547Y-77972302D01*
X86619545Y-77972305D01*
X86563685Y-78131943D01*
X86544751Y-78299997D01*
X86544751Y-78300002D01*
X86563685Y-78468056D01*
X86619545Y-78627694D01*
X86619547Y-78627697D01*
X86709518Y-78770884D01*
X86709523Y-78770890D01*
X86829109Y-78890476D01*
X86829115Y-78890481D01*
X86972302Y-78980452D01*
X86972305Y-78980454D01*
X86972309Y-78980455D01*
X86972310Y-78980456D01*
X87028164Y-79000000D01*
X87131943Y-79036314D01*
X87299997Y-79055249D01*
X87300000Y-79055249D01*
X87300003Y-79055249D01*
X87468056Y-79036314D01*
X87468059Y-79036313D01*
X87627690Y-78980456D01*
X87724691Y-78919505D01*
X87790663Y-78900500D01*
X88006572Y-78900500D01*
X88014670Y-78901030D01*
X88050000Y-78905682D01*
X88050001Y-78905682D01*
X88102254Y-78898802D01*
X88206762Y-78885044D01*
X88352841Y-78824536D01*
X88478282Y-78728282D01*
X88499982Y-78700000D01*
X109295287Y-78700000D01*
X109314096Y-78902989D01*
X109314097Y-78902992D01*
X109369883Y-79099063D01*
X109369886Y-79099069D01*
X109460754Y-79281556D01*
X109460755Y-79281557D01*
X109462533Y-79283912D01*
X110046447Y-78700000D01*
X110046447Y-78699999D01*
X110018288Y-78671840D01*
X110096105Y-78671840D01*
X110106454Y-78783521D01*
X110156448Y-78883922D01*
X110239334Y-78959484D01*
X110343920Y-79000000D01*
X110427802Y-79000000D01*
X110510250Y-78984588D01*
X110605610Y-78925543D01*
X110673201Y-78836038D01*
X110703895Y-78728160D01*
X110701286Y-78700000D01*
X110753553Y-78700000D01*
X111337465Y-79283912D01*
X111339247Y-79281552D01*
X111339249Y-79281550D01*
X111430113Y-79099069D01*
X111430116Y-79099063D01*
X111485902Y-78902992D01*
X111485903Y-78902989D01*
X111504713Y-78700000D01*
X111504713Y-78699999D01*
X111485903Y-78497010D01*
X111485902Y-78497007D01*
X111430116Y-78300936D01*
X111430113Y-78300930D01*
X111339244Y-78118441D01*
X111337466Y-78116086D01*
X111337465Y-78116085D01*
X110753553Y-78699999D01*
X110753553Y-78700000D01*
X110701286Y-78700000D01*
X110693546Y-78616479D01*
X110643552Y-78516078D01*
X110560666Y-78440516D01*
X110456080Y-78400000D01*
X110372198Y-78400000D01*
X110289750Y-78415412D01*
X110194390Y-78474457D01*
X110126799Y-78563962D01*
X110096105Y-78671840D01*
X110018288Y-78671840D01*
X109462533Y-78116085D01*
X109460754Y-78118443D01*
X109369886Y-78300930D01*
X109369883Y-78300936D01*
X109314097Y-78497007D01*
X109314096Y-78497010D01*
X109295287Y-78699999D01*
X109295287Y-78700000D01*
X88499982Y-78700000D01*
X88499984Y-78699998D01*
X88505310Y-78693923D01*
X89433475Y-77765758D01*
X109819310Y-77765758D01*
X110400000Y-78346447D01*
X110400001Y-78346447D01*
X110980688Y-77765758D01*
X110980687Y-77765757D01*
X110892418Y-77711104D01*
X110892411Y-77711100D01*
X110702321Y-77637460D01*
X110501928Y-77600000D01*
X110298072Y-77600000D01*
X110097678Y-77637460D01*
X109907588Y-77711100D01*
X109907584Y-77711102D01*
X109819310Y-77765758D01*
X89433475Y-77765758D01*
X92262416Y-74936819D01*
X92323739Y-74903334D01*
X92350097Y-74900500D01*
X95406572Y-74900500D01*
X95414670Y-74901030D01*
X95450000Y-74905682D01*
X95450001Y-74905682D01*
X95502254Y-74898802D01*
X95606762Y-74885044D01*
X95752841Y-74824536D01*
X95821675Y-74771718D01*
X95878282Y-74728282D01*
X95899983Y-74699999D01*
X95905311Y-74693922D01*
X96893922Y-73705311D01*
X96899999Y-73699983D01*
X96928282Y-73678282D01*
X97024536Y-73552841D01*
X97085044Y-73406762D01*
X97100500Y-73289361D01*
X97105682Y-73250000D01*
X97101030Y-73214669D01*
X97100500Y-73206571D01*
X97100500Y-70450000D01*
X98794318Y-70450000D01*
X98799500Y-70489361D01*
X98800901Y-70499999D01*
X98814955Y-70606760D01*
X98814956Y-70606762D01*
X98870847Y-70741696D01*
X98875464Y-70752841D01*
X98971718Y-70878282D01*
X98999995Y-70899980D01*
X99006085Y-70905320D01*
X100446649Y-72345884D01*
X101763181Y-73662416D01*
X101796666Y-73723739D01*
X101799500Y-73750097D01*
X101799500Y-75156571D01*
X101798969Y-75164673D01*
X101794318Y-75199999D01*
X101794318Y-75200000D01*
X101799500Y-75239360D01*
X101814955Y-75356760D01*
X101814956Y-75356762D01*
X101875464Y-75502841D01*
X101971718Y-75628282D01*
X101999995Y-75649980D01*
X102006085Y-75655320D01*
X102590707Y-76239942D01*
X103144669Y-76793904D01*
X103150020Y-76800005D01*
X103171718Y-76828282D01*
X103231951Y-76874500D01*
X103297159Y-76924536D01*
X103297162Y-76924537D01*
X103297163Y-76924538D01*
X103370198Y-76954790D01*
X103443238Y-76985044D01*
X103521619Y-76995363D01*
X103599999Y-77005682D01*
X103600000Y-77005682D01*
X103635329Y-77001030D01*
X103643428Y-77000500D01*
X111399903Y-77000500D01*
X111466942Y-77020185D01*
X111487584Y-77036819D01*
X115544669Y-81093904D01*
X115550020Y-81100005D01*
X115571718Y-81128282D01*
X115627246Y-81170890D01*
X115697159Y-81224536D01*
X115843238Y-81285044D01*
X115921619Y-81295363D01*
X115999999Y-81305682D01*
X116000000Y-81305682D01*
X116035329Y-81301030D01*
X116043428Y-81300500D01*
X118909337Y-81300500D01*
X118975308Y-81319505D01*
X119072310Y-81380456D01*
X119181480Y-81418656D01*
X119231943Y-81436314D01*
X119399997Y-81455249D01*
X119400000Y-81455249D01*
X119400003Y-81455249D01*
X119568056Y-81436314D01*
X119618517Y-81418657D01*
X119727690Y-81380456D01*
X119727692Y-81380454D01*
X119727694Y-81380454D01*
X119727697Y-81380452D01*
X119870884Y-81290481D01*
X119870885Y-81290480D01*
X119870890Y-81290477D01*
X119990477Y-81170890D01*
X119997896Y-81159083D01*
X120080452Y-81027697D01*
X120080454Y-81027694D01*
X120080454Y-81027692D01*
X120080456Y-81027690D01*
X120136313Y-80868059D01*
X120136313Y-80868058D01*
X120136314Y-80868056D01*
X120155249Y-80700002D01*
X120155249Y-80699997D01*
X120136314Y-80531943D01*
X120080454Y-80372305D01*
X120080452Y-80372302D01*
X119990481Y-80229115D01*
X119990476Y-80229109D01*
X119870890Y-80109523D01*
X119870884Y-80109518D01*
X119727697Y-80019547D01*
X119727694Y-80019545D01*
X119568056Y-79963685D01*
X119400003Y-79944751D01*
X119399997Y-79944751D01*
X119231943Y-79963685D01*
X119072307Y-80019545D01*
X119002862Y-80063181D01*
X118976390Y-80079815D01*
X118975309Y-80080494D01*
X118909337Y-80099500D01*
X116300097Y-80099500D01*
X116233058Y-80079815D01*
X116212416Y-80063181D01*
X112155328Y-76006093D01*
X112149974Y-75999988D01*
X112128286Y-75971722D01*
X112128283Y-75971720D01*
X112128282Y-75971718D01*
X112002841Y-75875464D01*
X111956343Y-75856204D01*
X111856762Y-75814956D01*
X111856760Y-75814955D01*
X111788043Y-75805909D01*
X111700001Y-75794318D01*
X111700000Y-75794318D01*
X111664670Y-75798969D01*
X111656572Y-75799500D01*
X103900097Y-75799500D01*
X103833058Y-75779815D01*
X103812416Y-75763181D01*
X103036819Y-74987584D01*
X103003334Y-74926261D01*
X103000500Y-74899903D01*
X103000500Y-73700000D01*
X119144435Y-73700000D01*
X119149110Y-73741496D01*
X119149500Y-73748435D01*
X119149500Y-73790191D01*
X119149501Y-73790200D01*
X119158791Y-73830908D01*
X119159955Y-73837763D01*
X119164632Y-73879259D01*
X119178420Y-73918662D01*
X119180345Y-73925345D01*
X119189639Y-73966061D01*
X119207759Y-74003688D01*
X119210421Y-74010114D01*
X119224212Y-74049525D01*
X119246422Y-74084872D01*
X119249787Y-74090959D01*
X119267910Y-74128589D01*
X119293940Y-74161229D01*
X119297966Y-74166904D01*
X119303660Y-74175965D01*
X119320184Y-74202262D01*
X119352174Y-74234252D01*
X125970184Y-80852262D01*
X126097738Y-80979816D01*
X126133089Y-81002028D01*
X126138765Y-81006055D01*
X126171411Y-81032090D01*
X126171412Y-81032091D01*
X126192548Y-81042269D01*
X126209035Y-81050208D01*
X126215112Y-81053567D01*
X126232635Y-81064577D01*
X126250477Y-81075789D01*
X126289891Y-81089581D01*
X126296320Y-81092244D01*
X126333941Y-81110361D01*
X126374641Y-81119650D01*
X126381328Y-81121576D01*
X126419790Y-81135034D01*
X126476566Y-81175755D01*
X126496542Y-81213071D01*
X126515186Y-81269334D01*
X126607288Y-81418656D01*
X126731344Y-81542712D01*
X126880666Y-81634814D01*
X127047203Y-81689999D01*
X127149991Y-81700500D01*
X128700008Y-81700499D01*
X128802797Y-81689999D01*
X128969334Y-81634814D01*
X129118656Y-81542712D01*
X129242712Y-81418656D01*
X129334814Y-81269334D01*
X129389999Y-81102797D01*
X129400500Y-81000009D01*
X129400499Y-79699992D01*
X129389999Y-79597203D01*
X129334814Y-79430666D01*
X129242712Y-79281344D01*
X129118656Y-79157288D01*
X129037658Y-79107328D01*
X128963879Y-79061821D01*
X128917155Y-79009873D01*
X128905932Y-78940910D01*
X128933776Y-78876828D01*
X128941295Y-78868601D01*
X128985361Y-78824535D01*
X129088495Y-78721401D01*
X129224035Y-78527830D01*
X129323903Y-78313663D01*
X129385063Y-78085408D01*
X129405659Y-77850000D01*
X129385063Y-77614592D01*
X129323903Y-77386337D01*
X129224035Y-77172171D01*
X129224034Y-77172169D01*
X129088494Y-76978597D01*
X128921403Y-76811506D01*
X128865187Y-76772144D01*
X128764401Y-76701573D01*
X128720778Y-76646999D01*
X128713584Y-76577500D01*
X128745106Y-76515145D01*
X128764398Y-76498428D01*
X128921401Y-76388495D01*
X129088495Y-76221401D01*
X129224035Y-76027830D01*
X129323903Y-75813663D01*
X129385063Y-75585408D01*
X129405659Y-75350000D01*
X129385063Y-75114592D01*
X129337429Y-74936819D01*
X129323905Y-74886344D01*
X129323904Y-74886343D01*
X129323903Y-74886337D01*
X129224035Y-74672171D01*
X129088495Y-74478599D01*
X129088494Y-74478597D01*
X128921403Y-74311506D01*
X128865187Y-74272144D01*
X128764401Y-74201573D01*
X128720778Y-74146999D01*
X128713584Y-74077500D01*
X128745106Y-74015145D01*
X128764398Y-73998428D01*
X128921401Y-73888495D01*
X129088495Y-73721401D01*
X129224035Y-73527830D01*
X129323903Y-73313663D01*
X129385063Y-73085408D01*
X129405659Y-72850000D01*
X129385063Y-72614592D01*
X129323903Y-72386337D01*
X129224035Y-72172171D01*
X129224034Y-72172169D01*
X129088494Y-71978597D01*
X128921402Y-71811505D01*
X128727830Y-71675965D01*
X128727828Y-71675964D01*
X128620746Y-71626031D01*
X128513663Y-71576097D01*
X128513659Y-71576096D01*
X128513655Y-71576094D01*
X128285413Y-71514938D01*
X128285403Y-71514936D01*
X128108966Y-71499500D01*
X127741034Y-71499500D01*
X127564596Y-71514936D01*
X127564586Y-71514938D01*
X127336344Y-71576094D01*
X127336335Y-71576098D01*
X127122171Y-71675964D01*
X127122169Y-71675965D01*
X126928597Y-71811505D01*
X126761506Y-71978597D01*
X126761501Y-71978604D01*
X126625967Y-72172165D01*
X126625965Y-72172169D01*
X126526098Y-72386335D01*
X126526094Y-72386344D01*
X126464938Y-72614586D01*
X126464936Y-72614596D01*
X126444341Y-72849999D01*
X126444341Y-72850000D01*
X126464936Y-73085403D01*
X126464938Y-73085413D01*
X126526094Y-73313655D01*
X126526096Y-73313659D01*
X126526097Y-73313663D01*
X126543267Y-73350483D01*
X126625964Y-73527828D01*
X126625965Y-73527830D01*
X126761505Y-73721402D01*
X126928597Y-73888494D01*
X127085595Y-73998425D01*
X127129220Y-74053002D01*
X127136414Y-74122500D01*
X127104891Y-74184855D01*
X127085595Y-74201575D01*
X126928595Y-74311506D01*
X126923766Y-74316336D01*
X126862441Y-74349818D01*
X126792750Y-74344829D01*
X126748409Y-74316331D01*
X123452262Y-71020184D01*
X123452259Y-71020182D01*
X123416904Y-70997966D01*
X123411229Y-70993940D01*
X123378589Y-70967910D01*
X123340959Y-70949787D01*
X123334872Y-70946422D01*
X123299525Y-70924212D01*
X123260114Y-70910421D01*
X123253688Y-70907759D01*
X123216061Y-70889639D01*
X123175345Y-70880345D01*
X123168662Y-70878420D01*
X123129259Y-70864632D01*
X123087763Y-70859955D01*
X123080908Y-70858791D01*
X123040200Y-70849501D01*
X123040196Y-70849500D01*
X123040194Y-70849500D01*
X123040191Y-70849500D01*
X121698436Y-70849500D01*
X121691497Y-70849110D01*
X121662599Y-70845854D01*
X121650002Y-70844435D01*
X121649996Y-70844435D01*
X121470750Y-70864630D01*
X121470745Y-70864631D01*
X121300476Y-70924211D01*
X121147737Y-71020184D01*
X121020184Y-71147737D01*
X120924211Y-71300476D01*
X120864631Y-71470745D01*
X120864630Y-71470750D01*
X120844435Y-71649996D01*
X120844435Y-71650003D01*
X120864630Y-71829249D01*
X120864631Y-71829254D01*
X120924211Y-71999523D01*
X120956390Y-72050735D01*
X121020184Y-72152262D01*
X121147738Y-72279816D01*
X121238080Y-72336582D01*
X121252884Y-72345884D01*
X121300478Y-72375789D01*
X121470745Y-72435368D01*
X121470750Y-72435369D01*
X121649996Y-72455565D01*
X121650000Y-72455565D01*
X121650002Y-72455565D01*
X121662599Y-72454145D01*
X121691497Y-72450889D01*
X121698436Y-72450500D01*
X122455046Y-72450500D01*
X122567060Y-72450500D01*
X122634099Y-72470185D01*
X122654741Y-72486819D01*
X126147738Y-75979816D01*
X126183096Y-76002033D01*
X126188770Y-76006060D01*
X126221411Y-76032090D01*
X126221414Y-76032092D01*
X126259038Y-76050210D01*
X126265123Y-76053574D01*
X126300478Y-76075789D01*
X126339899Y-76089583D01*
X126346307Y-76092238D01*
X126383939Y-76110360D01*
X126424641Y-76119650D01*
X126431328Y-76121576D01*
X126470742Y-76135367D01*
X126470745Y-76135368D01*
X126512241Y-76140043D01*
X126519093Y-76141207D01*
X126559806Y-76150500D01*
X126605046Y-76150500D01*
X126647309Y-76150500D01*
X126714348Y-76170185D01*
X126748884Y-76203376D01*
X126761508Y-76221405D01*
X126928597Y-76388494D01*
X127085595Y-76498425D01*
X127129220Y-76553002D01*
X127136414Y-76622500D01*
X127104891Y-76684855D01*
X127085595Y-76701575D01*
X126928597Y-76811505D01*
X126761506Y-76978597D01*
X126761501Y-76978604D01*
X126625967Y-77172165D01*
X126625965Y-77172169D01*
X126526098Y-77386335D01*
X126526094Y-77386344D01*
X126464938Y-77614586D01*
X126464936Y-77614596D01*
X126444341Y-77849999D01*
X126444341Y-77850000D01*
X126464936Y-78085403D01*
X126464938Y-78085413D01*
X126526094Y-78313655D01*
X126526096Y-78313659D01*
X126526097Y-78313663D01*
X126566357Y-78400000D01*
X126625964Y-78527828D01*
X126625965Y-78527830D01*
X126761505Y-78721402D01*
X126908704Y-78868601D01*
X126942189Y-78929924D01*
X126937205Y-78999616D01*
X126895333Y-79055549D01*
X126886120Y-79061820D01*
X126731347Y-79157285D01*
X126731343Y-79157288D01*
X126723036Y-79165596D01*
X126661713Y-79199081D01*
X126592021Y-79194097D01*
X126547674Y-79165596D01*
X120452262Y-73070184D01*
X120452259Y-73070182D01*
X120416904Y-73047966D01*
X120411229Y-73043940D01*
X120378589Y-73017910D01*
X120340959Y-72999787D01*
X120334872Y-72996422D01*
X120299525Y-72974212D01*
X120260114Y-72960421D01*
X120253688Y-72957759D01*
X120216061Y-72939639D01*
X120175345Y-72930345D01*
X120168662Y-72928420D01*
X120129259Y-72914632D01*
X120087763Y-72909955D01*
X120080908Y-72908791D01*
X120040200Y-72899501D01*
X120040196Y-72899500D01*
X120040194Y-72899500D01*
X120040191Y-72899500D01*
X119998436Y-72899500D01*
X119991497Y-72899110D01*
X119962599Y-72895854D01*
X119950002Y-72894435D01*
X119949998Y-72894435D01*
X119937400Y-72895854D01*
X119908502Y-72899110D01*
X119901564Y-72899500D01*
X119859806Y-72899500D01*
X119853888Y-72900850D01*
X119819089Y-72908791D01*
X119812235Y-72909955D01*
X119770744Y-72914632D01*
X119731341Y-72928419D01*
X119724659Y-72930344D01*
X119683939Y-72939639D01*
X119646320Y-72957755D01*
X119639895Y-72960416D01*
X119600483Y-72974208D01*
X119600476Y-72974212D01*
X119565120Y-72996427D01*
X119559033Y-72999791D01*
X119521413Y-73017909D01*
X119488772Y-73043939D01*
X119483098Y-73047964D01*
X119447742Y-73070180D01*
X119447736Y-73070185D01*
X119418206Y-73099713D01*
X119413023Y-73104345D01*
X119380380Y-73130380D01*
X119354345Y-73163023D01*
X119349713Y-73168206D01*
X119320185Y-73197736D01*
X119320180Y-73197742D01*
X119297964Y-73233098D01*
X119293939Y-73238772D01*
X119267909Y-73271413D01*
X119249791Y-73309033D01*
X119246427Y-73315120D01*
X119224212Y-73350476D01*
X119224208Y-73350483D01*
X119210416Y-73389895D01*
X119207755Y-73396320D01*
X119189639Y-73433939D01*
X119180344Y-73474659D01*
X119178419Y-73481341D01*
X119164632Y-73520744D01*
X119159955Y-73562235D01*
X119158791Y-73569089D01*
X119149500Y-73609806D01*
X119149500Y-73651564D01*
X119149110Y-73658502D01*
X119146882Y-73678280D01*
X119144578Y-73698735D01*
X119144435Y-73700000D01*
X103000500Y-73700000D01*
X103000500Y-73493428D01*
X103001031Y-73485326D01*
X103001990Y-73478046D01*
X103005682Y-73450000D01*
X102999989Y-73406760D01*
X102987732Y-73313655D01*
X102985044Y-73293238D01*
X102924538Y-73147163D01*
X102924538Y-73147162D01*
X102911661Y-73130380D01*
X102852450Y-73053215D01*
X102840366Y-73037466D01*
X102828283Y-73021718D01*
X102800009Y-73000023D01*
X102793912Y-72994677D01*
X100299235Y-70500000D01*
X102094318Y-70500000D01*
X102099500Y-70539361D01*
X102101814Y-70556941D01*
X102114955Y-70656760D01*
X102114956Y-70656762D01*
X102143028Y-70724535D01*
X102175464Y-70802841D01*
X102271718Y-70928282D01*
X102299995Y-70949980D01*
X102306085Y-70955320D01*
X102370947Y-71020182D01*
X102420344Y-71069579D01*
X102436961Y-71090194D01*
X102437631Y-71091236D01*
X102437634Y-71091240D01*
X102484435Y-71133770D01*
X102486579Y-71135814D01*
X102503215Y-71152450D01*
X102512577Y-71159634D01*
X102516524Y-71162933D01*
X102546488Y-71190162D01*
X102554645Y-71197575D01*
X102567243Y-71204067D01*
X102585925Y-71215916D01*
X102597159Y-71224536D01*
X102640962Y-71242679D01*
X102644738Y-71244243D01*
X102649405Y-71246408D01*
X102654168Y-71248862D01*
X102685031Y-71271398D01*
X102729109Y-71315476D01*
X102729115Y-71315481D01*
X102872302Y-71405452D01*
X102872305Y-71405454D01*
X102872309Y-71405455D01*
X102872310Y-71405456D01*
X102884499Y-71409721D01*
X103031943Y-71461314D01*
X103199997Y-71480249D01*
X103200000Y-71480249D01*
X103200003Y-71480249D01*
X103368056Y-71461314D01*
X103368059Y-71461313D01*
X103527690Y-71405456D01*
X103527692Y-71405454D01*
X103527694Y-71405454D01*
X103527697Y-71405452D01*
X103670884Y-71315481D01*
X103670885Y-71315480D01*
X103670890Y-71315477D01*
X103790477Y-71195890D01*
X103794076Y-71190162D01*
X103880452Y-71052697D01*
X103880454Y-71052694D01*
X103880454Y-71052692D01*
X103880456Y-71052690D01*
X103936313Y-70893059D01*
X103936313Y-70893058D01*
X103936314Y-70893056D01*
X103955249Y-70725002D01*
X103955249Y-70724997D01*
X103936314Y-70556943D01*
X103892964Y-70433057D01*
X103880456Y-70397310D01*
X103880455Y-70397309D01*
X103880454Y-70397305D01*
X103880452Y-70397302D01*
X103790481Y-70254115D01*
X103790476Y-70254109D01*
X103670890Y-70134523D01*
X103583810Y-70079807D01*
X103537519Y-70027472D01*
X103526871Y-69958418D01*
X103555246Y-69894570D01*
X103562088Y-69887145D01*
X108844416Y-64604819D01*
X108905739Y-64571334D01*
X108932097Y-64568500D01*
X110405425Y-64568500D01*
X110472464Y-64588185D01*
X110511012Y-64627483D01*
X110584793Y-64747310D01*
X110628757Y-64818713D01*
X110789075Y-65000869D01*
X110789079Y-65000873D01*
X110977870Y-65153311D01*
X111189709Y-65271652D01*
X111189712Y-65271653D01*
X111418507Y-65352491D01*
X111418513Y-65352492D01*
X111657662Y-65393499D01*
X111657670Y-65393499D01*
X111657672Y-65393500D01*
X111657673Y-65393500D01*
X113037559Y-65393500D01*
X113218775Y-65378076D01*
X113218775Y-65378075D01*
X113218782Y-65378075D01*
X113453608Y-65316931D01*
X113453611Y-65316930D01*
X113674713Y-65216986D01*
X113674716Y-65216983D01*
X113674723Y-65216981D01*
X113875765Y-65081100D01*
X114050952Y-64913197D01*
X114167145Y-64756094D01*
X114195243Y-64718104D01*
X114236300Y-64636674D01*
X114284058Y-64585675D01*
X114347022Y-64568500D01*
X122905425Y-64568500D01*
X122972464Y-64588185D01*
X123011012Y-64627483D01*
X123084793Y-64747310D01*
X123128757Y-64818713D01*
X123289075Y-65000869D01*
X123289079Y-65000873D01*
X123477870Y-65153311D01*
X123689709Y-65271652D01*
X123689712Y-65271653D01*
X123918507Y-65352491D01*
X123918513Y-65352492D01*
X124157662Y-65393499D01*
X124157670Y-65393499D01*
X124157672Y-65393500D01*
X124157673Y-65393500D01*
X125537559Y-65393500D01*
X125718775Y-65378076D01*
X125718775Y-65378075D01*
X125718782Y-65378075D01*
X125953608Y-65316931D01*
X125953611Y-65316930D01*
X126174713Y-65216986D01*
X126174716Y-65216983D01*
X126174723Y-65216981D01*
X126375765Y-65081100D01*
X126550952Y-64913197D01*
X126695244Y-64718102D01*
X126804488Y-64501429D01*
X126875543Y-64269409D01*
X126906365Y-64028719D01*
X126904740Y-63990477D01*
X126897762Y-63826200D01*
X126896066Y-63786281D01*
X126892927Y-63771718D01*
X126872157Y-63675344D01*
X126844944Y-63549072D01*
X126843124Y-63544544D01*
X126817969Y-63481943D01*
X126754468Y-63323914D01*
X126627242Y-63117286D01*
X126466925Y-62935131D01*
X126466924Y-62935130D01*
X126466920Y-62935126D01*
X126278129Y-62782688D01*
X126066290Y-62664347D01*
X125837500Y-62583511D01*
X125837486Y-62583507D01*
X125598337Y-62542500D01*
X125598328Y-62542500D01*
X124218446Y-62542500D01*
X124218441Y-62542500D01*
X124037224Y-62557923D01*
X124037222Y-62557924D01*
X123802391Y-62619068D01*
X123802388Y-62619069D01*
X123581286Y-62719013D01*
X123581274Y-62719020D01*
X123380234Y-62854900D01*
X123380232Y-62854902D01*
X123205047Y-63022803D01*
X123205046Y-63022804D01*
X123060756Y-63217895D01*
X123019700Y-63299326D01*
X122971942Y-63350325D01*
X122908978Y-63367500D01*
X115898105Y-63367500D01*
X115831066Y-63347815D01*
X115785311Y-63295011D01*
X115775367Y-63225853D01*
X115780175Y-63205180D01*
X115785674Y-63188256D01*
X115805460Y-63000000D01*
X115785674Y-62811744D01*
X115727179Y-62631716D01*
X115632533Y-62467784D01*
X115505871Y-62327112D01*
X115505870Y-62327111D01*
X115352734Y-62215851D01*
X115352729Y-62215848D01*
X115179807Y-62138857D01*
X115179802Y-62138855D01*
X115034001Y-62107865D01*
X114994646Y-62099500D01*
X114994645Y-62099500D01*
X114935452Y-62099500D01*
X114868413Y-62079815D01*
X114847771Y-62063181D01*
X114625876Y-61841286D01*
X114400803Y-61616212D01*
X114390980Y-61603950D01*
X114390759Y-61604134D01*
X114385786Y-61598123D01*
X114335364Y-61550773D01*
X114324919Y-61540328D01*
X114314475Y-61529883D01*
X114308986Y-61525625D01*
X114304561Y-61521847D01*
X114270582Y-61489938D01*
X114270580Y-61489936D01*
X114270577Y-61489935D01*
X114253029Y-61480288D01*
X114236763Y-61469604D01*
X114220933Y-61457325D01*
X114178168Y-61438818D01*
X114172922Y-61436248D01*
X114132093Y-61413803D01*
X114132092Y-61413802D01*
X114112693Y-61408822D01*
X114094281Y-61402518D01*
X114075898Y-61394562D01*
X114075892Y-61394560D01*
X114029874Y-61387272D01*
X114024152Y-61386087D01*
X113979021Y-61374500D01*
X113979019Y-61374500D01*
X113958984Y-61374500D01*
X113939586Y-61372973D01*
X113932162Y-61371797D01*
X113919805Y-61369840D01*
X113919804Y-61369840D01*
X113873416Y-61374225D01*
X113867578Y-61374500D01*
X111810452Y-61374500D01*
X111743413Y-61354815D01*
X111722771Y-61338181D01*
X110811735Y-60427144D01*
X110778250Y-60365821D01*
X110781486Y-60301142D01*
X110785674Y-60288256D01*
X110790133Y-60245825D01*
X110816715Y-60181214D01*
X110874012Y-60141229D01*
X110943831Y-60138568D01*
X110973927Y-60150535D01*
X111189917Y-60271194D01*
X111418629Y-60352003D01*
X111418637Y-60352005D01*
X111657706Y-60392999D01*
X111657715Y-60393000D01*
X112128000Y-60393000D01*
X112128000Y-59572310D01*
X112136817Y-59577158D01*
X112295886Y-59618000D01*
X112418894Y-59618000D01*
X112540933Y-59602583D01*
X112628000Y-59568110D01*
X112628000Y-60393000D01*
X113037539Y-60393000D01*
X113218692Y-60377582D01*
X113453440Y-60316458D01*
X113674472Y-60216546D01*
X113674480Y-60216541D01*
X113875450Y-60080708D01*
X113875453Y-60080706D01*
X114050575Y-59912864D01*
X114050576Y-59912863D01*
X114194813Y-59717843D01*
X114304021Y-59501242D01*
X114375053Y-59269299D01*
X114381622Y-59218000D01*
X112978728Y-59218000D01*
X113001100Y-59170457D01*
X113031873Y-59009138D01*
X113021561Y-58845234D01*
X112980220Y-58718000D01*
X114380839Y-58718000D01*
X114380839Y-58717999D01*
X122874377Y-58717999D01*
X122874378Y-58718000D01*
X124277272Y-58718000D01*
X124254900Y-58765543D01*
X124224127Y-58926862D01*
X124234439Y-59090766D01*
X124275780Y-59218000D01*
X122875161Y-59218000D01*
X122911536Y-59386782D01*
X122911537Y-59386785D01*
X123001978Y-59611856D01*
X123129161Y-59818415D01*
X123289422Y-60000507D01*
X123289426Y-60000511D01*
X123478144Y-60152890D01*
X123478150Y-60152894D01*
X123689917Y-60271194D01*
X123918629Y-60352003D01*
X123918637Y-60352005D01*
X124157706Y-60392999D01*
X124157715Y-60393000D01*
X124628000Y-60393000D01*
X124628000Y-59572310D01*
X124636817Y-59577158D01*
X124795886Y-59618000D01*
X124918894Y-59618000D01*
X125040933Y-59602583D01*
X125128000Y-59568110D01*
X125128000Y-60393000D01*
X125537539Y-60393000D01*
X125718692Y-60377582D01*
X125953440Y-60316458D01*
X126174472Y-60216546D01*
X126174480Y-60216541D01*
X126375450Y-60080708D01*
X126375453Y-60080706D01*
X126550575Y-59912864D01*
X126550576Y-59912863D01*
X126694813Y-59717843D01*
X126804021Y-59501242D01*
X126875053Y-59269299D01*
X126881622Y-59218000D01*
X125478728Y-59218000D01*
X125501100Y-59170457D01*
X125531873Y-59009138D01*
X125521561Y-58845234D01*
X125480220Y-58718000D01*
X126880839Y-58718000D01*
X126844463Y-58549217D01*
X126844462Y-58549214D01*
X126754021Y-58324143D01*
X126626838Y-58117584D01*
X126466577Y-57935492D01*
X126466573Y-57935488D01*
X126277855Y-57783109D01*
X126277849Y-57783105D01*
X126066082Y-57664805D01*
X125837370Y-57583996D01*
X125837362Y-57583994D01*
X125598293Y-57543000D01*
X125128000Y-57543000D01*
X125128000Y-58363689D01*
X125119183Y-58358842D01*
X124960114Y-58318000D01*
X124837106Y-58318000D01*
X124715067Y-58333417D01*
X124628000Y-58367889D01*
X124628000Y-57543000D01*
X124218461Y-57543000D01*
X124037307Y-57558417D01*
X123802559Y-57619541D01*
X123581527Y-57719453D01*
X123581519Y-57719458D01*
X123380549Y-57855291D01*
X123380546Y-57855293D01*
X123205424Y-58023135D01*
X123205423Y-58023136D01*
X123061186Y-58218156D01*
X122951978Y-58434757D01*
X122880946Y-58666700D01*
X122874377Y-58717999D01*
X114380839Y-58717999D01*
X114344463Y-58549217D01*
X114344462Y-58549214D01*
X114254021Y-58324143D01*
X114126838Y-58117584D01*
X113966577Y-57935492D01*
X113966573Y-57935488D01*
X113777855Y-57783109D01*
X113777849Y-57783105D01*
X113566082Y-57664805D01*
X113337370Y-57583996D01*
X113337362Y-57583994D01*
X113098293Y-57543000D01*
X112628000Y-57543000D01*
X112628000Y-58363689D01*
X112619183Y-58358842D01*
X112460114Y-58318000D01*
X112337106Y-58318000D01*
X112215067Y-58333417D01*
X112128000Y-58367889D01*
X112128000Y-57543000D01*
X111718461Y-57543000D01*
X111537307Y-57558417D01*
X111302559Y-57619541D01*
X111081527Y-57719453D01*
X111081519Y-57719458D01*
X110880549Y-57855291D01*
X110880546Y-57855293D01*
X110705424Y-58023135D01*
X110705423Y-58023136D01*
X110561186Y-58218156D01*
X110451978Y-58434757D01*
X110380946Y-58666700D01*
X110374377Y-58717999D01*
X110374378Y-58718000D01*
X111777272Y-58718000D01*
X111754900Y-58765543D01*
X111724127Y-58926862D01*
X111734439Y-59090766D01*
X111775780Y-59218000D01*
X110375160Y-59218000D01*
X110370975Y-59223183D01*
X110313543Y-59262976D01*
X110243716Y-59265401D01*
X110224065Y-59258563D01*
X110197996Y-59246956D01*
X110179802Y-59238855D01*
X110034001Y-59207865D01*
X109994646Y-59199500D01*
X109805354Y-59199500D01*
X109772897Y-59206398D01*
X109620197Y-59238855D01*
X109620192Y-59238857D01*
X109447270Y-59315848D01*
X109447265Y-59315851D01*
X109294129Y-59427111D01*
X109167466Y-59567785D01*
X109072821Y-59731715D01*
X109072818Y-59731722D01*
X109014943Y-59909844D01*
X109014326Y-59911744D01*
X108994540Y-60100000D01*
X109014326Y-60288256D01*
X109014327Y-60288259D01*
X109072818Y-60468277D01*
X109072821Y-60468284D01*
X109167467Y-60632216D01*
X109262810Y-60738105D01*
X109294129Y-60772888D01*
X109447265Y-60884148D01*
X109447266Y-60884148D01*
X109447270Y-60884151D01*
X109511043Y-60912544D01*
X109520533Y-60916770D01*
X109557778Y-60942368D01*
X110999194Y-62383784D01*
X111009019Y-62396048D01*
X111009240Y-62395866D01*
X111014210Y-62401873D01*
X111014213Y-62401876D01*
X111014214Y-62401877D01*
X111064651Y-62449241D01*
X111085530Y-62470120D01*
X111091004Y-62474366D01*
X111095440Y-62478155D01*
X111128766Y-62509449D01*
X111164160Y-62569689D01*
X111161368Y-62639503D01*
X111121274Y-62696725D01*
X111094963Y-62712831D01*
X111081282Y-62719015D01*
X111081274Y-62719020D01*
X110880234Y-62854900D01*
X110880232Y-62854902D01*
X110705047Y-63022803D01*
X110705046Y-63022804D01*
X110560756Y-63217895D01*
X110519700Y-63299326D01*
X110471942Y-63350325D01*
X110408978Y-63367500D01*
X108675428Y-63367500D01*
X108667329Y-63366969D01*
X108632000Y-63362318D01*
X108631999Y-63362318D01*
X108560600Y-63371718D01*
X108475239Y-63382955D01*
X108475237Y-63382956D01*
X108329157Y-63443464D01*
X108203719Y-63539716D01*
X108182019Y-63567994D01*
X108176668Y-63574096D01*
X102306096Y-69444668D01*
X102299994Y-69450019D01*
X102271716Y-69471718D01*
X102195839Y-69570606D01*
X102175462Y-69597162D01*
X102175461Y-69597163D01*
X102114957Y-69743234D01*
X102114955Y-69743239D01*
X102094318Y-69899998D01*
X102094318Y-69899999D01*
X102098969Y-69935326D01*
X102099500Y-69943428D01*
X102099500Y-70456571D01*
X102098969Y-70464669D01*
X102094318Y-70500000D01*
X100299235Y-70500000D01*
X100036819Y-70237584D01*
X100003334Y-70176261D01*
X100000500Y-70149903D01*
X100000500Y-69946526D01*
X100020185Y-69879487D01*
X100072989Y-69833732D01*
X100138382Y-69823306D01*
X100189481Y-69829063D01*
X100199999Y-69830249D01*
X100200000Y-69830249D01*
X100200003Y-69830249D01*
X100368056Y-69811314D01*
X100399501Y-69800311D01*
X100527690Y-69755456D01*
X100527692Y-69755454D01*
X100527694Y-69755454D01*
X100527697Y-69755452D01*
X100670884Y-69665481D01*
X100670885Y-69665480D01*
X100670890Y-69665477D01*
X100790477Y-69545890D01*
X100790481Y-69545884D01*
X100880452Y-69402697D01*
X100880454Y-69402694D01*
X100880454Y-69402692D01*
X100880456Y-69402690D01*
X100936313Y-69243059D01*
X100936313Y-69243058D01*
X100936314Y-69243056D01*
X100955249Y-69075002D01*
X100955249Y-69074997D01*
X100936313Y-68906942D01*
X100892313Y-68781194D01*
X100888752Y-68711415D01*
X100921672Y-68652561D01*
X101083121Y-68491112D01*
X101144442Y-68457629D01*
X101211755Y-68461754D01*
X101281937Y-68486312D01*
X101281945Y-68486314D01*
X101449997Y-68505249D01*
X101450000Y-68505249D01*
X101450003Y-68505249D01*
X101618056Y-68486314D01*
X101648086Y-68475806D01*
X101777690Y-68430456D01*
X101777692Y-68430454D01*
X101777694Y-68430454D01*
X101777697Y-68430452D01*
X101920884Y-68340481D01*
X101920885Y-68340480D01*
X101920890Y-68340477D01*
X102040477Y-68220890D01*
X102041193Y-68219751D01*
X102130452Y-68077697D01*
X102130454Y-68077694D01*
X102130454Y-68077692D01*
X102130456Y-68077690D01*
X102186313Y-67918059D01*
X102202678Y-67772816D01*
X102205682Y-67750000D01*
X102202678Y-67727183D01*
X102193241Y-67643428D01*
X102186314Y-67581944D01*
X102186313Y-67581941D01*
X102130456Y-67422310D01*
X102130455Y-67422309D01*
X102130454Y-67422305D01*
X102130452Y-67422302D01*
X102040481Y-67279115D01*
X102040476Y-67279109D01*
X101920890Y-67159523D01*
X101787751Y-67075866D01*
X101741460Y-67023531D01*
X101730812Y-66954477D01*
X101759187Y-66890629D01*
X101766028Y-66883205D01*
X102862416Y-65786819D01*
X102923739Y-65753334D01*
X102950097Y-65750500D01*
X103656572Y-65750500D01*
X103664670Y-65751030D01*
X103700000Y-65755682D01*
X103700001Y-65755682D01*
X103752254Y-65748802D01*
X103856762Y-65735044D01*
X104002841Y-65674536D01*
X104012575Y-65667067D01*
X104019742Y-65661568D01*
X104101060Y-65599170D01*
X104128282Y-65578282D01*
X104149983Y-65549999D01*
X104155311Y-65543922D01*
X105443922Y-64255311D01*
X105449999Y-64249983D01*
X105478282Y-64228282D01*
X105574536Y-64102841D01*
X105584020Y-64079942D01*
X105627859Y-64025541D01*
X105694153Y-64003475D01*
X105761853Y-64020753D01*
X105803573Y-64061421D01*
X105809519Y-64070884D01*
X105809524Y-64070891D01*
X105929109Y-64190476D01*
X105929115Y-64190481D01*
X106072302Y-64280452D01*
X106072305Y-64280454D01*
X106072309Y-64280455D01*
X106072310Y-64280456D01*
X106144913Y-64305860D01*
X106231943Y-64336314D01*
X106399997Y-64355249D01*
X106400000Y-64355249D01*
X106400003Y-64355249D01*
X106568056Y-64336314D01*
X106613230Y-64320507D01*
X106727690Y-64280456D01*
X106727692Y-64280454D01*
X106727694Y-64280454D01*
X106727697Y-64280452D01*
X106870884Y-64190481D01*
X106870885Y-64190480D01*
X106870890Y-64190477D01*
X106990477Y-64070890D01*
X107019634Y-64024487D01*
X107080452Y-63927697D01*
X107080454Y-63927694D01*
X107080454Y-63927692D01*
X107080456Y-63927690D01*
X107136313Y-63768059D01*
X107136313Y-63768058D01*
X107136314Y-63768056D01*
X107155249Y-63600002D01*
X107155249Y-63599997D01*
X107136314Y-63431943D01*
X107122904Y-63393621D01*
X107080456Y-63272310D01*
X107055092Y-63231943D01*
X107019506Y-63175308D01*
X107000500Y-63109336D01*
X107000500Y-59690662D01*
X107019507Y-59624689D01*
X107033397Y-59602583D01*
X107080456Y-59527690D01*
X107136313Y-59368059D01*
X107155249Y-59200000D01*
X107155193Y-59199500D01*
X107136314Y-59031943D01*
X107080454Y-58872305D01*
X107080452Y-58872302D01*
X106990481Y-58729115D01*
X106990476Y-58729109D01*
X106870890Y-58609523D01*
X106870884Y-58609518D01*
X106727697Y-58519547D01*
X106727691Y-58519544D01*
X106681710Y-58503455D01*
X106656165Y-58494516D01*
X106599390Y-58453795D01*
X106573642Y-58388843D01*
X106587098Y-58320281D01*
X106609436Y-58289797D01*
X109642416Y-55256819D01*
X109703739Y-55223334D01*
X109730097Y-55220500D01*
X128010909Y-55220500D01*
X128077948Y-55240185D01*
X128123292Y-55292097D01*
X128125965Y-55297830D01*
X128125966Y-55297831D01*
X128261501Y-55491395D01*
X128261506Y-55491402D01*
X128428597Y-55658493D01*
X128428603Y-55658498D01*
X128614158Y-55788425D01*
X128657783Y-55843002D01*
X128664977Y-55912500D01*
X128633454Y-55974855D01*
X128614158Y-55991575D01*
X128428597Y-56121505D01*
X128261505Y-56288597D01*
X128125965Y-56482169D01*
X128125964Y-56482171D01*
X128026098Y-56696335D01*
X128026094Y-56696344D01*
X127964938Y-56924586D01*
X127964936Y-56924596D01*
X127944341Y-57159999D01*
X127944341Y-57160000D01*
X127964936Y-57395403D01*
X127964938Y-57395413D01*
X128026094Y-57623655D01*
X128026096Y-57623659D01*
X128026097Y-57623663D01*
X128045282Y-57664805D01*
X128125965Y-57837830D01*
X128125967Y-57837834D01*
X128234281Y-57992521D01*
X128261505Y-58031401D01*
X128428599Y-58198495D01*
X128602527Y-58320281D01*
X128614594Y-58328730D01*
X128658219Y-58383307D01*
X128665413Y-58452805D01*
X128633890Y-58515160D01*
X128614595Y-58531880D01*
X128428922Y-58661890D01*
X128428920Y-58661891D01*
X128261891Y-58828920D01*
X128261886Y-58828926D01*
X128126400Y-59022420D01*
X128126399Y-59022422D01*
X128026570Y-59236507D01*
X128026567Y-59236513D01*
X127969364Y-59449999D01*
X127969364Y-59450000D01*
X128866314Y-59450000D01*
X128840507Y-59490156D01*
X128800000Y-59628111D01*
X128800000Y-59771889D01*
X128840507Y-59909844D01*
X128866314Y-59950000D01*
X127969364Y-59950000D01*
X128026567Y-60163486D01*
X128026570Y-60163492D01*
X128126399Y-60377578D01*
X128261894Y-60571082D01*
X128428917Y-60738105D01*
X128622421Y-60873600D01*
X128836507Y-60973429D01*
X128836516Y-60973433D01*
X129050000Y-61030634D01*
X129050000Y-60135501D01*
X129157685Y-60184680D01*
X129264237Y-60200000D01*
X129335763Y-60200000D01*
X129442315Y-60184680D01*
X129550000Y-60135501D01*
X129550000Y-61030633D01*
X129763483Y-60973433D01*
X129763492Y-60973429D01*
X129977578Y-60873600D01*
X130171082Y-60738105D01*
X130338105Y-60571082D01*
X130473600Y-60377578D01*
X130573429Y-60163492D01*
X130573432Y-60163486D01*
X130630636Y-59950000D01*
X129733686Y-59950000D01*
X129759493Y-59909844D01*
X129800000Y-59771889D01*
X129800000Y-59628111D01*
X129759493Y-59490156D01*
X129733686Y-59450000D01*
X130630636Y-59450000D01*
X130630635Y-59449999D01*
X130573432Y-59236513D01*
X130573429Y-59236507D01*
X130473600Y-59022422D01*
X130473599Y-59022420D01*
X130338113Y-58828926D01*
X130338108Y-58828920D01*
X130171078Y-58661890D01*
X129985405Y-58531879D01*
X129941780Y-58477302D01*
X129934588Y-58407804D01*
X129966110Y-58345449D01*
X129985406Y-58328730D01*
X129991957Y-58324143D01*
X130171401Y-58198495D01*
X130338495Y-58031401D01*
X130474035Y-57837830D01*
X130573903Y-57623663D01*
X130635063Y-57395408D01*
X130655659Y-57160000D01*
X130635063Y-56924592D01*
X130573903Y-56696337D01*
X130474035Y-56482171D01*
X130338495Y-56288599D01*
X130338494Y-56288597D01*
X130171402Y-56121506D01*
X130171396Y-56121501D01*
X129985842Y-55991575D01*
X129942217Y-55936998D01*
X129935023Y-55867500D01*
X129966546Y-55805145D01*
X129985842Y-55788425D01*
X130086269Y-55718105D01*
X130171401Y-55658495D01*
X130338495Y-55491401D01*
X130474035Y-55297830D01*
X130573903Y-55083663D01*
X130635063Y-54855408D01*
X130655659Y-54620000D01*
X130635063Y-54384592D01*
X130573903Y-54156337D01*
X130474035Y-53942171D01*
X130474034Y-53942169D01*
X130338494Y-53748597D01*
X130171402Y-53581506D01*
X130171396Y-53581501D01*
X129985842Y-53451575D01*
X129942217Y-53396998D01*
X129935023Y-53327500D01*
X129966546Y-53265145D01*
X129985842Y-53248425D01*
X130085715Y-53178493D01*
X130171401Y-53118495D01*
X130338495Y-52951401D01*
X130474035Y-52757830D01*
X130573903Y-52543663D01*
X130635063Y-52315408D01*
X130655659Y-52080000D01*
X130635063Y-51844592D01*
X130575598Y-51622663D01*
X130573905Y-51616344D01*
X130573904Y-51616343D01*
X130573903Y-51616337D01*
X130474035Y-51402171D01*
X130442413Y-51357009D01*
X130338494Y-51208597D01*
X130171402Y-51041506D01*
X130171396Y-51041501D01*
X129985842Y-50911575D01*
X129942217Y-50856998D01*
X129935023Y-50787500D01*
X129966546Y-50725145D01*
X129985842Y-50708425D01*
X130085715Y-50638493D01*
X130171401Y-50578495D01*
X130338495Y-50411401D01*
X130474035Y-50217830D01*
X130573903Y-50003663D01*
X130635063Y-49775408D01*
X130655659Y-49540000D01*
X130635063Y-49304592D01*
X130573903Y-49076337D01*
X130474035Y-48862171D01*
X130380507Y-48728599D01*
X130338496Y-48668600D01*
X130338495Y-48668599D01*
X130216567Y-48546671D01*
X130183084Y-48485351D01*
X130188068Y-48415659D01*
X130229939Y-48359725D01*
X130260915Y-48342810D01*
X130392331Y-48293796D01*
X130507546Y-48207546D01*
X130593796Y-48092331D01*
X130644091Y-47957483D01*
X130650500Y-47897873D01*
X130650499Y-46102128D01*
X130644091Y-46042517D01*
X130621260Y-45981305D01*
X130593797Y-45907671D01*
X130593793Y-45907664D01*
X130507547Y-45792455D01*
X130507544Y-45792452D01*
X130392335Y-45706206D01*
X130392328Y-45706202D01*
X130257482Y-45655908D01*
X130257483Y-45655908D01*
X130197883Y-45649501D01*
X130197881Y-45649500D01*
X130197873Y-45649500D01*
X130197864Y-45649500D01*
X128402129Y-45649500D01*
X128402123Y-45649501D01*
X128342516Y-45655908D01*
X128207671Y-45706202D01*
X128207664Y-45706206D01*
X128092455Y-45792452D01*
X128092452Y-45792455D01*
X128006206Y-45907664D01*
X128006202Y-45907671D01*
X127955908Y-46042517D01*
X127949683Y-46100425D01*
X127949501Y-46102123D01*
X127949500Y-46102135D01*
X127949500Y-47897870D01*
X127949501Y-47897876D01*
X127955908Y-47957483D01*
X128006202Y-48092328D01*
X128006206Y-48092335D01*
X128092452Y-48207544D01*
X128092455Y-48207547D01*
X128207664Y-48293793D01*
X128207671Y-48293797D01*
X128339081Y-48342810D01*
X128395015Y-48384681D01*
X128419432Y-48450145D01*
X128404580Y-48518418D01*
X128383430Y-48546673D01*
X128261503Y-48668600D01*
X128125965Y-48862169D01*
X128125964Y-48862171D01*
X128026098Y-49076335D01*
X128026094Y-49076344D01*
X127964938Y-49304586D01*
X127964936Y-49304596D01*
X127944341Y-49539999D01*
X127944341Y-49540000D01*
X127964936Y-49775403D01*
X127964938Y-49775413D01*
X128026094Y-50003655D01*
X128026096Y-50003659D01*
X128026097Y-50003663D01*
X128094335Y-50150000D01*
X128125965Y-50217830D01*
X128125967Y-50217834D01*
X128261501Y-50411395D01*
X128261506Y-50411402D01*
X128428597Y-50578493D01*
X128428603Y-50578498D01*
X128614158Y-50708425D01*
X128657783Y-50763002D01*
X128664977Y-50832500D01*
X128633454Y-50894855D01*
X128614158Y-50911575D01*
X128428597Y-51041505D01*
X128261505Y-51208597D01*
X128125965Y-51402169D01*
X128125964Y-51402171D01*
X128026098Y-51616335D01*
X128026094Y-51616344D01*
X127964938Y-51844586D01*
X127964936Y-51844596D01*
X127944341Y-52079999D01*
X127944341Y-52080000D01*
X127964936Y-52315403D01*
X127964938Y-52315413D01*
X128026094Y-52543655D01*
X128026096Y-52543659D01*
X128026097Y-52543663D01*
X128057528Y-52611066D01*
X128125965Y-52757830D01*
X128125967Y-52757834D01*
X128261501Y-52951395D01*
X128261506Y-52951402D01*
X128428597Y-53118493D01*
X128428603Y-53118498D01*
X128614158Y-53248425D01*
X128657783Y-53303002D01*
X128664977Y-53372500D01*
X128633454Y-53434855D01*
X128614158Y-53451575D01*
X128428597Y-53581505D01*
X128261506Y-53748596D01*
X128125965Y-53942170D01*
X128125962Y-53942175D01*
X128123289Y-53947909D01*
X128077115Y-54000346D01*
X128010909Y-54019500D01*
X109473428Y-54019500D01*
X109465329Y-54018969D01*
X109430000Y-54014318D01*
X109390639Y-54019500D01*
X109273239Y-54034955D01*
X109273237Y-54034956D01*
X109127157Y-54095464D01*
X109001719Y-54191716D01*
X108980019Y-54219994D01*
X108974668Y-54226096D01*
X104656096Y-58544668D01*
X104649994Y-58550019D01*
X104621718Y-58571717D01*
X104617001Y-58576434D01*
X104555675Y-58609913D01*
X104488374Y-58605786D01*
X104368057Y-58563686D01*
X104200003Y-58544751D01*
X104200001Y-58544751D01*
X104200000Y-58544751D01*
X104195975Y-58545204D01*
X104188380Y-58546060D01*
X104119558Y-58534003D01*
X104068180Y-58486652D01*
X104050500Y-58422839D01*
X104050500Y-52370807D01*
X104070185Y-52303768D01*
X104086814Y-52283131D01*
X106219939Y-50150005D01*
X114194556Y-50150005D01*
X114214310Y-50464004D01*
X114214311Y-50464011D01*
X114273270Y-50773083D01*
X114370497Y-51072316D01*
X114370499Y-51072321D01*
X114504461Y-51357003D01*
X114504464Y-51357009D01*
X114673051Y-51622661D01*
X114673054Y-51622665D01*
X114873606Y-51865090D01*
X114873608Y-51865092D01*
X114873610Y-51865094D01*
X114926805Y-51915047D01*
X115102968Y-52080476D01*
X115102978Y-52080484D01*
X115357504Y-52265408D01*
X115357509Y-52265410D01*
X115357516Y-52265416D01*
X115633234Y-52416994D01*
X115633239Y-52416996D01*
X115633241Y-52416997D01*
X115633242Y-52416998D01*
X115925771Y-52532818D01*
X115925774Y-52532819D01*
X115968013Y-52543664D01*
X116230527Y-52611066D01*
X116296010Y-52619338D01*
X116542670Y-52650499D01*
X116542679Y-52650499D01*
X116542682Y-52650500D01*
X116542684Y-52650500D01*
X116857316Y-52650500D01*
X116857318Y-52650500D01*
X116857321Y-52650499D01*
X116857329Y-52650499D01*
X117043593Y-52626968D01*
X117169473Y-52611066D01*
X117474225Y-52532819D01*
X117474228Y-52532818D01*
X117766757Y-52416998D01*
X117766758Y-52416997D01*
X117766756Y-52416997D01*
X117766766Y-52416994D01*
X118042484Y-52265416D01*
X118297030Y-52080478D01*
X118526390Y-51865094D01*
X118726947Y-51622663D01*
X118895537Y-51357007D01*
X119029503Y-51072315D01*
X119126731Y-50773079D01*
X119185688Y-50464015D01*
X119188999Y-50411395D01*
X119205444Y-50150005D01*
X119205444Y-50149994D01*
X119185689Y-49835995D01*
X119185688Y-49835988D01*
X119185688Y-49835985D01*
X119126731Y-49526921D01*
X119029503Y-49227685D01*
X118895537Y-48942993D01*
X118844245Y-48862169D01*
X118726948Y-48677338D01*
X118726945Y-48677334D01*
X118526393Y-48434909D01*
X118526391Y-48434907D01*
X118452976Y-48365965D01*
X118297030Y-48219522D01*
X118297027Y-48219520D01*
X118297021Y-48219515D01*
X118042495Y-48034591D01*
X118042488Y-48034586D01*
X118042484Y-48034584D01*
X117766766Y-47883006D01*
X117766763Y-47883004D01*
X117766758Y-47883002D01*
X117766757Y-47883001D01*
X117474228Y-47767181D01*
X117474225Y-47767180D01*
X117169476Y-47688934D01*
X117169463Y-47688932D01*
X116857329Y-47649500D01*
X116857318Y-47649500D01*
X116542682Y-47649500D01*
X116542670Y-47649500D01*
X116230536Y-47688932D01*
X116230523Y-47688934D01*
X115925774Y-47767180D01*
X115925771Y-47767181D01*
X115633242Y-47883001D01*
X115633241Y-47883002D01*
X115357516Y-48034584D01*
X115357504Y-48034591D01*
X115102978Y-48219515D01*
X115102968Y-48219523D01*
X114873608Y-48434907D01*
X114873606Y-48434909D01*
X114673054Y-48677334D01*
X114673051Y-48677338D01*
X114504464Y-48942990D01*
X114504461Y-48942996D01*
X114370499Y-49227678D01*
X114370497Y-49227683D01*
X114273270Y-49526916D01*
X114214311Y-49835988D01*
X114214310Y-49835995D01*
X114194556Y-50149994D01*
X114194556Y-50150005D01*
X106219939Y-50150005D01*
X108092163Y-48277781D01*
X108153484Y-48244298D01*
X108223176Y-48249282D01*
X108279109Y-48291154D01*
X108303418Y-48355224D01*
X108313864Y-48481296D01*
X108313866Y-48481308D01*
X108370842Y-48706300D01*
X108464075Y-48918848D01*
X108591016Y-49113147D01*
X108591019Y-49113151D01*
X108591021Y-49113153D01*
X108748216Y-49283913D01*
X108748219Y-49283915D01*
X108748222Y-49283918D01*
X108931365Y-49426464D01*
X108931371Y-49426468D01*
X108931374Y-49426470D01*
X109135497Y-49536936D01*
X109249487Y-49576068D01*
X109355015Y-49612297D01*
X109355017Y-49612297D01*
X109355019Y-49612298D01*
X109583951Y-49650500D01*
X109583952Y-49650500D01*
X109816048Y-49650500D01*
X109816049Y-49650500D01*
X110044981Y-49612298D01*
X110264503Y-49536936D01*
X110468626Y-49426470D01*
X110651784Y-49283913D01*
X110808979Y-49113153D01*
X110935924Y-48918849D01*
X111029157Y-48706300D01*
X111086134Y-48481305D01*
X111089169Y-48444681D01*
X111105300Y-48250006D01*
X111105300Y-48249993D01*
X111086135Y-48018702D01*
X111086133Y-48018691D01*
X111029157Y-47793699D01*
X110935924Y-47581151D01*
X110808983Y-47386852D01*
X110808980Y-47386849D01*
X110808979Y-47386847D01*
X110651784Y-47216087D01*
X110499876Y-47097852D01*
X110459064Y-47041143D01*
X110455389Y-46971370D01*
X110490020Y-46910687D01*
X110499871Y-46902150D01*
X110651784Y-46783913D01*
X110808979Y-46613153D01*
X110935924Y-46418849D01*
X111029157Y-46206300D01*
X111086134Y-45981305D01*
X111087264Y-45967669D01*
X111105300Y-45750006D01*
X111105300Y-45749993D01*
X111086135Y-45518702D01*
X111086133Y-45518691D01*
X111029157Y-45293699D01*
X110935924Y-45081151D01*
X110808983Y-44886852D01*
X110808980Y-44886849D01*
X110808979Y-44886847D01*
X110651784Y-44716087D01*
X110612699Y-44685666D01*
X110499469Y-44597535D01*
X110458656Y-44540825D01*
X110454982Y-44471052D01*
X110489614Y-44410369D01*
X110498794Y-44402413D01*
X110498798Y-44402351D01*
X109832533Y-43736086D01*
X109842315Y-43734680D01*
X109973100Y-43674952D01*
X110081761Y-43580798D01*
X110159493Y-43459844D01*
X110183076Y-43379524D01*
X110851186Y-44047634D01*
X110935484Y-43918606D01*
X111028682Y-43706135D01*
X111085638Y-43481218D01*
X111104798Y-43250005D01*
X111104798Y-43249994D01*
X111085638Y-43018781D01*
X111028682Y-42793864D01*
X110935483Y-42581390D01*
X110851186Y-42452364D01*
X110183076Y-43120475D01*
X110159493Y-43040156D01*
X110081761Y-42919202D01*
X109973100Y-42825048D01*
X109842315Y-42765320D01*
X109832534Y-42763913D01*
X110498799Y-42097648D01*
X110498799Y-42097647D01*
X110468349Y-42073949D01*
X110264302Y-41963523D01*
X110264293Y-41963520D01*
X110044860Y-41888188D01*
X109816007Y-41850000D01*
X109583993Y-41850000D01*
X109355139Y-41888188D01*
X109135706Y-41963520D01*
X109135698Y-41963523D01*
X108931644Y-42073952D01*
X108901200Y-42097646D01*
X108901200Y-42097647D01*
X109567466Y-42763913D01*
X109557685Y-42765320D01*
X109426900Y-42825048D01*
X109318239Y-42919202D01*
X109240507Y-43040156D01*
X109216923Y-43120476D01*
X108548812Y-42452365D01*
X108464516Y-42581391D01*
X108464514Y-42581395D01*
X108371317Y-42793864D01*
X108314361Y-43018781D01*
X108295202Y-43249994D01*
X108295202Y-43250005D01*
X108314361Y-43481218D01*
X108371317Y-43706135D01*
X108464516Y-43918609D01*
X108548811Y-44047633D01*
X109216922Y-43379523D01*
X109240507Y-43459844D01*
X109318239Y-43580798D01*
X109426900Y-43674952D01*
X109557685Y-43734680D01*
X109567466Y-43736086D01*
X108901199Y-44402351D01*
X108901227Y-44402801D01*
X108941341Y-44458537D01*
X108945017Y-44528310D01*
X108910387Y-44588994D01*
X108900530Y-44597536D01*
X108748218Y-44716085D01*
X108591016Y-44886852D01*
X108464075Y-45081151D01*
X108370842Y-45293699D01*
X108313866Y-45518691D01*
X108313864Y-45518702D01*
X108294700Y-45749993D01*
X108294700Y-45750006D01*
X108313865Y-45981301D01*
X108344031Y-46100425D01*
X108341406Y-46170245D01*
X108311506Y-46218546D01*
X103000483Y-51529569D01*
X102987910Y-51539643D01*
X102988065Y-51539830D01*
X102982059Y-51544798D01*
X102957434Y-51571021D01*
X102932809Y-51597244D01*
X102921949Y-51608104D01*
X102911088Y-51618965D01*
X102911078Y-51618977D01*
X102906587Y-51624765D01*
X102902801Y-51629197D01*
X102869552Y-51664606D01*
X102859322Y-51683213D01*
X102848646Y-51699464D01*
X102835640Y-51716232D01*
X102835636Y-51716238D01*
X102816348Y-51760811D01*
X102813777Y-51766058D01*
X102790372Y-51808630D01*
X102790372Y-51808631D01*
X102785091Y-51829199D01*
X102778791Y-51847601D01*
X102770364Y-51867073D01*
X102762766Y-51915047D01*
X102761581Y-51920770D01*
X102749500Y-51967818D01*
X102749500Y-51989044D01*
X102747973Y-52008444D01*
X102744653Y-52029403D01*
X102749225Y-52077767D01*
X102749500Y-52083606D01*
X102749500Y-63238911D01*
X102730495Y-63304881D01*
X102721424Y-63319318D01*
X102719544Y-63322310D01*
X102663685Y-63481943D01*
X102644751Y-63649997D01*
X102644751Y-63650002D01*
X102663685Y-63818056D01*
X102719545Y-63977694D01*
X102719547Y-63977697D01*
X102809518Y-64120884D01*
X102809523Y-64120890D01*
X102929111Y-64240478D01*
X103056475Y-64320507D01*
X103102765Y-64372841D01*
X103113413Y-64441895D01*
X103085038Y-64505743D01*
X103026648Y-64544115D01*
X102990502Y-64549500D01*
X102693428Y-64549500D01*
X102685329Y-64548969D01*
X102650000Y-64544318D01*
X102610639Y-64549500D01*
X102493239Y-64564955D01*
X102493237Y-64564956D01*
X102347160Y-64625463D01*
X102221714Y-64721721D01*
X102200024Y-64749990D01*
X102194671Y-64756094D01*
X100774759Y-66176004D01*
X100713436Y-66209489D01*
X100700966Y-66211543D01*
X100692673Y-66212477D01*
X100681941Y-66213687D01*
X100681940Y-66213687D01*
X100522307Y-66269544D01*
X100522302Y-66269547D01*
X100379115Y-66359518D01*
X100379109Y-66359523D01*
X100259523Y-66479109D01*
X100259518Y-66479115D01*
X100169547Y-66622302D01*
X100169542Y-66622313D01*
X100149416Y-66679830D01*
X100108695Y-66736606D01*
X100043742Y-66762353D01*
X99975180Y-66748897D01*
X99966403Y-66743868D01*
X99927697Y-66719547D01*
X99927694Y-66719545D01*
X99768056Y-66663685D01*
X99600003Y-66644751D01*
X99599997Y-66644751D01*
X99431943Y-66663685D01*
X99272305Y-66719545D01*
X99272302Y-66719547D01*
X99129115Y-66809518D01*
X99129109Y-66809523D01*
X99009523Y-66929109D01*
X99009518Y-66929115D01*
X98919547Y-67072302D01*
X98919545Y-67072305D01*
X98863685Y-67231944D01*
X98851151Y-67343189D01*
X98842493Y-67376756D01*
X98814956Y-67443238D01*
X98814955Y-67443239D01*
X98794318Y-67599998D01*
X98794318Y-67599999D01*
X98798969Y-67635326D01*
X98799500Y-67643428D01*
X98799500Y-70406571D01*
X98798969Y-70414673D01*
X98794485Y-70448735D01*
X98794318Y-70450000D01*
X97100500Y-70450000D01*
X97100500Y-67818428D01*
X97101031Y-67810326D01*
X97102036Y-67802697D01*
X97105682Y-67775000D01*
X97105554Y-67774031D01*
X97085044Y-67618239D01*
X97085042Y-67618234D01*
X97079147Y-67604003D01*
X97024536Y-67472159D01*
X96989654Y-67426700D01*
X96989270Y-67426200D01*
X96963933Y-67393180D01*
X96939088Y-67331574D01*
X96936313Y-67306941D01*
X96880456Y-67147310D01*
X96880453Y-67147305D01*
X96880452Y-67147302D01*
X96790481Y-67004115D01*
X96790476Y-67004109D01*
X96670890Y-66884523D01*
X96670884Y-66884518D01*
X96527697Y-66794547D01*
X96527694Y-66794545D01*
X96368056Y-66738685D01*
X96200003Y-66719751D01*
X96199997Y-66719751D01*
X96031943Y-66738685D01*
X95872305Y-66794545D01*
X95872302Y-66794547D01*
X95729115Y-66884518D01*
X95729109Y-66884523D01*
X95609523Y-67004109D01*
X95609518Y-67004115D01*
X95519547Y-67147302D01*
X95519545Y-67147305D01*
X95463685Y-67306943D01*
X95444751Y-67474997D01*
X95444751Y-67475002D01*
X95463685Y-67643056D01*
X95519545Y-67802694D01*
X95519547Y-67802697D01*
X95609518Y-67945884D01*
X95609523Y-67945890D01*
X95729110Y-68065477D01*
X95748558Y-68077697D01*
X95841472Y-68136079D01*
X95887763Y-68188414D01*
X95899500Y-68241073D01*
X95899500Y-69350543D01*
X95879815Y-69417582D01*
X95827011Y-69463337D01*
X95789384Y-69473763D01*
X95656944Y-69488685D01*
X95497307Y-69544545D01*
X95440096Y-69580494D01*
X95374124Y-69599500D01*
X93166073Y-69599500D01*
X93099034Y-69579815D01*
X93061079Y-69541472D01*
X93027912Y-69488687D01*
X92990477Y-69429110D01*
X92870890Y-69309523D01*
X92870884Y-69309518D01*
X92727697Y-69219547D01*
X92727690Y-69219544D01*
X92694619Y-69207971D01*
X92637844Y-69167248D01*
X92612098Y-69102294D01*
X92625556Y-69033733D01*
X92647892Y-69003252D01*
X95752566Y-65898578D01*
X95766486Y-65887368D01*
X95772183Y-65882602D01*
X95772188Y-65882600D01*
X95796970Y-65855928D01*
X95820000Y-65831146D01*
X95830254Y-65820890D01*
X95840511Y-65810635D01*
X95846155Y-65803356D01*
X95849722Y-65799159D01*
X95855224Y-65793238D01*
X95884065Y-65762201D01*
X95893213Y-65745349D01*
X95904208Y-65728516D01*
X95915962Y-65713364D01*
X95936007Y-65667039D01*
X95938405Y-65662113D01*
X95962486Y-65617762D01*
X95967156Y-65599166D01*
X95973620Y-65580124D01*
X95976475Y-65573524D01*
X95981235Y-65562527D01*
X95989129Y-65512684D01*
X95990223Y-65507325D01*
X96002420Y-65458765D01*
X96017689Y-65423006D01*
X96030456Y-65402690D01*
X96076308Y-65271652D01*
X96086313Y-65243061D01*
X96086313Y-65243059D01*
X96105249Y-65075002D01*
X96105249Y-65074997D01*
X96086313Y-64906941D01*
X96061169Y-64835084D01*
X96057606Y-64765305D01*
X96092335Y-64704677D01*
X96154328Y-64672450D01*
X96192094Y-64670908D01*
X96274997Y-64680249D01*
X96275000Y-64680249D01*
X96275003Y-64680249D01*
X96443056Y-64661314D01*
X96443059Y-64661313D01*
X96602690Y-64605456D01*
X96602692Y-64605454D01*
X96602694Y-64605454D01*
X96602697Y-64605452D01*
X96745884Y-64515481D01*
X96745885Y-64515480D01*
X96745890Y-64515477D01*
X96865477Y-64395890D01*
X96891289Y-64354811D01*
X96955452Y-64252697D01*
X96955454Y-64252694D01*
X96955454Y-64252692D01*
X96955456Y-64252690D01*
X97011313Y-64093059D01*
X97011313Y-64093058D01*
X97011314Y-64093056D01*
X97030249Y-63925002D01*
X97030249Y-63924997D01*
X97011314Y-63756943D01*
X96980860Y-63669913D01*
X96955456Y-63597310D01*
X96955455Y-63597309D01*
X96955454Y-63597305D01*
X96955452Y-63597302D01*
X96865481Y-63454115D01*
X96865476Y-63454109D01*
X96745890Y-63334523D01*
X96745884Y-63334518D01*
X96602697Y-63244547D01*
X96602694Y-63244545D01*
X96443056Y-63188685D01*
X96275003Y-63169751D01*
X96274997Y-63169751D01*
X96106943Y-63188685D01*
X95947307Y-63244545D01*
X95850309Y-63305494D01*
X95784337Y-63324500D01*
X94493428Y-63324500D01*
X94485329Y-63323969D01*
X94450000Y-63319318D01*
X94410639Y-63324500D01*
X94293239Y-63339955D01*
X94293237Y-63339956D01*
X94147157Y-63400464D01*
X94063875Y-63464369D01*
X94013198Y-63484808D01*
X94013730Y-63487138D01*
X94006940Y-63488687D01*
X93847307Y-63544544D01*
X93847302Y-63544547D01*
X93704115Y-63634518D01*
X93704109Y-63634523D01*
X93584523Y-63754109D01*
X93584518Y-63754115D01*
X93494547Y-63897302D01*
X93494545Y-63897305D01*
X93438685Y-64056943D01*
X93419751Y-64224997D01*
X93419751Y-64225002D01*
X93438685Y-64393056D01*
X93494545Y-64552694D01*
X93494547Y-64552697D01*
X93584518Y-64695884D01*
X93584523Y-64695890D01*
X93704109Y-64815476D01*
X93704115Y-64815481D01*
X93847302Y-64905452D01*
X93847305Y-64905454D01*
X93847309Y-64905455D01*
X93847310Y-64905456D01*
X93917856Y-64930141D01*
X94006943Y-64961314D01*
X94174997Y-64980249D01*
X94175000Y-64980249D01*
X94175003Y-64980249D01*
X94343059Y-64961313D01*
X94343061Y-64961313D01*
X94432145Y-64930141D01*
X94501924Y-64926579D01*
X94562551Y-64961307D01*
X94594779Y-65023300D01*
X94596321Y-65061062D01*
X94594751Y-65075000D01*
X94594751Y-65075004D01*
X94602393Y-65142834D01*
X94590338Y-65211656D01*
X94566854Y-65244398D01*
X91616866Y-68194386D01*
X91555543Y-68227871D01*
X91515302Y-68229925D01*
X91425003Y-68219751D01*
X91424996Y-68219751D01*
X91388383Y-68223876D01*
X91319561Y-68211821D01*
X91268182Y-68164472D01*
X91250500Y-68100656D01*
X91250500Y-65993428D01*
X91251031Y-65985326D01*
X91255682Y-65949999D01*
X91255682Y-65949998D01*
X91240035Y-65831146D01*
X91235044Y-65793238D01*
X91180725Y-65662101D01*
X91174538Y-65647163D01*
X91174535Y-65647158D01*
X91142763Y-65605752D01*
X91078282Y-65521718D01*
X91050005Y-65500020D01*
X91043904Y-65494669D01*
X89355328Y-63806093D01*
X89349974Y-63799988D01*
X89328286Y-63771722D01*
X89328283Y-63771720D01*
X89328282Y-63771718D01*
X89202841Y-63675464D01*
X89202551Y-63675344D01*
X89056762Y-63614956D01*
X89056760Y-63614955D01*
X88984465Y-63605438D01*
X88900001Y-63594318D01*
X88900000Y-63594318D01*
X88864670Y-63598969D01*
X88856572Y-63599500D01*
X85900097Y-63599500D01*
X85833058Y-63579815D01*
X85812416Y-63563181D01*
X85573995Y-63324760D01*
X85540510Y-63263437D01*
X85538457Y-63250973D01*
X85536313Y-63231941D01*
X85480456Y-63072310D01*
X85480453Y-63072305D01*
X85480452Y-63072302D01*
X85390481Y-62929115D01*
X85390476Y-62929109D01*
X85270890Y-62809523D01*
X85270884Y-62809518D01*
X85127697Y-62719547D01*
X85127694Y-62719545D01*
X84968056Y-62663685D01*
X84800003Y-62644751D01*
X84799997Y-62644751D01*
X84631943Y-62663685D01*
X84472305Y-62719545D01*
X84472302Y-62719547D01*
X84329115Y-62809518D01*
X84329109Y-62809523D01*
X84209523Y-62929109D01*
X84209518Y-62929115D01*
X84119547Y-63072302D01*
X84119545Y-63072305D01*
X84063685Y-63231943D01*
X84044751Y-63399997D01*
X84044751Y-63400002D01*
X76621644Y-63400002D01*
X76713867Y-63307779D01*
X76775190Y-63274294D01*
X76820371Y-63277525D01*
X76856672Y-63275223D01*
X76929369Y-63181307D01*
X77014457Y-63007843D01*
X77035596Y-62926200D01*
X76285111Y-62926200D01*
X76324610Y-62901743D01*
X76392201Y-62812238D01*
X76422895Y-62704360D01*
X76412546Y-62592679D01*
X76362552Y-62492278D01*
X76290069Y-62426200D01*
X77039471Y-62426200D01*
X76976314Y-62255672D01*
X76976312Y-62255668D01*
X76874107Y-62091696D01*
X76740997Y-61951665D01*
X76740996Y-61951664D01*
X76582413Y-61841286D01*
X76404862Y-61765093D01*
X76215606Y-61726200D01*
X75619000Y-61726200D01*
X75619000Y-62376200D01*
X75119000Y-62376200D01*
X75119000Y-61726200D01*
X74570824Y-61726200D01*
X74426778Y-61740847D01*
X74242438Y-61798684D01*
X74242428Y-61798689D01*
X74073501Y-61892451D01*
X74073494Y-61892456D01*
X73926894Y-62018307D01*
X73808631Y-62171090D01*
X73808629Y-62171094D01*
X73723542Y-62344556D01*
X73702404Y-62426200D01*
X74452889Y-62426200D01*
X74413390Y-62450657D01*
X74345799Y-62540162D01*
X74315105Y-62648040D01*
X74325454Y-62759721D01*
X74375448Y-62860122D01*
X74447931Y-62926200D01*
X73698529Y-62926200D01*
X73761685Y-63096727D01*
X73761687Y-63096731D01*
X73863892Y-63260703D01*
X73997002Y-63400734D01*
X73997003Y-63400735D01*
X74155588Y-63511114D01*
X74161086Y-63514166D01*
X74160466Y-63515281D01*
X74209100Y-63555496D01*
X74230325Y-63622063D01*
X74219644Y-63675344D01*
X74218211Y-63678563D01*
X74162996Y-63848497D01*
X74162995Y-63848499D01*
X74143639Y-64032663D01*
X74140778Y-64032362D01*
X74124633Y-64087349D01*
X74074099Y-64132040D01*
X74070113Y-64133959D01*
X74063697Y-64136616D01*
X74024282Y-64150409D01*
X74024274Y-64150413D01*
X73988917Y-64172628D01*
X73982832Y-64175991D01*
X73945213Y-64194108D01*
X73945211Y-64194109D01*
X73912569Y-64220141D01*
X73906896Y-64224166D01*
X73871539Y-64246383D01*
X73871535Y-64246386D01*
X73270186Y-64847735D01*
X73270183Y-64847739D01*
X73247966Y-64883096D01*
X73243941Y-64888769D01*
X73217910Y-64921410D01*
X73199791Y-64959033D01*
X73196427Y-64965120D01*
X73174212Y-65000476D01*
X73174208Y-65000483D01*
X73160416Y-65039895D01*
X73157755Y-65046320D01*
X73139639Y-65083939D01*
X73130344Y-65124659D01*
X73128419Y-65131341D01*
X73114632Y-65170744D01*
X73109955Y-65212235D01*
X73108791Y-65219089D01*
X73099500Y-65259806D01*
X73099500Y-68656191D01*
X68000500Y-68656191D01*
X68000500Y-62926200D01*
X70668529Y-62926200D01*
X70731685Y-63096727D01*
X70731687Y-63096731D01*
X70833892Y-63260703D01*
X70967002Y-63400734D01*
X70967003Y-63400735D01*
X71125586Y-63511113D01*
X71303137Y-63587306D01*
X71492394Y-63626200D01*
X71739000Y-63626200D01*
X71739000Y-62976200D01*
X72239000Y-62976200D01*
X72239000Y-63626200D01*
X72437176Y-63626200D01*
X72581221Y-63611552D01*
X72765561Y-63553715D01*
X72765571Y-63553710D01*
X72934498Y-63459948D01*
X72934505Y-63459943D01*
X73081105Y-63334092D01*
X73199368Y-63181309D01*
X73199370Y-63181305D01*
X73284457Y-63007843D01*
X73305596Y-62926200D01*
X72555111Y-62926200D01*
X72594610Y-62901743D01*
X72662201Y-62812238D01*
X72692895Y-62704360D01*
X72682546Y-62592679D01*
X72632552Y-62492278D01*
X72560069Y-62426200D01*
X73309471Y-62426200D01*
X73246314Y-62255672D01*
X73246312Y-62255668D01*
X73144107Y-62091696D01*
X73010997Y-61951665D01*
X73010996Y-61951664D01*
X72852413Y-61841286D01*
X72674862Y-61765093D01*
X72485606Y-61726200D01*
X72239000Y-61726200D01*
X72239000Y-62376200D01*
X71739000Y-62376200D01*
X71739000Y-61726200D01*
X71540824Y-61726200D01*
X71396778Y-61740847D01*
X71212438Y-61798684D01*
X71212428Y-61798689D01*
X71043501Y-61892451D01*
X71043494Y-61892456D01*
X70896894Y-62018307D01*
X70778631Y-62171090D01*
X70778629Y-62171094D01*
X70693542Y-62344556D01*
X70672404Y-62426200D01*
X71422889Y-62426200D01*
X71383390Y-62450657D01*
X71315799Y-62540162D01*
X71285105Y-62648040D01*
X71295454Y-62759721D01*
X71345448Y-62860122D01*
X71417931Y-62926200D01*
X70668529Y-62926200D01*
X68000500Y-62926200D01*
X68000500Y-52140000D01*
X69244341Y-52140000D01*
X69264936Y-52375403D01*
X69264938Y-52375413D01*
X69326094Y-52603655D01*
X69326096Y-52603659D01*
X69326097Y-52603663D01*
X69397988Y-52757834D01*
X69425965Y-52817830D01*
X69425967Y-52817834D01*
X69519493Y-52951402D01*
X69561505Y-53011401D01*
X69728599Y-53178495D01*
X69906413Y-53303002D01*
X69914594Y-53308730D01*
X69958219Y-53363307D01*
X69965413Y-53432805D01*
X69933890Y-53495160D01*
X69914595Y-53511880D01*
X69728922Y-53641890D01*
X69728920Y-53641891D01*
X69561891Y-53808920D01*
X69561886Y-53808926D01*
X69426400Y-54002420D01*
X69426399Y-54002422D01*
X69326570Y-54216507D01*
X69326567Y-54216513D01*
X69269364Y-54429999D01*
X69269364Y-54430000D01*
X70166314Y-54430000D01*
X70140507Y-54470156D01*
X70100000Y-54608111D01*
X70100000Y-54751889D01*
X70140507Y-54889844D01*
X70166314Y-54930000D01*
X69269364Y-54930000D01*
X69326567Y-55143486D01*
X69326570Y-55143492D01*
X69426399Y-55357578D01*
X69561894Y-55551082D01*
X69728917Y-55718105D01*
X69922421Y-55853600D01*
X70136507Y-55953429D01*
X70136516Y-55953433D01*
X70350000Y-56010634D01*
X70350000Y-55115501D01*
X70457685Y-55164680D01*
X70564237Y-55180000D01*
X70635763Y-55180000D01*
X70742315Y-55164680D01*
X70850000Y-55115501D01*
X70850000Y-56010633D01*
X71063483Y-55953433D01*
X71063492Y-55953429D01*
X71277578Y-55853600D01*
X71471082Y-55718105D01*
X71638105Y-55551082D01*
X71773600Y-55357578D01*
X71873429Y-55143492D01*
X71873432Y-55143486D01*
X71930636Y-54930000D01*
X71033686Y-54930000D01*
X71059493Y-54889844D01*
X71100000Y-54751889D01*
X71100000Y-54608111D01*
X71059493Y-54470156D01*
X71033686Y-54430000D01*
X71930636Y-54430000D01*
X71930635Y-54429999D01*
X71873432Y-54216513D01*
X71873429Y-54216507D01*
X71773600Y-54002422D01*
X71773599Y-54002420D01*
X71638113Y-53808926D01*
X71638108Y-53808920D01*
X71471078Y-53641890D01*
X71285405Y-53511879D01*
X71241780Y-53457302D01*
X71234588Y-53387804D01*
X71266110Y-53325449D01*
X71285406Y-53308730D01*
X71471401Y-53178495D01*
X71638495Y-53011401D01*
X71774035Y-52817830D01*
X71873903Y-52603663D01*
X71935063Y-52375408D01*
X71955659Y-52140000D01*
X71935063Y-51904592D01*
X71880100Y-51699464D01*
X71873905Y-51676344D01*
X71873904Y-51676343D01*
X71873903Y-51676337D01*
X71774035Y-51462171D01*
X71732022Y-51402169D01*
X71638494Y-51268597D01*
X71471402Y-51101506D01*
X71471396Y-51101501D01*
X71285842Y-50971575D01*
X71242217Y-50916998D01*
X71235023Y-50847500D01*
X71266546Y-50785145D01*
X71285842Y-50768425D01*
X71363519Y-50714035D01*
X71471401Y-50638495D01*
X71638495Y-50471401D01*
X71774035Y-50277830D01*
X71873903Y-50063663D01*
X71935063Y-49835408D01*
X71955659Y-49600000D01*
X71935063Y-49364592D01*
X71873903Y-49136337D01*
X71774035Y-48922171D01*
X71771708Y-48918848D01*
X71638496Y-48728600D01*
X71578495Y-48668599D01*
X71516567Y-48606671D01*
X71483084Y-48545351D01*
X71488068Y-48475659D01*
X71529939Y-48419725D01*
X71560915Y-48402810D01*
X71692331Y-48353796D01*
X71807546Y-48267546D01*
X71893796Y-48152331D01*
X71944091Y-48017483D01*
X71950500Y-47957873D01*
X71950499Y-46162128D01*
X71944091Y-46102517D01*
X71943946Y-46102129D01*
X71893797Y-45967671D01*
X71893793Y-45967664D01*
X71807547Y-45852455D01*
X71807544Y-45852452D01*
X71692335Y-45766206D01*
X71692328Y-45766202D01*
X71557482Y-45715908D01*
X71557483Y-45715908D01*
X71497883Y-45709501D01*
X71497881Y-45709500D01*
X71497873Y-45709500D01*
X71497864Y-45709500D01*
X69702129Y-45709500D01*
X69702123Y-45709501D01*
X69642516Y-45715908D01*
X69507671Y-45766202D01*
X69507664Y-45766206D01*
X69392455Y-45852452D01*
X69392452Y-45852455D01*
X69306206Y-45967664D01*
X69306202Y-45967671D01*
X69255908Y-46102517D01*
X69249501Y-46162116D01*
X69249501Y-46162123D01*
X69249500Y-46162135D01*
X69249500Y-47957870D01*
X69249501Y-47957876D01*
X69255908Y-48017483D01*
X69306202Y-48152328D01*
X69306206Y-48152335D01*
X69392452Y-48267544D01*
X69392455Y-48267547D01*
X69507664Y-48353793D01*
X69507671Y-48353797D01*
X69639081Y-48402810D01*
X69695015Y-48444681D01*
X69719432Y-48510145D01*
X69704580Y-48578418D01*
X69683430Y-48606673D01*
X69561503Y-48728600D01*
X69425965Y-48922169D01*
X69425964Y-48922171D01*
X69326098Y-49136335D01*
X69326094Y-49136344D01*
X69264938Y-49364586D01*
X69264936Y-49364596D01*
X69244341Y-49599999D01*
X69244341Y-49600000D01*
X69264936Y-49835403D01*
X69264938Y-49835413D01*
X69326094Y-50063655D01*
X69326096Y-50063659D01*
X69326097Y-50063663D01*
X69397988Y-50217834D01*
X69425965Y-50277830D01*
X69425967Y-50277834D01*
X69519493Y-50411402D01*
X69556330Y-50464011D01*
X69561501Y-50471395D01*
X69561506Y-50471402D01*
X69728597Y-50638493D01*
X69728603Y-50638498D01*
X69914158Y-50768425D01*
X69957783Y-50823002D01*
X69964977Y-50892500D01*
X69933454Y-50954855D01*
X69914158Y-50971575D01*
X69728597Y-51101505D01*
X69561505Y-51268597D01*
X69425965Y-51462169D01*
X69425964Y-51462171D01*
X69326098Y-51676335D01*
X69326094Y-51676344D01*
X69264938Y-51904586D01*
X69264936Y-51904596D01*
X69244341Y-52139999D01*
X69244341Y-52140000D01*
X68000500Y-52140000D01*
X68000500Y-40001439D01*
X68000533Y-40000002D01*
X68645080Y-40000002D01*
X68664746Y-40362728D01*
X68723517Y-40721214D01*
X68723519Y-40721222D01*
X68820695Y-41071220D01*
X68820697Y-41071227D01*
X68955152Y-41408684D01*
X68955161Y-41408702D01*
X69125316Y-41729647D01*
X69125318Y-41729651D01*
X69329170Y-42030309D01*
X69329177Y-42030319D01*
X69460968Y-42185475D01*
X69460969Y-42185476D01*
X70702265Y-40944179D01*
X70865130Y-41134870D01*
X71055819Y-41297733D01*
X69811889Y-42541663D01*
X69811889Y-42541664D01*
X69828070Y-42556992D01*
X70117266Y-42776832D01*
X70117282Y-42776843D01*
X70428522Y-42964109D01*
X70428535Y-42964116D01*
X70758205Y-43116639D01*
X70758210Y-43116640D01*
X71102461Y-43232632D01*
X71457235Y-43310724D01*
X71818366Y-43349999D01*
X71818374Y-43350000D01*
X72181626Y-43350000D01*
X72181633Y-43349999D01*
X72542764Y-43310724D01*
X72897538Y-43232632D01*
X73241789Y-43116640D01*
X73241794Y-43116639D01*
X73571464Y-42964116D01*
X73571477Y-42964109D01*
X73882717Y-42776843D01*
X73882733Y-42776832D01*
X74171924Y-42556996D01*
X74188109Y-42541663D01*
X72944180Y-41297733D01*
X73134870Y-41134870D01*
X73297733Y-40944180D01*
X74539029Y-42185475D01*
X74539030Y-42185475D01*
X74670822Y-42030319D01*
X74670829Y-42030309D01*
X74874681Y-41729651D01*
X74874683Y-41729647D01*
X75044838Y-41408702D01*
X75044847Y-41408684D01*
X75068227Y-41350005D01*
X114194556Y-41350005D01*
X114214310Y-41664004D01*
X114214311Y-41664011D01*
X114214312Y-41664015D01*
X114249790Y-41850000D01*
X114273270Y-41973083D01*
X114370497Y-42272316D01*
X114370499Y-42272321D01*
X114504461Y-42557003D01*
X114504464Y-42557009D01*
X114673051Y-42822661D01*
X114673054Y-42822665D01*
X114873606Y-43065090D01*
X114873608Y-43065092D01*
X114873610Y-43065094D01*
X115070516Y-43250001D01*
X115102968Y-43280476D01*
X115102978Y-43280484D01*
X115357504Y-43465408D01*
X115357509Y-43465410D01*
X115357516Y-43465416D01*
X115633234Y-43616994D01*
X115633239Y-43616996D01*
X115633241Y-43616997D01*
X115633242Y-43616998D01*
X115925771Y-43732818D01*
X115925774Y-43732819D01*
X116230523Y-43811065D01*
X116230527Y-43811066D01*
X116296010Y-43819338D01*
X116542670Y-43850499D01*
X116542679Y-43850499D01*
X116542682Y-43850500D01*
X116542684Y-43850500D01*
X116857316Y-43850500D01*
X116857318Y-43850500D01*
X116857321Y-43850499D01*
X116857329Y-43850499D01*
X117043593Y-43826968D01*
X117169473Y-43811066D01*
X117474225Y-43732819D01*
X117474228Y-43732818D01*
X117766757Y-43616998D01*
X117766758Y-43616997D01*
X117766756Y-43616997D01*
X117766766Y-43616994D01*
X118042484Y-43465416D01*
X118297030Y-43280478D01*
X118526390Y-43065094D01*
X118726947Y-42822663D01*
X118895537Y-42557007D01*
X119029503Y-42272315D01*
X119126731Y-41973079D01*
X119185688Y-41664015D01*
X119185689Y-41664004D01*
X119205444Y-41350005D01*
X119205444Y-41349994D01*
X119185689Y-41035995D01*
X119185688Y-41035988D01*
X119185688Y-41035985D01*
X119126731Y-40726921D01*
X119029503Y-40427685D01*
X118895537Y-40142993D01*
X118805704Y-40001439D01*
X118804792Y-40000002D01*
X124645080Y-40000002D01*
X124664746Y-40362728D01*
X124723517Y-40721214D01*
X124723519Y-40721222D01*
X124820695Y-41071220D01*
X124820697Y-41071227D01*
X124955152Y-41408684D01*
X124955161Y-41408702D01*
X125125316Y-41729647D01*
X125125318Y-41729651D01*
X125329170Y-42030309D01*
X125329177Y-42030319D01*
X125460968Y-42185475D01*
X125460969Y-42185476D01*
X126702265Y-40944179D01*
X126865130Y-41134870D01*
X127055819Y-41297733D01*
X125811889Y-42541663D01*
X125811889Y-42541664D01*
X125828070Y-42556992D01*
X126117266Y-42776832D01*
X126117282Y-42776843D01*
X126428522Y-42964109D01*
X126428535Y-42964116D01*
X126758205Y-43116639D01*
X126758210Y-43116640D01*
X127102461Y-43232632D01*
X127457235Y-43310724D01*
X127818366Y-43349999D01*
X127818374Y-43350000D01*
X128181626Y-43350000D01*
X128181633Y-43349999D01*
X128542764Y-43310724D01*
X128897538Y-43232632D01*
X129241789Y-43116640D01*
X129241794Y-43116639D01*
X129571464Y-42964116D01*
X129571477Y-42964109D01*
X129882717Y-42776843D01*
X129882733Y-42776832D01*
X130171924Y-42556996D01*
X130188109Y-42541663D01*
X128944180Y-41297733D01*
X129134870Y-41134870D01*
X129297733Y-40944180D01*
X130539029Y-42185475D01*
X130539030Y-42185475D01*
X130670822Y-42030319D01*
X130670829Y-42030309D01*
X130874681Y-41729651D01*
X130874683Y-41729647D01*
X131044838Y-41408702D01*
X131044847Y-41408684D01*
X131179302Y-41071227D01*
X131179304Y-41071220D01*
X131276480Y-40721222D01*
X131276482Y-40721214D01*
X131335253Y-40362728D01*
X131354920Y-40000002D01*
X131354920Y-39999997D01*
X131335253Y-39637271D01*
X131276482Y-39278785D01*
X131276480Y-39278777D01*
X131179304Y-38928779D01*
X131179302Y-38928772D01*
X131044847Y-38591315D01*
X131044838Y-38591297D01*
X130874683Y-38270352D01*
X130874681Y-38270348D01*
X130670829Y-37969690D01*
X130670822Y-37969680D01*
X130539030Y-37814523D01*
X130539029Y-37814522D01*
X129297732Y-39055818D01*
X129134870Y-38865130D01*
X128944179Y-38702265D01*
X130188109Y-37458335D01*
X130188109Y-37458334D01*
X130171929Y-37443007D01*
X129882733Y-37223167D01*
X129882717Y-37223156D01*
X129571477Y-37035890D01*
X129571464Y-37035883D01*
X129241794Y-36883360D01*
X129241789Y-36883359D01*
X128897538Y-36767367D01*
X128542764Y-36689275D01*
X128181633Y-36650000D01*
X127818366Y-36650000D01*
X127457235Y-36689275D01*
X127102461Y-36767367D01*
X126758210Y-36883359D01*
X126758205Y-36883360D01*
X126428535Y-37035883D01*
X126428522Y-37035890D01*
X126117282Y-37223156D01*
X126117266Y-37223167D01*
X125828071Y-37443006D01*
X125828070Y-37443007D01*
X125811889Y-37458334D01*
X125811889Y-37458336D01*
X127055819Y-38702266D01*
X126865130Y-38865130D01*
X126702266Y-39055819D01*
X125460969Y-37814522D01*
X125329170Y-37969690D01*
X125329169Y-37969691D01*
X125125313Y-38270357D01*
X124955161Y-38591297D01*
X124955152Y-38591315D01*
X124820697Y-38928772D01*
X124820695Y-38928779D01*
X124723519Y-39278777D01*
X124723517Y-39278785D01*
X124664746Y-39637271D01*
X124645080Y-39999997D01*
X124645080Y-40000002D01*
X118804792Y-40000002D01*
X118726948Y-39877338D01*
X118726945Y-39877334D01*
X118526393Y-39634909D01*
X118526391Y-39634907D01*
X118387037Y-39504044D01*
X118297030Y-39419522D01*
X118297027Y-39419520D01*
X118297021Y-39419515D01*
X118042495Y-39234591D01*
X118042488Y-39234586D01*
X118042484Y-39234584D01*
X117766766Y-39083006D01*
X117766763Y-39083004D01*
X117766758Y-39083002D01*
X117766757Y-39083001D01*
X117474228Y-38967181D01*
X117474225Y-38967180D01*
X117169476Y-38888934D01*
X117169463Y-38888932D01*
X116857329Y-38849500D01*
X116857318Y-38849500D01*
X116542682Y-38849500D01*
X116542670Y-38849500D01*
X116230536Y-38888932D01*
X116230523Y-38888934D01*
X115925774Y-38967180D01*
X115925771Y-38967181D01*
X115633242Y-39083001D01*
X115633241Y-39083002D01*
X115357516Y-39234584D01*
X115357504Y-39234591D01*
X115102978Y-39419515D01*
X115102968Y-39419523D01*
X114873608Y-39634907D01*
X114873606Y-39634909D01*
X114673054Y-39877334D01*
X114673051Y-39877338D01*
X114504464Y-40142990D01*
X114504461Y-40142996D01*
X114370499Y-40427678D01*
X114370497Y-40427683D01*
X114273270Y-40726916D01*
X114214311Y-41035988D01*
X114214310Y-41035995D01*
X114194556Y-41349994D01*
X114194556Y-41350005D01*
X75068227Y-41350005D01*
X75179302Y-41071227D01*
X75179304Y-41071220D01*
X75276480Y-40721222D01*
X75276482Y-40721214D01*
X75335253Y-40362728D01*
X75354920Y-40000002D01*
X75354920Y-39999997D01*
X75335253Y-39637271D01*
X75276482Y-39278785D01*
X75276480Y-39278777D01*
X75179304Y-38928779D01*
X75179302Y-38928772D01*
X75044847Y-38591315D01*
X75044838Y-38591297D01*
X74874683Y-38270352D01*
X74874681Y-38270348D01*
X74670829Y-37969690D01*
X74670822Y-37969680D01*
X74539030Y-37814523D01*
X74539029Y-37814522D01*
X73297732Y-39055818D01*
X73134870Y-38865130D01*
X72944179Y-38702265D01*
X74188109Y-37458335D01*
X74188109Y-37458334D01*
X74171929Y-37443007D01*
X73882733Y-37223167D01*
X73882717Y-37223156D01*
X73571477Y-37035890D01*
X73571464Y-37035883D01*
X73241794Y-36883360D01*
X73241789Y-36883359D01*
X72897538Y-36767367D01*
X72542764Y-36689275D01*
X72181633Y-36650000D01*
X71818366Y-36650000D01*
X71457235Y-36689275D01*
X71102461Y-36767367D01*
X70758210Y-36883359D01*
X70758205Y-36883360D01*
X70428535Y-37035883D01*
X70428522Y-37035890D01*
X70117282Y-37223156D01*
X70117266Y-37223167D01*
X69828071Y-37443006D01*
X69828070Y-37443007D01*
X69811889Y-37458334D01*
X69811889Y-37458336D01*
X71055819Y-38702266D01*
X70865130Y-38865130D01*
X70702266Y-39055819D01*
X69460969Y-37814522D01*
X69329170Y-37969690D01*
X69329169Y-37969691D01*
X69125313Y-38270357D01*
X68955161Y-38591297D01*
X68955152Y-38591315D01*
X68820697Y-38928772D01*
X68820695Y-38928779D01*
X68723519Y-39278777D01*
X68723517Y-39278785D01*
X68664746Y-39637271D01*
X68645080Y-39999997D01*
X68645080Y-40000002D01*
X68000533Y-40000002D01*
X68000566Y-39998576D01*
X68008487Y-39827238D01*
X68018302Y-39627446D01*
X68018818Y-39621955D01*
X68044670Y-39436633D01*
X68072331Y-39250162D01*
X68073292Y-39245137D01*
X68116689Y-39060626D01*
X68161993Y-38879764D01*
X68163323Y-38875216D01*
X68223915Y-38694431D01*
X68286457Y-38519641D01*
X68288100Y-38515527D01*
X68332570Y-38414812D01*
X68365368Y-38340530D01*
X68444615Y-38172977D01*
X68446444Y-38169423D01*
X68539781Y-38001852D01*
X68634990Y-37843005D01*
X68636979Y-37839904D01*
X68745570Y-37681381D01*
X68855924Y-37532586D01*
X68857928Y-37530033D01*
X68980875Y-37381973D01*
X69105351Y-37244636D01*
X69107361Y-37242526D01*
X69242526Y-37107361D01*
X69244636Y-37105351D01*
X69381973Y-36980875D01*
X69530033Y-36857928D01*
X69532586Y-36855924D01*
X69681381Y-36745570D01*
X69839904Y-36636979D01*
X69843005Y-36634990D01*
X70001858Y-36539778D01*
X70169423Y-36446444D01*
X70172977Y-36444615D01*
X70340530Y-36365368D01*
X70515538Y-36288095D01*
X70519641Y-36286457D01*
X70694431Y-36223915D01*
X70875216Y-36163323D01*
X70879764Y-36161993D01*
X71060626Y-36116689D01*
X71245137Y-36073292D01*
X71250162Y-36072331D01*
X71436651Y-36044667D01*
X71621955Y-36018818D01*
X71627446Y-36018302D01*
X71826958Y-36008500D01*
X71968945Y-36001935D01*
X71998577Y-36000566D01*
X72001440Y-36000500D01*
X127998560Y-36000500D01*
X128001423Y-36000566D01*
G37*
G04 #@! TD.AperFunction*
M02*
