M48
; DRILL file {KiCad 7.0.8} date Sat Dec 30 22:16:29 2023
; FORMAT={-:-/ absolute / metric / decimal}
; #@! TF.CreationDate,2023-12-30T22:16:29-05:00
; #@! TF.GenerationSoftware,Kicad,Pcbnew,7.0.8
; #@! TF.FileFunction,Plated,1,2,PTH
FMAT,2
METRIC
; #@! TA.AperFunction,Plated,PTH,ViaDrill
T1C0.300
; #@! TA.AperFunction,Plated,PTH,ViaDrill
T2C0.400
; #@! TA.AperFunction,Plated,PTH,ComponentDrill
T3C0.400
; #@! TA.AperFunction,Plated,PTH,ComponentDrill
T4C0.600
; #@! TA.AperFunction,Plated,PTH,ComponentDrill
T5C0.950
; #@! TA.AperFunction,Plated,PTH,ComponentDrill
T6C1.000
; #@! TA.AperFunction,Plated,PTH,ComponentDrill
T7C1.100
; #@! TA.AperFunction,Plated,PTH,ComponentDrill
T8C1.300
; #@! TA.AperFunction,Plated,PTH,ComponentDrill
T9C3.200
%
G90
G05
T1
X81.525Y-64.275
X81.575Y-61.475
X84.8Y-63.4
X87.3Y-78.3
X88.325Y-77.125
X91.425Y-68.975
X92.4Y-69.9
X92.7Y-75.175
X93.025Y-64.2
X93.8Y-71.875
X94.175Y-64.225
X95.35Y-65.075
X95.825Y-70.225
X96.2Y-67.475
X96.275Y-63.925
X98.6Y-65.05
X99.6Y-67.4
X100.2Y-69.075
X100.85Y-66.95
X101.45Y-67.75
X101.7Y-73.725
X102.2Y-62.85
X103.2Y-70.725
X103.4Y-63.65
X104.2Y-59.3
X104.25Y-66.5
X104.5Y-63.4
X105.3Y-72.55
X106.0Y-68.25
X106.4Y-59.2
X106.4Y-63.6
X109.9Y-75.4
X112.35Y-68.8
X114.525Y-77.275
X119.4Y-80.7
X120.2Y-68.775
T2
X85.27Y-67.09
X85.8Y-85.05
X90.3Y-70.85
X94.05Y-82.3
X94.2Y-86.75
X96.774Y-61.595
X100.7Y-87.55
X102.2Y-58.1
X103.35Y-84.0
X109.9Y-60.1
X114.9Y-63.0
X116.65Y-72.65
X116.65Y-73.5
X117.5Y-72.65
X117.5Y-73.5
X119.95Y-73.7
X120.15Y-77.25
X121.65Y-71.65
T3
X74.999Y-64.026
X74.999Y-64.876
X74.999Y-65.726
X74.999Y-66.576
X74.999Y-67.426
X74.999Y-68.276
X74.999Y-69.126
X74.999Y-69.976
X76.349Y-64.026
X76.349Y-64.876
X76.349Y-65.726
X76.349Y-66.576
X76.349Y-67.426
X76.349Y-68.276
X76.349Y-69.126
X76.349Y-69.976
T4
X97.4Y-86.773
X97.4Y-88.773
X110.4Y-78.7
X110.4Y-80.7
T5
X127.925Y-72.85
X127.925Y-75.35
X127.925Y-77.85
X127.925Y-80.35
T6
X70.6Y-47.06
X70.6Y-49.6
X70.6Y-52.14
X70.6Y-54.68
X109.7Y-43.25
X109.7Y-45.75
X109.7Y-48.25
X129.3Y-47.0
X129.3Y-49.54
X129.3Y-52.08
X129.3Y-54.62
X129.3Y-57.16
X129.3Y-59.7
T7
X115.52Y-83.947
X115.52Y-88.447
X122.02Y-83.947
X122.02Y-88.447
T8
X112.378Y-58.968
X112.378Y-63.968
X124.878Y-58.968
X124.878Y-63.968
T9
X71.882Y-88.0
X72.0Y-40.0
X128.0Y-40.0
X128.0Y-88.0
T4
X72.389Y-62.676G85X71.589Y-62.676
G05
X72.389Y-71.326G85X71.589Y-71.326
G05
X76.119Y-62.676G85X74.619Y-62.676
G05
X76.119Y-71.326G85X74.619Y-71.326
G05
T6
X75.742Y-77.5G85X75.742Y-79.7
G05
X80.242Y-83.4G85X78.042Y-83.4
G05
X82.042Y-77.3G85X82.042Y-79.9
G05
T0
M30
