G04 #@! TF.GenerationSoftware,KiCad,Pcbnew,7.0.8*
G04 #@! TF.CreationDate,2023-12-30T22:15:46-05:00*
G04 #@! TF.ProjectId,Pump_Control_Board,50756d70-5f43-46f6-9e74-726f6c5f426f,rev?*
G04 #@! TF.SameCoordinates,Original*
G04 #@! TF.FileFunction,Legend,Bot*
G04 #@! TF.FilePolarity,Positive*
%FSLAX46Y46*%
G04 Gerber Fmt 4.6, Leading zero omitted, Abs format (unit mm)*
G04 Created by KiCad (PCBNEW 7.0.8) date 2023-12-30 22:15:46*
%MOMM*%
%LPD*%
G01*
G04 APERTURE LIST*
G04 Aperture macros list*
%AMRoundRect*
0 Rectangle with rounded corners*
0 $1 Rounding radius*
0 $2 $3 $4 $5 $6 $7 $8 $9 X,Y pos of 4 corners*
0 Add a 4 corners polygon primitive as box body*
4,1,4,$2,$3,$4,$5,$6,$7,$8,$9,$2,$3,0*
0 Add four circle primitives for the rounded corners*
1,1,$1+$1,$2,$3*
1,1,$1+$1,$4,$5*
1,1,$1+$1,$6,$7*
1,1,$1+$1,$8,$9*
0 Add four rect primitives between the rounded corners*
20,1,$1+$1,$2,$3,$4,$5,0*
20,1,$1+$1,$4,$5,$6,$7,0*
20,1,$1+$1,$6,$7,$8,$9,0*
20,1,$1+$1,$8,$9,$2,$3,0*%
G04 Aperture macros list end*
%ADD10R,1.200000X1.200000*%
%ADD11C,1.200000*%
%ADD12C,2.000000*%
%ADD13O,3.048000X1.850000*%
%ADD14R,2.000000X4.600000*%
%ADD15O,2.000000X4.200000*%
%ADD16O,4.200000X2.000000*%
%ADD17RoundRect,0.250000X0.725000X-0.600000X0.725000X0.600000X-0.725000X0.600000X-0.725000X-0.600000X0*%
%ADD18O,1.950000X1.700000*%
%ADD19R,1.700000X1.700000*%
%ADD20O,1.700000X1.700000*%
%ADD21C,3.600000*%
%ADD22C,5.700000*%
%ADD23C,0.700000*%
%ADD24O,2.400000X0.900000*%
%ADD25O,1.700000X0.900000*%
%ADD26C,4.000000*%
%ADD27C,1.800000*%
G04 APERTURE END LIST*
%LPC*%
D10*
X110400000Y-80700000D03*
D11*
X110400000Y-78700000D03*
D12*
X115520000Y-83947000D03*
X122020000Y-83947000D03*
X115520000Y-88447000D03*
X122020000Y-88447000D03*
D13*
X112378000Y-58968000D03*
X124878000Y-58968000D03*
X112378000Y-63968000D03*
X124878000Y-63968000D03*
D14*
X82042000Y-78600000D03*
D15*
X75742000Y-78600000D03*
D16*
X79142000Y-83400000D03*
D17*
X127925000Y-80350000D03*
D18*
X127925000Y-77850000D03*
X127925000Y-75350000D03*
X127925000Y-72850000D03*
D19*
X70600000Y-47060000D03*
D20*
X70600000Y-49600000D03*
X70600000Y-52140000D03*
X70600000Y-54680000D03*
D19*
X129300000Y-47000000D03*
D20*
X129300000Y-49540000D03*
X129300000Y-52080000D03*
X129300000Y-54620000D03*
X129300000Y-57160000D03*
X129300000Y-59700000D03*
D10*
X97400000Y-88772600D03*
D11*
X97400000Y-86772600D03*
D21*
X128000000Y-40000000D03*
D22*
X128000000Y-40000000D03*
D21*
X72000000Y-40000000D03*
D22*
X72000000Y-40000000D03*
D21*
X71882000Y-88000000D03*
D22*
X71882000Y-88000000D03*
D23*
X76349000Y-64026200D03*
X76349000Y-64876200D03*
X76349000Y-65726200D03*
X76349000Y-66576200D03*
X76349000Y-67426200D03*
X76349000Y-68276200D03*
X76349000Y-69126200D03*
X76349000Y-69976200D03*
X74999000Y-69976200D03*
X74999000Y-69126200D03*
X74999000Y-68276200D03*
X74999000Y-67426200D03*
X74999000Y-66576200D03*
X74999000Y-65726200D03*
X74999000Y-64876200D03*
X74999000Y-64026200D03*
D24*
X75369000Y-62676200D03*
D25*
X71989000Y-62676200D03*
D24*
X75369000Y-71326200D03*
D25*
X71989000Y-71326200D03*
D21*
X128000000Y-88000000D03*
D22*
X128000000Y-88000000D03*
D26*
X116700000Y-41350000D03*
X116700000Y-50150000D03*
D27*
X109700000Y-48250000D03*
X109700000Y-45750000D03*
X109700000Y-43250000D03*
%LPD*%
M02*
