G04 #@! TF.GenerationSoftware,KiCad,Pcbnew,7.0.8*
G04 #@! TF.CreationDate,2023-12-30T22:15:46-05:00*
G04 #@! TF.ProjectId,Pump_Control_Board,50756d70-5f43-46f6-9e74-726f6c5f426f,rev?*
G04 #@! TF.SameCoordinates,Original*
G04 #@! TF.FileFunction,Paste,Top*
G04 #@! TF.FilePolarity,Positive*
%FSLAX46Y46*%
G04 Gerber Fmt 4.6, Leading zero omitted, Abs format (unit mm)*
G04 Created by KiCad (PCBNEW 7.0.8) date 2023-12-30 22:15:46*
%MOMM*%
%LPD*%
G01*
G04 APERTURE LIST*
G04 Aperture macros list*
%AMRoundRect*
0 Rectangle with rounded corners*
0 $1 Rounding radius*
0 $2 $3 $4 $5 $6 $7 $8 $9 X,Y pos of 4 corners*
0 Add a 4 corners polygon primitive as box body*
4,1,4,$2,$3,$4,$5,$6,$7,$8,$9,$2,$3,0*
0 Add four circle primitives for the rounded corners*
1,1,$1+$1,$2,$3*
1,1,$1+$1,$4,$5*
1,1,$1+$1,$6,$7*
1,1,$1+$1,$8,$9*
0 Add four rect primitives between the rounded corners*
20,1,$1+$1,$2,$3,$4,$5,0*
20,1,$1+$1,$4,$5,$6,$7,0*
20,1,$1+$1,$6,$7,$8,$9,0*
20,1,$1+$1,$8,$9,$2,$3,0*%
G04 Aperture macros list end*
%ADD10RoundRect,0.135000X-0.135000X-0.185000X0.135000X-0.185000X0.135000X0.185000X-0.135000X0.185000X0*%
%ADD11RoundRect,0.237500X-0.250000X-0.237500X0.250000X-0.237500X0.250000X0.237500X-0.250000X0.237500X0*%
%ADD12RoundRect,0.237500X-0.300000X-0.237500X0.300000X-0.237500X0.300000X0.237500X-0.300000X0.237500X0*%
%ADD13RoundRect,0.250000X0.450000X0.800000X-0.450000X0.800000X-0.450000X-0.800000X0.450000X-0.800000X0*%
%ADD14RoundRect,0.237500X0.237500X-0.250000X0.237500X0.250000X-0.237500X0.250000X-0.237500X-0.250000X0*%
%ADD15RoundRect,0.212500X-0.212500X0.212500X-0.212500X-0.212500X0.212500X-0.212500X0.212500X0.212500X0*%
%ADD16RoundRect,0.075000X-0.075000X0.350000X-0.075000X-0.350000X0.075000X-0.350000X0.075000X0.350000X0*%
%ADD17RoundRect,0.075000X-0.350000X0.075000X-0.350000X-0.075000X0.350000X-0.075000X0.350000X0.075000X0*%
%ADD18RoundRect,0.237500X-0.237500X0.300000X-0.237500X-0.300000X0.237500X-0.300000X0.237500X0.300000X0*%
%ADD19RoundRect,0.237500X0.300000X0.237500X-0.300000X0.237500X-0.300000X-0.237500X0.300000X-0.237500X0*%
%ADD20R,0.400000X0.650000*%
%ADD21RoundRect,0.250000X-0.325000X-0.450000X0.325000X-0.450000X0.325000X0.450000X-0.325000X0.450000X0*%
%ADD22RoundRect,0.237500X0.250000X0.237500X-0.250000X0.237500X-0.250000X-0.237500X0.250000X-0.237500X0*%
%ADD23R,0.650000X0.400000*%
%ADD24RoundRect,0.237500X0.237500X-0.300000X0.237500X0.300000X-0.237500X0.300000X-0.237500X-0.300000X0*%
%ADD25R,1.400000X1.200000*%
%ADD26RoundRect,0.150000X-0.587500X-0.150000X0.587500X-0.150000X0.587500X0.150000X-0.587500X0.150000X0*%
%ADD27RoundRect,0.155000X-0.212500X-0.155000X0.212500X-0.155000X0.212500X0.155000X-0.212500X0.155000X0*%
%ADD28RoundRect,0.125000X0.125000X0.125000X-0.125000X0.125000X-0.125000X-0.125000X0.125000X-0.125000X0*%
%ADD29RoundRect,0.155000X0.155000X-0.212500X0.155000X0.212500X-0.155000X0.212500X-0.155000X-0.212500X0*%
%ADD30RoundRect,0.160000X-0.197500X-0.160000X0.197500X-0.160000X0.197500X0.160000X-0.197500X0.160000X0*%
%ADD31RoundRect,0.250001X0.462499X0.624999X-0.462499X0.624999X-0.462499X-0.624999X0.462499X-0.624999X0*%
%ADD32R,2.000000X1.500000*%
%ADD33R,2.000000X3.800000*%
%ADD34RoundRect,0.150000X0.512500X0.150000X-0.512500X0.150000X-0.512500X-0.150000X0.512500X-0.150000X0*%
%ADD35R,1.200000X1.200000*%
%ADD36R,1.500000X1.600000*%
%ADD37RoundRect,0.170000X0.170000X0.170000X-0.170000X0.170000X-0.170000X-0.170000X0.170000X-0.170000X0*%
%ADD38RoundRect,0.062500X0.355000X0.062500X-0.355000X0.062500X-0.355000X-0.062500X0.355000X-0.062500X0*%
%ADD39RoundRect,0.062500X0.062500X0.355000X-0.062500X0.355000X-0.062500X-0.355000X0.062500X-0.355000X0*%
%ADD40RoundRect,0.207500X0.207500X-0.207500X0.207500X0.207500X-0.207500X0.207500X-0.207500X-0.207500X0*%
%ADD41RoundRect,0.062500X0.062500X-0.375000X0.062500X0.375000X-0.062500X0.375000X-0.062500X-0.375000X0*%
%ADD42RoundRect,0.062500X0.375000X-0.062500X0.375000X0.062500X-0.375000X0.062500X-0.375000X-0.062500X0*%
%ADD43RoundRect,0.237500X-0.237500X0.250000X-0.237500X-0.250000X0.237500X-0.250000X0.237500X0.250000X0*%
%ADD44RoundRect,0.250000X0.325000X0.450000X-0.325000X0.450000X-0.325000X-0.450000X0.325000X-0.450000X0*%
G04 APERTURE END LIST*
D10*
X108790000Y-67400000D03*
X109810000Y-67400000D03*
X108790000Y-66300000D03*
X109810000Y-66300000D03*
D11*
X121687500Y-69800000D03*
X123512500Y-69800000D03*
X99500000Y-82300000D03*
X101325000Y-82300000D03*
D12*
X78750000Y-61950000D03*
X80475000Y-61950000D03*
D13*
X102700000Y-77750000D03*
X98300000Y-77750000D03*
D14*
X78486000Y-72540500D03*
X78486000Y-70715500D03*
D15*
X93870000Y-66562200D03*
X92820000Y-66562200D03*
X93870000Y-67612200D03*
X92820000Y-67612200D03*
D16*
X94320000Y-65137200D03*
X93670000Y-65137200D03*
X93020000Y-65137200D03*
X92370000Y-65137200D03*
D17*
X91395000Y-66112200D03*
X91395000Y-66762200D03*
X91395000Y-67412200D03*
X91395000Y-68062200D03*
D16*
X92370000Y-69037200D03*
X93020000Y-69037200D03*
X93670000Y-69037200D03*
X94320000Y-69037200D03*
D17*
X95295000Y-68062200D03*
X95295000Y-67412200D03*
X95295000Y-66762200D03*
X95295000Y-66112200D03*
D11*
X78693000Y-63754000D03*
X80518000Y-63754000D03*
D18*
X103500000Y-71987500D03*
X103500000Y-73712500D03*
D19*
X93218000Y-70866000D03*
X91493000Y-70866000D03*
D20*
X86100000Y-77200000D03*
X86750000Y-77200000D03*
X87400000Y-77200000D03*
X87400000Y-75300000D03*
X86100000Y-75300000D03*
D21*
X84975000Y-60500000D03*
X87025000Y-60500000D03*
D12*
X87037500Y-70850000D03*
X88762500Y-70850000D03*
D11*
X89107000Y-63246000D03*
X90932000Y-63246000D03*
D19*
X94996000Y-63250000D03*
X93271000Y-63250000D03*
D22*
X91412500Y-77250000D03*
X89587500Y-77250000D03*
D19*
X116231500Y-76200000D03*
X114506500Y-76200000D03*
D11*
X94162500Y-59100000D03*
X95987500Y-59100000D03*
D23*
X99450000Y-66350000D03*
X99450000Y-65700000D03*
X99450000Y-65050000D03*
X97550000Y-65050000D03*
X97550000Y-66350000D03*
D24*
X102312000Y-85725000D03*
X102312000Y-84000000D03*
D21*
X95239500Y-82296000D03*
X97289500Y-82296000D03*
D12*
X104137500Y-81450000D03*
X105862500Y-81450000D03*
D22*
X122762500Y-81300000D03*
X120937500Y-81300000D03*
D25*
X108838000Y-72537600D03*
X106638000Y-72537600D03*
X106638000Y-74237600D03*
X108838000Y-74237600D03*
D24*
X102337000Y-89281000D03*
X102337000Y-87556000D03*
X92500000Y-88362500D03*
X92500000Y-86637500D03*
D26*
X93812500Y-76550000D03*
X93812500Y-78450000D03*
X95687500Y-77500000D03*
D27*
X107265000Y-75900000D03*
X108400000Y-75900000D03*
D28*
X88800000Y-85500000D03*
X86600000Y-85500000D03*
D22*
X91412500Y-75500000D03*
X89587500Y-75500000D03*
D29*
X110700000Y-73817500D03*
X110700000Y-72682500D03*
D30*
X88676000Y-67640200D03*
X89871000Y-67640200D03*
D18*
X100452000Y-71987500D03*
X100452000Y-73712500D03*
D19*
X95700000Y-74850000D03*
X93975000Y-74850000D03*
D31*
X89287500Y-87900000D03*
X86312500Y-87900000D03*
D11*
X89107000Y-60198000D03*
X90932000Y-60198000D03*
D32*
X104902000Y-83806000D03*
X104902000Y-86106000D03*
X104902000Y-88406000D03*
D33*
X111202000Y-86106000D03*
D11*
X114487500Y-78300000D03*
X116312500Y-78300000D03*
D34*
X87186000Y-68040200D03*
X87186000Y-66140200D03*
X84911000Y-67090200D03*
D35*
X97945500Y-59579000D03*
D36*
X101195500Y-60579000D03*
D35*
X97945500Y-61579000D03*
D19*
X105112500Y-58100000D03*
X103387500Y-58100000D03*
D23*
X97550000Y-68450000D03*
X97550000Y-69100000D03*
X97550000Y-69750000D03*
X99450000Y-69750000D03*
X99450000Y-68450000D03*
D22*
X88912500Y-82300000D03*
X87087500Y-82300000D03*
X109412500Y-61550000D03*
X107587500Y-61550000D03*
D19*
X119212500Y-69750000D03*
X117487500Y-69750000D03*
D37*
X117502700Y-73495300D03*
X117502700Y-72655300D03*
X116662700Y-73495300D03*
X116662700Y-72655300D03*
D38*
X118540200Y-73825300D03*
X118540200Y-73325300D03*
X118540200Y-72825300D03*
X118540200Y-72325300D03*
D39*
X117832700Y-71617800D03*
X117332700Y-71617800D03*
X116832700Y-71617800D03*
X116332700Y-71617800D03*
D38*
X115625200Y-72325300D03*
X115625200Y-72825300D03*
X115625200Y-73325300D03*
X115625200Y-73825300D03*
D39*
X116332700Y-74532800D03*
X116832700Y-74532800D03*
X117332700Y-74532800D03*
X117832700Y-74532800D03*
D21*
X103525000Y-61800000D03*
X105575000Y-61800000D03*
D11*
X113325000Y-69750000D03*
X115150000Y-69750000D03*
D12*
X118417000Y-78300000D03*
X120142000Y-78300000D03*
D40*
X104126000Y-68340000D03*
X105156000Y-68340000D03*
X106186000Y-68340000D03*
X104126000Y-67310000D03*
X105156000Y-67310000D03*
X106186000Y-67310000D03*
X104126000Y-66280000D03*
X105156000Y-66280000D03*
X106186000Y-66280000D03*
D41*
X103406000Y-69747500D03*
X103906000Y-69747500D03*
X104406000Y-69747500D03*
X104906000Y-69747500D03*
X105406000Y-69747500D03*
X105906000Y-69747500D03*
X106406000Y-69747500D03*
X106906000Y-69747500D03*
D42*
X107593500Y-69060000D03*
X107593500Y-68560000D03*
X107593500Y-68060000D03*
X107593500Y-67560000D03*
X107593500Y-67060000D03*
X107593500Y-66560000D03*
X107593500Y-66060000D03*
X107593500Y-65560000D03*
D41*
X106906000Y-64872500D03*
X106406000Y-64872500D03*
X105906000Y-64872500D03*
X105406000Y-64872500D03*
X104906000Y-64872500D03*
X104406000Y-64872500D03*
X103906000Y-64872500D03*
X103406000Y-64872500D03*
D42*
X102718500Y-65560000D03*
X102718500Y-66060000D03*
X102718500Y-66560000D03*
X102718500Y-67060000D03*
X102718500Y-67560000D03*
X102718500Y-68060000D03*
X102718500Y-68560000D03*
X102718500Y-69060000D03*
D21*
X84975000Y-63246000D03*
X87025000Y-63246000D03*
D43*
X85200000Y-81887500D03*
X85200000Y-83712500D03*
D44*
X92800000Y-82300000D03*
X90750000Y-82300000D03*
D30*
X88676000Y-66497200D03*
X89871000Y-66497200D03*
D12*
X118417000Y-76200000D03*
X120142000Y-76200000D03*
M02*
