%TF.GenerationSoftware,KiCad,Pcbnew,7.0.8*%
%TF.CreationDate,2023-12-30T22:16:51-05:00*%
%TF.ProjectId,Pump_Control_Board,50756d70-5f43-46f6-9e74-726f6c5f426f,rev?*%
%TF.SameCoordinates,Original*%
%TF.FileFunction,Drillmap*%
%TF.FilePolarity,Positive*%
%FSLAX45Y45*%
G04 Gerber Fmt 4.5, Leading zero omitted, Abs format (unit mm)*
G04 Created by KiCad (PCBNEW 7.0.8) date 2023-12-30 22:16:51*
%MOMM*%
%LPD*%
G01*
G04 APERTURE LIST*
%ADD10C,0.100000*%
%ADD11C,0.200000*%
%ADD12C,0.030000*%
%ADD13C,0.040000*%
%ADD14C,0.060000*%
%ADD15C,0.095000*%
%ADD16C,0.110000*%
%ADD17C,0.130000*%
%ADD18C,0.320000*%
G04 APERTURE END LIST*
D10*
X6800000Y-8800000D02*
G75*
G03*
X7200000Y-9200000I400000J0D01*
G01*
X13200000Y-4000000D02*
G75*
G03*
X12800000Y-3600000I-400000J0D01*
G01*
X13200000Y-4000000D02*
X13200000Y-8800000D01*
X6800000Y-8800000D02*
X6800000Y-4000000D01*
X7200000Y-3600000D02*
G75*
G03*
X6800000Y-4000000I0J-400000D01*
G01*
X12800000Y-9200000D02*
X7200000Y-9200000D01*
X7200000Y-3600000D02*
X12800000Y-3600000D01*
X12800000Y-9200000D02*
G75*
G03*
X13200000Y-8800000I0J400000D01*
G01*
D11*
D12*
X8137500Y-6412500D02*
X8167500Y-6442500D01*
X8167500Y-6412500D02*
X8137500Y-6442500D01*
X8142500Y-6132500D02*
X8172500Y-6162500D01*
X8172500Y-6132500D02*
X8142500Y-6162500D01*
X8465000Y-6325000D02*
X8495000Y-6355000D01*
X8495000Y-6325000D02*
X8465000Y-6355000D01*
X8715000Y-7815000D02*
X8745000Y-7845000D01*
X8745000Y-7815000D02*
X8715000Y-7845000D01*
X8817500Y-7697500D02*
X8847500Y-7727500D01*
X8847500Y-7697500D02*
X8817500Y-7727500D01*
X9127500Y-6882500D02*
X9157500Y-6912500D01*
X9157500Y-6882500D02*
X9127500Y-6912500D01*
X9225000Y-6975000D02*
X9255000Y-7005000D01*
X9255000Y-6975000D02*
X9225000Y-7005000D01*
X9255000Y-7502500D02*
X9285000Y-7532500D01*
X9285000Y-7502500D02*
X9255000Y-7532500D01*
X9287500Y-6405000D02*
X9317500Y-6435000D01*
X9317500Y-6405000D02*
X9287500Y-6435000D01*
X9365000Y-7172500D02*
X9395000Y-7202500D01*
X9395000Y-7172500D02*
X9365000Y-7202500D01*
X9402500Y-6407500D02*
X9432500Y-6437500D01*
X9432500Y-6407500D02*
X9402500Y-6437500D01*
X9520000Y-6492500D02*
X9550000Y-6522500D01*
X9550000Y-6492500D02*
X9520000Y-6522500D01*
X9567500Y-7007500D02*
X9597500Y-7037500D01*
X9597500Y-7007500D02*
X9567500Y-7037500D01*
X9605000Y-6732500D02*
X9635000Y-6762500D01*
X9635000Y-6732500D02*
X9605000Y-6762500D01*
X9612500Y-6377500D02*
X9642500Y-6407500D01*
X9642500Y-6377500D02*
X9612500Y-6407500D01*
X9845000Y-6490000D02*
X9875000Y-6520000D01*
X9875000Y-6490000D02*
X9845000Y-6520000D01*
X9945000Y-6725000D02*
X9975000Y-6755000D01*
X9975000Y-6725000D02*
X9945000Y-6755000D01*
X10005000Y-6892500D02*
X10035000Y-6922500D01*
X10035000Y-6892500D02*
X10005000Y-6922500D01*
X10070000Y-6680000D02*
X10100000Y-6710000D01*
X10100000Y-6680000D02*
X10070000Y-6710000D01*
X10130000Y-6760000D02*
X10160000Y-6790000D01*
X10160000Y-6760000D02*
X10130000Y-6790000D01*
X10155000Y-7357500D02*
X10185000Y-7387500D01*
X10185000Y-7357500D02*
X10155000Y-7387500D01*
X10205000Y-6270000D02*
X10235000Y-6300000D01*
X10235000Y-6270000D02*
X10205000Y-6300000D01*
X10305000Y-7057500D02*
X10335000Y-7087500D01*
X10335000Y-7057500D02*
X10305000Y-7087500D01*
X10325000Y-6350000D02*
X10355000Y-6380000D01*
X10355000Y-6350000D02*
X10325000Y-6380000D01*
X10405000Y-5915000D02*
X10435000Y-5945000D01*
X10435000Y-5915000D02*
X10405000Y-5945000D01*
X10410000Y-6635000D02*
X10440000Y-6665000D01*
X10440000Y-6635000D02*
X10410000Y-6665000D01*
X10435000Y-6325000D02*
X10465000Y-6355000D01*
X10465000Y-6325000D02*
X10435000Y-6355000D01*
X10515000Y-7240000D02*
X10545000Y-7270000D01*
X10545000Y-7240000D02*
X10515000Y-7270000D01*
X10585000Y-6810000D02*
X10615000Y-6840000D01*
X10615000Y-6810000D02*
X10585000Y-6840000D01*
X10625000Y-5905000D02*
X10655000Y-5935000D01*
X10655000Y-5905000D02*
X10625000Y-5935000D01*
X10625000Y-6345000D02*
X10655000Y-6375000D01*
X10655000Y-6345000D02*
X10625000Y-6375000D01*
X10975000Y-7525000D02*
X11005000Y-7555000D01*
X11005000Y-7525000D02*
X10975000Y-7555000D01*
X11220000Y-6865000D02*
X11250000Y-6895000D01*
X11250000Y-6865000D02*
X11220000Y-6895000D01*
X11437500Y-7712500D02*
X11467500Y-7742500D01*
X11467500Y-7712500D02*
X11437500Y-7742500D01*
X11925000Y-8055000D02*
X11955000Y-8085000D01*
X11955000Y-8055000D02*
X11925000Y-8085000D01*
X12005000Y-6862500D02*
X12035000Y-6892500D01*
X12035000Y-6862500D02*
X12005000Y-6892500D01*
D13*
X8547000Y-6709000D02*
G75*
G03*
X8547000Y-6709000I-20000J0D01*
G01*
X8600000Y-8505000D02*
G75*
G03*
X8600000Y-8505000I-20000J0D01*
G01*
X9050000Y-7085000D02*
G75*
G03*
X9050000Y-7085000I-20000J0D01*
G01*
X9425000Y-8230000D02*
G75*
G03*
X9425000Y-8230000I-20000J0D01*
G01*
X9440000Y-8675000D02*
G75*
G03*
X9440000Y-8675000I-20000J0D01*
G01*
X9697400Y-6159500D02*
G75*
G03*
X9697400Y-6159500I-20000J0D01*
G01*
X10090000Y-8755000D02*
G75*
G03*
X10090000Y-8755000I-20000J0D01*
G01*
X10240000Y-5810000D02*
G75*
G03*
X10240000Y-5810000I-20000J0D01*
G01*
X10355000Y-8400000D02*
G75*
G03*
X10355000Y-8400000I-20000J0D01*
G01*
X11010000Y-6010000D02*
G75*
G03*
X11010000Y-6010000I-20000J0D01*
G01*
X11510000Y-6300000D02*
G75*
G03*
X11510000Y-6300000I-20000J0D01*
G01*
X11685000Y-7265000D02*
G75*
G03*
X11685000Y-7265000I-20000J0D01*
G01*
X11685000Y-7350000D02*
G75*
G03*
X11685000Y-7350000I-20000J0D01*
G01*
X11770000Y-7265000D02*
G75*
G03*
X11770000Y-7265000I-20000J0D01*
G01*
X11770000Y-7350000D02*
G75*
G03*
X11770000Y-7350000I-20000J0D01*
G01*
X12015000Y-7370000D02*
G75*
G03*
X12015000Y-7370000I-20000J0D01*
G01*
X12035000Y-7725000D02*
G75*
G03*
X12035000Y-7725000I-20000J0D01*
G01*
X12185000Y-7165000D02*
G75*
G03*
X12185000Y-7165000I-20000J0D01*
G01*
X7499900Y-6382620D02*
X7499900Y-6422620D01*
X7479900Y-6402620D02*
X7519900Y-6402620D01*
X7499900Y-6467620D02*
X7499900Y-6507620D01*
X7479900Y-6487620D02*
X7519900Y-6487620D01*
X7499900Y-6552620D02*
X7499900Y-6592620D01*
X7479900Y-6572620D02*
X7519900Y-6572620D01*
X7499900Y-6637620D02*
X7499900Y-6677620D01*
X7479900Y-6657620D02*
X7519900Y-6657620D01*
X7499900Y-6722620D02*
X7499900Y-6762620D01*
X7479900Y-6742620D02*
X7519900Y-6742620D01*
X7499900Y-6807620D02*
X7499900Y-6847620D01*
X7479900Y-6827620D02*
X7519900Y-6827620D01*
X7499900Y-6892620D02*
X7499900Y-6932620D01*
X7479900Y-6912620D02*
X7519900Y-6912620D01*
X7499900Y-6977620D02*
X7499900Y-7017620D01*
X7479900Y-6997620D02*
X7519900Y-6997620D01*
X7634900Y-6382620D02*
X7634900Y-6422620D01*
X7614900Y-6402620D02*
X7654900Y-6402620D01*
X7634900Y-6467620D02*
X7634900Y-6507620D01*
X7614900Y-6487620D02*
X7654900Y-6487620D01*
X7634900Y-6552620D02*
X7634900Y-6592620D01*
X7614900Y-6572620D02*
X7654900Y-6572620D01*
X7634900Y-6637620D02*
X7634900Y-6677620D01*
X7614900Y-6657620D02*
X7654900Y-6657620D01*
X7634900Y-6722620D02*
X7634900Y-6762620D01*
X7614900Y-6742620D02*
X7654900Y-6742620D01*
X7634900Y-6807620D02*
X7634900Y-6847620D01*
X7614900Y-6827620D02*
X7654900Y-6827620D01*
X7634900Y-6892620D02*
X7634900Y-6932620D01*
X7614900Y-6912620D02*
X7654900Y-6912620D01*
X7634900Y-6977620D02*
X7634900Y-7017620D01*
X7614900Y-6997620D02*
X7654900Y-6997620D01*
D14*
X7220113Y-6288833D02*
X7220113Y-6246407D01*
X7177687Y-6246407D01*
X7177687Y-6288833D01*
X7220113Y-6288833D01*
D11*
X7238900Y-6237620D02*
X7158900Y-6237620D01*
X7158900Y-6237620D02*
G75*
G03*
X7158900Y-6297620I0J-30000D01*
G01*
X7158900Y-6297620D02*
X7238900Y-6297620D01*
X7238900Y-6297620D02*
G75*
G03*
X7238900Y-6237620I0J30000D01*
G01*
D14*
X7220113Y-7153833D02*
X7220113Y-7111407D01*
X7177687Y-7111407D01*
X7177687Y-7153833D01*
X7220113Y-7153833D01*
D11*
X7238900Y-7102620D02*
X7158900Y-7102620D01*
X7158900Y-7102620D02*
G75*
G03*
X7158900Y-7162620I0J-30000D01*
G01*
X7158900Y-7162620D02*
X7238900Y-7162620D01*
X7238900Y-7162620D02*
G75*
G03*
X7238900Y-7102620I0J30000D01*
G01*
D14*
X7558113Y-6288833D02*
X7558113Y-6246407D01*
X7515687Y-6246407D01*
X7515687Y-6288833D01*
X7558113Y-6288833D01*
D11*
X7611900Y-6237620D02*
X7461900Y-6237620D01*
X7461900Y-6237620D02*
G75*
G03*
X7461900Y-6297620I0J-30000D01*
G01*
X7461900Y-6297620D02*
X7611900Y-6297620D01*
X7611900Y-6297620D02*
G75*
G03*
X7611900Y-6237620I0J30000D01*
G01*
D14*
X7558113Y-7153833D02*
X7558113Y-7111407D01*
X7515687Y-7111407D01*
X7515687Y-7153833D01*
X7558113Y-7153833D01*
D11*
X7611900Y-7102620D02*
X7461900Y-7102620D01*
X7461900Y-7102620D02*
G75*
G03*
X7461900Y-7162620I0J-30000D01*
G01*
X7461900Y-7162620D02*
X7611900Y-7162620D01*
X7611900Y-7162620D02*
G75*
G03*
X7611900Y-7102620I0J30000D01*
G01*
D14*
X9761213Y-8698473D02*
X9761213Y-8656047D01*
X9718787Y-8656047D01*
X9718787Y-8698473D01*
X9761213Y-8698473D01*
X9761213Y-8898473D02*
X9761213Y-8856047D01*
X9718787Y-8856047D01*
X9718787Y-8898473D01*
X9761213Y-8898473D01*
X11061213Y-7891213D02*
X11061213Y-7848787D01*
X11018787Y-7848787D01*
X11018787Y-7891213D01*
X11061213Y-7891213D01*
X11061213Y-8091213D02*
X11061213Y-8048787D01*
X11018787Y-8048787D01*
X11018787Y-8091213D01*
X11061213Y-8091213D01*
D15*
X12792500Y-7332500D02*
X12840000Y-7285000D01*
X12792500Y-7237500D01*
X12745000Y-7285000D01*
X12792500Y-7332500D01*
X12792500Y-7582500D02*
X12840000Y-7535000D01*
X12792500Y-7487500D01*
X12745000Y-7535000D01*
X12792500Y-7582500D01*
X12792500Y-7832500D02*
X12840000Y-7785000D01*
X12792500Y-7737500D01*
X12745000Y-7785000D01*
X12792500Y-7832500D01*
X12792500Y-8082500D02*
X12840000Y-8035000D01*
X12792500Y-7987500D01*
X12745000Y-8035000D01*
X12792500Y-8082500D01*
D10*
X7010000Y-4656000D02*
X7110000Y-4756000D01*
X7110000Y-4656000D02*
X7010000Y-4756000D01*
X7110000Y-4706000D02*
G75*
G03*
X7110000Y-4706000I-50000J0D01*
G01*
X7010000Y-4910000D02*
X7110000Y-5010000D01*
X7110000Y-4910000D02*
X7010000Y-5010000D01*
X7110000Y-4960000D02*
G75*
G03*
X7110000Y-4960000I-50000J0D01*
G01*
X7010000Y-5164000D02*
X7110000Y-5264000D01*
X7110000Y-5164000D02*
X7010000Y-5264000D01*
X7110000Y-5214000D02*
G75*
G03*
X7110000Y-5214000I-50000J0D01*
G01*
X7010000Y-5418000D02*
X7110000Y-5518000D01*
X7110000Y-5418000D02*
X7010000Y-5518000D01*
X7110000Y-5468000D02*
G75*
G03*
X7110000Y-5468000I-50000J0D01*
G01*
X7524200Y-7810000D02*
X7624200Y-7910000D01*
X7624200Y-7810000D02*
X7524200Y-7910000D01*
X7624200Y-7860000D02*
G75*
G03*
X7624200Y-7860000I-50000J0D01*
G01*
D11*
X7524200Y-7750000D02*
X7524200Y-7970000D01*
X7524200Y-7970000D02*
G75*
G03*
X7624200Y-7970000I50000J0D01*
G01*
X7624200Y-7970000D02*
X7624200Y-7750000D01*
X7624200Y-7750000D02*
G75*
G03*
X7524200Y-7750000I-50000J0D01*
G01*
D10*
X7864200Y-8290000D02*
X7964200Y-8390000D01*
X7964200Y-8290000D02*
X7864200Y-8390000D01*
X7964200Y-8340000D02*
G75*
G03*
X7964200Y-8340000I-50000J0D01*
G01*
D11*
X8024200Y-8290000D02*
X7804200Y-8290000D01*
X7804200Y-8290000D02*
G75*
G03*
X7804200Y-8390000I0J-50000D01*
G01*
X7804200Y-8390000D02*
X8024200Y-8390000D01*
X8024200Y-8390000D02*
G75*
G03*
X8024200Y-8290000I0J50000D01*
G01*
D10*
X8154200Y-7810000D02*
X8254200Y-7910000D01*
X8254200Y-7810000D02*
X8154200Y-7910000D01*
X8254200Y-7860000D02*
G75*
G03*
X8254200Y-7860000I-50000J0D01*
G01*
D11*
X8154200Y-7730000D02*
X8154200Y-7990000D01*
X8154200Y-7990000D02*
G75*
G03*
X8254200Y-7990000I50000J0D01*
G01*
X8254200Y-7990000D02*
X8254200Y-7730000D01*
X8254200Y-7730000D02*
G75*
G03*
X8154200Y-7730000I-50000J0D01*
G01*
D10*
X10920000Y-4275000D02*
X11020000Y-4375000D01*
X11020000Y-4275000D02*
X10920000Y-4375000D01*
X11020000Y-4325000D02*
G75*
G03*
X11020000Y-4325000I-50000J0D01*
G01*
X10920000Y-4525000D02*
X11020000Y-4625000D01*
X11020000Y-4525000D02*
X10920000Y-4625000D01*
X11020000Y-4575000D02*
G75*
G03*
X11020000Y-4575000I-50000J0D01*
G01*
X10920000Y-4775000D02*
X11020000Y-4875000D01*
X11020000Y-4775000D02*
X10920000Y-4875000D01*
X11020000Y-4825000D02*
G75*
G03*
X11020000Y-4825000I-50000J0D01*
G01*
X12880000Y-4650000D02*
X12980000Y-4750000D01*
X12980000Y-4650000D02*
X12880000Y-4750000D01*
X12980000Y-4700000D02*
G75*
G03*
X12980000Y-4700000I-50000J0D01*
G01*
X12880000Y-4904000D02*
X12980000Y-5004000D01*
X12980000Y-4904000D02*
X12880000Y-5004000D01*
X12980000Y-4954000D02*
G75*
G03*
X12980000Y-4954000I-50000J0D01*
G01*
X12880000Y-5158000D02*
X12980000Y-5258000D01*
X12980000Y-5158000D02*
X12880000Y-5258000D01*
X12980000Y-5208000D02*
G75*
G03*
X12980000Y-5208000I-50000J0D01*
G01*
X12880000Y-5412000D02*
X12980000Y-5512000D01*
X12980000Y-5412000D02*
X12880000Y-5512000D01*
X12980000Y-5462000D02*
G75*
G03*
X12980000Y-5462000I-50000J0D01*
G01*
X12880000Y-5666000D02*
X12980000Y-5766000D01*
X12980000Y-5666000D02*
X12880000Y-5766000D01*
X12980000Y-5716000D02*
G75*
G03*
X12980000Y-5716000I-50000J0D01*
G01*
X12880000Y-5920000D02*
X12980000Y-6020000D01*
X12980000Y-5920000D02*
X12880000Y-6020000D01*
X12980000Y-5970000D02*
G75*
G03*
X12980000Y-5970000I-50000J0D01*
G01*
D16*
X11497000Y-8339700D02*
X11607000Y-8449700D01*
X11607000Y-8339700D02*
X11497000Y-8449700D01*
X11552000Y-8339700D02*
X11552000Y-8449700D01*
X11497000Y-8394700D02*
X11607000Y-8394700D01*
X11497000Y-8789700D02*
X11607000Y-8899700D01*
X11607000Y-8789700D02*
X11497000Y-8899700D01*
X11552000Y-8789700D02*
X11552000Y-8899700D01*
X11497000Y-8844700D02*
X11607000Y-8844700D01*
X12147000Y-8339700D02*
X12257000Y-8449700D01*
X12257000Y-8339700D02*
X12147000Y-8449700D01*
X12202000Y-8339700D02*
X12202000Y-8449700D01*
X12147000Y-8394700D02*
X12257000Y-8394700D01*
X12147000Y-8789700D02*
X12257000Y-8899700D01*
X12257000Y-8789700D02*
X12147000Y-8899700D01*
X12202000Y-8789700D02*
X12202000Y-8899700D01*
X12147000Y-8844700D02*
X12257000Y-8844700D01*
D17*
X11172800Y-5831800D02*
X11302800Y-5961800D01*
X11302800Y-5831800D02*
X11172800Y-5961800D01*
X11283762Y-5942762D02*
X11283762Y-5850838D01*
X11191838Y-5850838D01*
X11191838Y-5942762D01*
X11283762Y-5942762D01*
X11172800Y-6331800D02*
X11302800Y-6461800D01*
X11302800Y-6331800D02*
X11172800Y-6461800D01*
X11283762Y-6442762D02*
X11283762Y-6350838D01*
X11191838Y-6350838D01*
X11191838Y-6442762D01*
X11283762Y-6442762D01*
X12422800Y-5831800D02*
X12552800Y-5961800D01*
X12552800Y-5831800D02*
X12422800Y-5961800D01*
X12533762Y-5942762D02*
X12533762Y-5850838D01*
X12441838Y-5850838D01*
X12441838Y-5942762D01*
X12533762Y-5942762D01*
X12422800Y-6331800D02*
X12552800Y-6461800D01*
X12552800Y-6331800D02*
X12422800Y-6461800D01*
X12533762Y-6442762D02*
X12533762Y-6350838D01*
X12441838Y-6350838D01*
X12441838Y-6442762D01*
X12533762Y-6442762D01*
D18*
X7028200Y-8640000D02*
X7348200Y-8960000D01*
X7348200Y-8640000D02*
X7028200Y-8960000D01*
X7188200Y-8960000D02*
X7348200Y-8800000D01*
X7188200Y-8640000D01*
X7028200Y-8800000D01*
X7188200Y-8960000D01*
X7040000Y-3840000D02*
X7360000Y-4160000D01*
X7360000Y-3840000D02*
X7040000Y-4160000D01*
X7200000Y-4160000D02*
X7360000Y-4000000D01*
X7200000Y-3840000D01*
X7040000Y-4000000D01*
X7200000Y-4160000D01*
X12640000Y-3840000D02*
X12960000Y-4160000D01*
X12960000Y-3840000D02*
X12640000Y-4160000D01*
X12800000Y-4160000D02*
X12960000Y-4000000D01*
X12800000Y-3840000D01*
X12640000Y-4000000D01*
X12800000Y-4160000D01*
X12640000Y-8640000D02*
X12960000Y-8960000D01*
X12960000Y-8640000D02*
X12640000Y-8960000D01*
X12800000Y-8960000D02*
X12960000Y-8800000D01*
X12800000Y-8640000D01*
X12640000Y-8800000D01*
X12800000Y-8960000D01*
D11*
X7055777Y-9516484D02*
X7055777Y-9316484D01*
X7055777Y-9316484D02*
X7103396Y-9316484D01*
X7103396Y-9316484D02*
X7131967Y-9326008D01*
X7131967Y-9326008D02*
X7151015Y-9345055D01*
X7151015Y-9345055D02*
X7160539Y-9364103D01*
X7160539Y-9364103D02*
X7170062Y-9402198D01*
X7170062Y-9402198D02*
X7170062Y-9430770D01*
X7170062Y-9430770D02*
X7160539Y-9468865D01*
X7160539Y-9468865D02*
X7151015Y-9487912D01*
X7151015Y-9487912D02*
X7131967Y-9506960D01*
X7131967Y-9506960D02*
X7103396Y-9516484D01*
X7103396Y-9516484D02*
X7055777Y-9516484D01*
X7255777Y-9516484D02*
X7255777Y-9383150D01*
X7255777Y-9421246D02*
X7265301Y-9402198D01*
X7265301Y-9402198D02*
X7274824Y-9392674D01*
X7274824Y-9392674D02*
X7293872Y-9383150D01*
X7293872Y-9383150D02*
X7312920Y-9383150D01*
X7379586Y-9516484D02*
X7379586Y-9383150D01*
X7379586Y-9316484D02*
X7370062Y-9326008D01*
X7370062Y-9326008D02*
X7379586Y-9335531D01*
X7379586Y-9335531D02*
X7389110Y-9326008D01*
X7389110Y-9326008D02*
X7379586Y-9316484D01*
X7379586Y-9316484D02*
X7379586Y-9335531D01*
X7503396Y-9516484D02*
X7484348Y-9506960D01*
X7484348Y-9506960D02*
X7474824Y-9487912D01*
X7474824Y-9487912D02*
X7474824Y-9316484D01*
X7608158Y-9516484D02*
X7589110Y-9506960D01*
X7589110Y-9506960D02*
X7579586Y-9487912D01*
X7579586Y-9487912D02*
X7579586Y-9316484D01*
X7836729Y-9516484D02*
X7836729Y-9316484D01*
X7836729Y-9316484D02*
X7903396Y-9459341D01*
X7903396Y-9459341D02*
X7970062Y-9316484D01*
X7970062Y-9316484D02*
X7970062Y-9516484D01*
X8151015Y-9516484D02*
X8151015Y-9411722D01*
X8151015Y-9411722D02*
X8141491Y-9392674D01*
X8141491Y-9392674D02*
X8122443Y-9383150D01*
X8122443Y-9383150D02*
X8084348Y-9383150D01*
X8084348Y-9383150D02*
X8065301Y-9392674D01*
X8151015Y-9506960D02*
X8131967Y-9516484D01*
X8131967Y-9516484D02*
X8084348Y-9516484D01*
X8084348Y-9516484D02*
X8065301Y-9506960D01*
X8065301Y-9506960D02*
X8055777Y-9487912D01*
X8055777Y-9487912D02*
X8055777Y-9468865D01*
X8055777Y-9468865D02*
X8065301Y-9449817D01*
X8065301Y-9449817D02*
X8084348Y-9440293D01*
X8084348Y-9440293D02*
X8131967Y-9440293D01*
X8131967Y-9440293D02*
X8151015Y-9430770D01*
X8246253Y-9383150D02*
X8246253Y-9583150D01*
X8246253Y-9392674D02*
X8265301Y-9383150D01*
X8265301Y-9383150D02*
X8303396Y-9383150D01*
X8303396Y-9383150D02*
X8322443Y-9392674D01*
X8322443Y-9392674D02*
X8331967Y-9402198D01*
X8331967Y-9402198D02*
X8341491Y-9421246D01*
X8341491Y-9421246D02*
X8341491Y-9478389D01*
X8341491Y-9478389D02*
X8331967Y-9497436D01*
X8331967Y-9497436D02*
X8322443Y-9506960D01*
X8322443Y-9506960D02*
X8303396Y-9516484D01*
X8303396Y-9516484D02*
X8265301Y-9516484D01*
X8265301Y-9516484D02*
X8246253Y-9506960D01*
X8427205Y-9497436D02*
X8436729Y-9506960D01*
X8436729Y-9506960D02*
X8427205Y-9516484D01*
X8427205Y-9516484D02*
X8417682Y-9506960D01*
X8417682Y-9506960D02*
X8427205Y-9497436D01*
X8427205Y-9497436D02*
X8427205Y-9516484D01*
X8427205Y-9392674D02*
X8436729Y-9402198D01*
X8436729Y-9402198D02*
X8427205Y-9411722D01*
X8427205Y-9411722D02*
X8417682Y-9402198D01*
X8417682Y-9402198D02*
X8427205Y-9392674D01*
X8427205Y-9392674D02*
X8427205Y-9411722D01*
D12*
X6765000Y-9830000D02*
X6795000Y-9860000D01*
X6795000Y-9830000D02*
X6765000Y-9860000D01*
D11*
X7093872Y-9736484D02*
X7112920Y-9736484D01*
X7112920Y-9736484D02*
X7131967Y-9746008D01*
X7131967Y-9746008D02*
X7141491Y-9755531D01*
X7141491Y-9755531D02*
X7151015Y-9774579D01*
X7151015Y-9774579D02*
X7160539Y-9812674D01*
X7160539Y-9812674D02*
X7160539Y-9860293D01*
X7160539Y-9860293D02*
X7151015Y-9898389D01*
X7151015Y-9898389D02*
X7141491Y-9917436D01*
X7141491Y-9917436D02*
X7131967Y-9926960D01*
X7131967Y-9926960D02*
X7112920Y-9936484D01*
X7112920Y-9936484D02*
X7093872Y-9936484D01*
X7093872Y-9936484D02*
X7074824Y-9926960D01*
X7074824Y-9926960D02*
X7065301Y-9917436D01*
X7065301Y-9917436D02*
X7055777Y-9898389D01*
X7055777Y-9898389D02*
X7046253Y-9860293D01*
X7046253Y-9860293D02*
X7046253Y-9812674D01*
X7046253Y-9812674D02*
X7055777Y-9774579D01*
X7055777Y-9774579D02*
X7065301Y-9755531D01*
X7065301Y-9755531D02*
X7074824Y-9746008D01*
X7074824Y-9746008D02*
X7093872Y-9736484D01*
X7246253Y-9917436D02*
X7255777Y-9926960D01*
X7255777Y-9926960D02*
X7246253Y-9936484D01*
X7246253Y-9936484D02*
X7236729Y-9926960D01*
X7236729Y-9926960D02*
X7246253Y-9917436D01*
X7246253Y-9917436D02*
X7246253Y-9936484D01*
X7322443Y-9736484D02*
X7446253Y-9736484D01*
X7446253Y-9736484D02*
X7379586Y-9812674D01*
X7379586Y-9812674D02*
X7408158Y-9812674D01*
X7408158Y-9812674D02*
X7427205Y-9822198D01*
X7427205Y-9822198D02*
X7436729Y-9831722D01*
X7436729Y-9831722D02*
X7446253Y-9850770D01*
X7446253Y-9850770D02*
X7446253Y-9898389D01*
X7446253Y-9898389D02*
X7436729Y-9917436D01*
X7436729Y-9917436D02*
X7427205Y-9926960D01*
X7427205Y-9926960D02*
X7408158Y-9936484D01*
X7408158Y-9936484D02*
X7351015Y-9936484D01*
X7351015Y-9936484D02*
X7331967Y-9926960D01*
X7331967Y-9926960D02*
X7322443Y-9917436D01*
X7570062Y-9736484D02*
X7589110Y-9736484D01*
X7589110Y-9736484D02*
X7608158Y-9746008D01*
X7608158Y-9746008D02*
X7617682Y-9755531D01*
X7617682Y-9755531D02*
X7627205Y-9774579D01*
X7627205Y-9774579D02*
X7636729Y-9812674D01*
X7636729Y-9812674D02*
X7636729Y-9860293D01*
X7636729Y-9860293D02*
X7627205Y-9898389D01*
X7627205Y-9898389D02*
X7617682Y-9917436D01*
X7617682Y-9917436D02*
X7608158Y-9926960D01*
X7608158Y-9926960D02*
X7589110Y-9936484D01*
X7589110Y-9936484D02*
X7570062Y-9936484D01*
X7570062Y-9936484D02*
X7551015Y-9926960D01*
X7551015Y-9926960D02*
X7541491Y-9917436D01*
X7541491Y-9917436D02*
X7531967Y-9898389D01*
X7531967Y-9898389D02*
X7522443Y-9860293D01*
X7522443Y-9860293D02*
X7522443Y-9812674D01*
X7522443Y-9812674D02*
X7531967Y-9774579D01*
X7531967Y-9774579D02*
X7541491Y-9755531D01*
X7541491Y-9755531D02*
X7551015Y-9746008D01*
X7551015Y-9746008D02*
X7570062Y-9736484D01*
X7760539Y-9736484D02*
X7779586Y-9736484D01*
X7779586Y-9736484D02*
X7798634Y-9746008D01*
X7798634Y-9746008D02*
X7808158Y-9755531D01*
X7808158Y-9755531D02*
X7817682Y-9774579D01*
X7817682Y-9774579D02*
X7827205Y-9812674D01*
X7827205Y-9812674D02*
X7827205Y-9860293D01*
X7827205Y-9860293D02*
X7817682Y-9898389D01*
X7817682Y-9898389D02*
X7808158Y-9917436D01*
X7808158Y-9917436D02*
X7798634Y-9926960D01*
X7798634Y-9926960D02*
X7779586Y-9936484D01*
X7779586Y-9936484D02*
X7760539Y-9936484D01*
X7760539Y-9936484D02*
X7741491Y-9926960D01*
X7741491Y-9926960D02*
X7731967Y-9917436D01*
X7731967Y-9917436D02*
X7722443Y-9898389D01*
X7722443Y-9898389D02*
X7712920Y-9860293D01*
X7712920Y-9860293D02*
X7712920Y-9812674D01*
X7712920Y-9812674D02*
X7722443Y-9774579D01*
X7722443Y-9774579D02*
X7731967Y-9755531D01*
X7731967Y-9755531D02*
X7741491Y-9746008D01*
X7741491Y-9746008D02*
X7760539Y-9736484D01*
X7912920Y-9936484D02*
X7912920Y-9803150D01*
X7912920Y-9822198D02*
X7922443Y-9812674D01*
X7922443Y-9812674D02*
X7941491Y-9803150D01*
X7941491Y-9803150D02*
X7970063Y-9803150D01*
X7970063Y-9803150D02*
X7989110Y-9812674D01*
X7989110Y-9812674D02*
X7998634Y-9831722D01*
X7998634Y-9831722D02*
X7998634Y-9936484D01*
X7998634Y-9831722D02*
X8008158Y-9812674D01*
X8008158Y-9812674D02*
X8027205Y-9803150D01*
X8027205Y-9803150D02*
X8055777Y-9803150D01*
X8055777Y-9803150D02*
X8074824Y-9812674D01*
X8074824Y-9812674D02*
X8084348Y-9831722D01*
X8084348Y-9831722D02*
X8084348Y-9936484D01*
X8179586Y-9936484D02*
X8179586Y-9803150D01*
X8179586Y-9822198D02*
X8189110Y-9812674D01*
X8189110Y-9812674D02*
X8208158Y-9803150D01*
X8208158Y-9803150D02*
X8236729Y-9803150D01*
X8236729Y-9803150D02*
X8255777Y-9812674D01*
X8255777Y-9812674D02*
X8265301Y-9831722D01*
X8265301Y-9831722D02*
X8265301Y-9936484D01*
X8265301Y-9831722D02*
X8274824Y-9812674D01*
X8274824Y-9812674D02*
X8293872Y-9803150D01*
X8293872Y-9803150D02*
X8322443Y-9803150D01*
X8322443Y-9803150D02*
X8341491Y-9812674D01*
X8341491Y-9812674D02*
X8351015Y-9831722D01*
X8351015Y-9831722D02*
X8351015Y-9936484D01*
X8741491Y-9726960D02*
X8570063Y-9984103D01*
X8998634Y-9736484D02*
X9017682Y-9736484D01*
X9017682Y-9736484D02*
X9036729Y-9746008D01*
X9036729Y-9746008D02*
X9046253Y-9755531D01*
X9046253Y-9755531D02*
X9055777Y-9774579D01*
X9055777Y-9774579D02*
X9065301Y-9812674D01*
X9065301Y-9812674D02*
X9065301Y-9860293D01*
X9065301Y-9860293D02*
X9055777Y-9898389D01*
X9055777Y-9898389D02*
X9046253Y-9917436D01*
X9046253Y-9917436D02*
X9036729Y-9926960D01*
X9036729Y-9926960D02*
X9017682Y-9936484D01*
X9017682Y-9936484D02*
X8998634Y-9936484D01*
X8998634Y-9936484D02*
X8979587Y-9926960D01*
X8979587Y-9926960D02*
X8970063Y-9917436D01*
X8970063Y-9917436D02*
X8960539Y-9898389D01*
X8960539Y-9898389D02*
X8951015Y-9860293D01*
X8951015Y-9860293D02*
X8951015Y-9812674D01*
X8951015Y-9812674D02*
X8960539Y-9774579D01*
X8960539Y-9774579D02*
X8970063Y-9755531D01*
X8970063Y-9755531D02*
X8979587Y-9746008D01*
X8979587Y-9746008D02*
X8998634Y-9736484D01*
X9151015Y-9917436D02*
X9160539Y-9926960D01*
X9160539Y-9926960D02*
X9151015Y-9936484D01*
X9151015Y-9936484D02*
X9141491Y-9926960D01*
X9141491Y-9926960D02*
X9151015Y-9917436D01*
X9151015Y-9917436D02*
X9151015Y-9936484D01*
X9284348Y-9736484D02*
X9303396Y-9736484D01*
X9303396Y-9736484D02*
X9322444Y-9746008D01*
X9322444Y-9746008D02*
X9331968Y-9755531D01*
X9331968Y-9755531D02*
X9341491Y-9774579D01*
X9341491Y-9774579D02*
X9351015Y-9812674D01*
X9351015Y-9812674D02*
X9351015Y-9860293D01*
X9351015Y-9860293D02*
X9341491Y-9898389D01*
X9341491Y-9898389D02*
X9331968Y-9917436D01*
X9331968Y-9917436D02*
X9322444Y-9926960D01*
X9322444Y-9926960D02*
X9303396Y-9936484D01*
X9303396Y-9936484D02*
X9284348Y-9936484D01*
X9284348Y-9936484D02*
X9265301Y-9926960D01*
X9265301Y-9926960D02*
X9255777Y-9917436D01*
X9255777Y-9917436D02*
X9246253Y-9898389D01*
X9246253Y-9898389D02*
X9236729Y-9860293D01*
X9236729Y-9860293D02*
X9236729Y-9812674D01*
X9236729Y-9812674D02*
X9246253Y-9774579D01*
X9246253Y-9774579D02*
X9255777Y-9755531D01*
X9255777Y-9755531D02*
X9265301Y-9746008D01*
X9265301Y-9746008D02*
X9284348Y-9736484D01*
X9541491Y-9936484D02*
X9427206Y-9936484D01*
X9484348Y-9936484D02*
X9484348Y-9736484D01*
X9484348Y-9736484D02*
X9465301Y-9765055D01*
X9465301Y-9765055D02*
X9446253Y-9784103D01*
X9446253Y-9784103D02*
X9427206Y-9793627D01*
X9731968Y-9936484D02*
X9617682Y-9936484D01*
X9674825Y-9936484D02*
X9674825Y-9736484D01*
X9674825Y-9736484D02*
X9655777Y-9765055D01*
X9655777Y-9765055D02*
X9636729Y-9784103D01*
X9636729Y-9784103D02*
X9617682Y-9793627D01*
X9846253Y-9822198D02*
X9827206Y-9812674D01*
X9827206Y-9812674D02*
X9817682Y-9803150D01*
X9817682Y-9803150D02*
X9808158Y-9784103D01*
X9808158Y-9784103D02*
X9808158Y-9774579D01*
X9808158Y-9774579D02*
X9817682Y-9755531D01*
X9817682Y-9755531D02*
X9827206Y-9746008D01*
X9827206Y-9746008D02*
X9846253Y-9736484D01*
X9846253Y-9736484D02*
X9884349Y-9736484D01*
X9884349Y-9736484D02*
X9903396Y-9746008D01*
X9903396Y-9746008D02*
X9912920Y-9755531D01*
X9912920Y-9755531D02*
X9922444Y-9774579D01*
X9922444Y-9774579D02*
X9922444Y-9784103D01*
X9922444Y-9784103D02*
X9912920Y-9803150D01*
X9912920Y-9803150D02*
X9903396Y-9812674D01*
X9903396Y-9812674D02*
X9884349Y-9822198D01*
X9884349Y-9822198D02*
X9846253Y-9822198D01*
X9846253Y-9822198D02*
X9827206Y-9831722D01*
X9827206Y-9831722D02*
X9817682Y-9841246D01*
X9817682Y-9841246D02*
X9808158Y-9860293D01*
X9808158Y-9860293D02*
X9808158Y-9898389D01*
X9808158Y-9898389D02*
X9817682Y-9917436D01*
X9817682Y-9917436D02*
X9827206Y-9926960D01*
X9827206Y-9926960D02*
X9846253Y-9936484D01*
X9846253Y-9936484D02*
X9884349Y-9936484D01*
X9884349Y-9936484D02*
X9903396Y-9926960D01*
X9903396Y-9926960D02*
X9912920Y-9917436D01*
X9912920Y-9917436D02*
X9922444Y-9898389D01*
X9922444Y-9898389D02*
X9922444Y-9860293D01*
X9922444Y-9860293D02*
X9912920Y-9841246D01*
X9912920Y-9841246D02*
X9903396Y-9831722D01*
X9903396Y-9831722D02*
X9884349Y-9822198D01*
X9998634Y-9736484D02*
X9998634Y-9774579D01*
X10074825Y-9736484D02*
X10074825Y-9774579D01*
X10370063Y-10012674D02*
X10360539Y-10003150D01*
X10360539Y-10003150D02*
X10341491Y-9974579D01*
X10341491Y-9974579D02*
X10331968Y-9955531D01*
X10331968Y-9955531D02*
X10322444Y-9926960D01*
X10322444Y-9926960D02*
X10312920Y-9879341D01*
X10312920Y-9879341D02*
X10312920Y-9841246D01*
X10312920Y-9841246D02*
X10322444Y-9793627D01*
X10322444Y-9793627D02*
X10331968Y-9765055D01*
X10331968Y-9765055D02*
X10341491Y-9746008D01*
X10341491Y-9746008D02*
X10360539Y-9717436D01*
X10360539Y-9717436D02*
X10370063Y-9707912D01*
X10427206Y-9736484D02*
X10551015Y-9736484D01*
X10551015Y-9736484D02*
X10484349Y-9812674D01*
X10484349Y-9812674D02*
X10512920Y-9812674D01*
X10512920Y-9812674D02*
X10531968Y-9822198D01*
X10531968Y-9822198D02*
X10541491Y-9831722D01*
X10541491Y-9831722D02*
X10551015Y-9850770D01*
X10551015Y-9850770D02*
X10551015Y-9898389D01*
X10551015Y-9898389D02*
X10541491Y-9917436D01*
X10541491Y-9917436D02*
X10531968Y-9926960D01*
X10531968Y-9926960D02*
X10512920Y-9936484D01*
X10512920Y-9936484D02*
X10455777Y-9936484D01*
X10455777Y-9936484D02*
X10436730Y-9926960D01*
X10436730Y-9926960D02*
X10427206Y-9917436D01*
X10722444Y-9736484D02*
X10684349Y-9736484D01*
X10684349Y-9736484D02*
X10665301Y-9746008D01*
X10665301Y-9746008D02*
X10655777Y-9755531D01*
X10655777Y-9755531D02*
X10636730Y-9784103D01*
X10636730Y-9784103D02*
X10627206Y-9822198D01*
X10627206Y-9822198D02*
X10627206Y-9898389D01*
X10627206Y-9898389D02*
X10636730Y-9917436D01*
X10636730Y-9917436D02*
X10646253Y-9926960D01*
X10646253Y-9926960D02*
X10665301Y-9936484D01*
X10665301Y-9936484D02*
X10703396Y-9936484D01*
X10703396Y-9936484D02*
X10722444Y-9926960D01*
X10722444Y-9926960D02*
X10731968Y-9917436D01*
X10731968Y-9917436D02*
X10741491Y-9898389D01*
X10741491Y-9898389D02*
X10741491Y-9850770D01*
X10741491Y-9850770D02*
X10731968Y-9831722D01*
X10731968Y-9831722D02*
X10722444Y-9822198D01*
X10722444Y-9822198D02*
X10703396Y-9812674D01*
X10703396Y-9812674D02*
X10665301Y-9812674D01*
X10665301Y-9812674D02*
X10646253Y-9822198D01*
X10646253Y-9822198D02*
X10636730Y-9831722D01*
X10636730Y-9831722D02*
X10627206Y-9850770D01*
X10979587Y-9936484D02*
X10979587Y-9736484D01*
X11065301Y-9936484D02*
X11065301Y-9831722D01*
X11065301Y-9831722D02*
X11055777Y-9812674D01*
X11055777Y-9812674D02*
X11036730Y-9803150D01*
X11036730Y-9803150D02*
X11008158Y-9803150D01*
X11008158Y-9803150D02*
X10989111Y-9812674D01*
X10989111Y-9812674D02*
X10979587Y-9822198D01*
X11189110Y-9936484D02*
X11170063Y-9926960D01*
X11170063Y-9926960D02*
X11160539Y-9917436D01*
X11160539Y-9917436D02*
X11151015Y-9898389D01*
X11151015Y-9898389D02*
X11151015Y-9841246D01*
X11151015Y-9841246D02*
X11160539Y-9822198D01*
X11160539Y-9822198D02*
X11170063Y-9812674D01*
X11170063Y-9812674D02*
X11189110Y-9803150D01*
X11189110Y-9803150D02*
X11217682Y-9803150D01*
X11217682Y-9803150D02*
X11236730Y-9812674D01*
X11236730Y-9812674D02*
X11246253Y-9822198D01*
X11246253Y-9822198D02*
X11255777Y-9841246D01*
X11255777Y-9841246D02*
X11255777Y-9898389D01*
X11255777Y-9898389D02*
X11246253Y-9917436D01*
X11246253Y-9917436D02*
X11236730Y-9926960D01*
X11236730Y-9926960D02*
X11217682Y-9936484D01*
X11217682Y-9936484D02*
X11189110Y-9936484D01*
X11370063Y-9936484D02*
X11351015Y-9926960D01*
X11351015Y-9926960D02*
X11341491Y-9907912D01*
X11341491Y-9907912D02*
X11341491Y-9736484D01*
X11522444Y-9926960D02*
X11503396Y-9936484D01*
X11503396Y-9936484D02*
X11465301Y-9936484D01*
X11465301Y-9936484D02*
X11446253Y-9926960D01*
X11446253Y-9926960D02*
X11436730Y-9907912D01*
X11436730Y-9907912D02*
X11436730Y-9831722D01*
X11436730Y-9831722D02*
X11446253Y-9812674D01*
X11446253Y-9812674D02*
X11465301Y-9803150D01*
X11465301Y-9803150D02*
X11503396Y-9803150D01*
X11503396Y-9803150D02*
X11522444Y-9812674D01*
X11522444Y-9812674D02*
X11531968Y-9831722D01*
X11531968Y-9831722D02*
X11531968Y-9850770D01*
X11531968Y-9850770D02*
X11436730Y-9869817D01*
X11608158Y-9926960D02*
X11627206Y-9936484D01*
X11627206Y-9936484D02*
X11665301Y-9936484D01*
X11665301Y-9936484D02*
X11684349Y-9926960D01*
X11684349Y-9926960D02*
X11693872Y-9907912D01*
X11693872Y-9907912D02*
X11693872Y-9898389D01*
X11693872Y-9898389D02*
X11684349Y-9879341D01*
X11684349Y-9879341D02*
X11665301Y-9869817D01*
X11665301Y-9869817D02*
X11636730Y-9869817D01*
X11636730Y-9869817D02*
X11617682Y-9860293D01*
X11617682Y-9860293D02*
X11608158Y-9841246D01*
X11608158Y-9841246D02*
X11608158Y-9831722D01*
X11608158Y-9831722D02*
X11617682Y-9812674D01*
X11617682Y-9812674D02*
X11636730Y-9803150D01*
X11636730Y-9803150D02*
X11665301Y-9803150D01*
X11665301Y-9803150D02*
X11684349Y-9812674D01*
X11760539Y-10012674D02*
X11770063Y-10003150D01*
X11770063Y-10003150D02*
X11789111Y-9974579D01*
X11789111Y-9974579D02*
X11798634Y-9955531D01*
X11798634Y-9955531D02*
X11808158Y-9926960D01*
X11808158Y-9926960D02*
X11817682Y-9879341D01*
X11817682Y-9879341D02*
X11817682Y-9841246D01*
X11817682Y-9841246D02*
X11808158Y-9793627D01*
X11808158Y-9793627D02*
X11798634Y-9765055D01*
X11798634Y-9765055D02*
X11789111Y-9746008D01*
X11789111Y-9746008D02*
X11770063Y-9717436D01*
X11770063Y-9717436D02*
X11760539Y-9707912D01*
D13*
X6795000Y-10109000D02*
G75*
G03*
X6795000Y-10109000I-20000J0D01*
G01*
D11*
X7093872Y-10000484D02*
X7112920Y-10000484D01*
X7112920Y-10000484D02*
X7131967Y-10010008D01*
X7131967Y-10010008D02*
X7141491Y-10019531D01*
X7141491Y-10019531D02*
X7151015Y-10038579D01*
X7151015Y-10038579D02*
X7160539Y-10076674D01*
X7160539Y-10076674D02*
X7160539Y-10124293D01*
X7160539Y-10124293D02*
X7151015Y-10162389D01*
X7151015Y-10162389D02*
X7141491Y-10181436D01*
X7141491Y-10181436D02*
X7131967Y-10190960D01*
X7131967Y-10190960D02*
X7112920Y-10200484D01*
X7112920Y-10200484D02*
X7093872Y-10200484D01*
X7093872Y-10200484D02*
X7074824Y-10190960D01*
X7074824Y-10190960D02*
X7065301Y-10181436D01*
X7065301Y-10181436D02*
X7055777Y-10162389D01*
X7055777Y-10162389D02*
X7046253Y-10124293D01*
X7046253Y-10124293D02*
X7046253Y-10076674D01*
X7046253Y-10076674D02*
X7055777Y-10038579D01*
X7055777Y-10038579D02*
X7065301Y-10019531D01*
X7065301Y-10019531D02*
X7074824Y-10010008D01*
X7074824Y-10010008D02*
X7093872Y-10000484D01*
X7246253Y-10181436D02*
X7255777Y-10190960D01*
X7255777Y-10190960D02*
X7246253Y-10200484D01*
X7246253Y-10200484D02*
X7236729Y-10190960D01*
X7236729Y-10190960D02*
X7246253Y-10181436D01*
X7246253Y-10181436D02*
X7246253Y-10200484D01*
X7427205Y-10067150D02*
X7427205Y-10200484D01*
X7379586Y-9990960D02*
X7331967Y-10133817D01*
X7331967Y-10133817D02*
X7455777Y-10133817D01*
X7570062Y-10000484D02*
X7589110Y-10000484D01*
X7589110Y-10000484D02*
X7608158Y-10010008D01*
X7608158Y-10010008D02*
X7617682Y-10019531D01*
X7617682Y-10019531D02*
X7627205Y-10038579D01*
X7627205Y-10038579D02*
X7636729Y-10076674D01*
X7636729Y-10076674D02*
X7636729Y-10124293D01*
X7636729Y-10124293D02*
X7627205Y-10162389D01*
X7627205Y-10162389D02*
X7617682Y-10181436D01*
X7617682Y-10181436D02*
X7608158Y-10190960D01*
X7608158Y-10190960D02*
X7589110Y-10200484D01*
X7589110Y-10200484D02*
X7570062Y-10200484D01*
X7570062Y-10200484D02*
X7551015Y-10190960D01*
X7551015Y-10190960D02*
X7541491Y-10181436D01*
X7541491Y-10181436D02*
X7531967Y-10162389D01*
X7531967Y-10162389D02*
X7522443Y-10124293D01*
X7522443Y-10124293D02*
X7522443Y-10076674D01*
X7522443Y-10076674D02*
X7531967Y-10038579D01*
X7531967Y-10038579D02*
X7541491Y-10019531D01*
X7541491Y-10019531D02*
X7551015Y-10010008D01*
X7551015Y-10010008D02*
X7570062Y-10000484D01*
X7760539Y-10000484D02*
X7779586Y-10000484D01*
X7779586Y-10000484D02*
X7798634Y-10010008D01*
X7798634Y-10010008D02*
X7808158Y-10019531D01*
X7808158Y-10019531D02*
X7817682Y-10038579D01*
X7817682Y-10038579D02*
X7827205Y-10076674D01*
X7827205Y-10076674D02*
X7827205Y-10124293D01*
X7827205Y-10124293D02*
X7817682Y-10162389D01*
X7817682Y-10162389D02*
X7808158Y-10181436D01*
X7808158Y-10181436D02*
X7798634Y-10190960D01*
X7798634Y-10190960D02*
X7779586Y-10200484D01*
X7779586Y-10200484D02*
X7760539Y-10200484D01*
X7760539Y-10200484D02*
X7741491Y-10190960D01*
X7741491Y-10190960D02*
X7731967Y-10181436D01*
X7731967Y-10181436D02*
X7722443Y-10162389D01*
X7722443Y-10162389D02*
X7712920Y-10124293D01*
X7712920Y-10124293D02*
X7712920Y-10076674D01*
X7712920Y-10076674D02*
X7722443Y-10038579D01*
X7722443Y-10038579D02*
X7731967Y-10019531D01*
X7731967Y-10019531D02*
X7741491Y-10010008D01*
X7741491Y-10010008D02*
X7760539Y-10000484D01*
X7912920Y-10200484D02*
X7912920Y-10067150D01*
X7912920Y-10086198D02*
X7922443Y-10076674D01*
X7922443Y-10076674D02*
X7941491Y-10067150D01*
X7941491Y-10067150D02*
X7970063Y-10067150D01*
X7970063Y-10067150D02*
X7989110Y-10076674D01*
X7989110Y-10076674D02*
X7998634Y-10095722D01*
X7998634Y-10095722D02*
X7998634Y-10200484D01*
X7998634Y-10095722D02*
X8008158Y-10076674D01*
X8008158Y-10076674D02*
X8027205Y-10067150D01*
X8027205Y-10067150D02*
X8055777Y-10067150D01*
X8055777Y-10067150D02*
X8074824Y-10076674D01*
X8074824Y-10076674D02*
X8084348Y-10095722D01*
X8084348Y-10095722D02*
X8084348Y-10200484D01*
X8179586Y-10200484D02*
X8179586Y-10067150D01*
X8179586Y-10086198D02*
X8189110Y-10076674D01*
X8189110Y-10076674D02*
X8208158Y-10067150D01*
X8208158Y-10067150D02*
X8236729Y-10067150D01*
X8236729Y-10067150D02*
X8255777Y-10076674D01*
X8255777Y-10076674D02*
X8265301Y-10095722D01*
X8265301Y-10095722D02*
X8265301Y-10200484D01*
X8265301Y-10095722D02*
X8274824Y-10076674D01*
X8274824Y-10076674D02*
X8293872Y-10067150D01*
X8293872Y-10067150D02*
X8322443Y-10067150D01*
X8322443Y-10067150D02*
X8341491Y-10076674D01*
X8341491Y-10076674D02*
X8351015Y-10095722D01*
X8351015Y-10095722D02*
X8351015Y-10200484D01*
X8741491Y-9990960D02*
X8570063Y-10248103D01*
X8998634Y-10000484D02*
X9017682Y-10000484D01*
X9017682Y-10000484D02*
X9036729Y-10010008D01*
X9036729Y-10010008D02*
X9046253Y-10019531D01*
X9046253Y-10019531D02*
X9055777Y-10038579D01*
X9055777Y-10038579D02*
X9065301Y-10076674D01*
X9065301Y-10076674D02*
X9065301Y-10124293D01*
X9065301Y-10124293D02*
X9055777Y-10162389D01*
X9055777Y-10162389D02*
X9046253Y-10181436D01*
X9046253Y-10181436D02*
X9036729Y-10190960D01*
X9036729Y-10190960D02*
X9017682Y-10200484D01*
X9017682Y-10200484D02*
X8998634Y-10200484D01*
X8998634Y-10200484D02*
X8979587Y-10190960D01*
X8979587Y-10190960D02*
X8970063Y-10181436D01*
X8970063Y-10181436D02*
X8960539Y-10162389D01*
X8960539Y-10162389D02*
X8951015Y-10124293D01*
X8951015Y-10124293D02*
X8951015Y-10076674D01*
X8951015Y-10076674D02*
X8960539Y-10038579D01*
X8960539Y-10038579D02*
X8970063Y-10019531D01*
X8970063Y-10019531D02*
X8979587Y-10010008D01*
X8979587Y-10010008D02*
X8998634Y-10000484D01*
X9151015Y-10181436D02*
X9160539Y-10190960D01*
X9160539Y-10190960D02*
X9151015Y-10200484D01*
X9151015Y-10200484D02*
X9141491Y-10190960D01*
X9141491Y-10190960D02*
X9151015Y-10181436D01*
X9151015Y-10181436D02*
X9151015Y-10200484D01*
X9284348Y-10000484D02*
X9303396Y-10000484D01*
X9303396Y-10000484D02*
X9322444Y-10010008D01*
X9322444Y-10010008D02*
X9331968Y-10019531D01*
X9331968Y-10019531D02*
X9341491Y-10038579D01*
X9341491Y-10038579D02*
X9351015Y-10076674D01*
X9351015Y-10076674D02*
X9351015Y-10124293D01*
X9351015Y-10124293D02*
X9341491Y-10162389D01*
X9341491Y-10162389D02*
X9331968Y-10181436D01*
X9331968Y-10181436D02*
X9322444Y-10190960D01*
X9322444Y-10190960D02*
X9303396Y-10200484D01*
X9303396Y-10200484D02*
X9284348Y-10200484D01*
X9284348Y-10200484D02*
X9265301Y-10190960D01*
X9265301Y-10190960D02*
X9255777Y-10181436D01*
X9255777Y-10181436D02*
X9246253Y-10162389D01*
X9246253Y-10162389D02*
X9236729Y-10124293D01*
X9236729Y-10124293D02*
X9236729Y-10076674D01*
X9236729Y-10076674D02*
X9246253Y-10038579D01*
X9246253Y-10038579D02*
X9255777Y-10019531D01*
X9255777Y-10019531D02*
X9265301Y-10010008D01*
X9265301Y-10010008D02*
X9284348Y-10000484D01*
X9541491Y-10200484D02*
X9427206Y-10200484D01*
X9484348Y-10200484D02*
X9484348Y-10000484D01*
X9484348Y-10000484D02*
X9465301Y-10029055D01*
X9465301Y-10029055D02*
X9446253Y-10048103D01*
X9446253Y-10048103D02*
X9427206Y-10057627D01*
X9722444Y-10000484D02*
X9627206Y-10000484D01*
X9627206Y-10000484D02*
X9617682Y-10095722D01*
X9617682Y-10095722D02*
X9627206Y-10086198D01*
X9627206Y-10086198D02*
X9646253Y-10076674D01*
X9646253Y-10076674D02*
X9693872Y-10076674D01*
X9693872Y-10076674D02*
X9712920Y-10086198D01*
X9712920Y-10086198D02*
X9722444Y-10095722D01*
X9722444Y-10095722D02*
X9731968Y-10114770D01*
X9731968Y-10114770D02*
X9731968Y-10162389D01*
X9731968Y-10162389D02*
X9722444Y-10181436D01*
X9722444Y-10181436D02*
X9712920Y-10190960D01*
X9712920Y-10190960D02*
X9693872Y-10200484D01*
X9693872Y-10200484D02*
X9646253Y-10200484D01*
X9646253Y-10200484D02*
X9627206Y-10190960D01*
X9627206Y-10190960D02*
X9617682Y-10181436D01*
X9798634Y-10000484D02*
X9931968Y-10000484D01*
X9931968Y-10000484D02*
X9846253Y-10200484D01*
X9998634Y-10000484D02*
X9998634Y-10038579D01*
X10074825Y-10000484D02*
X10074825Y-10038579D01*
X10370063Y-10276674D02*
X10360539Y-10267150D01*
X10360539Y-10267150D02*
X10341491Y-10238579D01*
X10341491Y-10238579D02*
X10331968Y-10219531D01*
X10331968Y-10219531D02*
X10322444Y-10190960D01*
X10322444Y-10190960D02*
X10312920Y-10143341D01*
X10312920Y-10143341D02*
X10312920Y-10105246D01*
X10312920Y-10105246D02*
X10322444Y-10057627D01*
X10322444Y-10057627D02*
X10331968Y-10029055D01*
X10331968Y-10029055D02*
X10341491Y-10010008D01*
X10341491Y-10010008D02*
X10360539Y-9981436D01*
X10360539Y-9981436D02*
X10370063Y-9971912D01*
X10551015Y-10200484D02*
X10436730Y-10200484D01*
X10493872Y-10200484D02*
X10493872Y-10000484D01*
X10493872Y-10000484D02*
X10474825Y-10029055D01*
X10474825Y-10029055D02*
X10455777Y-10048103D01*
X10455777Y-10048103D02*
X10436730Y-10057627D01*
X10665301Y-10086198D02*
X10646253Y-10076674D01*
X10646253Y-10076674D02*
X10636730Y-10067150D01*
X10636730Y-10067150D02*
X10627206Y-10048103D01*
X10627206Y-10048103D02*
X10627206Y-10038579D01*
X10627206Y-10038579D02*
X10636730Y-10019531D01*
X10636730Y-10019531D02*
X10646253Y-10010008D01*
X10646253Y-10010008D02*
X10665301Y-10000484D01*
X10665301Y-10000484D02*
X10703396Y-10000484D01*
X10703396Y-10000484D02*
X10722444Y-10010008D01*
X10722444Y-10010008D02*
X10731968Y-10019531D01*
X10731968Y-10019531D02*
X10741491Y-10038579D01*
X10741491Y-10038579D02*
X10741491Y-10048103D01*
X10741491Y-10048103D02*
X10731968Y-10067150D01*
X10731968Y-10067150D02*
X10722444Y-10076674D01*
X10722444Y-10076674D02*
X10703396Y-10086198D01*
X10703396Y-10086198D02*
X10665301Y-10086198D01*
X10665301Y-10086198D02*
X10646253Y-10095722D01*
X10646253Y-10095722D02*
X10636730Y-10105246D01*
X10636730Y-10105246D02*
X10627206Y-10124293D01*
X10627206Y-10124293D02*
X10627206Y-10162389D01*
X10627206Y-10162389D02*
X10636730Y-10181436D01*
X10636730Y-10181436D02*
X10646253Y-10190960D01*
X10646253Y-10190960D02*
X10665301Y-10200484D01*
X10665301Y-10200484D02*
X10703396Y-10200484D01*
X10703396Y-10200484D02*
X10722444Y-10190960D01*
X10722444Y-10190960D02*
X10731968Y-10181436D01*
X10731968Y-10181436D02*
X10741491Y-10162389D01*
X10741491Y-10162389D02*
X10741491Y-10124293D01*
X10741491Y-10124293D02*
X10731968Y-10105246D01*
X10731968Y-10105246D02*
X10722444Y-10095722D01*
X10722444Y-10095722D02*
X10703396Y-10086198D01*
X10979587Y-10200484D02*
X10979587Y-10000484D01*
X11065301Y-10200484D02*
X11065301Y-10095722D01*
X11065301Y-10095722D02*
X11055777Y-10076674D01*
X11055777Y-10076674D02*
X11036730Y-10067150D01*
X11036730Y-10067150D02*
X11008158Y-10067150D01*
X11008158Y-10067150D02*
X10989111Y-10076674D01*
X10989111Y-10076674D02*
X10979587Y-10086198D01*
X11189110Y-10200484D02*
X11170063Y-10190960D01*
X11170063Y-10190960D02*
X11160539Y-10181436D01*
X11160539Y-10181436D02*
X11151015Y-10162389D01*
X11151015Y-10162389D02*
X11151015Y-10105246D01*
X11151015Y-10105246D02*
X11160539Y-10086198D01*
X11160539Y-10086198D02*
X11170063Y-10076674D01*
X11170063Y-10076674D02*
X11189110Y-10067150D01*
X11189110Y-10067150D02*
X11217682Y-10067150D01*
X11217682Y-10067150D02*
X11236730Y-10076674D01*
X11236730Y-10076674D02*
X11246253Y-10086198D01*
X11246253Y-10086198D02*
X11255777Y-10105246D01*
X11255777Y-10105246D02*
X11255777Y-10162389D01*
X11255777Y-10162389D02*
X11246253Y-10181436D01*
X11246253Y-10181436D02*
X11236730Y-10190960D01*
X11236730Y-10190960D02*
X11217682Y-10200484D01*
X11217682Y-10200484D02*
X11189110Y-10200484D01*
X11370063Y-10200484D02*
X11351015Y-10190960D01*
X11351015Y-10190960D02*
X11341491Y-10171912D01*
X11341491Y-10171912D02*
X11341491Y-10000484D01*
X11522444Y-10190960D02*
X11503396Y-10200484D01*
X11503396Y-10200484D02*
X11465301Y-10200484D01*
X11465301Y-10200484D02*
X11446253Y-10190960D01*
X11446253Y-10190960D02*
X11436730Y-10171912D01*
X11436730Y-10171912D02*
X11436730Y-10095722D01*
X11436730Y-10095722D02*
X11446253Y-10076674D01*
X11446253Y-10076674D02*
X11465301Y-10067150D01*
X11465301Y-10067150D02*
X11503396Y-10067150D01*
X11503396Y-10067150D02*
X11522444Y-10076674D01*
X11522444Y-10076674D02*
X11531968Y-10095722D01*
X11531968Y-10095722D02*
X11531968Y-10114770D01*
X11531968Y-10114770D02*
X11436730Y-10133817D01*
X11608158Y-10190960D02*
X11627206Y-10200484D01*
X11627206Y-10200484D02*
X11665301Y-10200484D01*
X11665301Y-10200484D02*
X11684349Y-10190960D01*
X11684349Y-10190960D02*
X11693872Y-10171912D01*
X11693872Y-10171912D02*
X11693872Y-10162389D01*
X11693872Y-10162389D02*
X11684349Y-10143341D01*
X11684349Y-10143341D02*
X11665301Y-10133817D01*
X11665301Y-10133817D02*
X11636730Y-10133817D01*
X11636730Y-10133817D02*
X11617682Y-10124293D01*
X11617682Y-10124293D02*
X11608158Y-10105246D01*
X11608158Y-10105246D02*
X11608158Y-10095722D01*
X11608158Y-10095722D02*
X11617682Y-10076674D01*
X11617682Y-10076674D02*
X11636730Y-10067150D01*
X11636730Y-10067150D02*
X11665301Y-10067150D01*
X11665301Y-10067150D02*
X11684349Y-10076674D01*
X11760539Y-10276674D02*
X11770063Y-10267150D01*
X11770063Y-10267150D02*
X11789111Y-10238579D01*
X11789111Y-10238579D02*
X11798634Y-10219531D01*
X11798634Y-10219531D02*
X11808158Y-10190960D01*
X11808158Y-10190960D02*
X11817682Y-10143341D01*
X11817682Y-10143341D02*
X11817682Y-10105246D01*
X11817682Y-10105246D02*
X11808158Y-10057627D01*
X11808158Y-10057627D02*
X11798634Y-10029055D01*
X11798634Y-10029055D02*
X11789111Y-10010008D01*
X11789111Y-10010008D02*
X11770063Y-9981436D01*
X11770063Y-9981436D02*
X11760539Y-9971912D01*
D13*
X6775000Y-10353000D02*
X6775000Y-10393000D01*
X6755000Y-10373000D02*
X6795000Y-10373000D01*
D11*
X7093872Y-10264484D02*
X7112920Y-10264484D01*
X7112920Y-10264484D02*
X7131967Y-10274008D01*
X7131967Y-10274008D02*
X7141491Y-10283531D01*
X7141491Y-10283531D02*
X7151015Y-10302579D01*
X7151015Y-10302579D02*
X7160539Y-10340674D01*
X7160539Y-10340674D02*
X7160539Y-10388293D01*
X7160539Y-10388293D02*
X7151015Y-10426389D01*
X7151015Y-10426389D02*
X7141491Y-10445436D01*
X7141491Y-10445436D02*
X7131967Y-10454960D01*
X7131967Y-10454960D02*
X7112920Y-10464484D01*
X7112920Y-10464484D02*
X7093872Y-10464484D01*
X7093872Y-10464484D02*
X7074824Y-10454960D01*
X7074824Y-10454960D02*
X7065301Y-10445436D01*
X7065301Y-10445436D02*
X7055777Y-10426389D01*
X7055777Y-10426389D02*
X7046253Y-10388293D01*
X7046253Y-10388293D02*
X7046253Y-10340674D01*
X7046253Y-10340674D02*
X7055777Y-10302579D01*
X7055777Y-10302579D02*
X7065301Y-10283531D01*
X7065301Y-10283531D02*
X7074824Y-10274008D01*
X7074824Y-10274008D02*
X7093872Y-10264484D01*
X7246253Y-10445436D02*
X7255777Y-10454960D01*
X7255777Y-10454960D02*
X7246253Y-10464484D01*
X7246253Y-10464484D02*
X7236729Y-10454960D01*
X7236729Y-10454960D02*
X7246253Y-10445436D01*
X7246253Y-10445436D02*
X7246253Y-10464484D01*
X7427205Y-10331150D02*
X7427205Y-10464484D01*
X7379586Y-10254960D02*
X7331967Y-10397817D01*
X7331967Y-10397817D02*
X7455777Y-10397817D01*
X7570062Y-10264484D02*
X7589110Y-10264484D01*
X7589110Y-10264484D02*
X7608158Y-10274008D01*
X7608158Y-10274008D02*
X7617682Y-10283531D01*
X7617682Y-10283531D02*
X7627205Y-10302579D01*
X7627205Y-10302579D02*
X7636729Y-10340674D01*
X7636729Y-10340674D02*
X7636729Y-10388293D01*
X7636729Y-10388293D02*
X7627205Y-10426389D01*
X7627205Y-10426389D02*
X7617682Y-10445436D01*
X7617682Y-10445436D02*
X7608158Y-10454960D01*
X7608158Y-10454960D02*
X7589110Y-10464484D01*
X7589110Y-10464484D02*
X7570062Y-10464484D01*
X7570062Y-10464484D02*
X7551015Y-10454960D01*
X7551015Y-10454960D02*
X7541491Y-10445436D01*
X7541491Y-10445436D02*
X7531967Y-10426389D01*
X7531967Y-10426389D02*
X7522443Y-10388293D01*
X7522443Y-10388293D02*
X7522443Y-10340674D01*
X7522443Y-10340674D02*
X7531967Y-10302579D01*
X7531967Y-10302579D02*
X7541491Y-10283531D01*
X7541491Y-10283531D02*
X7551015Y-10274008D01*
X7551015Y-10274008D02*
X7570062Y-10264484D01*
X7760539Y-10264484D02*
X7779586Y-10264484D01*
X7779586Y-10264484D02*
X7798634Y-10274008D01*
X7798634Y-10274008D02*
X7808158Y-10283531D01*
X7808158Y-10283531D02*
X7817682Y-10302579D01*
X7817682Y-10302579D02*
X7827205Y-10340674D01*
X7827205Y-10340674D02*
X7827205Y-10388293D01*
X7827205Y-10388293D02*
X7817682Y-10426389D01*
X7817682Y-10426389D02*
X7808158Y-10445436D01*
X7808158Y-10445436D02*
X7798634Y-10454960D01*
X7798634Y-10454960D02*
X7779586Y-10464484D01*
X7779586Y-10464484D02*
X7760539Y-10464484D01*
X7760539Y-10464484D02*
X7741491Y-10454960D01*
X7741491Y-10454960D02*
X7731967Y-10445436D01*
X7731967Y-10445436D02*
X7722443Y-10426389D01*
X7722443Y-10426389D02*
X7712920Y-10388293D01*
X7712920Y-10388293D02*
X7712920Y-10340674D01*
X7712920Y-10340674D02*
X7722443Y-10302579D01*
X7722443Y-10302579D02*
X7731967Y-10283531D01*
X7731967Y-10283531D02*
X7741491Y-10274008D01*
X7741491Y-10274008D02*
X7760539Y-10264484D01*
X7912920Y-10464484D02*
X7912920Y-10331150D01*
X7912920Y-10350198D02*
X7922443Y-10340674D01*
X7922443Y-10340674D02*
X7941491Y-10331150D01*
X7941491Y-10331150D02*
X7970063Y-10331150D01*
X7970063Y-10331150D02*
X7989110Y-10340674D01*
X7989110Y-10340674D02*
X7998634Y-10359722D01*
X7998634Y-10359722D02*
X7998634Y-10464484D01*
X7998634Y-10359722D02*
X8008158Y-10340674D01*
X8008158Y-10340674D02*
X8027205Y-10331150D01*
X8027205Y-10331150D02*
X8055777Y-10331150D01*
X8055777Y-10331150D02*
X8074824Y-10340674D01*
X8074824Y-10340674D02*
X8084348Y-10359722D01*
X8084348Y-10359722D02*
X8084348Y-10464484D01*
X8179586Y-10464484D02*
X8179586Y-10331150D01*
X8179586Y-10350198D02*
X8189110Y-10340674D01*
X8189110Y-10340674D02*
X8208158Y-10331150D01*
X8208158Y-10331150D02*
X8236729Y-10331150D01*
X8236729Y-10331150D02*
X8255777Y-10340674D01*
X8255777Y-10340674D02*
X8265301Y-10359722D01*
X8265301Y-10359722D02*
X8265301Y-10464484D01*
X8265301Y-10359722D02*
X8274824Y-10340674D01*
X8274824Y-10340674D02*
X8293872Y-10331150D01*
X8293872Y-10331150D02*
X8322443Y-10331150D01*
X8322443Y-10331150D02*
X8341491Y-10340674D01*
X8341491Y-10340674D02*
X8351015Y-10359722D01*
X8351015Y-10359722D02*
X8351015Y-10464484D01*
X8741491Y-10254960D02*
X8570063Y-10512103D01*
X8998634Y-10264484D02*
X9017682Y-10264484D01*
X9017682Y-10264484D02*
X9036729Y-10274008D01*
X9036729Y-10274008D02*
X9046253Y-10283531D01*
X9046253Y-10283531D02*
X9055777Y-10302579D01*
X9055777Y-10302579D02*
X9065301Y-10340674D01*
X9065301Y-10340674D02*
X9065301Y-10388293D01*
X9065301Y-10388293D02*
X9055777Y-10426389D01*
X9055777Y-10426389D02*
X9046253Y-10445436D01*
X9046253Y-10445436D02*
X9036729Y-10454960D01*
X9036729Y-10454960D02*
X9017682Y-10464484D01*
X9017682Y-10464484D02*
X8998634Y-10464484D01*
X8998634Y-10464484D02*
X8979587Y-10454960D01*
X8979587Y-10454960D02*
X8970063Y-10445436D01*
X8970063Y-10445436D02*
X8960539Y-10426389D01*
X8960539Y-10426389D02*
X8951015Y-10388293D01*
X8951015Y-10388293D02*
X8951015Y-10340674D01*
X8951015Y-10340674D02*
X8960539Y-10302579D01*
X8960539Y-10302579D02*
X8970063Y-10283531D01*
X8970063Y-10283531D02*
X8979587Y-10274008D01*
X8979587Y-10274008D02*
X8998634Y-10264484D01*
X9151015Y-10445436D02*
X9160539Y-10454960D01*
X9160539Y-10454960D02*
X9151015Y-10464484D01*
X9151015Y-10464484D02*
X9141491Y-10454960D01*
X9141491Y-10454960D02*
X9151015Y-10445436D01*
X9151015Y-10445436D02*
X9151015Y-10464484D01*
X9284348Y-10264484D02*
X9303396Y-10264484D01*
X9303396Y-10264484D02*
X9322444Y-10274008D01*
X9322444Y-10274008D02*
X9331968Y-10283531D01*
X9331968Y-10283531D02*
X9341491Y-10302579D01*
X9341491Y-10302579D02*
X9351015Y-10340674D01*
X9351015Y-10340674D02*
X9351015Y-10388293D01*
X9351015Y-10388293D02*
X9341491Y-10426389D01*
X9341491Y-10426389D02*
X9331968Y-10445436D01*
X9331968Y-10445436D02*
X9322444Y-10454960D01*
X9322444Y-10454960D02*
X9303396Y-10464484D01*
X9303396Y-10464484D02*
X9284348Y-10464484D01*
X9284348Y-10464484D02*
X9265301Y-10454960D01*
X9265301Y-10454960D02*
X9255777Y-10445436D01*
X9255777Y-10445436D02*
X9246253Y-10426389D01*
X9246253Y-10426389D02*
X9236729Y-10388293D01*
X9236729Y-10388293D02*
X9236729Y-10340674D01*
X9236729Y-10340674D02*
X9246253Y-10302579D01*
X9246253Y-10302579D02*
X9255777Y-10283531D01*
X9255777Y-10283531D02*
X9265301Y-10274008D01*
X9265301Y-10274008D02*
X9284348Y-10264484D01*
X9541491Y-10464484D02*
X9427206Y-10464484D01*
X9484348Y-10464484D02*
X9484348Y-10264484D01*
X9484348Y-10264484D02*
X9465301Y-10293055D01*
X9465301Y-10293055D02*
X9446253Y-10312103D01*
X9446253Y-10312103D02*
X9427206Y-10321627D01*
X9722444Y-10264484D02*
X9627206Y-10264484D01*
X9627206Y-10264484D02*
X9617682Y-10359722D01*
X9617682Y-10359722D02*
X9627206Y-10350198D01*
X9627206Y-10350198D02*
X9646253Y-10340674D01*
X9646253Y-10340674D02*
X9693872Y-10340674D01*
X9693872Y-10340674D02*
X9712920Y-10350198D01*
X9712920Y-10350198D02*
X9722444Y-10359722D01*
X9722444Y-10359722D02*
X9731968Y-10378770D01*
X9731968Y-10378770D02*
X9731968Y-10426389D01*
X9731968Y-10426389D02*
X9722444Y-10445436D01*
X9722444Y-10445436D02*
X9712920Y-10454960D01*
X9712920Y-10454960D02*
X9693872Y-10464484D01*
X9693872Y-10464484D02*
X9646253Y-10464484D01*
X9646253Y-10464484D02*
X9627206Y-10454960D01*
X9627206Y-10454960D02*
X9617682Y-10445436D01*
X9798634Y-10264484D02*
X9931968Y-10264484D01*
X9931968Y-10264484D02*
X9846253Y-10464484D01*
X9998634Y-10264484D02*
X9998634Y-10302579D01*
X10074825Y-10264484D02*
X10074825Y-10302579D01*
X10370063Y-10540674D02*
X10360539Y-10531150D01*
X10360539Y-10531150D02*
X10341491Y-10502579D01*
X10341491Y-10502579D02*
X10331968Y-10483531D01*
X10331968Y-10483531D02*
X10322444Y-10454960D01*
X10322444Y-10454960D02*
X10312920Y-10407341D01*
X10312920Y-10407341D02*
X10312920Y-10369246D01*
X10312920Y-10369246D02*
X10322444Y-10321627D01*
X10322444Y-10321627D02*
X10331968Y-10293055D01*
X10331968Y-10293055D02*
X10341491Y-10274008D01*
X10341491Y-10274008D02*
X10360539Y-10245436D01*
X10360539Y-10245436D02*
X10370063Y-10235912D01*
X10551015Y-10464484D02*
X10436730Y-10464484D01*
X10493872Y-10464484D02*
X10493872Y-10264484D01*
X10493872Y-10264484D02*
X10474825Y-10293055D01*
X10474825Y-10293055D02*
X10455777Y-10312103D01*
X10455777Y-10312103D02*
X10436730Y-10321627D01*
X10722444Y-10264484D02*
X10684349Y-10264484D01*
X10684349Y-10264484D02*
X10665301Y-10274008D01*
X10665301Y-10274008D02*
X10655777Y-10283531D01*
X10655777Y-10283531D02*
X10636730Y-10312103D01*
X10636730Y-10312103D02*
X10627206Y-10350198D01*
X10627206Y-10350198D02*
X10627206Y-10426389D01*
X10627206Y-10426389D02*
X10636730Y-10445436D01*
X10636730Y-10445436D02*
X10646253Y-10454960D01*
X10646253Y-10454960D02*
X10665301Y-10464484D01*
X10665301Y-10464484D02*
X10703396Y-10464484D01*
X10703396Y-10464484D02*
X10722444Y-10454960D01*
X10722444Y-10454960D02*
X10731968Y-10445436D01*
X10731968Y-10445436D02*
X10741491Y-10426389D01*
X10741491Y-10426389D02*
X10741491Y-10378770D01*
X10741491Y-10378770D02*
X10731968Y-10359722D01*
X10731968Y-10359722D02*
X10722444Y-10350198D01*
X10722444Y-10350198D02*
X10703396Y-10340674D01*
X10703396Y-10340674D02*
X10665301Y-10340674D01*
X10665301Y-10340674D02*
X10646253Y-10350198D01*
X10646253Y-10350198D02*
X10636730Y-10359722D01*
X10636730Y-10359722D02*
X10627206Y-10378770D01*
X10979587Y-10464484D02*
X10979587Y-10264484D01*
X11065301Y-10464484D02*
X11065301Y-10359722D01*
X11065301Y-10359722D02*
X11055777Y-10340674D01*
X11055777Y-10340674D02*
X11036730Y-10331150D01*
X11036730Y-10331150D02*
X11008158Y-10331150D01*
X11008158Y-10331150D02*
X10989111Y-10340674D01*
X10989111Y-10340674D02*
X10979587Y-10350198D01*
X11189110Y-10464484D02*
X11170063Y-10454960D01*
X11170063Y-10454960D02*
X11160539Y-10445436D01*
X11160539Y-10445436D02*
X11151015Y-10426389D01*
X11151015Y-10426389D02*
X11151015Y-10369246D01*
X11151015Y-10369246D02*
X11160539Y-10350198D01*
X11160539Y-10350198D02*
X11170063Y-10340674D01*
X11170063Y-10340674D02*
X11189110Y-10331150D01*
X11189110Y-10331150D02*
X11217682Y-10331150D01*
X11217682Y-10331150D02*
X11236730Y-10340674D01*
X11236730Y-10340674D02*
X11246253Y-10350198D01*
X11246253Y-10350198D02*
X11255777Y-10369246D01*
X11255777Y-10369246D02*
X11255777Y-10426389D01*
X11255777Y-10426389D02*
X11246253Y-10445436D01*
X11246253Y-10445436D02*
X11236730Y-10454960D01*
X11236730Y-10454960D02*
X11217682Y-10464484D01*
X11217682Y-10464484D02*
X11189110Y-10464484D01*
X11370063Y-10464484D02*
X11351015Y-10454960D01*
X11351015Y-10454960D02*
X11341491Y-10435912D01*
X11341491Y-10435912D02*
X11341491Y-10264484D01*
X11522444Y-10454960D02*
X11503396Y-10464484D01*
X11503396Y-10464484D02*
X11465301Y-10464484D01*
X11465301Y-10464484D02*
X11446253Y-10454960D01*
X11446253Y-10454960D02*
X11436730Y-10435912D01*
X11436730Y-10435912D02*
X11436730Y-10359722D01*
X11436730Y-10359722D02*
X11446253Y-10340674D01*
X11446253Y-10340674D02*
X11465301Y-10331150D01*
X11465301Y-10331150D02*
X11503396Y-10331150D01*
X11503396Y-10331150D02*
X11522444Y-10340674D01*
X11522444Y-10340674D02*
X11531968Y-10359722D01*
X11531968Y-10359722D02*
X11531968Y-10378770D01*
X11531968Y-10378770D02*
X11436730Y-10397817D01*
X11608158Y-10454960D02*
X11627206Y-10464484D01*
X11627206Y-10464484D02*
X11665301Y-10464484D01*
X11665301Y-10464484D02*
X11684349Y-10454960D01*
X11684349Y-10454960D02*
X11693872Y-10435912D01*
X11693872Y-10435912D02*
X11693872Y-10426389D01*
X11693872Y-10426389D02*
X11684349Y-10407341D01*
X11684349Y-10407341D02*
X11665301Y-10397817D01*
X11665301Y-10397817D02*
X11636730Y-10397817D01*
X11636730Y-10397817D02*
X11617682Y-10388293D01*
X11617682Y-10388293D02*
X11608158Y-10369246D01*
X11608158Y-10369246D02*
X11608158Y-10359722D01*
X11608158Y-10359722D02*
X11617682Y-10340674D01*
X11617682Y-10340674D02*
X11636730Y-10331150D01*
X11636730Y-10331150D02*
X11665301Y-10331150D01*
X11665301Y-10331150D02*
X11684349Y-10340674D01*
X11760539Y-10540674D02*
X11770063Y-10531150D01*
X11770063Y-10531150D02*
X11789111Y-10502579D01*
X11789111Y-10502579D02*
X11798634Y-10483531D01*
X11798634Y-10483531D02*
X11808158Y-10454960D01*
X11808158Y-10454960D02*
X11817682Y-10407341D01*
X11817682Y-10407341D02*
X11817682Y-10369246D01*
X11817682Y-10369246D02*
X11808158Y-10321627D01*
X11808158Y-10321627D02*
X11798634Y-10293055D01*
X11798634Y-10293055D02*
X11789111Y-10274008D01*
X11789111Y-10274008D02*
X11770063Y-10245436D01*
X11770063Y-10245436D02*
X11760539Y-10235912D01*
D14*
X6786213Y-10658213D02*
X6786213Y-10615787D01*
X6743787Y-10615787D01*
X6743787Y-10658213D01*
X6786213Y-10658213D01*
D11*
X7093872Y-10528484D02*
X7112920Y-10528484D01*
X7112920Y-10528484D02*
X7131967Y-10538008D01*
X7131967Y-10538008D02*
X7141491Y-10547531D01*
X7141491Y-10547531D02*
X7151015Y-10566579D01*
X7151015Y-10566579D02*
X7160539Y-10604674D01*
X7160539Y-10604674D02*
X7160539Y-10652293D01*
X7160539Y-10652293D02*
X7151015Y-10690389D01*
X7151015Y-10690389D02*
X7141491Y-10709436D01*
X7141491Y-10709436D02*
X7131967Y-10718960D01*
X7131967Y-10718960D02*
X7112920Y-10728484D01*
X7112920Y-10728484D02*
X7093872Y-10728484D01*
X7093872Y-10728484D02*
X7074824Y-10718960D01*
X7074824Y-10718960D02*
X7065301Y-10709436D01*
X7065301Y-10709436D02*
X7055777Y-10690389D01*
X7055777Y-10690389D02*
X7046253Y-10652293D01*
X7046253Y-10652293D02*
X7046253Y-10604674D01*
X7046253Y-10604674D02*
X7055777Y-10566579D01*
X7055777Y-10566579D02*
X7065301Y-10547531D01*
X7065301Y-10547531D02*
X7074824Y-10538008D01*
X7074824Y-10538008D02*
X7093872Y-10528484D01*
X7246253Y-10709436D02*
X7255777Y-10718960D01*
X7255777Y-10718960D02*
X7246253Y-10728484D01*
X7246253Y-10728484D02*
X7236729Y-10718960D01*
X7236729Y-10718960D02*
X7246253Y-10709436D01*
X7246253Y-10709436D02*
X7246253Y-10728484D01*
X7427205Y-10528484D02*
X7389110Y-10528484D01*
X7389110Y-10528484D02*
X7370062Y-10538008D01*
X7370062Y-10538008D02*
X7360539Y-10547531D01*
X7360539Y-10547531D02*
X7341491Y-10576103D01*
X7341491Y-10576103D02*
X7331967Y-10614198D01*
X7331967Y-10614198D02*
X7331967Y-10690389D01*
X7331967Y-10690389D02*
X7341491Y-10709436D01*
X7341491Y-10709436D02*
X7351015Y-10718960D01*
X7351015Y-10718960D02*
X7370062Y-10728484D01*
X7370062Y-10728484D02*
X7408158Y-10728484D01*
X7408158Y-10728484D02*
X7427205Y-10718960D01*
X7427205Y-10718960D02*
X7436729Y-10709436D01*
X7436729Y-10709436D02*
X7446253Y-10690389D01*
X7446253Y-10690389D02*
X7446253Y-10642770D01*
X7446253Y-10642770D02*
X7436729Y-10623722D01*
X7436729Y-10623722D02*
X7427205Y-10614198D01*
X7427205Y-10614198D02*
X7408158Y-10604674D01*
X7408158Y-10604674D02*
X7370062Y-10604674D01*
X7370062Y-10604674D02*
X7351015Y-10614198D01*
X7351015Y-10614198D02*
X7341491Y-10623722D01*
X7341491Y-10623722D02*
X7331967Y-10642770D01*
X7570062Y-10528484D02*
X7589110Y-10528484D01*
X7589110Y-10528484D02*
X7608158Y-10538008D01*
X7608158Y-10538008D02*
X7617682Y-10547531D01*
X7617682Y-10547531D02*
X7627205Y-10566579D01*
X7627205Y-10566579D02*
X7636729Y-10604674D01*
X7636729Y-10604674D02*
X7636729Y-10652293D01*
X7636729Y-10652293D02*
X7627205Y-10690389D01*
X7627205Y-10690389D02*
X7617682Y-10709436D01*
X7617682Y-10709436D02*
X7608158Y-10718960D01*
X7608158Y-10718960D02*
X7589110Y-10728484D01*
X7589110Y-10728484D02*
X7570062Y-10728484D01*
X7570062Y-10728484D02*
X7551015Y-10718960D01*
X7551015Y-10718960D02*
X7541491Y-10709436D01*
X7541491Y-10709436D02*
X7531967Y-10690389D01*
X7531967Y-10690389D02*
X7522443Y-10652293D01*
X7522443Y-10652293D02*
X7522443Y-10604674D01*
X7522443Y-10604674D02*
X7531967Y-10566579D01*
X7531967Y-10566579D02*
X7541491Y-10547531D01*
X7541491Y-10547531D02*
X7551015Y-10538008D01*
X7551015Y-10538008D02*
X7570062Y-10528484D01*
X7760539Y-10528484D02*
X7779586Y-10528484D01*
X7779586Y-10528484D02*
X7798634Y-10538008D01*
X7798634Y-10538008D02*
X7808158Y-10547531D01*
X7808158Y-10547531D02*
X7817682Y-10566579D01*
X7817682Y-10566579D02*
X7827205Y-10604674D01*
X7827205Y-10604674D02*
X7827205Y-10652293D01*
X7827205Y-10652293D02*
X7817682Y-10690389D01*
X7817682Y-10690389D02*
X7808158Y-10709436D01*
X7808158Y-10709436D02*
X7798634Y-10718960D01*
X7798634Y-10718960D02*
X7779586Y-10728484D01*
X7779586Y-10728484D02*
X7760539Y-10728484D01*
X7760539Y-10728484D02*
X7741491Y-10718960D01*
X7741491Y-10718960D02*
X7731967Y-10709436D01*
X7731967Y-10709436D02*
X7722443Y-10690389D01*
X7722443Y-10690389D02*
X7712920Y-10652293D01*
X7712920Y-10652293D02*
X7712920Y-10604674D01*
X7712920Y-10604674D02*
X7722443Y-10566579D01*
X7722443Y-10566579D02*
X7731967Y-10547531D01*
X7731967Y-10547531D02*
X7741491Y-10538008D01*
X7741491Y-10538008D02*
X7760539Y-10528484D01*
X7912920Y-10728484D02*
X7912920Y-10595150D01*
X7912920Y-10614198D02*
X7922443Y-10604674D01*
X7922443Y-10604674D02*
X7941491Y-10595150D01*
X7941491Y-10595150D02*
X7970063Y-10595150D01*
X7970063Y-10595150D02*
X7989110Y-10604674D01*
X7989110Y-10604674D02*
X7998634Y-10623722D01*
X7998634Y-10623722D02*
X7998634Y-10728484D01*
X7998634Y-10623722D02*
X8008158Y-10604674D01*
X8008158Y-10604674D02*
X8027205Y-10595150D01*
X8027205Y-10595150D02*
X8055777Y-10595150D01*
X8055777Y-10595150D02*
X8074824Y-10604674D01*
X8074824Y-10604674D02*
X8084348Y-10623722D01*
X8084348Y-10623722D02*
X8084348Y-10728484D01*
X8179586Y-10728484D02*
X8179586Y-10595150D01*
X8179586Y-10614198D02*
X8189110Y-10604674D01*
X8189110Y-10604674D02*
X8208158Y-10595150D01*
X8208158Y-10595150D02*
X8236729Y-10595150D01*
X8236729Y-10595150D02*
X8255777Y-10604674D01*
X8255777Y-10604674D02*
X8265301Y-10623722D01*
X8265301Y-10623722D02*
X8265301Y-10728484D01*
X8265301Y-10623722D02*
X8274824Y-10604674D01*
X8274824Y-10604674D02*
X8293872Y-10595150D01*
X8293872Y-10595150D02*
X8322443Y-10595150D01*
X8322443Y-10595150D02*
X8341491Y-10604674D01*
X8341491Y-10604674D02*
X8351015Y-10623722D01*
X8351015Y-10623722D02*
X8351015Y-10728484D01*
X8741491Y-10518960D02*
X8570063Y-10776103D01*
X8998634Y-10528484D02*
X9017682Y-10528484D01*
X9017682Y-10528484D02*
X9036729Y-10538008D01*
X9036729Y-10538008D02*
X9046253Y-10547531D01*
X9046253Y-10547531D02*
X9055777Y-10566579D01*
X9055777Y-10566579D02*
X9065301Y-10604674D01*
X9065301Y-10604674D02*
X9065301Y-10652293D01*
X9065301Y-10652293D02*
X9055777Y-10690389D01*
X9055777Y-10690389D02*
X9046253Y-10709436D01*
X9046253Y-10709436D02*
X9036729Y-10718960D01*
X9036729Y-10718960D02*
X9017682Y-10728484D01*
X9017682Y-10728484D02*
X8998634Y-10728484D01*
X8998634Y-10728484D02*
X8979587Y-10718960D01*
X8979587Y-10718960D02*
X8970063Y-10709436D01*
X8970063Y-10709436D02*
X8960539Y-10690389D01*
X8960539Y-10690389D02*
X8951015Y-10652293D01*
X8951015Y-10652293D02*
X8951015Y-10604674D01*
X8951015Y-10604674D02*
X8960539Y-10566579D01*
X8960539Y-10566579D02*
X8970063Y-10547531D01*
X8970063Y-10547531D02*
X8979587Y-10538008D01*
X8979587Y-10538008D02*
X8998634Y-10528484D01*
X9151015Y-10709436D02*
X9160539Y-10718960D01*
X9160539Y-10718960D02*
X9151015Y-10728484D01*
X9151015Y-10728484D02*
X9141491Y-10718960D01*
X9141491Y-10718960D02*
X9151015Y-10709436D01*
X9151015Y-10709436D02*
X9151015Y-10728484D01*
X9284348Y-10528484D02*
X9303396Y-10528484D01*
X9303396Y-10528484D02*
X9322444Y-10538008D01*
X9322444Y-10538008D02*
X9331968Y-10547531D01*
X9331968Y-10547531D02*
X9341491Y-10566579D01*
X9341491Y-10566579D02*
X9351015Y-10604674D01*
X9351015Y-10604674D02*
X9351015Y-10652293D01*
X9351015Y-10652293D02*
X9341491Y-10690389D01*
X9341491Y-10690389D02*
X9331968Y-10709436D01*
X9331968Y-10709436D02*
X9322444Y-10718960D01*
X9322444Y-10718960D02*
X9303396Y-10728484D01*
X9303396Y-10728484D02*
X9284348Y-10728484D01*
X9284348Y-10728484D02*
X9265301Y-10718960D01*
X9265301Y-10718960D02*
X9255777Y-10709436D01*
X9255777Y-10709436D02*
X9246253Y-10690389D01*
X9246253Y-10690389D02*
X9236729Y-10652293D01*
X9236729Y-10652293D02*
X9236729Y-10604674D01*
X9236729Y-10604674D02*
X9246253Y-10566579D01*
X9246253Y-10566579D02*
X9255777Y-10547531D01*
X9255777Y-10547531D02*
X9265301Y-10538008D01*
X9265301Y-10538008D02*
X9284348Y-10528484D01*
X9427206Y-10547531D02*
X9436729Y-10538008D01*
X9436729Y-10538008D02*
X9455777Y-10528484D01*
X9455777Y-10528484D02*
X9503396Y-10528484D01*
X9503396Y-10528484D02*
X9522444Y-10538008D01*
X9522444Y-10538008D02*
X9531968Y-10547531D01*
X9531968Y-10547531D02*
X9541491Y-10566579D01*
X9541491Y-10566579D02*
X9541491Y-10585627D01*
X9541491Y-10585627D02*
X9531968Y-10614198D01*
X9531968Y-10614198D02*
X9417682Y-10728484D01*
X9417682Y-10728484D02*
X9541491Y-10728484D01*
X9608158Y-10528484D02*
X9731968Y-10528484D01*
X9731968Y-10528484D02*
X9665301Y-10604674D01*
X9665301Y-10604674D02*
X9693872Y-10604674D01*
X9693872Y-10604674D02*
X9712920Y-10614198D01*
X9712920Y-10614198D02*
X9722444Y-10623722D01*
X9722444Y-10623722D02*
X9731968Y-10642770D01*
X9731968Y-10642770D02*
X9731968Y-10690389D01*
X9731968Y-10690389D02*
X9722444Y-10709436D01*
X9722444Y-10709436D02*
X9712920Y-10718960D01*
X9712920Y-10718960D02*
X9693872Y-10728484D01*
X9693872Y-10728484D02*
X9636729Y-10728484D01*
X9636729Y-10728484D02*
X9617682Y-10718960D01*
X9617682Y-10718960D02*
X9608158Y-10709436D01*
X9903396Y-10528484D02*
X9865301Y-10528484D01*
X9865301Y-10528484D02*
X9846253Y-10538008D01*
X9846253Y-10538008D02*
X9836729Y-10547531D01*
X9836729Y-10547531D02*
X9817682Y-10576103D01*
X9817682Y-10576103D02*
X9808158Y-10614198D01*
X9808158Y-10614198D02*
X9808158Y-10690389D01*
X9808158Y-10690389D02*
X9817682Y-10709436D01*
X9817682Y-10709436D02*
X9827206Y-10718960D01*
X9827206Y-10718960D02*
X9846253Y-10728484D01*
X9846253Y-10728484D02*
X9884349Y-10728484D01*
X9884349Y-10728484D02*
X9903396Y-10718960D01*
X9903396Y-10718960D02*
X9912920Y-10709436D01*
X9912920Y-10709436D02*
X9922444Y-10690389D01*
X9922444Y-10690389D02*
X9922444Y-10642770D01*
X9922444Y-10642770D02*
X9912920Y-10623722D01*
X9912920Y-10623722D02*
X9903396Y-10614198D01*
X9903396Y-10614198D02*
X9884349Y-10604674D01*
X9884349Y-10604674D02*
X9846253Y-10604674D01*
X9846253Y-10604674D02*
X9827206Y-10614198D01*
X9827206Y-10614198D02*
X9817682Y-10623722D01*
X9817682Y-10623722D02*
X9808158Y-10642770D01*
X9998634Y-10528484D02*
X9998634Y-10566579D01*
X10074825Y-10528484D02*
X10074825Y-10566579D01*
X10370063Y-10804674D02*
X10360539Y-10795150D01*
X10360539Y-10795150D02*
X10341491Y-10766579D01*
X10341491Y-10766579D02*
X10331968Y-10747531D01*
X10331968Y-10747531D02*
X10322444Y-10718960D01*
X10322444Y-10718960D02*
X10312920Y-10671341D01*
X10312920Y-10671341D02*
X10312920Y-10633246D01*
X10312920Y-10633246D02*
X10322444Y-10585627D01*
X10322444Y-10585627D02*
X10331968Y-10557055D01*
X10331968Y-10557055D02*
X10341491Y-10538008D01*
X10341491Y-10538008D02*
X10360539Y-10509436D01*
X10360539Y-10509436D02*
X10370063Y-10499912D01*
X10531968Y-10595150D02*
X10531968Y-10728484D01*
X10484349Y-10518960D02*
X10436730Y-10661817D01*
X10436730Y-10661817D02*
X10560539Y-10661817D01*
X10789111Y-10728484D02*
X10789111Y-10528484D01*
X10874825Y-10728484D02*
X10874825Y-10623722D01*
X10874825Y-10623722D02*
X10865301Y-10604674D01*
X10865301Y-10604674D02*
X10846253Y-10595150D01*
X10846253Y-10595150D02*
X10817682Y-10595150D01*
X10817682Y-10595150D02*
X10798634Y-10604674D01*
X10798634Y-10604674D02*
X10789111Y-10614198D01*
X10998634Y-10728484D02*
X10979587Y-10718960D01*
X10979587Y-10718960D02*
X10970063Y-10709436D01*
X10970063Y-10709436D02*
X10960539Y-10690389D01*
X10960539Y-10690389D02*
X10960539Y-10633246D01*
X10960539Y-10633246D02*
X10970063Y-10614198D01*
X10970063Y-10614198D02*
X10979587Y-10604674D01*
X10979587Y-10604674D02*
X10998634Y-10595150D01*
X10998634Y-10595150D02*
X11027206Y-10595150D01*
X11027206Y-10595150D02*
X11046253Y-10604674D01*
X11046253Y-10604674D02*
X11055777Y-10614198D01*
X11055777Y-10614198D02*
X11065301Y-10633246D01*
X11065301Y-10633246D02*
X11065301Y-10690389D01*
X11065301Y-10690389D02*
X11055777Y-10709436D01*
X11055777Y-10709436D02*
X11046253Y-10718960D01*
X11046253Y-10718960D02*
X11027206Y-10728484D01*
X11027206Y-10728484D02*
X10998634Y-10728484D01*
X11179587Y-10728484D02*
X11160539Y-10718960D01*
X11160539Y-10718960D02*
X11151015Y-10699912D01*
X11151015Y-10699912D02*
X11151015Y-10528484D01*
X11331968Y-10718960D02*
X11312920Y-10728484D01*
X11312920Y-10728484D02*
X11274825Y-10728484D01*
X11274825Y-10728484D02*
X11255777Y-10718960D01*
X11255777Y-10718960D02*
X11246253Y-10699912D01*
X11246253Y-10699912D02*
X11246253Y-10623722D01*
X11246253Y-10623722D02*
X11255777Y-10604674D01*
X11255777Y-10604674D02*
X11274825Y-10595150D01*
X11274825Y-10595150D02*
X11312920Y-10595150D01*
X11312920Y-10595150D02*
X11331968Y-10604674D01*
X11331968Y-10604674D02*
X11341491Y-10623722D01*
X11341491Y-10623722D02*
X11341491Y-10642770D01*
X11341491Y-10642770D02*
X11246253Y-10661817D01*
X11417682Y-10718960D02*
X11436730Y-10728484D01*
X11436730Y-10728484D02*
X11474825Y-10728484D01*
X11474825Y-10728484D02*
X11493872Y-10718960D01*
X11493872Y-10718960D02*
X11503396Y-10699912D01*
X11503396Y-10699912D02*
X11503396Y-10690389D01*
X11503396Y-10690389D02*
X11493872Y-10671341D01*
X11493872Y-10671341D02*
X11474825Y-10661817D01*
X11474825Y-10661817D02*
X11446253Y-10661817D01*
X11446253Y-10661817D02*
X11427206Y-10652293D01*
X11427206Y-10652293D02*
X11417682Y-10633246D01*
X11417682Y-10633246D02*
X11417682Y-10623722D01*
X11417682Y-10623722D02*
X11427206Y-10604674D01*
X11427206Y-10604674D02*
X11446253Y-10595150D01*
X11446253Y-10595150D02*
X11474825Y-10595150D01*
X11474825Y-10595150D02*
X11493872Y-10604674D01*
X11741492Y-10652293D02*
X11893873Y-10652293D01*
X11817682Y-10728484D02*
X11817682Y-10576103D01*
X12227206Y-10595150D02*
X12227206Y-10728484D01*
X12179587Y-10518960D02*
X12131968Y-10661817D01*
X12131968Y-10661817D02*
X12255777Y-10661817D01*
X12474825Y-10718960D02*
X12493873Y-10728484D01*
X12493873Y-10728484D02*
X12531968Y-10728484D01*
X12531968Y-10728484D02*
X12551015Y-10718960D01*
X12551015Y-10718960D02*
X12560539Y-10699912D01*
X12560539Y-10699912D02*
X12560539Y-10690389D01*
X12560539Y-10690389D02*
X12551015Y-10671341D01*
X12551015Y-10671341D02*
X12531968Y-10661817D01*
X12531968Y-10661817D02*
X12503396Y-10661817D01*
X12503396Y-10661817D02*
X12484349Y-10652293D01*
X12484349Y-10652293D02*
X12474825Y-10633246D01*
X12474825Y-10633246D02*
X12474825Y-10623722D01*
X12474825Y-10623722D02*
X12484349Y-10604674D01*
X12484349Y-10604674D02*
X12503396Y-10595150D01*
X12503396Y-10595150D02*
X12531968Y-10595150D01*
X12531968Y-10595150D02*
X12551015Y-10604674D01*
X12674825Y-10728484D02*
X12655777Y-10718960D01*
X12655777Y-10718960D02*
X12646254Y-10699912D01*
X12646254Y-10699912D02*
X12646254Y-10528484D01*
X12779587Y-10728484D02*
X12760539Y-10718960D01*
X12760539Y-10718960D02*
X12751015Y-10709436D01*
X12751015Y-10709436D02*
X12741492Y-10690389D01*
X12741492Y-10690389D02*
X12741492Y-10633246D01*
X12741492Y-10633246D02*
X12751015Y-10614198D01*
X12751015Y-10614198D02*
X12760539Y-10604674D01*
X12760539Y-10604674D02*
X12779587Y-10595150D01*
X12779587Y-10595150D02*
X12808158Y-10595150D01*
X12808158Y-10595150D02*
X12827206Y-10604674D01*
X12827206Y-10604674D02*
X12836730Y-10614198D01*
X12836730Y-10614198D02*
X12846254Y-10633246D01*
X12846254Y-10633246D02*
X12846254Y-10690389D01*
X12846254Y-10690389D02*
X12836730Y-10709436D01*
X12836730Y-10709436D02*
X12827206Y-10718960D01*
X12827206Y-10718960D02*
X12808158Y-10728484D01*
X12808158Y-10728484D02*
X12779587Y-10728484D01*
X12903396Y-10595150D02*
X12979587Y-10595150D01*
X12931968Y-10528484D02*
X12931968Y-10699912D01*
X12931968Y-10699912D02*
X12941492Y-10718960D01*
X12941492Y-10718960D02*
X12960539Y-10728484D01*
X12960539Y-10728484D02*
X12979587Y-10728484D01*
X13036730Y-10718960D02*
X13055777Y-10728484D01*
X13055777Y-10728484D02*
X13093873Y-10728484D01*
X13093873Y-10728484D02*
X13112920Y-10718960D01*
X13112920Y-10718960D02*
X13122444Y-10699912D01*
X13122444Y-10699912D02*
X13122444Y-10690389D01*
X13122444Y-10690389D02*
X13112920Y-10671341D01*
X13112920Y-10671341D02*
X13093873Y-10661817D01*
X13093873Y-10661817D02*
X13065301Y-10661817D01*
X13065301Y-10661817D02*
X13046254Y-10652293D01*
X13046254Y-10652293D02*
X13036730Y-10633246D01*
X13036730Y-10633246D02*
X13036730Y-10623722D01*
X13036730Y-10623722D02*
X13046254Y-10604674D01*
X13046254Y-10604674D02*
X13065301Y-10595150D01*
X13065301Y-10595150D02*
X13093873Y-10595150D01*
X13093873Y-10595150D02*
X13112920Y-10604674D01*
X13189111Y-10804674D02*
X13198635Y-10795150D01*
X13198635Y-10795150D02*
X13217682Y-10766579D01*
X13217682Y-10766579D02*
X13227206Y-10747531D01*
X13227206Y-10747531D02*
X13236730Y-10718960D01*
X13236730Y-10718960D02*
X13246254Y-10671341D01*
X13246254Y-10671341D02*
X13246254Y-10633246D01*
X13246254Y-10633246D02*
X13236730Y-10585627D01*
X13236730Y-10585627D02*
X13227206Y-10557055D01*
X13227206Y-10557055D02*
X13217682Y-10538008D01*
X13217682Y-10538008D02*
X13198635Y-10509436D01*
X13198635Y-10509436D02*
X13189111Y-10499912D01*
D15*
X6747500Y-10948500D02*
X6795000Y-10901000D01*
X6747500Y-10853500D01*
X6700000Y-10901000D01*
X6747500Y-10948500D01*
D11*
X7093872Y-10792484D02*
X7112920Y-10792484D01*
X7112920Y-10792484D02*
X7131967Y-10802008D01*
X7131967Y-10802008D02*
X7141491Y-10811531D01*
X7141491Y-10811531D02*
X7151015Y-10830579D01*
X7151015Y-10830579D02*
X7160539Y-10868674D01*
X7160539Y-10868674D02*
X7160539Y-10916293D01*
X7160539Y-10916293D02*
X7151015Y-10954389D01*
X7151015Y-10954389D02*
X7141491Y-10973436D01*
X7141491Y-10973436D02*
X7131967Y-10982960D01*
X7131967Y-10982960D02*
X7112920Y-10992484D01*
X7112920Y-10992484D02*
X7093872Y-10992484D01*
X7093872Y-10992484D02*
X7074824Y-10982960D01*
X7074824Y-10982960D02*
X7065301Y-10973436D01*
X7065301Y-10973436D02*
X7055777Y-10954389D01*
X7055777Y-10954389D02*
X7046253Y-10916293D01*
X7046253Y-10916293D02*
X7046253Y-10868674D01*
X7046253Y-10868674D02*
X7055777Y-10830579D01*
X7055777Y-10830579D02*
X7065301Y-10811531D01*
X7065301Y-10811531D02*
X7074824Y-10802008D01*
X7074824Y-10802008D02*
X7093872Y-10792484D01*
X7246253Y-10973436D02*
X7255777Y-10982960D01*
X7255777Y-10982960D02*
X7246253Y-10992484D01*
X7246253Y-10992484D02*
X7236729Y-10982960D01*
X7236729Y-10982960D02*
X7246253Y-10973436D01*
X7246253Y-10973436D02*
X7246253Y-10992484D01*
X7351015Y-10992484D02*
X7389110Y-10992484D01*
X7389110Y-10992484D02*
X7408158Y-10982960D01*
X7408158Y-10982960D02*
X7417682Y-10973436D01*
X7417682Y-10973436D02*
X7436729Y-10944865D01*
X7436729Y-10944865D02*
X7446253Y-10906770D01*
X7446253Y-10906770D02*
X7446253Y-10830579D01*
X7446253Y-10830579D02*
X7436729Y-10811531D01*
X7436729Y-10811531D02*
X7427205Y-10802008D01*
X7427205Y-10802008D02*
X7408158Y-10792484D01*
X7408158Y-10792484D02*
X7370062Y-10792484D01*
X7370062Y-10792484D02*
X7351015Y-10802008D01*
X7351015Y-10802008D02*
X7341491Y-10811531D01*
X7341491Y-10811531D02*
X7331967Y-10830579D01*
X7331967Y-10830579D02*
X7331967Y-10878198D01*
X7331967Y-10878198D02*
X7341491Y-10897246D01*
X7341491Y-10897246D02*
X7351015Y-10906770D01*
X7351015Y-10906770D02*
X7370062Y-10916293D01*
X7370062Y-10916293D02*
X7408158Y-10916293D01*
X7408158Y-10916293D02*
X7427205Y-10906770D01*
X7427205Y-10906770D02*
X7436729Y-10897246D01*
X7436729Y-10897246D02*
X7446253Y-10878198D01*
X7627205Y-10792484D02*
X7531967Y-10792484D01*
X7531967Y-10792484D02*
X7522443Y-10887722D01*
X7522443Y-10887722D02*
X7531967Y-10878198D01*
X7531967Y-10878198D02*
X7551015Y-10868674D01*
X7551015Y-10868674D02*
X7598634Y-10868674D01*
X7598634Y-10868674D02*
X7617682Y-10878198D01*
X7617682Y-10878198D02*
X7627205Y-10887722D01*
X7627205Y-10887722D02*
X7636729Y-10906770D01*
X7636729Y-10906770D02*
X7636729Y-10954389D01*
X7636729Y-10954389D02*
X7627205Y-10973436D01*
X7627205Y-10973436D02*
X7617682Y-10982960D01*
X7617682Y-10982960D02*
X7598634Y-10992484D01*
X7598634Y-10992484D02*
X7551015Y-10992484D01*
X7551015Y-10992484D02*
X7531967Y-10982960D01*
X7531967Y-10982960D02*
X7522443Y-10973436D01*
X7760539Y-10792484D02*
X7779586Y-10792484D01*
X7779586Y-10792484D02*
X7798634Y-10802008D01*
X7798634Y-10802008D02*
X7808158Y-10811531D01*
X7808158Y-10811531D02*
X7817682Y-10830579D01*
X7817682Y-10830579D02*
X7827205Y-10868674D01*
X7827205Y-10868674D02*
X7827205Y-10916293D01*
X7827205Y-10916293D02*
X7817682Y-10954389D01*
X7817682Y-10954389D02*
X7808158Y-10973436D01*
X7808158Y-10973436D02*
X7798634Y-10982960D01*
X7798634Y-10982960D02*
X7779586Y-10992484D01*
X7779586Y-10992484D02*
X7760539Y-10992484D01*
X7760539Y-10992484D02*
X7741491Y-10982960D01*
X7741491Y-10982960D02*
X7731967Y-10973436D01*
X7731967Y-10973436D02*
X7722443Y-10954389D01*
X7722443Y-10954389D02*
X7712920Y-10916293D01*
X7712920Y-10916293D02*
X7712920Y-10868674D01*
X7712920Y-10868674D02*
X7722443Y-10830579D01*
X7722443Y-10830579D02*
X7731967Y-10811531D01*
X7731967Y-10811531D02*
X7741491Y-10802008D01*
X7741491Y-10802008D02*
X7760539Y-10792484D01*
X7912920Y-10992484D02*
X7912920Y-10859150D01*
X7912920Y-10878198D02*
X7922443Y-10868674D01*
X7922443Y-10868674D02*
X7941491Y-10859150D01*
X7941491Y-10859150D02*
X7970063Y-10859150D01*
X7970063Y-10859150D02*
X7989110Y-10868674D01*
X7989110Y-10868674D02*
X7998634Y-10887722D01*
X7998634Y-10887722D02*
X7998634Y-10992484D01*
X7998634Y-10887722D02*
X8008158Y-10868674D01*
X8008158Y-10868674D02*
X8027205Y-10859150D01*
X8027205Y-10859150D02*
X8055777Y-10859150D01*
X8055777Y-10859150D02*
X8074824Y-10868674D01*
X8074824Y-10868674D02*
X8084348Y-10887722D01*
X8084348Y-10887722D02*
X8084348Y-10992484D01*
X8179586Y-10992484D02*
X8179586Y-10859150D01*
X8179586Y-10878198D02*
X8189110Y-10868674D01*
X8189110Y-10868674D02*
X8208158Y-10859150D01*
X8208158Y-10859150D02*
X8236729Y-10859150D01*
X8236729Y-10859150D02*
X8255777Y-10868674D01*
X8255777Y-10868674D02*
X8265301Y-10887722D01*
X8265301Y-10887722D02*
X8265301Y-10992484D01*
X8265301Y-10887722D02*
X8274824Y-10868674D01*
X8274824Y-10868674D02*
X8293872Y-10859150D01*
X8293872Y-10859150D02*
X8322443Y-10859150D01*
X8322443Y-10859150D02*
X8341491Y-10868674D01*
X8341491Y-10868674D02*
X8351015Y-10887722D01*
X8351015Y-10887722D02*
X8351015Y-10992484D01*
X8741491Y-10782960D02*
X8570063Y-11040103D01*
X8998634Y-10792484D02*
X9017682Y-10792484D01*
X9017682Y-10792484D02*
X9036729Y-10802008D01*
X9036729Y-10802008D02*
X9046253Y-10811531D01*
X9046253Y-10811531D02*
X9055777Y-10830579D01*
X9055777Y-10830579D02*
X9065301Y-10868674D01*
X9065301Y-10868674D02*
X9065301Y-10916293D01*
X9065301Y-10916293D02*
X9055777Y-10954389D01*
X9055777Y-10954389D02*
X9046253Y-10973436D01*
X9046253Y-10973436D02*
X9036729Y-10982960D01*
X9036729Y-10982960D02*
X9017682Y-10992484D01*
X9017682Y-10992484D02*
X8998634Y-10992484D01*
X8998634Y-10992484D02*
X8979587Y-10982960D01*
X8979587Y-10982960D02*
X8970063Y-10973436D01*
X8970063Y-10973436D02*
X8960539Y-10954389D01*
X8960539Y-10954389D02*
X8951015Y-10916293D01*
X8951015Y-10916293D02*
X8951015Y-10868674D01*
X8951015Y-10868674D02*
X8960539Y-10830579D01*
X8960539Y-10830579D02*
X8970063Y-10811531D01*
X8970063Y-10811531D02*
X8979587Y-10802008D01*
X8979587Y-10802008D02*
X8998634Y-10792484D01*
X9151015Y-10973436D02*
X9160539Y-10982960D01*
X9160539Y-10982960D02*
X9151015Y-10992484D01*
X9151015Y-10992484D02*
X9141491Y-10982960D01*
X9141491Y-10982960D02*
X9151015Y-10973436D01*
X9151015Y-10973436D02*
X9151015Y-10992484D01*
X9284348Y-10792484D02*
X9303396Y-10792484D01*
X9303396Y-10792484D02*
X9322444Y-10802008D01*
X9322444Y-10802008D02*
X9331968Y-10811531D01*
X9331968Y-10811531D02*
X9341491Y-10830579D01*
X9341491Y-10830579D02*
X9351015Y-10868674D01*
X9351015Y-10868674D02*
X9351015Y-10916293D01*
X9351015Y-10916293D02*
X9341491Y-10954389D01*
X9341491Y-10954389D02*
X9331968Y-10973436D01*
X9331968Y-10973436D02*
X9322444Y-10982960D01*
X9322444Y-10982960D02*
X9303396Y-10992484D01*
X9303396Y-10992484D02*
X9284348Y-10992484D01*
X9284348Y-10992484D02*
X9265301Y-10982960D01*
X9265301Y-10982960D02*
X9255777Y-10973436D01*
X9255777Y-10973436D02*
X9246253Y-10954389D01*
X9246253Y-10954389D02*
X9236729Y-10916293D01*
X9236729Y-10916293D02*
X9236729Y-10868674D01*
X9236729Y-10868674D02*
X9246253Y-10830579D01*
X9246253Y-10830579D02*
X9255777Y-10811531D01*
X9255777Y-10811531D02*
X9265301Y-10802008D01*
X9265301Y-10802008D02*
X9284348Y-10792484D01*
X9417682Y-10792484D02*
X9541491Y-10792484D01*
X9541491Y-10792484D02*
X9474825Y-10868674D01*
X9474825Y-10868674D02*
X9503396Y-10868674D01*
X9503396Y-10868674D02*
X9522444Y-10878198D01*
X9522444Y-10878198D02*
X9531968Y-10887722D01*
X9531968Y-10887722D02*
X9541491Y-10906770D01*
X9541491Y-10906770D02*
X9541491Y-10954389D01*
X9541491Y-10954389D02*
X9531968Y-10973436D01*
X9531968Y-10973436D02*
X9522444Y-10982960D01*
X9522444Y-10982960D02*
X9503396Y-10992484D01*
X9503396Y-10992484D02*
X9446253Y-10992484D01*
X9446253Y-10992484D02*
X9427206Y-10982960D01*
X9427206Y-10982960D02*
X9417682Y-10973436D01*
X9608158Y-10792484D02*
X9741491Y-10792484D01*
X9741491Y-10792484D02*
X9655777Y-10992484D01*
X9903396Y-10859150D02*
X9903396Y-10992484D01*
X9855777Y-10782960D02*
X9808158Y-10925817D01*
X9808158Y-10925817D02*
X9931968Y-10925817D01*
X9998634Y-10792484D02*
X9998634Y-10830579D01*
X10074825Y-10792484D02*
X10074825Y-10830579D01*
X10370063Y-11068674D02*
X10360539Y-11059150D01*
X10360539Y-11059150D02*
X10341491Y-11030579D01*
X10341491Y-11030579D02*
X10331968Y-11011531D01*
X10331968Y-11011531D02*
X10322444Y-10982960D01*
X10322444Y-10982960D02*
X10312920Y-10935341D01*
X10312920Y-10935341D02*
X10312920Y-10897246D01*
X10312920Y-10897246D02*
X10322444Y-10849627D01*
X10322444Y-10849627D02*
X10331968Y-10821055D01*
X10331968Y-10821055D02*
X10341491Y-10802008D01*
X10341491Y-10802008D02*
X10360539Y-10773436D01*
X10360539Y-10773436D02*
X10370063Y-10763912D01*
X10531968Y-10859150D02*
X10531968Y-10992484D01*
X10484349Y-10782960D02*
X10436730Y-10925817D01*
X10436730Y-10925817D02*
X10560539Y-10925817D01*
X10789111Y-10992484D02*
X10789111Y-10792484D01*
X10874825Y-10992484D02*
X10874825Y-10887722D01*
X10874825Y-10887722D02*
X10865301Y-10868674D01*
X10865301Y-10868674D02*
X10846253Y-10859150D01*
X10846253Y-10859150D02*
X10817682Y-10859150D01*
X10817682Y-10859150D02*
X10798634Y-10868674D01*
X10798634Y-10868674D02*
X10789111Y-10878198D01*
X10998634Y-10992484D02*
X10979587Y-10982960D01*
X10979587Y-10982960D02*
X10970063Y-10973436D01*
X10970063Y-10973436D02*
X10960539Y-10954389D01*
X10960539Y-10954389D02*
X10960539Y-10897246D01*
X10960539Y-10897246D02*
X10970063Y-10878198D01*
X10970063Y-10878198D02*
X10979587Y-10868674D01*
X10979587Y-10868674D02*
X10998634Y-10859150D01*
X10998634Y-10859150D02*
X11027206Y-10859150D01*
X11027206Y-10859150D02*
X11046253Y-10868674D01*
X11046253Y-10868674D02*
X11055777Y-10878198D01*
X11055777Y-10878198D02*
X11065301Y-10897246D01*
X11065301Y-10897246D02*
X11065301Y-10954389D01*
X11065301Y-10954389D02*
X11055777Y-10973436D01*
X11055777Y-10973436D02*
X11046253Y-10982960D01*
X11046253Y-10982960D02*
X11027206Y-10992484D01*
X11027206Y-10992484D02*
X10998634Y-10992484D01*
X11179587Y-10992484D02*
X11160539Y-10982960D01*
X11160539Y-10982960D02*
X11151015Y-10963912D01*
X11151015Y-10963912D02*
X11151015Y-10792484D01*
X11331968Y-10982960D02*
X11312920Y-10992484D01*
X11312920Y-10992484D02*
X11274825Y-10992484D01*
X11274825Y-10992484D02*
X11255777Y-10982960D01*
X11255777Y-10982960D02*
X11246253Y-10963912D01*
X11246253Y-10963912D02*
X11246253Y-10887722D01*
X11246253Y-10887722D02*
X11255777Y-10868674D01*
X11255777Y-10868674D02*
X11274825Y-10859150D01*
X11274825Y-10859150D02*
X11312920Y-10859150D01*
X11312920Y-10859150D02*
X11331968Y-10868674D01*
X11331968Y-10868674D02*
X11341491Y-10887722D01*
X11341491Y-10887722D02*
X11341491Y-10906770D01*
X11341491Y-10906770D02*
X11246253Y-10925817D01*
X11417682Y-10982960D02*
X11436730Y-10992484D01*
X11436730Y-10992484D02*
X11474825Y-10992484D01*
X11474825Y-10992484D02*
X11493872Y-10982960D01*
X11493872Y-10982960D02*
X11503396Y-10963912D01*
X11503396Y-10963912D02*
X11503396Y-10954389D01*
X11503396Y-10954389D02*
X11493872Y-10935341D01*
X11493872Y-10935341D02*
X11474825Y-10925817D01*
X11474825Y-10925817D02*
X11446253Y-10925817D01*
X11446253Y-10925817D02*
X11427206Y-10916293D01*
X11427206Y-10916293D02*
X11417682Y-10897246D01*
X11417682Y-10897246D02*
X11417682Y-10887722D01*
X11417682Y-10887722D02*
X11427206Y-10868674D01*
X11427206Y-10868674D02*
X11446253Y-10859150D01*
X11446253Y-10859150D02*
X11474825Y-10859150D01*
X11474825Y-10859150D02*
X11493872Y-10868674D01*
X11570063Y-11068674D02*
X11579587Y-11059150D01*
X11579587Y-11059150D02*
X11598634Y-11030579D01*
X11598634Y-11030579D02*
X11608158Y-11011531D01*
X11608158Y-11011531D02*
X11617682Y-10982960D01*
X11617682Y-10982960D02*
X11627206Y-10935341D01*
X11627206Y-10935341D02*
X11627206Y-10897246D01*
X11627206Y-10897246D02*
X11617682Y-10849627D01*
X11617682Y-10849627D02*
X11608158Y-10821055D01*
X11608158Y-10821055D02*
X11598634Y-10802008D01*
X11598634Y-10802008D02*
X11579587Y-10773436D01*
X11579587Y-10773436D02*
X11570063Y-10763912D01*
D10*
X6695000Y-11115000D02*
X6795000Y-11215000D01*
X6795000Y-11115000D02*
X6695000Y-11215000D01*
X6795000Y-11165000D02*
G75*
G03*
X6795000Y-11165000I-50000J0D01*
G01*
D11*
X7160539Y-11256484D02*
X7046253Y-11256484D01*
X7103396Y-11256484D02*
X7103396Y-11056484D01*
X7103396Y-11056484D02*
X7084348Y-11085055D01*
X7084348Y-11085055D02*
X7065301Y-11104103D01*
X7065301Y-11104103D02*
X7046253Y-11113627D01*
X7246253Y-11237436D02*
X7255777Y-11246960D01*
X7255777Y-11246960D02*
X7246253Y-11256484D01*
X7246253Y-11256484D02*
X7236729Y-11246960D01*
X7236729Y-11246960D02*
X7246253Y-11237436D01*
X7246253Y-11237436D02*
X7246253Y-11256484D01*
X7379586Y-11056484D02*
X7398634Y-11056484D01*
X7398634Y-11056484D02*
X7417682Y-11066008D01*
X7417682Y-11066008D02*
X7427205Y-11075531D01*
X7427205Y-11075531D02*
X7436729Y-11094579D01*
X7436729Y-11094579D02*
X7446253Y-11132674D01*
X7446253Y-11132674D02*
X7446253Y-11180293D01*
X7446253Y-11180293D02*
X7436729Y-11218388D01*
X7436729Y-11218388D02*
X7427205Y-11237436D01*
X7427205Y-11237436D02*
X7417682Y-11246960D01*
X7417682Y-11246960D02*
X7398634Y-11256484D01*
X7398634Y-11256484D02*
X7379586Y-11256484D01*
X7379586Y-11256484D02*
X7360539Y-11246960D01*
X7360539Y-11246960D02*
X7351015Y-11237436D01*
X7351015Y-11237436D02*
X7341491Y-11218388D01*
X7341491Y-11218388D02*
X7331967Y-11180293D01*
X7331967Y-11180293D02*
X7331967Y-11132674D01*
X7331967Y-11132674D02*
X7341491Y-11094579D01*
X7341491Y-11094579D02*
X7351015Y-11075531D01*
X7351015Y-11075531D02*
X7360539Y-11066008D01*
X7360539Y-11066008D02*
X7379586Y-11056484D01*
X7570062Y-11056484D02*
X7589110Y-11056484D01*
X7589110Y-11056484D02*
X7608158Y-11066008D01*
X7608158Y-11066008D02*
X7617682Y-11075531D01*
X7617682Y-11075531D02*
X7627205Y-11094579D01*
X7627205Y-11094579D02*
X7636729Y-11132674D01*
X7636729Y-11132674D02*
X7636729Y-11180293D01*
X7636729Y-11180293D02*
X7627205Y-11218388D01*
X7627205Y-11218388D02*
X7617682Y-11237436D01*
X7617682Y-11237436D02*
X7608158Y-11246960D01*
X7608158Y-11246960D02*
X7589110Y-11256484D01*
X7589110Y-11256484D02*
X7570062Y-11256484D01*
X7570062Y-11256484D02*
X7551015Y-11246960D01*
X7551015Y-11246960D02*
X7541491Y-11237436D01*
X7541491Y-11237436D02*
X7531967Y-11218388D01*
X7531967Y-11218388D02*
X7522443Y-11180293D01*
X7522443Y-11180293D02*
X7522443Y-11132674D01*
X7522443Y-11132674D02*
X7531967Y-11094579D01*
X7531967Y-11094579D02*
X7541491Y-11075531D01*
X7541491Y-11075531D02*
X7551015Y-11066008D01*
X7551015Y-11066008D02*
X7570062Y-11056484D01*
X7760539Y-11056484D02*
X7779586Y-11056484D01*
X7779586Y-11056484D02*
X7798634Y-11066008D01*
X7798634Y-11066008D02*
X7808158Y-11075531D01*
X7808158Y-11075531D02*
X7817682Y-11094579D01*
X7817682Y-11094579D02*
X7827205Y-11132674D01*
X7827205Y-11132674D02*
X7827205Y-11180293D01*
X7827205Y-11180293D02*
X7817682Y-11218388D01*
X7817682Y-11218388D02*
X7808158Y-11237436D01*
X7808158Y-11237436D02*
X7798634Y-11246960D01*
X7798634Y-11246960D02*
X7779586Y-11256484D01*
X7779586Y-11256484D02*
X7760539Y-11256484D01*
X7760539Y-11256484D02*
X7741491Y-11246960D01*
X7741491Y-11246960D02*
X7731967Y-11237436D01*
X7731967Y-11237436D02*
X7722443Y-11218388D01*
X7722443Y-11218388D02*
X7712920Y-11180293D01*
X7712920Y-11180293D02*
X7712920Y-11132674D01*
X7712920Y-11132674D02*
X7722443Y-11094579D01*
X7722443Y-11094579D02*
X7731967Y-11075531D01*
X7731967Y-11075531D02*
X7741491Y-11066008D01*
X7741491Y-11066008D02*
X7760539Y-11056484D01*
X7912920Y-11256484D02*
X7912920Y-11123150D01*
X7912920Y-11142198D02*
X7922443Y-11132674D01*
X7922443Y-11132674D02*
X7941491Y-11123150D01*
X7941491Y-11123150D02*
X7970063Y-11123150D01*
X7970063Y-11123150D02*
X7989110Y-11132674D01*
X7989110Y-11132674D02*
X7998634Y-11151722D01*
X7998634Y-11151722D02*
X7998634Y-11256484D01*
X7998634Y-11151722D02*
X8008158Y-11132674D01*
X8008158Y-11132674D02*
X8027205Y-11123150D01*
X8027205Y-11123150D02*
X8055777Y-11123150D01*
X8055777Y-11123150D02*
X8074824Y-11132674D01*
X8074824Y-11132674D02*
X8084348Y-11151722D01*
X8084348Y-11151722D02*
X8084348Y-11256484D01*
X8179586Y-11256484D02*
X8179586Y-11123150D01*
X8179586Y-11142198D02*
X8189110Y-11132674D01*
X8189110Y-11132674D02*
X8208158Y-11123150D01*
X8208158Y-11123150D02*
X8236729Y-11123150D01*
X8236729Y-11123150D02*
X8255777Y-11132674D01*
X8255777Y-11132674D02*
X8265301Y-11151722D01*
X8265301Y-11151722D02*
X8265301Y-11256484D01*
X8265301Y-11151722D02*
X8274824Y-11132674D01*
X8274824Y-11132674D02*
X8293872Y-11123150D01*
X8293872Y-11123150D02*
X8322443Y-11123150D01*
X8322443Y-11123150D02*
X8341491Y-11132674D01*
X8341491Y-11132674D02*
X8351015Y-11151722D01*
X8351015Y-11151722D02*
X8351015Y-11256484D01*
X8741491Y-11046960D02*
X8570063Y-11304103D01*
X8998634Y-11056484D02*
X9017682Y-11056484D01*
X9017682Y-11056484D02*
X9036729Y-11066008D01*
X9036729Y-11066008D02*
X9046253Y-11075531D01*
X9046253Y-11075531D02*
X9055777Y-11094579D01*
X9055777Y-11094579D02*
X9065301Y-11132674D01*
X9065301Y-11132674D02*
X9065301Y-11180293D01*
X9065301Y-11180293D02*
X9055777Y-11218388D01*
X9055777Y-11218388D02*
X9046253Y-11237436D01*
X9046253Y-11237436D02*
X9036729Y-11246960D01*
X9036729Y-11246960D02*
X9017682Y-11256484D01*
X9017682Y-11256484D02*
X8998634Y-11256484D01*
X8998634Y-11256484D02*
X8979587Y-11246960D01*
X8979587Y-11246960D02*
X8970063Y-11237436D01*
X8970063Y-11237436D02*
X8960539Y-11218388D01*
X8960539Y-11218388D02*
X8951015Y-11180293D01*
X8951015Y-11180293D02*
X8951015Y-11132674D01*
X8951015Y-11132674D02*
X8960539Y-11094579D01*
X8960539Y-11094579D02*
X8970063Y-11075531D01*
X8970063Y-11075531D02*
X8979587Y-11066008D01*
X8979587Y-11066008D02*
X8998634Y-11056484D01*
X9151015Y-11237436D02*
X9160539Y-11246960D01*
X9160539Y-11246960D02*
X9151015Y-11256484D01*
X9151015Y-11256484D02*
X9141491Y-11246960D01*
X9141491Y-11246960D02*
X9151015Y-11237436D01*
X9151015Y-11237436D02*
X9151015Y-11256484D01*
X9284348Y-11056484D02*
X9303396Y-11056484D01*
X9303396Y-11056484D02*
X9322444Y-11066008D01*
X9322444Y-11066008D02*
X9331968Y-11075531D01*
X9331968Y-11075531D02*
X9341491Y-11094579D01*
X9341491Y-11094579D02*
X9351015Y-11132674D01*
X9351015Y-11132674D02*
X9351015Y-11180293D01*
X9351015Y-11180293D02*
X9341491Y-11218388D01*
X9341491Y-11218388D02*
X9331968Y-11237436D01*
X9331968Y-11237436D02*
X9322444Y-11246960D01*
X9322444Y-11246960D02*
X9303396Y-11256484D01*
X9303396Y-11256484D02*
X9284348Y-11256484D01*
X9284348Y-11256484D02*
X9265301Y-11246960D01*
X9265301Y-11246960D02*
X9255777Y-11237436D01*
X9255777Y-11237436D02*
X9246253Y-11218388D01*
X9246253Y-11218388D02*
X9236729Y-11180293D01*
X9236729Y-11180293D02*
X9236729Y-11132674D01*
X9236729Y-11132674D02*
X9246253Y-11094579D01*
X9246253Y-11094579D02*
X9255777Y-11075531D01*
X9255777Y-11075531D02*
X9265301Y-11066008D01*
X9265301Y-11066008D02*
X9284348Y-11056484D01*
X9417682Y-11056484D02*
X9541491Y-11056484D01*
X9541491Y-11056484D02*
X9474825Y-11132674D01*
X9474825Y-11132674D02*
X9503396Y-11132674D01*
X9503396Y-11132674D02*
X9522444Y-11142198D01*
X9522444Y-11142198D02*
X9531968Y-11151722D01*
X9531968Y-11151722D02*
X9541491Y-11170770D01*
X9541491Y-11170770D02*
X9541491Y-11218388D01*
X9541491Y-11218388D02*
X9531968Y-11237436D01*
X9531968Y-11237436D02*
X9522444Y-11246960D01*
X9522444Y-11246960D02*
X9503396Y-11256484D01*
X9503396Y-11256484D02*
X9446253Y-11256484D01*
X9446253Y-11256484D02*
X9427206Y-11246960D01*
X9427206Y-11246960D02*
X9417682Y-11237436D01*
X9636729Y-11256484D02*
X9674825Y-11256484D01*
X9674825Y-11256484D02*
X9693872Y-11246960D01*
X9693872Y-11246960D02*
X9703396Y-11237436D01*
X9703396Y-11237436D02*
X9722444Y-11208865D01*
X9722444Y-11208865D02*
X9731968Y-11170770D01*
X9731968Y-11170770D02*
X9731968Y-11094579D01*
X9731968Y-11094579D02*
X9722444Y-11075531D01*
X9722444Y-11075531D02*
X9712920Y-11066008D01*
X9712920Y-11066008D02*
X9693872Y-11056484D01*
X9693872Y-11056484D02*
X9655777Y-11056484D01*
X9655777Y-11056484D02*
X9636729Y-11066008D01*
X9636729Y-11066008D02*
X9627206Y-11075531D01*
X9627206Y-11075531D02*
X9617682Y-11094579D01*
X9617682Y-11094579D02*
X9617682Y-11142198D01*
X9617682Y-11142198D02*
X9627206Y-11161246D01*
X9627206Y-11161246D02*
X9636729Y-11170770D01*
X9636729Y-11170770D02*
X9655777Y-11180293D01*
X9655777Y-11180293D02*
X9693872Y-11180293D01*
X9693872Y-11180293D02*
X9712920Y-11170770D01*
X9712920Y-11170770D02*
X9722444Y-11161246D01*
X9722444Y-11161246D02*
X9731968Y-11142198D01*
X9903396Y-11123150D02*
X9903396Y-11256484D01*
X9855777Y-11046960D02*
X9808158Y-11189817D01*
X9808158Y-11189817D02*
X9931968Y-11189817D01*
X9998634Y-11056484D02*
X9998634Y-11094579D01*
X10074825Y-11056484D02*
X10074825Y-11094579D01*
X10370063Y-11332674D02*
X10360539Y-11323150D01*
X10360539Y-11323150D02*
X10341491Y-11294579D01*
X10341491Y-11294579D02*
X10331968Y-11275531D01*
X10331968Y-11275531D02*
X10322444Y-11246960D01*
X10322444Y-11246960D02*
X10312920Y-11199341D01*
X10312920Y-11199341D02*
X10312920Y-11161246D01*
X10312920Y-11161246D02*
X10322444Y-11113627D01*
X10322444Y-11113627D02*
X10331968Y-11085055D01*
X10331968Y-11085055D02*
X10341491Y-11066008D01*
X10341491Y-11066008D02*
X10360539Y-11037436D01*
X10360539Y-11037436D02*
X10370063Y-11027912D01*
X10551015Y-11256484D02*
X10436730Y-11256484D01*
X10493872Y-11256484D02*
X10493872Y-11056484D01*
X10493872Y-11056484D02*
X10474825Y-11085055D01*
X10474825Y-11085055D02*
X10455777Y-11104103D01*
X10455777Y-11104103D02*
X10436730Y-11113627D01*
X10617682Y-11056484D02*
X10741491Y-11056484D01*
X10741491Y-11056484D02*
X10674825Y-11132674D01*
X10674825Y-11132674D02*
X10703396Y-11132674D01*
X10703396Y-11132674D02*
X10722444Y-11142198D01*
X10722444Y-11142198D02*
X10731968Y-11151722D01*
X10731968Y-11151722D02*
X10741491Y-11170770D01*
X10741491Y-11170770D02*
X10741491Y-11218388D01*
X10741491Y-11218388D02*
X10731968Y-11237436D01*
X10731968Y-11237436D02*
X10722444Y-11246960D01*
X10722444Y-11246960D02*
X10703396Y-11256484D01*
X10703396Y-11256484D02*
X10646253Y-11256484D01*
X10646253Y-11256484D02*
X10627206Y-11246960D01*
X10627206Y-11246960D02*
X10617682Y-11237436D01*
X10979587Y-11256484D02*
X10979587Y-11056484D01*
X11065301Y-11256484D02*
X11065301Y-11151722D01*
X11065301Y-11151722D02*
X11055777Y-11132674D01*
X11055777Y-11132674D02*
X11036730Y-11123150D01*
X11036730Y-11123150D02*
X11008158Y-11123150D01*
X11008158Y-11123150D02*
X10989111Y-11132674D01*
X10989111Y-11132674D02*
X10979587Y-11142198D01*
X11189110Y-11256484D02*
X11170063Y-11246960D01*
X11170063Y-11246960D02*
X11160539Y-11237436D01*
X11160539Y-11237436D02*
X11151015Y-11218388D01*
X11151015Y-11218388D02*
X11151015Y-11161246D01*
X11151015Y-11161246D02*
X11160539Y-11142198D01*
X11160539Y-11142198D02*
X11170063Y-11132674D01*
X11170063Y-11132674D02*
X11189110Y-11123150D01*
X11189110Y-11123150D02*
X11217682Y-11123150D01*
X11217682Y-11123150D02*
X11236730Y-11132674D01*
X11236730Y-11132674D02*
X11246253Y-11142198D01*
X11246253Y-11142198D02*
X11255777Y-11161246D01*
X11255777Y-11161246D02*
X11255777Y-11218388D01*
X11255777Y-11218388D02*
X11246253Y-11237436D01*
X11246253Y-11237436D02*
X11236730Y-11246960D01*
X11236730Y-11246960D02*
X11217682Y-11256484D01*
X11217682Y-11256484D02*
X11189110Y-11256484D01*
X11370063Y-11256484D02*
X11351015Y-11246960D01*
X11351015Y-11246960D02*
X11341491Y-11227912D01*
X11341491Y-11227912D02*
X11341491Y-11056484D01*
X11522444Y-11246960D02*
X11503396Y-11256484D01*
X11503396Y-11256484D02*
X11465301Y-11256484D01*
X11465301Y-11256484D02*
X11446253Y-11246960D01*
X11446253Y-11246960D02*
X11436730Y-11227912D01*
X11436730Y-11227912D02*
X11436730Y-11151722D01*
X11436730Y-11151722D02*
X11446253Y-11132674D01*
X11446253Y-11132674D02*
X11465301Y-11123150D01*
X11465301Y-11123150D02*
X11503396Y-11123150D01*
X11503396Y-11123150D02*
X11522444Y-11132674D01*
X11522444Y-11132674D02*
X11531968Y-11151722D01*
X11531968Y-11151722D02*
X11531968Y-11170770D01*
X11531968Y-11170770D02*
X11436730Y-11189817D01*
X11608158Y-11246960D02*
X11627206Y-11256484D01*
X11627206Y-11256484D02*
X11665301Y-11256484D01*
X11665301Y-11256484D02*
X11684349Y-11246960D01*
X11684349Y-11246960D02*
X11693872Y-11227912D01*
X11693872Y-11227912D02*
X11693872Y-11218388D01*
X11693872Y-11218388D02*
X11684349Y-11199341D01*
X11684349Y-11199341D02*
X11665301Y-11189817D01*
X11665301Y-11189817D02*
X11636730Y-11189817D01*
X11636730Y-11189817D02*
X11617682Y-11180293D01*
X11617682Y-11180293D02*
X11608158Y-11161246D01*
X11608158Y-11161246D02*
X11608158Y-11151722D01*
X11608158Y-11151722D02*
X11617682Y-11132674D01*
X11617682Y-11132674D02*
X11636730Y-11123150D01*
X11636730Y-11123150D02*
X11665301Y-11123150D01*
X11665301Y-11123150D02*
X11684349Y-11132674D01*
X11931968Y-11180293D02*
X12084349Y-11180293D01*
X12008158Y-11256484D02*
X12008158Y-11104103D01*
X12312920Y-11056484D02*
X12436730Y-11056484D01*
X12436730Y-11056484D02*
X12370063Y-11132674D01*
X12370063Y-11132674D02*
X12398634Y-11132674D01*
X12398634Y-11132674D02*
X12417682Y-11142198D01*
X12417682Y-11142198D02*
X12427206Y-11151722D01*
X12427206Y-11151722D02*
X12436730Y-11170770D01*
X12436730Y-11170770D02*
X12436730Y-11218388D01*
X12436730Y-11218388D02*
X12427206Y-11237436D01*
X12427206Y-11237436D02*
X12417682Y-11246960D01*
X12417682Y-11246960D02*
X12398634Y-11256484D01*
X12398634Y-11256484D02*
X12341492Y-11256484D01*
X12341492Y-11256484D02*
X12322444Y-11246960D01*
X12322444Y-11246960D02*
X12312920Y-11237436D01*
X12665301Y-11246960D02*
X12684349Y-11256484D01*
X12684349Y-11256484D02*
X12722444Y-11256484D01*
X12722444Y-11256484D02*
X12741492Y-11246960D01*
X12741492Y-11246960D02*
X12751015Y-11227912D01*
X12751015Y-11227912D02*
X12751015Y-11218388D01*
X12751015Y-11218388D02*
X12741492Y-11199341D01*
X12741492Y-11199341D02*
X12722444Y-11189817D01*
X12722444Y-11189817D02*
X12693873Y-11189817D01*
X12693873Y-11189817D02*
X12674825Y-11180293D01*
X12674825Y-11180293D02*
X12665301Y-11161246D01*
X12665301Y-11161246D02*
X12665301Y-11151722D01*
X12665301Y-11151722D02*
X12674825Y-11132674D01*
X12674825Y-11132674D02*
X12693873Y-11123150D01*
X12693873Y-11123150D02*
X12722444Y-11123150D01*
X12722444Y-11123150D02*
X12741492Y-11132674D01*
X12865301Y-11256484D02*
X12846254Y-11246960D01*
X12846254Y-11246960D02*
X12836730Y-11227912D01*
X12836730Y-11227912D02*
X12836730Y-11056484D01*
X12970063Y-11256484D02*
X12951015Y-11246960D01*
X12951015Y-11246960D02*
X12941492Y-11237436D01*
X12941492Y-11237436D02*
X12931968Y-11218388D01*
X12931968Y-11218388D02*
X12931968Y-11161246D01*
X12931968Y-11161246D02*
X12941492Y-11142198D01*
X12941492Y-11142198D02*
X12951015Y-11132674D01*
X12951015Y-11132674D02*
X12970063Y-11123150D01*
X12970063Y-11123150D02*
X12998635Y-11123150D01*
X12998635Y-11123150D02*
X13017682Y-11132674D01*
X13017682Y-11132674D02*
X13027206Y-11142198D01*
X13027206Y-11142198D02*
X13036730Y-11161246D01*
X13036730Y-11161246D02*
X13036730Y-11218388D01*
X13036730Y-11218388D02*
X13027206Y-11237436D01*
X13027206Y-11237436D02*
X13017682Y-11246960D01*
X13017682Y-11246960D02*
X12998635Y-11256484D01*
X12998635Y-11256484D02*
X12970063Y-11256484D01*
X13093873Y-11123150D02*
X13170063Y-11123150D01*
X13122444Y-11056484D02*
X13122444Y-11227912D01*
X13122444Y-11227912D02*
X13131968Y-11246960D01*
X13131968Y-11246960D02*
X13151015Y-11256484D01*
X13151015Y-11256484D02*
X13170063Y-11256484D01*
X13227206Y-11246960D02*
X13246254Y-11256484D01*
X13246254Y-11256484D02*
X13284349Y-11256484D01*
X13284349Y-11256484D02*
X13303396Y-11246960D01*
X13303396Y-11246960D02*
X13312920Y-11227912D01*
X13312920Y-11227912D02*
X13312920Y-11218388D01*
X13312920Y-11218388D02*
X13303396Y-11199341D01*
X13303396Y-11199341D02*
X13284349Y-11189817D01*
X13284349Y-11189817D02*
X13255777Y-11189817D01*
X13255777Y-11189817D02*
X13236730Y-11180293D01*
X13236730Y-11180293D02*
X13227206Y-11161246D01*
X13227206Y-11161246D02*
X13227206Y-11151722D01*
X13227206Y-11151722D02*
X13236730Y-11132674D01*
X13236730Y-11132674D02*
X13255777Y-11123150D01*
X13255777Y-11123150D02*
X13284349Y-11123150D01*
X13284349Y-11123150D02*
X13303396Y-11132674D01*
X13379587Y-11332674D02*
X13389111Y-11323150D01*
X13389111Y-11323150D02*
X13408158Y-11294579D01*
X13408158Y-11294579D02*
X13417682Y-11275531D01*
X13417682Y-11275531D02*
X13427206Y-11246960D01*
X13427206Y-11246960D02*
X13436730Y-11199341D01*
X13436730Y-11199341D02*
X13436730Y-11161246D01*
X13436730Y-11161246D02*
X13427206Y-11113627D01*
X13427206Y-11113627D02*
X13417682Y-11085055D01*
X13417682Y-11085055D02*
X13408158Y-11066008D01*
X13408158Y-11066008D02*
X13389111Y-11037436D01*
X13389111Y-11037436D02*
X13379587Y-11027912D01*
D16*
X6685000Y-11374000D02*
X6795000Y-11484000D01*
X6795000Y-11374000D02*
X6685000Y-11484000D01*
X6740000Y-11374000D02*
X6740000Y-11484000D01*
X6685000Y-11429000D02*
X6795000Y-11429000D01*
D11*
X7160539Y-11520484D02*
X7046253Y-11520484D01*
X7103396Y-11520484D02*
X7103396Y-11320484D01*
X7103396Y-11320484D02*
X7084348Y-11349055D01*
X7084348Y-11349055D02*
X7065301Y-11368103D01*
X7065301Y-11368103D02*
X7046253Y-11377627D01*
X7246253Y-11501436D02*
X7255777Y-11510960D01*
X7255777Y-11510960D02*
X7246253Y-11520484D01*
X7246253Y-11520484D02*
X7236729Y-11510960D01*
X7236729Y-11510960D02*
X7246253Y-11501436D01*
X7246253Y-11501436D02*
X7246253Y-11520484D01*
X7446253Y-11520484D02*
X7331967Y-11520484D01*
X7389110Y-11520484D02*
X7389110Y-11320484D01*
X7389110Y-11320484D02*
X7370062Y-11349055D01*
X7370062Y-11349055D02*
X7351015Y-11368103D01*
X7351015Y-11368103D02*
X7331967Y-11377627D01*
X7570062Y-11320484D02*
X7589110Y-11320484D01*
X7589110Y-11320484D02*
X7608158Y-11330008D01*
X7608158Y-11330008D02*
X7617682Y-11339531D01*
X7617682Y-11339531D02*
X7627205Y-11358579D01*
X7627205Y-11358579D02*
X7636729Y-11396674D01*
X7636729Y-11396674D02*
X7636729Y-11444293D01*
X7636729Y-11444293D02*
X7627205Y-11482388D01*
X7627205Y-11482388D02*
X7617682Y-11501436D01*
X7617682Y-11501436D02*
X7608158Y-11510960D01*
X7608158Y-11510960D02*
X7589110Y-11520484D01*
X7589110Y-11520484D02*
X7570062Y-11520484D01*
X7570062Y-11520484D02*
X7551015Y-11510960D01*
X7551015Y-11510960D02*
X7541491Y-11501436D01*
X7541491Y-11501436D02*
X7531967Y-11482388D01*
X7531967Y-11482388D02*
X7522443Y-11444293D01*
X7522443Y-11444293D02*
X7522443Y-11396674D01*
X7522443Y-11396674D02*
X7531967Y-11358579D01*
X7531967Y-11358579D02*
X7541491Y-11339531D01*
X7541491Y-11339531D02*
X7551015Y-11330008D01*
X7551015Y-11330008D02*
X7570062Y-11320484D01*
X7760539Y-11320484D02*
X7779586Y-11320484D01*
X7779586Y-11320484D02*
X7798634Y-11330008D01*
X7798634Y-11330008D02*
X7808158Y-11339531D01*
X7808158Y-11339531D02*
X7817682Y-11358579D01*
X7817682Y-11358579D02*
X7827205Y-11396674D01*
X7827205Y-11396674D02*
X7827205Y-11444293D01*
X7827205Y-11444293D02*
X7817682Y-11482388D01*
X7817682Y-11482388D02*
X7808158Y-11501436D01*
X7808158Y-11501436D02*
X7798634Y-11510960D01*
X7798634Y-11510960D02*
X7779586Y-11520484D01*
X7779586Y-11520484D02*
X7760539Y-11520484D01*
X7760539Y-11520484D02*
X7741491Y-11510960D01*
X7741491Y-11510960D02*
X7731967Y-11501436D01*
X7731967Y-11501436D02*
X7722443Y-11482388D01*
X7722443Y-11482388D02*
X7712920Y-11444293D01*
X7712920Y-11444293D02*
X7712920Y-11396674D01*
X7712920Y-11396674D02*
X7722443Y-11358579D01*
X7722443Y-11358579D02*
X7731967Y-11339531D01*
X7731967Y-11339531D02*
X7741491Y-11330008D01*
X7741491Y-11330008D02*
X7760539Y-11320484D01*
X7912920Y-11520484D02*
X7912920Y-11387150D01*
X7912920Y-11406198D02*
X7922443Y-11396674D01*
X7922443Y-11396674D02*
X7941491Y-11387150D01*
X7941491Y-11387150D02*
X7970063Y-11387150D01*
X7970063Y-11387150D02*
X7989110Y-11396674D01*
X7989110Y-11396674D02*
X7998634Y-11415722D01*
X7998634Y-11415722D02*
X7998634Y-11520484D01*
X7998634Y-11415722D02*
X8008158Y-11396674D01*
X8008158Y-11396674D02*
X8027205Y-11387150D01*
X8027205Y-11387150D02*
X8055777Y-11387150D01*
X8055777Y-11387150D02*
X8074824Y-11396674D01*
X8074824Y-11396674D02*
X8084348Y-11415722D01*
X8084348Y-11415722D02*
X8084348Y-11520484D01*
X8179586Y-11520484D02*
X8179586Y-11387150D01*
X8179586Y-11406198D02*
X8189110Y-11396674D01*
X8189110Y-11396674D02*
X8208158Y-11387150D01*
X8208158Y-11387150D02*
X8236729Y-11387150D01*
X8236729Y-11387150D02*
X8255777Y-11396674D01*
X8255777Y-11396674D02*
X8265301Y-11415722D01*
X8265301Y-11415722D02*
X8265301Y-11520484D01*
X8265301Y-11415722D02*
X8274824Y-11396674D01*
X8274824Y-11396674D02*
X8293872Y-11387150D01*
X8293872Y-11387150D02*
X8322443Y-11387150D01*
X8322443Y-11387150D02*
X8341491Y-11396674D01*
X8341491Y-11396674D02*
X8351015Y-11415722D01*
X8351015Y-11415722D02*
X8351015Y-11520484D01*
X8741491Y-11310960D02*
X8570063Y-11568103D01*
X8998634Y-11320484D02*
X9017682Y-11320484D01*
X9017682Y-11320484D02*
X9036729Y-11330008D01*
X9036729Y-11330008D02*
X9046253Y-11339531D01*
X9046253Y-11339531D02*
X9055777Y-11358579D01*
X9055777Y-11358579D02*
X9065301Y-11396674D01*
X9065301Y-11396674D02*
X9065301Y-11444293D01*
X9065301Y-11444293D02*
X9055777Y-11482388D01*
X9055777Y-11482388D02*
X9046253Y-11501436D01*
X9046253Y-11501436D02*
X9036729Y-11510960D01*
X9036729Y-11510960D02*
X9017682Y-11520484D01*
X9017682Y-11520484D02*
X8998634Y-11520484D01*
X8998634Y-11520484D02*
X8979587Y-11510960D01*
X8979587Y-11510960D02*
X8970063Y-11501436D01*
X8970063Y-11501436D02*
X8960539Y-11482388D01*
X8960539Y-11482388D02*
X8951015Y-11444293D01*
X8951015Y-11444293D02*
X8951015Y-11396674D01*
X8951015Y-11396674D02*
X8960539Y-11358579D01*
X8960539Y-11358579D02*
X8970063Y-11339531D01*
X8970063Y-11339531D02*
X8979587Y-11330008D01*
X8979587Y-11330008D02*
X8998634Y-11320484D01*
X9151015Y-11501436D02*
X9160539Y-11510960D01*
X9160539Y-11510960D02*
X9151015Y-11520484D01*
X9151015Y-11520484D02*
X9141491Y-11510960D01*
X9141491Y-11510960D02*
X9151015Y-11501436D01*
X9151015Y-11501436D02*
X9151015Y-11520484D01*
X9284348Y-11320484D02*
X9303396Y-11320484D01*
X9303396Y-11320484D02*
X9322444Y-11330008D01*
X9322444Y-11330008D02*
X9331968Y-11339531D01*
X9331968Y-11339531D02*
X9341491Y-11358579D01*
X9341491Y-11358579D02*
X9351015Y-11396674D01*
X9351015Y-11396674D02*
X9351015Y-11444293D01*
X9351015Y-11444293D02*
X9341491Y-11482388D01*
X9341491Y-11482388D02*
X9331968Y-11501436D01*
X9331968Y-11501436D02*
X9322444Y-11510960D01*
X9322444Y-11510960D02*
X9303396Y-11520484D01*
X9303396Y-11520484D02*
X9284348Y-11520484D01*
X9284348Y-11520484D02*
X9265301Y-11510960D01*
X9265301Y-11510960D02*
X9255777Y-11501436D01*
X9255777Y-11501436D02*
X9246253Y-11482388D01*
X9246253Y-11482388D02*
X9236729Y-11444293D01*
X9236729Y-11444293D02*
X9236729Y-11396674D01*
X9236729Y-11396674D02*
X9246253Y-11358579D01*
X9246253Y-11358579D02*
X9255777Y-11339531D01*
X9255777Y-11339531D02*
X9265301Y-11330008D01*
X9265301Y-11330008D02*
X9284348Y-11320484D01*
X9522444Y-11387150D02*
X9522444Y-11520484D01*
X9474825Y-11310960D02*
X9427206Y-11453817D01*
X9427206Y-11453817D02*
X9551015Y-11453817D01*
X9608158Y-11320484D02*
X9731968Y-11320484D01*
X9731968Y-11320484D02*
X9665301Y-11396674D01*
X9665301Y-11396674D02*
X9693872Y-11396674D01*
X9693872Y-11396674D02*
X9712920Y-11406198D01*
X9712920Y-11406198D02*
X9722444Y-11415722D01*
X9722444Y-11415722D02*
X9731968Y-11434769D01*
X9731968Y-11434769D02*
X9731968Y-11482388D01*
X9731968Y-11482388D02*
X9722444Y-11501436D01*
X9722444Y-11501436D02*
X9712920Y-11510960D01*
X9712920Y-11510960D02*
X9693872Y-11520484D01*
X9693872Y-11520484D02*
X9636729Y-11520484D01*
X9636729Y-11520484D02*
X9617682Y-11510960D01*
X9617682Y-11510960D02*
X9608158Y-11501436D01*
X9798634Y-11320484D02*
X9922444Y-11320484D01*
X9922444Y-11320484D02*
X9855777Y-11396674D01*
X9855777Y-11396674D02*
X9884349Y-11396674D01*
X9884349Y-11396674D02*
X9903396Y-11406198D01*
X9903396Y-11406198D02*
X9912920Y-11415722D01*
X9912920Y-11415722D02*
X9922444Y-11434769D01*
X9922444Y-11434769D02*
X9922444Y-11482388D01*
X9922444Y-11482388D02*
X9912920Y-11501436D01*
X9912920Y-11501436D02*
X9903396Y-11510960D01*
X9903396Y-11510960D02*
X9884349Y-11520484D01*
X9884349Y-11520484D02*
X9827206Y-11520484D01*
X9827206Y-11520484D02*
X9808158Y-11510960D01*
X9808158Y-11510960D02*
X9798634Y-11501436D01*
X9998634Y-11320484D02*
X9998634Y-11358579D01*
X10074825Y-11320484D02*
X10074825Y-11358579D01*
X10370063Y-11596674D02*
X10360539Y-11587150D01*
X10360539Y-11587150D02*
X10341491Y-11558579D01*
X10341491Y-11558579D02*
X10331968Y-11539531D01*
X10331968Y-11539531D02*
X10322444Y-11510960D01*
X10322444Y-11510960D02*
X10312920Y-11463341D01*
X10312920Y-11463341D02*
X10312920Y-11425246D01*
X10312920Y-11425246D02*
X10322444Y-11377627D01*
X10322444Y-11377627D02*
X10331968Y-11349055D01*
X10331968Y-11349055D02*
X10341491Y-11330008D01*
X10341491Y-11330008D02*
X10360539Y-11301436D01*
X10360539Y-11301436D02*
X10370063Y-11291912D01*
X10531968Y-11387150D02*
X10531968Y-11520484D01*
X10484349Y-11310960D02*
X10436730Y-11453817D01*
X10436730Y-11453817D02*
X10560539Y-11453817D01*
X10789111Y-11520484D02*
X10789111Y-11320484D01*
X10874825Y-11520484D02*
X10874825Y-11415722D01*
X10874825Y-11415722D02*
X10865301Y-11396674D01*
X10865301Y-11396674D02*
X10846253Y-11387150D01*
X10846253Y-11387150D02*
X10817682Y-11387150D01*
X10817682Y-11387150D02*
X10798634Y-11396674D01*
X10798634Y-11396674D02*
X10789111Y-11406198D01*
X10998634Y-11520484D02*
X10979587Y-11510960D01*
X10979587Y-11510960D02*
X10970063Y-11501436D01*
X10970063Y-11501436D02*
X10960539Y-11482388D01*
X10960539Y-11482388D02*
X10960539Y-11425246D01*
X10960539Y-11425246D02*
X10970063Y-11406198D01*
X10970063Y-11406198D02*
X10979587Y-11396674D01*
X10979587Y-11396674D02*
X10998634Y-11387150D01*
X10998634Y-11387150D02*
X11027206Y-11387150D01*
X11027206Y-11387150D02*
X11046253Y-11396674D01*
X11046253Y-11396674D02*
X11055777Y-11406198D01*
X11055777Y-11406198D02*
X11065301Y-11425246D01*
X11065301Y-11425246D02*
X11065301Y-11482388D01*
X11065301Y-11482388D02*
X11055777Y-11501436D01*
X11055777Y-11501436D02*
X11046253Y-11510960D01*
X11046253Y-11510960D02*
X11027206Y-11520484D01*
X11027206Y-11520484D02*
X10998634Y-11520484D01*
X11179587Y-11520484D02*
X11160539Y-11510960D01*
X11160539Y-11510960D02*
X11151015Y-11491912D01*
X11151015Y-11491912D02*
X11151015Y-11320484D01*
X11331968Y-11510960D02*
X11312920Y-11520484D01*
X11312920Y-11520484D02*
X11274825Y-11520484D01*
X11274825Y-11520484D02*
X11255777Y-11510960D01*
X11255777Y-11510960D02*
X11246253Y-11491912D01*
X11246253Y-11491912D02*
X11246253Y-11415722D01*
X11246253Y-11415722D02*
X11255777Y-11396674D01*
X11255777Y-11396674D02*
X11274825Y-11387150D01*
X11274825Y-11387150D02*
X11312920Y-11387150D01*
X11312920Y-11387150D02*
X11331968Y-11396674D01*
X11331968Y-11396674D02*
X11341491Y-11415722D01*
X11341491Y-11415722D02*
X11341491Y-11434769D01*
X11341491Y-11434769D02*
X11246253Y-11453817D01*
X11417682Y-11510960D02*
X11436730Y-11520484D01*
X11436730Y-11520484D02*
X11474825Y-11520484D01*
X11474825Y-11520484D02*
X11493872Y-11510960D01*
X11493872Y-11510960D02*
X11503396Y-11491912D01*
X11503396Y-11491912D02*
X11503396Y-11482388D01*
X11503396Y-11482388D02*
X11493872Y-11463341D01*
X11493872Y-11463341D02*
X11474825Y-11453817D01*
X11474825Y-11453817D02*
X11446253Y-11453817D01*
X11446253Y-11453817D02*
X11427206Y-11444293D01*
X11427206Y-11444293D02*
X11417682Y-11425246D01*
X11417682Y-11425246D02*
X11417682Y-11415722D01*
X11417682Y-11415722D02*
X11427206Y-11396674D01*
X11427206Y-11396674D02*
X11446253Y-11387150D01*
X11446253Y-11387150D02*
X11474825Y-11387150D01*
X11474825Y-11387150D02*
X11493872Y-11396674D01*
X11570063Y-11596674D02*
X11579587Y-11587150D01*
X11579587Y-11587150D02*
X11598634Y-11558579D01*
X11598634Y-11558579D02*
X11608158Y-11539531D01*
X11608158Y-11539531D02*
X11617682Y-11510960D01*
X11617682Y-11510960D02*
X11627206Y-11463341D01*
X11627206Y-11463341D02*
X11627206Y-11425246D01*
X11627206Y-11425246D02*
X11617682Y-11377627D01*
X11617682Y-11377627D02*
X11608158Y-11349055D01*
X11608158Y-11349055D02*
X11598634Y-11330008D01*
X11598634Y-11330008D02*
X11579587Y-11301436D01*
X11579587Y-11301436D02*
X11570063Y-11291912D01*
D17*
X6665000Y-11628000D02*
X6795000Y-11758000D01*
X6795000Y-11628000D02*
X6665000Y-11758000D01*
X6775962Y-11738962D02*
X6775962Y-11647038D01*
X6684038Y-11647038D01*
X6684038Y-11738962D01*
X6775962Y-11738962D01*
D11*
X7160539Y-11784484D02*
X7046253Y-11784484D01*
X7103396Y-11784484D02*
X7103396Y-11584484D01*
X7103396Y-11584484D02*
X7084348Y-11613055D01*
X7084348Y-11613055D02*
X7065301Y-11632103D01*
X7065301Y-11632103D02*
X7046253Y-11641627D01*
X7246253Y-11765436D02*
X7255777Y-11774960D01*
X7255777Y-11774960D02*
X7246253Y-11784484D01*
X7246253Y-11784484D02*
X7236729Y-11774960D01*
X7236729Y-11774960D02*
X7246253Y-11765436D01*
X7246253Y-11765436D02*
X7246253Y-11784484D01*
X7322443Y-11584484D02*
X7446253Y-11584484D01*
X7446253Y-11584484D02*
X7379586Y-11660674D01*
X7379586Y-11660674D02*
X7408158Y-11660674D01*
X7408158Y-11660674D02*
X7427205Y-11670198D01*
X7427205Y-11670198D02*
X7436729Y-11679722D01*
X7436729Y-11679722D02*
X7446253Y-11698769D01*
X7446253Y-11698769D02*
X7446253Y-11746388D01*
X7446253Y-11746388D02*
X7436729Y-11765436D01*
X7436729Y-11765436D02*
X7427205Y-11774960D01*
X7427205Y-11774960D02*
X7408158Y-11784484D01*
X7408158Y-11784484D02*
X7351015Y-11784484D01*
X7351015Y-11784484D02*
X7331967Y-11774960D01*
X7331967Y-11774960D02*
X7322443Y-11765436D01*
X7570062Y-11584484D02*
X7589110Y-11584484D01*
X7589110Y-11584484D02*
X7608158Y-11594008D01*
X7608158Y-11594008D02*
X7617682Y-11603531D01*
X7617682Y-11603531D02*
X7627205Y-11622579D01*
X7627205Y-11622579D02*
X7636729Y-11660674D01*
X7636729Y-11660674D02*
X7636729Y-11708293D01*
X7636729Y-11708293D02*
X7627205Y-11746388D01*
X7627205Y-11746388D02*
X7617682Y-11765436D01*
X7617682Y-11765436D02*
X7608158Y-11774960D01*
X7608158Y-11774960D02*
X7589110Y-11784484D01*
X7589110Y-11784484D02*
X7570062Y-11784484D01*
X7570062Y-11784484D02*
X7551015Y-11774960D01*
X7551015Y-11774960D02*
X7541491Y-11765436D01*
X7541491Y-11765436D02*
X7531967Y-11746388D01*
X7531967Y-11746388D02*
X7522443Y-11708293D01*
X7522443Y-11708293D02*
X7522443Y-11660674D01*
X7522443Y-11660674D02*
X7531967Y-11622579D01*
X7531967Y-11622579D02*
X7541491Y-11603531D01*
X7541491Y-11603531D02*
X7551015Y-11594008D01*
X7551015Y-11594008D02*
X7570062Y-11584484D01*
X7760539Y-11584484D02*
X7779586Y-11584484D01*
X7779586Y-11584484D02*
X7798634Y-11594008D01*
X7798634Y-11594008D02*
X7808158Y-11603531D01*
X7808158Y-11603531D02*
X7817682Y-11622579D01*
X7817682Y-11622579D02*
X7827205Y-11660674D01*
X7827205Y-11660674D02*
X7827205Y-11708293D01*
X7827205Y-11708293D02*
X7817682Y-11746388D01*
X7817682Y-11746388D02*
X7808158Y-11765436D01*
X7808158Y-11765436D02*
X7798634Y-11774960D01*
X7798634Y-11774960D02*
X7779586Y-11784484D01*
X7779586Y-11784484D02*
X7760539Y-11784484D01*
X7760539Y-11784484D02*
X7741491Y-11774960D01*
X7741491Y-11774960D02*
X7731967Y-11765436D01*
X7731967Y-11765436D02*
X7722443Y-11746388D01*
X7722443Y-11746388D02*
X7712920Y-11708293D01*
X7712920Y-11708293D02*
X7712920Y-11660674D01*
X7712920Y-11660674D02*
X7722443Y-11622579D01*
X7722443Y-11622579D02*
X7731967Y-11603531D01*
X7731967Y-11603531D02*
X7741491Y-11594008D01*
X7741491Y-11594008D02*
X7760539Y-11584484D01*
X7912920Y-11784484D02*
X7912920Y-11651150D01*
X7912920Y-11670198D02*
X7922443Y-11660674D01*
X7922443Y-11660674D02*
X7941491Y-11651150D01*
X7941491Y-11651150D02*
X7970063Y-11651150D01*
X7970063Y-11651150D02*
X7989110Y-11660674D01*
X7989110Y-11660674D02*
X7998634Y-11679722D01*
X7998634Y-11679722D02*
X7998634Y-11784484D01*
X7998634Y-11679722D02*
X8008158Y-11660674D01*
X8008158Y-11660674D02*
X8027205Y-11651150D01*
X8027205Y-11651150D02*
X8055777Y-11651150D01*
X8055777Y-11651150D02*
X8074824Y-11660674D01*
X8074824Y-11660674D02*
X8084348Y-11679722D01*
X8084348Y-11679722D02*
X8084348Y-11784484D01*
X8179586Y-11784484D02*
X8179586Y-11651150D01*
X8179586Y-11670198D02*
X8189110Y-11660674D01*
X8189110Y-11660674D02*
X8208158Y-11651150D01*
X8208158Y-11651150D02*
X8236729Y-11651150D01*
X8236729Y-11651150D02*
X8255777Y-11660674D01*
X8255777Y-11660674D02*
X8265301Y-11679722D01*
X8265301Y-11679722D02*
X8265301Y-11784484D01*
X8265301Y-11679722D02*
X8274824Y-11660674D01*
X8274824Y-11660674D02*
X8293872Y-11651150D01*
X8293872Y-11651150D02*
X8322443Y-11651150D01*
X8322443Y-11651150D02*
X8341491Y-11660674D01*
X8341491Y-11660674D02*
X8351015Y-11679722D01*
X8351015Y-11679722D02*
X8351015Y-11784484D01*
X8741491Y-11574960D02*
X8570063Y-11832103D01*
X8998634Y-11584484D02*
X9017682Y-11584484D01*
X9017682Y-11584484D02*
X9036729Y-11594008D01*
X9036729Y-11594008D02*
X9046253Y-11603531D01*
X9046253Y-11603531D02*
X9055777Y-11622579D01*
X9055777Y-11622579D02*
X9065301Y-11660674D01*
X9065301Y-11660674D02*
X9065301Y-11708293D01*
X9065301Y-11708293D02*
X9055777Y-11746388D01*
X9055777Y-11746388D02*
X9046253Y-11765436D01*
X9046253Y-11765436D02*
X9036729Y-11774960D01*
X9036729Y-11774960D02*
X9017682Y-11784484D01*
X9017682Y-11784484D02*
X8998634Y-11784484D01*
X8998634Y-11784484D02*
X8979587Y-11774960D01*
X8979587Y-11774960D02*
X8970063Y-11765436D01*
X8970063Y-11765436D02*
X8960539Y-11746388D01*
X8960539Y-11746388D02*
X8951015Y-11708293D01*
X8951015Y-11708293D02*
X8951015Y-11660674D01*
X8951015Y-11660674D02*
X8960539Y-11622579D01*
X8960539Y-11622579D02*
X8970063Y-11603531D01*
X8970063Y-11603531D02*
X8979587Y-11594008D01*
X8979587Y-11594008D02*
X8998634Y-11584484D01*
X9151015Y-11765436D02*
X9160539Y-11774960D01*
X9160539Y-11774960D02*
X9151015Y-11784484D01*
X9151015Y-11784484D02*
X9141491Y-11774960D01*
X9141491Y-11774960D02*
X9151015Y-11765436D01*
X9151015Y-11765436D02*
X9151015Y-11784484D01*
X9284348Y-11584484D02*
X9303396Y-11584484D01*
X9303396Y-11584484D02*
X9322444Y-11594008D01*
X9322444Y-11594008D02*
X9331968Y-11603531D01*
X9331968Y-11603531D02*
X9341491Y-11622579D01*
X9341491Y-11622579D02*
X9351015Y-11660674D01*
X9351015Y-11660674D02*
X9351015Y-11708293D01*
X9351015Y-11708293D02*
X9341491Y-11746388D01*
X9341491Y-11746388D02*
X9331968Y-11765436D01*
X9331968Y-11765436D02*
X9322444Y-11774960D01*
X9322444Y-11774960D02*
X9303396Y-11784484D01*
X9303396Y-11784484D02*
X9284348Y-11784484D01*
X9284348Y-11784484D02*
X9265301Y-11774960D01*
X9265301Y-11774960D02*
X9255777Y-11765436D01*
X9255777Y-11765436D02*
X9246253Y-11746388D01*
X9246253Y-11746388D02*
X9236729Y-11708293D01*
X9236729Y-11708293D02*
X9236729Y-11660674D01*
X9236729Y-11660674D02*
X9246253Y-11622579D01*
X9246253Y-11622579D02*
X9255777Y-11603531D01*
X9255777Y-11603531D02*
X9265301Y-11594008D01*
X9265301Y-11594008D02*
X9284348Y-11584484D01*
X9531968Y-11584484D02*
X9436729Y-11584484D01*
X9436729Y-11584484D02*
X9427206Y-11679722D01*
X9427206Y-11679722D02*
X9436729Y-11670198D01*
X9436729Y-11670198D02*
X9455777Y-11660674D01*
X9455777Y-11660674D02*
X9503396Y-11660674D01*
X9503396Y-11660674D02*
X9522444Y-11670198D01*
X9522444Y-11670198D02*
X9531968Y-11679722D01*
X9531968Y-11679722D02*
X9541491Y-11698769D01*
X9541491Y-11698769D02*
X9541491Y-11746388D01*
X9541491Y-11746388D02*
X9531968Y-11765436D01*
X9531968Y-11765436D02*
X9522444Y-11774960D01*
X9522444Y-11774960D02*
X9503396Y-11784484D01*
X9503396Y-11784484D02*
X9455777Y-11784484D01*
X9455777Y-11784484D02*
X9436729Y-11774960D01*
X9436729Y-11774960D02*
X9427206Y-11765436D01*
X9731968Y-11784484D02*
X9617682Y-11784484D01*
X9674825Y-11784484D02*
X9674825Y-11584484D01*
X9674825Y-11584484D02*
X9655777Y-11613055D01*
X9655777Y-11613055D02*
X9636729Y-11632103D01*
X9636729Y-11632103D02*
X9617682Y-11641627D01*
X9808158Y-11603531D02*
X9817682Y-11594008D01*
X9817682Y-11594008D02*
X9836729Y-11584484D01*
X9836729Y-11584484D02*
X9884349Y-11584484D01*
X9884349Y-11584484D02*
X9903396Y-11594008D01*
X9903396Y-11594008D02*
X9912920Y-11603531D01*
X9912920Y-11603531D02*
X9922444Y-11622579D01*
X9922444Y-11622579D02*
X9922444Y-11641627D01*
X9922444Y-11641627D02*
X9912920Y-11670198D01*
X9912920Y-11670198D02*
X9798634Y-11784484D01*
X9798634Y-11784484D02*
X9922444Y-11784484D01*
X9998634Y-11584484D02*
X9998634Y-11622579D01*
X10074825Y-11584484D02*
X10074825Y-11622579D01*
X10370063Y-11860674D02*
X10360539Y-11851150D01*
X10360539Y-11851150D02*
X10341491Y-11822579D01*
X10341491Y-11822579D02*
X10331968Y-11803531D01*
X10331968Y-11803531D02*
X10322444Y-11774960D01*
X10322444Y-11774960D02*
X10312920Y-11727341D01*
X10312920Y-11727341D02*
X10312920Y-11689246D01*
X10312920Y-11689246D02*
X10322444Y-11641627D01*
X10322444Y-11641627D02*
X10331968Y-11613055D01*
X10331968Y-11613055D02*
X10341491Y-11594008D01*
X10341491Y-11594008D02*
X10360539Y-11565436D01*
X10360539Y-11565436D02*
X10370063Y-11555912D01*
X10531968Y-11651150D02*
X10531968Y-11784484D01*
X10484349Y-11574960D02*
X10436730Y-11717817D01*
X10436730Y-11717817D02*
X10560539Y-11717817D01*
X10789111Y-11784484D02*
X10789111Y-11584484D01*
X10874825Y-11784484D02*
X10874825Y-11679722D01*
X10874825Y-11679722D02*
X10865301Y-11660674D01*
X10865301Y-11660674D02*
X10846253Y-11651150D01*
X10846253Y-11651150D02*
X10817682Y-11651150D01*
X10817682Y-11651150D02*
X10798634Y-11660674D01*
X10798634Y-11660674D02*
X10789111Y-11670198D01*
X10998634Y-11784484D02*
X10979587Y-11774960D01*
X10979587Y-11774960D02*
X10970063Y-11765436D01*
X10970063Y-11765436D02*
X10960539Y-11746388D01*
X10960539Y-11746388D02*
X10960539Y-11689246D01*
X10960539Y-11689246D02*
X10970063Y-11670198D01*
X10970063Y-11670198D02*
X10979587Y-11660674D01*
X10979587Y-11660674D02*
X10998634Y-11651150D01*
X10998634Y-11651150D02*
X11027206Y-11651150D01*
X11027206Y-11651150D02*
X11046253Y-11660674D01*
X11046253Y-11660674D02*
X11055777Y-11670198D01*
X11055777Y-11670198D02*
X11065301Y-11689246D01*
X11065301Y-11689246D02*
X11065301Y-11746388D01*
X11065301Y-11746388D02*
X11055777Y-11765436D01*
X11055777Y-11765436D02*
X11046253Y-11774960D01*
X11046253Y-11774960D02*
X11027206Y-11784484D01*
X11027206Y-11784484D02*
X10998634Y-11784484D01*
X11179587Y-11784484D02*
X11160539Y-11774960D01*
X11160539Y-11774960D02*
X11151015Y-11755912D01*
X11151015Y-11755912D02*
X11151015Y-11584484D01*
X11331968Y-11774960D02*
X11312920Y-11784484D01*
X11312920Y-11784484D02*
X11274825Y-11784484D01*
X11274825Y-11784484D02*
X11255777Y-11774960D01*
X11255777Y-11774960D02*
X11246253Y-11755912D01*
X11246253Y-11755912D02*
X11246253Y-11679722D01*
X11246253Y-11679722D02*
X11255777Y-11660674D01*
X11255777Y-11660674D02*
X11274825Y-11651150D01*
X11274825Y-11651150D02*
X11312920Y-11651150D01*
X11312920Y-11651150D02*
X11331968Y-11660674D01*
X11331968Y-11660674D02*
X11341491Y-11679722D01*
X11341491Y-11679722D02*
X11341491Y-11698769D01*
X11341491Y-11698769D02*
X11246253Y-11717817D01*
X11417682Y-11774960D02*
X11436730Y-11784484D01*
X11436730Y-11784484D02*
X11474825Y-11784484D01*
X11474825Y-11784484D02*
X11493872Y-11774960D01*
X11493872Y-11774960D02*
X11503396Y-11755912D01*
X11503396Y-11755912D02*
X11503396Y-11746388D01*
X11503396Y-11746388D02*
X11493872Y-11727341D01*
X11493872Y-11727341D02*
X11474825Y-11717817D01*
X11474825Y-11717817D02*
X11446253Y-11717817D01*
X11446253Y-11717817D02*
X11427206Y-11708293D01*
X11427206Y-11708293D02*
X11417682Y-11689246D01*
X11417682Y-11689246D02*
X11417682Y-11679722D01*
X11417682Y-11679722D02*
X11427206Y-11660674D01*
X11427206Y-11660674D02*
X11446253Y-11651150D01*
X11446253Y-11651150D02*
X11474825Y-11651150D01*
X11474825Y-11651150D02*
X11493872Y-11660674D01*
X11570063Y-11860674D02*
X11579587Y-11851150D01*
X11579587Y-11851150D02*
X11598634Y-11822579D01*
X11598634Y-11822579D02*
X11608158Y-11803531D01*
X11608158Y-11803531D02*
X11617682Y-11774960D01*
X11617682Y-11774960D02*
X11627206Y-11727341D01*
X11627206Y-11727341D02*
X11627206Y-11689246D01*
X11627206Y-11689246D02*
X11617682Y-11641627D01*
X11617682Y-11641627D02*
X11608158Y-11613055D01*
X11608158Y-11613055D02*
X11598634Y-11594008D01*
X11598634Y-11594008D02*
X11579587Y-11565436D01*
X11579587Y-11565436D02*
X11570063Y-11555912D01*
X6595000Y-11857000D02*
X6795000Y-12057000D01*
X6795000Y-11857000D02*
X6595000Y-12057000D01*
X6695000Y-12057000D02*
X6795000Y-11957000D01*
X6695000Y-11857000D01*
X6595000Y-11957000D01*
X6695000Y-12057000D01*
X7036729Y-11848484D02*
X7160539Y-11848484D01*
X7160539Y-11848484D02*
X7093872Y-11924674D01*
X7093872Y-11924674D02*
X7122443Y-11924674D01*
X7122443Y-11924674D02*
X7141491Y-11934198D01*
X7141491Y-11934198D02*
X7151015Y-11943722D01*
X7151015Y-11943722D02*
X7160539Y-11962769D01*
X7160539Y-11962769D02*
X7160539Y-12010388D01*
X7160539Y-12010388D02*
X7151015Y-12029436D01*
X7151015Y-12029436D02*
X7141491Y-12038960D01*
X7141491Y-12038960D02*
X7122443Y-12048484D01*
X7122443Y-12048484D02*
X7065301Y-12048484D01*
X7065301Y-12048484D02*
X7046253Y-12038960D01*
X7046253Y-12038960D02*
X7036729Y-12029436D01*
X7246253Y-12029436D02*
X7255777Y-12038960D01*
X7255777Y-12038960D02*
X7246253Y-12048484D01*
X7246253Y-12048484D02*
X7236729Y-12038960D01*
X7236729Y-12038960D02*
X7246253Y-12029436D01*
X7246253Y-12029436D02*
X7246253Y-12048484D01*
X7331967Y-11867531D02*
X7341491Y-11858008D01*
X7341491Y-11858008D02*
X7360539Y-11848484D01*
X7360539Y-11848484D02*
X7408158Y-11848484D01*
X7408158Y-11848484D02*
X7427205Y-11858008D01*
X7427205Y-11858008D02*
X7436729Y-11867531D01*
X7436729Y-11867531D02*
X7446253Y-11886579D01*
X7446253Y-11886579D02*
X7446253Y-11905627D01*
X7446253Y-11905627D02*
X7436729Y-11934198D01*
X7436729Y-11934198D02*
X7322443Y-12048484D01*
X7322443Y-12048484D02*
X7446253Y-12048484D01*
X7570062Y-11848484D02*
X7589110Y-11848484D01*
X7589110Y-11848484D02*
X7608158Y-11858008D01*
X7608158Y-11858008D02*
X7617682Y-11867531D01*
X7617682Y-11867531D02*
X7627205Y-11886579D01*
X7627205Y-11886579D02*
X7636729Y-11924674D01*
X7636729Y-11924674D02*
X7636729Y-11972293D01*
X7636729Y-11972293D02*
X7627205Y-12010388D01*
X7627205Y-12010388D02*
X7617682Y-12029436D01*
X7617682Y-12029436D02*
X7608158Y-12038960D01*
X7608158Y-12038960D02*
X7589110Y-12048484D01*
X7589110Y-12048484D02*
X7570062Y-12048484D01*
X7570062Y-12048484D02*
X7551015Y-12038960D01*
X7551015Y-12038960D02*
X7541491Y-12029436D01*
X7541491Y-12029436D02*
X7531967Y-12010388D01*
X7531967Y-12010388D02*
X7522443Y-11972293D01*
X7522443Y-11972293D02*
X7522443Y-11924674D01*
X7522443Y-11924674D02*
X7531967Y-11886579D01*
X7531967Y-11886579D02*
X7541491Y-11867531D01*
X7541491Y-11867531D02*
X7551015Y-11858008D01*
X7551015Y-11858008D02*
X7570062Y-11848484D01*
X7760539Y-11848484D02*
X7779586Y-11848484D01*
X7779586Y-11848484D02*
X7798634Y-11858008D01*
X7798634Y-11858008D02*
X7808158Y-11867531D01*
X7808158Y-11867531D02*
X7817682Y-11886579D01*
X7817682Y-11886579D02*
X7827205Y-11924674D01*
X7827205Y-11924674D02*
X7827205Y-11972293D01*
X7827205Y-11972293D02*
X7817682Y-12010388D01*
X7817682Y-12010388D02*
X7808158Y-12029436D01*
X7808158Y-12029436D02*
X7798634Y-12038960D01*
X7798634Y-12038960D02*
X7779586Y-12048484D01*
X7779586Y-12048484D02*
X7760539Y-12048484D01*
X7760539Y-12048484D02*
X7741491Y-12038960D01*
X7741491Y-12038960D02*
X7731967Y-12029436D01*
X7731967Y-12029436D02*
X7722443Y-12010388D01*
X7722443Y-12010388D02*
X7712920Y-11972293D01*
X7712920Y-11972293D02*
X7712920Y-11924674D01*
X7712920Y-11924674D02*
X7722443Y-11886579D01*
X7722443Y-11886579D02*
X7731967Y-11867531D01*
X7731967Y-11867531D02*
X7741491Y-11858008D01*
X7741491Y-11858008D02*
X7760539Y-11848484D01*
X7912920Y-12048484D02*
X7912920Y-11915150D01*
X7912920Y-11934198D02*
X7922443Y-11924674D01*
X7922443Y-11924674D02*
X7941491Y-11915150D01*
X7941491Y-11915150D02*
X7970063Y-11915150D01*
X7970063Y-11915150D02*
X7989110Y-11924674D01*
X7989110Y-11924674D02*
X7998634Y-11943722D01*
X7998634Y-11943722D02*
X7998634Y-12048484D01*
X7998634Y-11943722D02*
X8008158Y-11924674D01*
X8008158Y-11924674D02*
X8027205Y-11915150D01*
X8027205Y-11915150D02*
X8055777Y-11915150D01*
X8055777Y-11915150D02*
X8074824Y-11924674D01*
X8074824Y-11924674D02*
X8084348Y-11943722D01*
X8084348Y-11943722D02*
X8084348Y-12048484D01*
X8179586Y-12048484D02*
X8179586Y-11915150D01*
X8179586Y-11934198D02*
X8189110Y-11924674D01*
X8189110Y-11924674D02*
X8208158Y-11915150D01*
X8208158Y-11915150D02*
X8236729Y-11915150D01*
X8236729Y-11915150D02*
X8255777Y-11924674D01*
X8255777Y-11924674D02*
X8265301Y-11943722D01*
X8265301Y-11943722D02*
X8265301Y-12048484D01*
X8265301Y-11943722D02*
X8274824Y-11924674D01*
X8274824Y-11924674D02*
X8293872Y-11915150D01*
X8293872Y-11915150D02*
X8322443Y-11915150D01*
X8322443Y-11915150D02*
X8341491Y-11924674D01*
X8341491Y-11924674D02*
X8351015Y-11943722D01*
X8351015Y-11943722D02*
X8351015Y-12048484D01*
X8741491Y-11838960D02*
X8570063Y-12096103D01*
X8998634Y-11848484D02*
X9017682Y-11848484D01*
X9017682Y-11848484D02*
X9036729Y-11858008D01*
X9036729Y-11858008D02*
X9046253Y-11867531D01*
X9046253Y-11867531D02*
X9055777Y-11886579D01*
X9055777Y-11886579D02*
X9065301Y-11924674D01*
X9065301Y-11924674D02*
X9065301Y-11972293D01*
X9065301Y-11972293D02*
X9055777Y-12010388D01*
X9055777Y-12010388D02*
X9046253Y-12029436D01*
X9046253Y-12029436D02*
X9036729Y-12038960D01*
X9036729Y-12038960D02*
X9017682Y-12048484D01*
X9017682Y-12048484D02*
X8998634Y-12048484D01*
X8998634Y-12048484D02*
X8979587Y-12038960D01*
X8979587Y-12038960D02*
X8970063Y-12029436D01*
X8970063Y-12029436D02*
X8960539Y-12010388D01*
X8960539Y-12010388D02*
X8951015Y-11972293D01*
X8951015Y-11972293D02*
X8951015Y-11924674D01*
X8951015Y-11924674D02*
X8960539Y-11886579D01*
X8960539Y-11886579D02*
X8970063Y-11867531D01*
X8970063Y-11867531D02*
X8979587Y-11858008D01*
X8979587Y-11858008D02*
X8998634Y-11848484D01*
X9151015Y-12029436D02*
X9160539Y-12038960D01*
X9160539Y-12038960D02*
X9151015Y-12048484D01*
X9151015Y-12048484D02*
X9141491Y-12038960D01*
X9141491Y-12038960D02*
X9151015Y-12029436D01*
X9151015Y-12029436D02*
X9151015Y-12048484D01*
X9351015Y-12048484D02*
X9236729Y-12048484D01*
X9293872Y-12048484D02*
X9293872Y-11848484D01*
X9293872Y-11848484D02*
X9274825Y-11877055D01*
X9274825Y-11877055D02*
X9255777Y-11896103D01*
X9255777Y-11896103D02*
X9236729Y-11905627D01*
X9427206Y-11867531D02*
X9436729Y-11858008D01*
X9436729Y-11858008D02*
X9455777Y-11848484D01*
X9455777Y-11848484D02*
X9503396Y-11848484D01*
X9503396Y-11848484D02*
X9522444Y-11858008D01*
X9522444Y-11858008D02*
X9531968Y-11867531D01*
X9531968Y-11867531D02*
X9541491Y-11886579D01*
X9541491Y-11886579D02*
X9541491Y-11905627D01*
X9541491Y-11905627D02*
X9531968Y-11934198D01*
X9531968Y-11934198D02*
X9417682Y-12048484D01*
X9417682Y-12048484D02*
X9541491Y-12048484D01*
X9712920Y-11848484D02*
X9674825Y-11848484D01*
X9674825Y-11848484D02*
X9655777Y-11858008D01*
X9655777Y-11858008D02*
X9646253Y-11867531D01*
X9646253Y-11867531D02*
X9627206Y-11896103D01*
X9627206Y-11896103D02*
X9617682Y-11934198D01*
X9617682Y-11934198D02*
X9617682Y-12010388D01*
X9617682Y-12010388D02*
X9627206Y-12029436D01*
X9627206Y-12029436D02*
X9636729Y-12038960D01*
X9636729Y-12038960D02*
X9655777Y-12048484D01*
X9655777Y-12048484D02*
X9693872Y-12048484D01*
X9693872Y-12048484D02*
X9712920Y-12038960D01*
X9712920Y-12038960D02*
X9722444Y-12029436D01*
X9722444Y-12029436D02*
X9731968Y-12010388D01*
X9731968Y-12010388D02*
X9731968Y-11962769D01*
X9731968Y-11962769D02*
X9722444Y-11943722D01*
X9722444Y-11943722D02*
X9712920Y-11934198D01*
X9712920Y-11934198D02*
X9693872Y-11924674D01*
X9693872Y-11924674D02*
X9655777Y-11924674D01*
X9655777Y-11924674D02*
X9636729Y-11934198D01*
X9636729Y-11934198D02*
X9627206Y-11943722D01*
X9627206Y-11943722D02*
X9617682Y-11962769D01*
X9855777Y-11848484D02*
X9874825Y-11848484D01*
X9874825Y-11848484D02*
X9893872Y-11858008D01*
X9893872Y-11858008D02*
X9903396Y-11867531D01*
X9903396Y-11867531D02*
X9912920Y-11886579D01*
X9912920Y-11886579D02*
X9922444Y-11924674D01*
X9922444Y-11924674D02*
X9922444Y-11972293D01*
X9922444Y-11972293D02*
X9912920Y-12010388D01*
X9912920Y-12010388D02*
X9903396Y-12029436D01*
X9903396Y-12029436D02*
X9893872Y-12038960D01*
X9893872Y-12038960D02*
X9874825Y-12048484D01*
X9874825Y-12048484D02*
X9855777Y-12048484D01*
X9855777Y-12048484D02*
X9836729Y-12038960D01*
X9836729Y-12038960D02*
X9827206Y-12029436D01*
X9827206Y-12029436D02*
X9817682Y-12010388D01*
X9817682Y-12010388D02*
X9808158Y-11972293D01*
X9808158Y-11972293D02*
X9808158Y-11924674D01*
X9808158Y-11924674D02*
X9817682Y-11886579D01*
X9817682Y-11886579D02*
X9827206Y-11867531D01*
X9827206Y-11867531D02*
X9836729Y-11858008D01*
X9836729Y-11858008D02*
X9855777Y-11848484D01*
X9998634Y-11848484D02*
X9998634Y-11886579D01*
X10074825Y-11848484D02*
X10074825Y-11886579D01*
X10370063Y-12124674D02*
X10360539Y-12115150D01*
X10360539Y-12115150D02*
X10341491Y-12086579D01*
X10341491Y-12086579D02*
X10331968Y-12067531D01*
X10331968Y-12067531D02*
X10322444Y-12038960D01*
X10322444Y-12038960D02*
X10312920Y-11991341D01*
X10312920Y-11991341D02*
X10312920Y-11953246D01*
X10312920Y-11953246D02*
X10322444Y-11905627D01*
X10322444Y-11905627D02*
X10331968Y-11877055D01*
X10331968Y-11877055D02*
X10341491Y-11858008D01*
X10341491Y-11858008D02*
X10360539Y-11829436D01*
X10360539Y-11829436D02*
X10370063Y-11819912D01*
X10531968Y-11915150D02*
X10531968Y-12048484D01*
X10484349Y-11838960D02*
X10436730Y-11981817D01*
X10436730Y-11981817D02*
X10560539Y-11981817D01*
X10789111Y-12048484D02*
X10789111Y-11848484D01*
X10874825Y-12048484D02*
X10874825Y-11943722D01*
X10874825Y-11943722D02*
X10865301Y-11924674D01*
X10865301Y-11924674D02*
X10846253Y-11915150D01*
X10846253Y-11915150D02*
X10817682Y-11915150D01*
X10817682Y-11915150D02*
X10798634Y-11924674D01*
X10798634Y-11924674D02*
X10789111Y-11934198D01*
X10998634Y-12048484D02*
X10979587Y-12038960D01*
X10979587Y-12038960D02*
X10970063Y-12029436D01*
X10970063Y-12029436D02*
X10960539Y-12010388D01*
X10960539Y-12010388D02*
X10960539Y-11953246D01*
X10960539Y-11953246D02*
X10970063Y-11934198D01*
X10970063Y-11934198D02*
X10979587Y-11924674D01*
X10979587Y-11924674D02*
X10998634Y-11915150D01*
X10998634Y-11915150D02*
X11027206Y-11915150D01*
X11027206Y-11915150D02*
X11046253Y-11924674D01*
X11046253Y-11924674D02*
X11055777Y-11934198D01*
X11055777Y-11934198D02*
X11065301Y-11953246D01*
X11065301Y-11953246D02*
X11065301Y-12010388D01*
X11065301Y-12010388D02*
X11055777Y-12029436D01*
X11055777Y-12029436D02*
X11046253Y-12038960D01*
X11046253Y-12038960D02*
X11027206Y-12048484D01*
X11027206Y-12048484D02*
X10998634Y-12048484D01*
X11179587Y-12048484D02*
X11160539Y-12038960D01*
X11160539Y-12038960D02*
X11151015Y-12019912D01*
X11151015Y-12019912D02*
X11151015Y-11848484D01*
X11331968Y-12038960D02*
X11312920Y-12048484D01*
X11312920Y-12048484D02*
X11274825Y-12048484D01*
X11274825Y-12048484D02*
X11255777Y-12038960D01*
X11255777Y-12038960D02*
X11246253Y-12019912D01*
X11246253Y-12019912D02*
X11246253Y-11943722D01*
X11246253Y-11943722D02*
X11255777Y-11924674D01*
X11255777Y-11924674D02*
X11274825Y-11915150D01*
X11274825Y-11915150D02*
X11312920Y-11915150D01*
X11312920Y-11915150D02*
X11331968Y-11924674D01*
X11331968Y-11924674D02*
X11341491Y-11943722D01*
X11341491Y-11943722D02*
X11341491Y-11962769D01*
X11341491Y-11962769D02*
X11246253Y-11981817D01*
X11417682Y-12038960D02*
X11436730Y-12048484D01*
X11436730Y-12048484D02*
X11474825Y-12048484D01*
X11474825Y-12048484D02*
X11493872Y-12038960D01*
X11493872Y-12038960D02*
X11503396Y-12019912D01*
X11503396Y-12019912D02*
X11503396Y-12010388D01*
X11503396Y-12010388D02*
X11493872Y-11991341D01*
X11493872Y-11991341D02*
X11474825Y-11981817D01*
X11474825Y-11981817D02*
X11446253Y-11981817D01*
X11446253Y-11981817D02*
X11427206Y-11972293D01*
X11427206Y-11972293D02*
X11417682Y-11953246D01*
X11417682Y-11953246D02*
X11417682Y-11943722D01*
X11417682Y-11943722D02*
X11427206Y-11924674D01*
X11427206Y-11924674D02*
X11446253Y-11915150D01*
X11446253Y-11915150D02*
X11474825Y-11915150D01*
X11474825Y-11915150D02*
X11493872Y-11924674D01*
X11570063Y-12124674D02*
X11579587Y-12115150D01*
X11579587Y-12115150D02*
X11598634Y-12086579D01*
X11598634Y-12086579D02*
X11608158Y-12067531D01*
X11608158Y-12067531D02*
X11617682Y-12038960D01*
X11617682Y-12038960D02*
X11627206Y-11991341D01*
X11627206Y-11991341D02*
X11627206Y-11953246D01*
X11627206Y-11953246D02*
X11617682Y-11905627D01*
X11617682Y-11905627D02*
X11608158Y-11877055D01*
X11608158Y-11877055D02*
X11598634Y-11858008D01*
X11598634Y-11858008D02*
X11579587Y-11829436D01*
X11579587Y-11829436D02*
X11570063Y-11819912D01*
M02*
