%TF.GenerationSoftware,KiCad,Pcbnew,7.0.8*%
%TF.CreationDate,2023-12-30T22:16:51-05:00*%
%TF.ProjectId,Pump_Control_Board,50756d70-5f43-46f6-9e74-726f6c5f426f,rev?*%
%TF.SameCoordinates,Original*%
%TF.FileFunction,Drillmap*%
%TF.FilePolarity,Positive*%
%FSLAX45Y45*%
G04 Gerber Fmt 4.5, Leading zero omitted, Abs format (unit mm)*
G04 Created by KiCad (PCBNEW 7.0.8) date 2023-12-30 22:16:51*
%MOMM*%
%LPD*%
G01*
G04 APERTURE LIST*
%ADD10C,0.100000*%
%ADD11C,0.200000*%
%ADD12C,0.220000*%
G04 APERTURE END LIST*
D10*
X6800000Y-8800000D02*
G75*
G03*
X7200000Y-9200000I400000J0D01*
G01*
X13200000Y-4000000D02*
G75*
G03*
X12800000Y-3600000I-400000J0D01*
G01*
X13200000Y-4000000D02*
X13200000Y-8800000D01*
X6800000Y-8800000D02*
X6800000Y-4000000D01*
X7200000Y-3600000D02*
G75*
G03*
X6800000Y-4000000I0J-400000D01*
G01*
X12800000Y-9200000D02*
X7200000Y-9200000D01*
X7200000Y-3600000D02*
X12800000Y-3600000D01*
X12800000Y-9200000D02*
G75*
G03*
X13200000Y-8800000I0J400000D01*
G01*
D11*
D12*
X11560000Y-4025000D02*
X11780000Y-4245000D01*
X11780000Y-4025000D02*
X11560000Y-4245000D01*
X11560000Y-4905000D02*
X11780000Y-5125000D01*
X11780000Y-4905000D02*
X11560000Y-5125000D01*
D11*
X7055777Y-9516484D02*
X7055777Y-9316484D01*
X7055777Y-9316484D02*
X7103396Y-9316484D01*
X7103396Y-9316484D02*
X7131967Y-9326008D01*
X7131967Y-9326008D02*
X7151015Y-9345055D01*
X7151015Y-9345055D02*
X7160539Y-9364103D01*
X7160539Y-9364103D02*
X7170062Y-9402198D01*
X7170062Y-9402198D02*
X7170062Y-9430770D01*
X7170062Y-9430770D02*
X7160539Y-9468865D01*
X7160539Y-9468865D02*
X7151015Y-9487912D01*
X7151015Y-9487912D02*
X7131967Y-9506960D01*
X7131967Y-9506960D02*
X7103396Y-9516484D01*
X7103396Y-9516484D02*
X7055777Y-9516484D01*
X7255777Y-9516484D02*
X7255777Y-9383150D01*
X7255777Y-9421246D02*
X7265301Y-9402198D01*
X7265301Y-9402198D02*
X7274824Y-9392674D01*
X7274824Y-9392674D02*
X7293872Y-9383150D01*
X7293872Y-9383150D02*
X7312920Y-9383150D01*
X7379586Y-9516484D02*
X7379586Y-9383150D01*
X7379586Y-9316484D02*
X7370062Y-9326008D01*
X7370062Y-9326008D02*
X7379586Y-9335531D01*
X7379586Y-9335531D02*
X7389110Y-9326008D01*
X7389110Y-9326008D02*
X7379586Y-9316484D01*
X7379586Y-9316484D02*
X7379586Y-9335531D01*
X7503396Y-9516484D02*
X7484348Y-9506960D01*
X7484348Y-9506960D02*
X7474824Y-9487912D01*
X7474824Y-9487912D02*
X7474824Y-9316484D01*
X7608158Y-9516484D02*
X7589110Y-9506960D01*
X7589110Y-9506960D02*
X7579586Y-9487912D01*
X7579586Y-9487912D02*
X7579586Y-9316484D01*
X7836729Y-9516484D02*
X7836729Y-9316484D01*
X7836729Y-9316484D02*
X7903396Y-9459341D01*
X7903396Y-9459341D02*
X7970062Y-9316484D01*
X7970062Y-9316484D02*
X7970062Y-9516484D01*
X8151015Y-9516484D02*
X8151015Y-9411722D01*
X8151015Y-9411722D02*
X8141491Y-9392674D01*
X8141491Y-9392674D02*
X8122443Y-9383150D01*
X8122443Y-9383150D02*
X8084348Y-9383150D01*
X8084348Y-9383150D02*
X8065301Y-9392674D01*
X8151015Y-9506960D02*
X8131967Y-9516484D01*
X8131967Y-9516484D02*
X8084348Y-9516484D01*
X8084348Y-9516484D02*
X8065301Y-9506960D01*
X8065301Y-9506960D02*
X8055777Y-9487912D01*
X8055777Y-9487912D02*
X8055777Y-9468865D01*
X8055777Y-9468865D02*
X8065301Y-9449817D01*
X8065301Y-9449817D02*
X8084348Y-9440293D01*
X8084348Y-9440293D02*
X8131967Y-9440293D01*
X8131967Y-9440293D02*
X8151015Y-9430770D01*
X8246253Y-9383150D02*
X8246253Y-9583150D01*
X8246253Y-9392674D02*
X8265301Y-9383150D01*
X8265301Y-9383150D02*
X8303396Y-9383150D01*
X8303396Y-9383150D02*
X8322443Y-9392674D01*
X8322443Y-9392674D02*
X8331967Y-9402198D01*
X8331967Y-9402198D02*
X8341491Y-9421246D01*
X8341491Y-9421246D02*
X8341491Y-9478389D01*
X8341491Y-9478389D02*
X8331967Y-9497436D01*
X8331967Y-9497436D02*
X8322443Y-9506960D01*
X8322443Y-9506960D02*
X8303396Y-9516484D01*
X8303396Y-9516484D02*
X8265301Y-9516484D01*
X8265301Y-9516484D02*
X8246253Y-9506960D01*
X8427205Y-9497436D02*
X8436729Y-9506960D01*
X8436729Y-9506960D02*
X8427205Y-9516484D01*
X8427205Y-9516484D02*
X8417682Y-9506960D01*
X8417682Y-9506960D02*
X8427205Y-9497436D01*
X8427205Y-9497436D02*
X8427205Y-9516484D01*
X8427205Y-9392674D02*
X8436729Y-9402198D01*
X8436729Y-9402198D02*
X8427205Y-9411722D01*
X8427205Y-9411722D02*
X8417682Y-9402198D01*
X8417682Y-9402198D02*
X8427205Y-9392674D01*
X8427205Y-9392674D02*
X8427205Y-9411722D01*
X6595000Y-9745000D02*
X6795000Y-9945000D01*
X6795000Y-9745000D02*
X6595000Y-9945000D01*
X7046253Y-9755531D02*
X7055777Y-9746008D01*
X7055777Y-9746008D02*
X7074824Y-9736484D01*
X7074824Y-9736484D02*
X7122443Y-9736484D01*
X7122443Y-9736484D02*
X7141491Y-9746008D01*
X7141491Y-9746008D02*
X7151015Y-9755531D01*
X7151015Y-9755531D02*
X7160539Y-9774579D01*
X7160539Y-9774579D02*
X7160539Y-9793627D01*
X7160539Y-9793627D02*
X7151015Y-9822198D01*
X7151015Y-9822198D02*
X7036729Y-9936484D01*
X7036729Y-9936484D02*
X7160539Y-9936484D01*
X7246253Y-9917436D02*
X7255777Y-9926960D01*
X7255777Y-9926960D02*
X7246253Y-9936484D01*
X7246253Y-9936484D02*
X7236729Y-9926960D01*
X7236729Y-9926960D02*
X7246253Y-9917436D01*
X7246253Y-9917436D02*
X7246253Y-9936484D01*
X7331967Y-9755531D02*
X7341491Y-9746008D01*
X7341491Y-9746008D02*
X7360539Y-9736484D01*
X7360539Y-9736484D02*
X7408158Y-9736484D01*
X7408158Y-9736484D02*
X7427205Y-9746008D01*
X7427205Y-9746008D02*
X7436729Y-9755531D01*
X7436729Y-9755531D02*
X7446253Y-9774579D01*
X7446253Y-9774579D02*
X7446253Y-9793627D01*
X7446253Y-9793627D02*
X7436729Y-9822198D01*
X7436729Y-9822198D02*
X7322443Y-9936484D01*
X7322443Y-9936484D02*
X7446253Y-9936484D01*
X7570062Y-9736484D02*
X7589110Y-9736484D01*
X7589110Y-9736484D02*
X7608158Y-9746008D01*
X7608158Y-9746008D02*
X7617682Y-9755531D01*
X7617682Y-9755531D02*
X7627205Y-9774579D01*
X7627205Y-9774579D02*
X7636729Y-9812674D01*
X7636729Y-9812674D02*
X7636729Y-9860293D01*
X7636729Y-9860293D02*
X7627205Y-9898389D01*
X7627205Y-9898389D02*
X7617682Y-9917436D01*
X7617682Y-9917436D02*
X7608158Y-9926960D01*
X7608158Y-9926960D02*
X7589110Y-9936484D01*
X7589110Y-9936484D02*
X7570062Y-9936484D01*
X7570062Y-9936484D02*
X7551015Y-9926960D01*
X7551015Y-9926960D02*
X7541491Y-9917436D01*
X7541491Y-9917436D02*
X7531967Y-9898389D01*
X7531967Y-9898389D02*
X7522443Y-9860293D01*
X7522443Y-9860293D02*
X7522443Y-9812674D01*
X7522443Y-9812674D02*
X7531967Y-9774579D01*
X7531967Y-9774579D02*
X7541491Y-9755531D01*
X7541491Y-9755531D02*
X7551015Y-9746008D01*
X7551015Y-9746008D02*
X7570062Y-9736484D01*
X7760539Y-9736484D02*
X7779586Y-9736484D01*
X7779586Y-9736484D02*
X7798634Y-9746008D01*
X7798634Y-9746008D02*
X7808158Y-9755531D01*
X7808158Y-9755531D02*
X7817682Y-9774579D01*
X7817682Y-9774579D02*
X7827205Y-9812674D01*
X7827205Y-9812674D02*
X7827205Y-9860293D01*
X7827205Y-9860293D02*
X7817682Y-9898389D01*
X7817682Y-9898389D02*
X7808158Y-9917436D01*
X7808158Y-9917436D02*
X7798634Y-9926960D01*
X7798634Y-9926960D02*
X7779586Y-9936484D01*
X7779586Y-9936484D02*
X7760539Y-9936484D01*
X7760539Y-9936484D02*
X7741491Y-9926960D01*
X7741491Y-9926960D02*
X7731967Y-9917436D01*
X7731967Y-9917436D02*
X7722443Y-9898389D01*
X7722443Y-9898389D02*
X7712920Y-9860293D01*
X7712920Y-9860293D02*
X7712920Y-9812674D01*
X7712920Y-9812674D02*
X7722443Y-9774579D01*
X7722443Y-9774579D02*
X7731967Y-9755531D01*
X7731967Y-9755531D02*
X7741491Y-9746008D01*
X7741491Y-9746008D02*
X7760539Y-9736484D01*
X7912920Y-9936484D02*
X7912920Y-9803150D01*
X7912920Y-9822198D02*
X7922443Y-9812674D01*
X7922443Y-9812674D02*
X7941491Y-9803150D01*
X7941491Y-9803150D02*
X7970063Y-9803150D01*
X7970063Y-9803150D02*
X7989110Y-9812674D01*
X7989110Y-9812674D02*
X7998634Y-9831722D01*
X7998634Y-9831722D02*
X7998634Y-9936484D01*
X7998634Y-9831722D02*
X8008158Y-9812674D01*
X8008158Y-9812674D02*
X8027205Y-9803150D01*
X8027205Y-9803150D02*
X8055777Y-9803150D01*
X8055777Y-9803150D02*
X8074824Y-9812674D01*
X8074824Y-9812674D02*
X8084348Y-9831722D01*
X8084348Y-9831722D02*
X8084348Y-9936484D01*
X8179586Y-9936484D02*
X8179586Y-9803150D01*
X8179586Y-9822198D02*
X8189110Y-9812674D01*
X8189110Y-9812674D02*
X8208158Y-9803150D01*
X8208158Y-9803150D02*
X8236729Y-9803150D01*
X8236729Y-9803150D02*
X8255777Y-9812674D01*
X8255777Y-9812674D02*
X8265301Y-9831722D01*
X8265301Y-9831722D02*
X8265301Y-9936484D01*
X8265301Y-9831722D02*
X8274824Y-9812674D01*
X8274824Y-9812674D02*
X8293872Y-9803150D01*
X8293872Y-9803150D02*
X8322443Y-9803150D01*
X8322443Y-9803150D02*
X8341491Y-9812674D01*
X8341491Y-9812674D02*
X8351015Y-9831722D01*
X8351015Y-9831722D02*
X8351015Y-9936484D01*
X8741491Y-9726960D02*
X8570063Y-9984103D01*
X8998634Y-9736484D02*
X9017682Y-9736484D01*
X9017682Y-9736484D02*
X9036729Y-9746008D01*
X9036729Y-9746008D02*
X9046253Y-9755531D01*
X9046253Y-9755531D02*
X9055777Y-9774579D01*
X9055777Y-9774579D02*
X9065301Y-9812674D01*
X9065301Y-9812674D02*
X9065301Y-9860293D01*
X9065301Y-9860293D02*
X9055777Y-9898389D01*
X9055777Y-9898389D02*
X9046253Y-9917436D01*
X9046253Y-9917436D02*
X9036729Y-9926960D01*
X9036729Y-9926960D02*
X9017682Y-9936484D01*
X9017682Y-9936484D02*
X8998634Y-9936484D01*
X8998634Y-9936484D02*
X8979587Y-9926960D01*
X8979587Y-9926960D02*
X8970063Y-9917436D01*
X8970063Y-9917436D02*
X8960539Y-9898389D01*
X8960539Y-9898389D02*
X8951015Y-9860293D01*
X8951015Y-9860293D02*
X8951015Y-9812674D01*
X8951015Y-9812674D02*
X8960539Y-9774579D01*
X8960539Y-9774579D02*
X8970063Y-9755531D01*
X8970063Y-9755531D02*
X8979587Y-9746008D01*
X8979587Y-9746008D02*
X8998634Y-9736484D01*
X9151015Y-9917436D02*
X9160539Y-9926960D01*
X9160539Y-9926960D02*
X9151015Y-9936484D01*
X9151015Y-9936484D02*
X9141491Y-9926960D01*
X9141491Y-9926960D02*
X9151015Y-9917436D01*
X9151015Y-9917436D02*
X9151015Y-9936484D01*
X9284348Y-9736484D02*
X9303396Y-9736484D01*
X9303396Y-9736484D02*
X9322444Y-9746008D01*
X9322444Y-9746008D02*
X9331968Y-9755531D01*
X9331968Y-9755531D02*
X9341491Y-9774579D01*
X9341491Y-9774579D02*
X9351015Y-9812674D01*
X9351015Y-9812674D02*
X9351015Y-9860293D01*
X9351015Y-9860293D02*
X9341491Y-9898389D01*
X9341491Y-9898389D02*
X9331968Y-9917436D01*
X9331968Y-9917436D02*
X9322444Y-9926960D01*
X9322444Y-9926960D02*
X9303396Y-9936484D01*
X9303396Y-9936484D02*
X9284348Y-9936484D01*
X9284348Y-9936484D02*
X9265301Y-9926960D01*
X9265301Y-9926960D02*
X9255777Y-9917436D01*
X9255777Y-9917436D02*
X9246253Y-9898389D01*
X9246253Y-9898389D02*
X9236729Y-9860293D01*
X9236729Y-9860293D02*
X9236729Y-9812674D01*
X9236729Y-9812674D02*
X9246253Y-9774579D01*
X9246253Y-9774579D02*
X9255777Y-9755531D01*
X9255777Y-9755531D02*
X9265301Y-9746008D01*
X9265301Y-9746008D02*
X9284348Y-9736484D01*
X9465301Y-9822198D02*
X9446253Y-9812674D01*
X9446253Y-9812674D02*
X9436729Y-9803150D01*
X9436729Y-9803150D02*
X9427206Y-9784103D01*
X9427206Y-9784103D02*
X9427206Y-9774579D01*
X9427206Y-9774579D02*
X9436729Y-9755531D01*
X9436729Y-9755531D02*
X9446253Y-9746008D01*
X9446253Y-9746008D02*
X9465301Y-9736484D01*
X9465301Y-9736484D02*
X9503396Y-9736484D01*
X9503396Y-9736484D02*
X9522444Y-9746008D01*
X9522444Y-9746008D02*
X9531968Y-9755531D01*
X9531968Y-9755531D02*
X9541491Y-9774579D01*
X9541491Y-9774579D02*
X9541491Y-9784103D01*
X9541491Y-9784103D02*
X9531968Y-9803150D01*
X9531968Y-9803150D02*
X9522444Y-9812674D01*
X9522444Y-9812674D02*
X9503396Y-9822198D01*
X9503396Y-9822198D02*
X9465301Y-9822198D01*
X9465301Y-9822198D02*
X9446253Y-9831722D01*
X9446253Y-9831722D02*
X9436729Y-9841246D01*
X9436729Y-9841246D02*
X9427206Y-9860293D01*
X9427206Y-9860293D02*
X9427206Y-9898389D01*
X9427206Y-9898389D02*
X9436729Y-9917436D01*
X9436729Y-9917436D02*
X9446253Y-9926960D01*
X9446253Y-9926960D02*
X9465301Y-9936484D01*
X9465301Y-9936484D02*
X9503396Y-9936484D01*
X9503396Y-9936484D02*
X9522444Y-9926960D01*
X9522444Y-9926960D02*
X9531968Y-9917436D01*
X9531968Y-9917436D02*
X9541491Y-9898389D01*
X9541491Y-9898389D02*
X9541491Y-9860293D01*
X9541491Y-9860293D02*
X9531968Y-9841246D01*
X9531968Y-9841246D02*
X9522444Y-9831722D01*
X9522444Y-9831722D02*
X9503396Y-9822198D01*
X9712920Y-9736484D02*
X9674825Y-9736484D01*
X9674825Y-9736484D02*
X9655777Y-9746008D01*
X9655777Y-9746008D02*
X9646253Y-9755531D01*
X9646253Y-9755531D02*
X9627206Y-9784103D01*
X9627206Y-9784103D02*
X9617682Y-9822198D01*
X9617682Y-9822198D02*
X9617682Y-9898389D01*
X9617682Y-9898389D02*
X9627206Y-9917436D01*
X9627206Y-9917436D02*
X9636729Y-9926960D01*
X9636729Y-9926960D02*
X9655777Y-9936484D01*
X9655777Y-9936484D02*
X9693872Y-9936484D01*
X9693872Y-9936484D02*
X9712920Y-9926960D01*
X9712920Y-9926960D02*
X9722444Y-9917436D01*
X9722444Y-9917436D02*
X9731968Y-9898389D01*
X9731968Y-9898389D02*
X9731968Y-9850770D01*
X9731968Y-9850770D02*
X9722444Y-9831722D01*
X9722444Y-9831722D02*
X9712920Y-9822198D01*
X9712920Y-9822198D02*
X9693872Y-9812674D01*
X9693872Y-9812674D02*
X9655777Y-9812674D01*
X9655777Y-9812674D02*
X9636729Y-9822198D01*
X9636729Y-9822198D02*
X9627206Y-9831722D01*
X9627206Y-9831722D02*
X9617682Y-9850770D01*
X9903396Y-9736484D02*
X9865301Y-9736484D01*
X9865301Y-9736484D02*
X9846253Y-9746008D01*
X9846253Y-9746008D02*
X9836729Y-9755531D01*
X9836729Y-9755531D02*
X9817682Y-9784103D01*
X9817682Y-9784103D02*
X9808158Y-9822198D01*
X9808158Y-9822198D02*
X9808158Y-9898389D01*
X9808158Y-9898389D02*
X9817682Y-9917436D01*
X9817682Y-9917436D02*
X9827206Y-9926960D01*
X9827206Y-9926960D02*
X9846253Y-9936484D01*
X9846253Y-9936484D02*
X9884349Y-9936484D01*
X9884349Y-9936484D02*
X9903396Y-9926960D01*
X9903396Y-9926960D02*
X9912920Y-9917436D01*
X9912920Y-9917436D02*
X9922444Y-9898389D01*
X9922444Y-9898389D02*
X9922444Y-9850770D01*
X9922444Y-9850770D02*
X9912920Y-9831722D01*
X9912920Y-9831722D02*
X9903396Y-9822198D01*
X9903396Y-9822198D02*
X9884349Y-9812674D01*
X9884349Y-9812674D02*
X9846253Y-9812674D01*
X9846253Y-9812674D02*
X9827206Y-9822198D01*
X9827206Y-9822198D02*
X9817682Y-9831722D01*
X9817682Y-9831722D02*
X9808158Y-9850770D01*
X9998634Y-9736484D02*
X9998634Y-9774579D01*
X10074825Y-9736484D02*
X10074825Y-9774579D01*
X10370063Y-10012674D02*
X10360539Y-10003150D01*
X10360539Y-10003150D02*
X10341491Y-9974579D01*
X10341491Y-9974579D02*
X10331968Y-9955531D01*
X10331968Y-9955531D02*
X10322444Y-9926960D01*
X10322444Y-9926960D02*
X10312920Y-9879341D01*
X10312920Y-9879341D02*
X10312920Y-9841246D01*
X10312920Y-9841246D02*
X10322444Y-9793627D01*
X10322444Y-9793627D02*
X10331968Y-9765055D01*
X10331968Y-9765055D02*
X10341491Y-9746008D01*
X10341491Y-9746008D02*
X10360539Y-9717436D01*
X10360539Y-9717436D02*
X10370063Y-9707912D01*
X10436730Y-9755531D02*
X10446253Y-9746008D01*
X10446253Y-9746008D02*
X10465301Y-9736484D01*
X10465301Y-9736484D02*
X10512920Y-9736484D01*
X10512920Y-9736484D02*
X10531968Y-9746008D01*
X10531968Y-9746008D02*
X10541491Y-9755531D01*
X10541491Y-9755531D02*
X10551015Y-9774579D01*
X10551015Y-9774579D02*
X10551015Y-9793627D01*
X10551015Y-9793627D02*
X10541491Y-9822198D01*
X10541491Y-9822198D02*
X10427206Y-9936484D01*
X10427206Y-9936484D02*
X10551015Y-9936484D01*
X10789111Y-9936484D02*
X10789111Y-9736484D01*
X10874825Y-9936484D02*
X10874825Y-9831722D01*
X10874825Y-9831722D02*
X10865301Y-9812674D01*
X10865301Y-9812674D02*
X10846253Y-9803150D01*
X10846253Y-9803150D02*
X10817682Y-9803150D01*
X10817682Y-9803150D02*
X10798634Y-9812674D01*
X10798634Y-9812674D02*
X10789111Y-9822198D01*
X10998634Y-9936484D02*
X10979587Y-9926960D01*
X10979587Y-9926960D02*
X10970063Y-9917436D01*
X10970063Y-9917436D02*
X10960539Y-9898389D01*
X10960539Y-9898389D02*
X10960539Y-9841246D01*
X10960539Y-9841246D02*
X10970063Y-9822198D01*
X10970063Y-9822198D02*
X10979587Y-9812674D01*
X10979587Y-9812674D02*
X10998634Y-9803150D01*
X10998634Y-9803150D02*
X11027206Y-9803150D01*
X11027206Y-9803150D02*
X11046253Y-9812674D01*
X11046253Y-9812674D02*
X11055777Y-9822198D01*
X11055777Y-9822198D02*
X11065301Y-9841246D01*
X11065301Y-9841246D02*
X11065301Y-9898389D01*
X11065301Y-9898389D02*
X11055777Y-9917436D01*
X11055777Y-9917436D02*
X11046253Y-9926960D01*
X11046253Y-9926960D02*
X11027206Y-9936484D01*
X11027206Y-9936484D02*
X10998634Y-9936484D01*
X11179587Y-9936484D02*
X11160539Y-9926960D01*
X11160539Y-9926960D02*
X11151015Y-9907912D01*
X11151015Y-9907912D02*
X11151015Y-9736484D01*
X11331968Y-9926960D02*
X11312920Y-9936484D01*
X11312920Y-9936484D02*
X11274825Y-9936484D01*
X11274825Y-9936484D02*
X11255777Y-9926960D01*
X11255777Y-9926960D02*
X11246253Y-9907912D01*
X11246253Y-9907912D02*
X11246253Y-9831722D01*
X11246253Y-9831722D02*
X11255777Y-9812674D01*
X11255777Y-9812674D02*
X11274825Y-9803150D01*
X11274825Y-9803150D02*
X11312920Y-9803150D01*
X11312920Y-9803150D02*
X11331968Y-9812674D01*
X11331968Y-9812674D02*
X11341491Y-9831722D01*
X11341491Y-9831722D02*
X11341491Y-9850770D01*
X11341491Y-9850770D02*
X11246253Y-9869817D01*
X11417682Y-9926960D02*
X11436730Y-9936484D01*
X11436730Y-9936484D02*
X11474825Y-9936484D01*
X11474825Y-9936484D02*
X11493872Y-9926960D01*
X11493872Y-9926960D02*
X11503396Y-9907912D01*
X11503396Y-9907912D02*
X11503396Y-9898389D01*
X11503396Y-9898389D02*
X11493872Y-9879341D01*
X11493872Y-9879341D02*
X11474825Y-9869817D01*
X11474825Y-9869817D02*
X11446253Y-9869817D01*
X11446253Y-9869817D02*
X11427206Y-9860293D01*
X11427206Y-9860293D02*
X11417682Y-9841246D01*
X11417682Y-9841246D02*
X11417682Y-9831722D01*
X11417682Y-9831722D02*
X11427206Y-9812674D01*
X11427206Y-9812674D02*
X11446253Y-9803150D01*
X11446253Y-9803150D02*
X11474825Y-9803150D01*
X11474825Y-9803150D02*
X11493872Y-9812674D01*
X11570063Y-10012674D02*
X11579587Y-10003150D01*
X11579587Y-10003150D02*
X11598634Y-9974579D01*
X11598634Y-9974579D02*
X11608158Y-9955531D01*
X11608158Y-9955531D02*
X11617682Y-9926960D01*
X11617682Y-9926960D02*
X11627206Y-9879341D01*
X11627206Y-9879341D02*
X11627206Y-9841246D01*
X11627206Y-9841246D02*
X11617682Y-9793627D01*
X11617682Y-9793627D02*
X11608158Y-9765055D01*
X11608158Y-9765055D02*
X11598634Y-9746008D01*
X11598634Y-9746008D02*
X11579587Y-9717436D01*
X11579587Y-9717436D02*
X11570063Y-9707912D01*
X11931968Y-10012674D02*
X11922444Y-10003150D01*
X11922444Y-10003150D02*
X11903396Y-9974579D01*
X11903396Y-9974579D02*
X11893872Y-9955531D01*
X11893872Y-9955531D02*
X11884349Y-9926960D01*
X11884349Y-9926960D02*
X11874825Y-9879341D01*
X11874825Y-9879341D02*
X11874825Y-9841246D01*
X11874825Y-9841246D02*
X11884349Y-9793627D01*
X11884349Y-9793627D02*
X11893872Y-9765055D01*
X11893872Y-9765055D02*
X11903396Y-9746008D01*
X11903396Y-9746008D02*
X11922444Y-9717436D01*
X11922444Y-9717436D02*
X11931968Y-9707912D01*
X12008158Y-9803150D02*
X12008158Y-9936484D01*
X12008158Y-9822198D02*
X12017682Y-9812674D01*
X12017682Y-9812674D02*
X12036730Y-9803150D01*
X12036730Y-9803150D02*
X12065301Y-9803150D01*
X12065301Y-9803150D02*
X12084349Y-9812674D01*
X12084349Y-9812674D02*
X12093872Y-9831722D01*
X12093872Y-9831722D02*
X12093872Y-9936484D01*
X12217682Y-9936484D02*
X12198634Y-9926960D01*
X12198634Y-9926960D02*
X12189111Y-9917436D01*
X12189111Y-9917436D02*
X12179587Y-9898389D01*
X12179587Y-9898389D02*
X12179587Y-9841246D01*
X12179587Y-9841246D02*
X12189111Y-9822198D01*
X12189111Y-9822198D02*
X12198634Y-9812674D01*
X12198634Y-9812674D02*
X12217682Y-9803150D01*
X12217682Y-9803150D02*
X12246253Y-9803150D01*
X12246253Y-9803150D02*
X12265301Y-9812674D01*
X12265301Y-9812674D02*
X12274825Y-9822198D01*
X12274825Y-9822198D02*
X12284349Y-9841246D01*
X12284349Y-9841246D02*
X12284349Y-9898389D01*
X12284349Y-9898389D02*
X12274825Y-9917436D01*
X12274825Y-9917436D02*
X12265301Y-9926960D01*
X12265301Y-9926960D02*
X12246253Y-9936484D01*
X12246253Y-9936484D02*
X12217682Y-9936484D01*
X12341492Y-9803150D02*
X12417682Y-9803150D01*
X12370063Y-9736484D02*
X12370063Y-9907912D01*
X12370063Y-9907912D02*
X12379587Y-9926960D01*
X12379587Y-9926960D02*
X12398634Y-9936484D01*
X12398634Y-9936484D02*
X12417682Y-9936484D01*
X12636730Y-9803150D02*
X12636730Y-10003150D01*
X12636730Y-9812674D02*
X12655777Y-9803150D01*
X12655777Y-9803150D02*
X12693873Y-9803150D01*
X12693873Y-9803150D02*
X12712920Y-9812674D01*
X12712920Y-9812674D02*
X12722444Y-9822198D01*
X12722444Y-9822198D02*
X12731968Y-9841246D01*
X12731968Y-9841246D02*
X12731968Y-9898389D01*
X12731968Y-9898389D02*
X12722444Y-9917436D01*
X12722444Y-9917436D02*
X12712920Y-9926960D01*
X12712920Y-9926960D02*
X12693873Y-9936484D01*
X12693873Y-9936484D02*
X12655777Y-9936484D01*
X12655777Y-9936484D02*
X12636730Y-9926960D01*
X12846253Y-9936484D02*
X12827206Y-9926960D01*
X12827206Y-9926960D02*
X12817682Y-9907912D01*
X12817682Y-9907912D02*
X12817682Y-9736484D01*
X13008158Y-9936484D02*
X13008158Y-9831722D01*
X13008158Y-9831722D02*
X12998634Y-9812674D01*
X12998634Y-9812674D02*
X12979587Y-9803150D01*
X12979587Y-9803150D02*
X12941492Y-9803150D01*
X12941492Y-9803150D02*
X12922444Y-9812674D01*
X13008158Y-9926960D02*
X12989111Y-9936484D01*
X12989111Y-9936484D02*
X12941492Y-9936484D01*
X12941492Y-9936484D02*
X12922444Y-9926960D01*
X12922444Y-9926960D02*
X12912920Y-9907912D01*
X12912920Y-9907912D02*
X12912920Y-9888865D01*
X12912920Y-9888865D02*
X12922444Y-9869817D01*
X12922444Y-9869817D02*
X12941492Y-9860293D01*
X12941492Y-9860293D02*
X12989111Y-9860293D01*
X12989111Y-9860293D02*
X13008158Y-9850770D01*
X13074825Y-9803150D02*
X13151015Y-9803150D01*
X13103396Y-9736484D02*
X13103396Y-9907912D01*
X13103396Y-9907912D02*
X13112920Y-9926960D01*
X13112920Y-9926960D02*
X13131968Y-9936484D01*
X13131968Y-9936484D02*
X13151015Y-9936484D01*
X13293873Y-9926960D02*
X13274825Y-9936484D01*
X13274825Y-9936484D02*
X13236730Y-9936484D01*
X13236730Y-9936484D02*
X13217682Y-9926960D01*
X13217682Y-9926960D02*
X13208158Y-9907912D01*
X13208158Y-9907912D02*
X13208158Y-9831722D01*
X13208158Y-9831722D02*
X13217682Y-9812674D01*
X13217682Y-9812674D02*
X13236730Y-9803150D01*
X13236730Y-9803150D02*
X13274825Y-9803150D01*
X13274825Y-9803150D02*
X13293873Y-9812674D01*
X13293873Y-9812674D02*
X13303396Y-9831722D01*
X13303396Y-9831722D02*
X13303396Y-9850770D01*
X13303396Y-9850770D02*
X13208158Y-9869817D01*
X13474825Y-9936484D02*
X13474825Y-9736484D01*
X13474825Y-9926960D02*
X13455777Y-9936484D01*
X13455777Y-9936484D02*
X13417682Y-9936484D01*
X13417682Y-9936484D02*
X13398634Y-9926960D01*
X13398634Y-9926960D02*
X13389111Y-9917436D01*
X13389111Y-9917436D02*
X13379587Y-9898389D01*
X13379587Y-9898389D02*
X13379587Y-9841246D01*
X13379587Y-9841246D02*
X13389111Y-9822198D01*
X13389111Y-9822198D02*
X13398634Y-9812674D01*
X13398634Y-9812674D02*
X13417682Y-9803150D01*
X13417682Y-9803150D02*
X13455777Y-9803150D01*
X13455777Y-9803150D02*
X13474825Y-9812674D01*
X13551015Y-10012674D02*
X13560539Y-10003150D01*
X13560539Y-10003150D02*
X13579587Y-9974579D01*
X13579587Y-9974579D02*
X13589111Y-9955531D01*
X13589111Y-9955531D02*
X13598634Y-9926960D01*
X13598634Y-9926960D02*
X13608158Y-9879341D01*
X13608158Y-9879341D02*
X13608158Y-9841246D01*
X13608158Y-9841246D02*
X13598634Y-9793627D01*
X13598634Y-9793627D02*
X13589111Y-9765055D01*
X13589111Y-9765055D02*
X13579587Y-9746008D01*
X13579587Y-9746008D02*
X13560539Y-9717436D01*
X13560539Y-9717436D02*
X13551015Y-9707912D01*
M02*
